<?xml version="1.0" encoding="utf-8"?>
<!-- Generator: Adobe Illustrator 19.2.1, SVG Export Plug-In . SVG Version: 6.00 Build 0)  -->
<svg version="1.1" id="Capa_1" xmlns="http://www.w3.org/2000/svg" xmlns:xlink="http://www.w3.org/1999/xlink" x="0px" y="0px"
	 viewBox="0 0 100 100" style="enable-background:new 0 0 100 100;" xml:space="preserve" width="100" height="100">
<style type="text/css">
	.st0{fill-rule:evenodd;clip-rule:evenodd;fill:#222220;}
	.st1{fill-rule:evenodd;clip-rule:evenodd;fill:#C5332B;}
	.st2{fill:#222220;}
</style>
<g>
	<polyline class="st0" points="61.4,86.1 50.1,74.8 38.6,86.1 61.4,86.1 	"/>
	<polyline class="st0" points="61.4,14 50.1,25.4 38.6,14 61.4,14 	"/>
	<path class="st1" d="M100,50l-0.3-5.6l-1-5.4l-1.5-5.4l-2.2-5.2l-2.7-4.9L89,19.1l-3.7-4.2l-4.1-3.7L76.6,8l-4.9-2.7l-5.2-2.2
		l-5.4-1.5l-5.4-1l-5.6-0.3l-5.6,0.3l-5.6,1l-5.4,1.5l-5.2,2.2L23.5,8L19,11.2l-4.2,3.7L11,19.1l-3.2,4.4l-2.7,4.9l-2.2,5.2L1.4,39
		l-1,5.4L0,50l0.3,5.6l1,5.6l1.5,5.4l2.2,5.1l2.7,4.9l3.2,4.6l3.7,4.2L19,89l4.6,3.2l4.7,2.7l5.2,2.2l5.4,1.5l5.6,1l5.6,0.2l5.6-0.2
		l5.4-1l5.4-1.5l5.2-2.2l4.9-2.7l4.6-3.2l4.1-3.7l3.7-4.2l3.2-4.6l2.7-4.9l2.2-5.1l1.5-5.4l1-5.6L100,50 M88,50l-0.3-4.9l-1-4.9
		l-1.5-4.6l-2.2-4.6L80.2,27l-3.4-3.7l-3.7-3.2L69,17.2l-4.6-2.2l-4.6-1.5l-4.9-1l-4.9-0.3L45,12.5l-4.9,1l-4.6,1.5L31,17.2
		l-4.1,2.9l-3.7,3.2L20,27l-2.9,4.1l-2.2,4.6l-1.5,4.6l-1,4.9L12,50l0.3,5.1l1,4.7l1.5,4.7l2.2,4.6l2.9,4.1l3.2,3.7l3.7,3.2l4.1,2.9
		l4.6,2.2l4.6,1.5l4.9,1l5.1,0.3l4.9-0.3l4.9-1l4.6-1.5l4.6-2.2l4.1-2.9l3.7-3.2l3.4-3.7l2.7-4.1l2.2-4.6l1.5-4.7l1-4.7L88,50z"/>
	<polyline class="st0" points="81.9,56.1 81,54.6 79.5,53.5 77.8,53.2 76.1,53.7 74.8,54.7 73.6,53.9 72.2,53.4 70.7,53.4 
		69.4,53.9 69.4,53.4 66.5,53.4 66.5,65 69.4,65 69.4,58.1 69.5,57.3 70.2,56.6 71.1,56.4 72.1,56.6 72.8,57.3 72.9,58.1 72.9,65 
		75.8,65 75.8,58.1 76.1,57.3 76.8,56.6 77.7,56.4 78.5,56.6 79.2,57.3 79.5,58.1 79.5,65 82.4,65 82.4,58.1 81.9,56.1 	"/>
	<polyline class="st2" points="58.4,51.9 55.5,53.2 53,55.1 50.9,57.4 49.4,60.3 64.5,60.3 64.5,65 44,65 44.3,61.1 45.7,57.4 
		47.5,54.1 50.3,51.2 53.5,48.8 57.2,47.3 58.9,46.3 59.7,44.4 59.6,42.4 58.4,40.7 56.3,39.7 54.1,39.4 52.5,39.7 50.8,40.5 
		49.6,41.9 48.9,43.8 44.3,42.7 45.2,40 46.9,37.8 48.9,36.2 51.4,35 54.1,34.6 56.7,35 59.1,35.8 61.3,37.2 62.8,38.7 64,40.7 
		64.5,43.1 64.3,45.3 63.6,47.5 62.3,49.3 60.6,50.8 58.4,51.9 	"/>
	<polyline class="st2" points="39.3,68.6 39.3,67.4 38.7,66.2 38.2,65.4 38.4,64.4 38.9,63.7 39.9,63.2 40.8,63.3 41.6,64 41.8,65 
		41.6,66.5 40.6,67.9 39.3,68.6 	"/>
	<path class="st0" d="M29.1,57.3H14.4v-2.7l14.7-19.4h4.7V53h2.7v4.2h-2.7V65h-4.7V57.3 M29.1,42.2L20.8,53h8.3V42.2z"/>
</g>
</svg>
