<?xml version="1.0" encoding="utf-8"?>
<!-- Generator: Adobe Illustrator 19.2.1, SVG Export Plug-In . SVG Version: 6.00 Build 0)  -->
<svg version="1.1" id="Capa_1" xmlns="http://www.w3.org/2000/svg" xmlns:xlink="http://www.w3.org/1999/xlink" x="0px" y="0px"
	 viewBox="0 0 100 100" style="enable-background:new 0 0 100 100;" xml:space="preserve" width="100" height="100">
<style type="text/css">
	.st0{fill-rule:evenodd;clip-rule:evenodd;fill:#222220;}
	.st1{fill-rule:evenodd;clip-rule:evenodd;fill:#C5332B;}
	.st2{fill:#222220;}
</style>
<g>
	<polyline class="st0" points="13.9,38.7 25.3,50 13.9,61.5 13.9,38.7 	"/>
	<polyline class="st0" points="86.3,38.7 74.9,50 86.3,61.5 86.3,38.7 	"/>
	<path class="st1" d="M100,50l-0.3-5.6L98.8,39l-1.5-5.4l-2.2-5.2l-2.7-4.9l-3.2-4.6l-3.7-4.1l-4.2-3.7l-4.6-3.2l-4.9-2.7L66.6,3
		l-5.4-1.5l-5.6-1L50,0.1l-5.6,0.3l-5.4,1L33.6,3l-5.3,2.2l-4.9,2.7l-4.6,3.2l-4.1,3.7L11,18.9l-3.2,4.6l-2.7,4.9l-2.2,5.2L1.4,39
		l-1,5.4L0,50l0.3,5.6l1,5.6l1.5,5.4l2.2,5.1l2.7,4.9l3.2,4.6l3.7,4.2l4.1,3.7l4.6,3.2l4.9,2.7l5.3,2.2l5.4,1.5l5.4,0.8l5.6,0.3
		l5.6-0.3l5.6-0.8l5.4-1.5l5.1-2.2l4.9-2.7l4.6-3.2l4.2-3.7l3.7-4.2l3.2-4.6l2.7-4.9l2.2-5.1l1.5-5.4l0.8-5.6L100,50 M88,50
		l-0.2-4.9l-1-4.9l-1.7-4.6L82.9,31L80.2,27L77,23.3l-3.7-3.4L69,17.2L64.6,15l-4.7-1.5l-4.7-1L50,12.1l-4.9,0.3l-4.9,1L35.6,15
		L31,17.2l-4.1,2.7l-3.7,3.4L20,27L17.1,31l-2.2,4.6l-1.5,4.6l-1,4.9L12,50l0.3,5.1l1,4.7l1.5,4.7l2.2,4.4l2.9,4.2l3.2,3.7l3.7,3.2
		l4.1,2.7l4.6,2.2l4.6,1.7l4.9,1l4.9,0.3l5.1-0.3l4.7-1l4.7-1.7l4.4-2.2l4.2-2.7l3.7-3.2l3.2-3.7l2.7-4.2l2.2-4.4l1.7-4.7l1-4.7
		L88,50z"/>
	<polyline class="st2" points="37.8,47.3 34.2,48.8 31,51.2 28.3,54.1 26.3,57.4 25.1,61.2 24.6,65.1 45.1,65.1 45.1,60.3 30,60.3 
		31.5,57.4 33.6,55.1 36.1,53.2 39,51.9 41.2,50.8 42.9,49.3 44.2,47.5 45.1,45.3 45.1,43.1 44.6,40.7 43.6,38.7 41.9,37.1 
		39.8,35.8 37.5,34.9 34.9,34.6 32.2,34.9 29.7,36.1 27.5,37.8 25.9,40 24.9,42.7 29.5,43.6 30.2,41.9 31.5,40.5 33.1,39.5 
		34.9,39.3 37.1,39.7 39,40.7 40.2,42.4 40.3,44.4 39.5,46.3 37.8,47.3 	"/>
	<polyline class="st0" points="44.7,72 41.9,72 41.9,84 44.7,84 44.7,76.9 45.1,76.1 45.8,75.2 46.6,75 47.6,75.2 48.3,76.1 
		48.5,76.9 48.5,84 51.5,84 51.5,76.9 51.9,76.1 52.5,75.2 53.4,75 54.4,75.2 55.1,76.1 55.3,76.9 55.3,84 58.3,84 58.3,76.9 
		57.8,74.7 56.9,73.2 55.4,72.2 53.6,71.8 51.9,72.3 50.3,73.3 49.2,72.3 47.8,71.8 46.3,71.8 44.7,72.3 44.7,72 	"/>
	<polyline class="st2" points="47.8,68.6 47.8,67.4 47.5,66.2 46.9,65.4 46.9,64.4 47.6,63.7 48.5,63.2 49.5,63.4 50.2,64 
		50.5,65.1 50.2,66.6 49.3,67.9 47.8,68.6 	"/>
	<path class="st0" d="M65.8,57.3H51v-2.7l14.7-19.5h4.6V53h2.7v4.2h-2.7v7.8h-4.6V57.3 M65.8,42.2L57.5,53h8.3V42.2z"/>
</g>
</svg>
