<?xml version="1.0" encoding="utf-8"?>
<!-- Generator: Adobe Illustrator 19.2.1, SVG Export Plug-In . SVG Version: 6.00 Build 0)  -->
<svg version="1.1" id="Capa_1" xmlns="http://www.w3.org/2000/svg" xmlns:xlink="http://www.w3.org/1999/xlink" x="0px" y="0px"
	 viewBox="0 0 100 100" style="enable-background:new 0 0 100 100;" xml:space="preserve" width="100" height="100">
<style type="text/css">
	.st0{fill-rule:evenodd;clip-rule:evenodd;fill:#C5332B;}
</style>
<path class="st0" d="M14.6,16.8L50,78.1l35.5-61.3H14.6 M99.3,14.6l0.4-0.9l0.3-1l0-1l0-1l-0.3-1l-0.4-0.9L98.7,8l-0.7-0.7l-0.8-0.6
	l-0.9-0.4l-1-0.3l-1-0.1H5.8L4.8,6L3.8,6.3L2.9,6.7L2.1,7.3L1.4,8L0.8,8.8L0.3,9.8l-0.2,1l-0.1,1l0.1,1l0.2,1l0.4,0.9L45,91.2
	l0.5,0.8l0.7,0.7l0.8,0.6l0.9,0.4l1,0.3l1,0.1l1-0.1l1-0.3l0.9-0.4l0.8-0.6l0.7-0.7l0.6-0.8L99.3,14.6z"/>
</svg>
