<?xml version="1.0" encoding="utf-8"?>
<!-- Generator: Adobe Illustrator 19.2.1, SVG Export Plug-In . SVG Version: 6.00 Build 0)  -->
<svg version="1.1" id="Capa_1" xmlns="http://www.w3.org/2000/svg" xmlns:xlink="http://www.w3.org/1999/xlink" x="0px" y="0px"
	 viewBox="0 0 100 100" style="enable-background:new 0 0 100 100;" xml:space="preserve" width="100" height="100">
<style type="text/css">
	.st0{fill:#222220;}
	.st1{fill-rule:evenodd;clip-rule:evenodd;fill:#C5332B;}
</style>
<g>
	<polyline class="st0" points="61.3,76.9 70.2,76.9 70.2,35.4 75,36.3 76.1,36 76.8,35.1 77.2,33.9 76.8,32.9 65.8,19.4 54.8,32.9 
		54.5,33.9 54.7,35.1 55.5,36 56.5,36.3 61.3,35.4 61.3,76.9 	"/>
	<polyline class="st0" points="30.1,22.9 39.3,22.9 39.3,64.4 43.8,63.7 45,63.9 45.9,64.7 46,65.9 45.7,66.9 34.7,80.5 23.7,66.9 
		23.4,65.9 23.5,64.7 24.4,63.9 25.5,63.7 30.1,64.4 30.1,22.9 	"/>
	<path class="st1" d="M88,50l-0.3-5.1l-1-4.7l-1.5-4.7l-2.2-4.6L80,26.8l-3.2-3.7l-3.7-3.2L69,17l-4.6-2.2l-4.6-1.5l-4.9-1l-4.9-0.3
		L45,12.3l-4.9,1l-4.6,1.5L31,17l-4.1,2.9l-3.7,3.2L20,26.8l-2.9,4.1l-2.2,4.6l-1.5,4.7l-1,4.7L12,50l0.3,4.9l1,4.9l1.5,4.6l2.2,4.6
		L20,73l3.2,3.7l3.7,3.2l4.1,2.9l4.6,2.2l4.6,1.5l4.9,1l5.1,0.3l4.9-0.3l4.9-1l4.6-1.5l4.6-2.2l4.1-2.9l3.7-3.2L80,73l2.9-4.1
		l2.2-4.6l1.5-4.6l1-4.9L88,50 M100,50l-0.3-5.6l-1-5.6l-1.5-5.4l-2.2-5.1l-2.7-4.9L89,18.9l-3.7-4.2l-4.1-3.7l-4.6-3.2L71.7,5
		l-5.2-2.2l-5.4-1.5l-5.4-1l-5.6-0.2l-5.8,0.2l-5.4,1l-5.4,1.5L28.3,5l-4.9,2.7l-4.6,3.2l-4.1,3.7L11,18.9l-3.2,4.6l-2.7,4.9
		l-2.2,5.1l-1.5,5.4l-1,5.6L0,50l0.3,5.6l1,5.4l1.5,5.4l2.2,5.2l2.7,4.9L11,81l3.7,4.2l4.1,3.7l4.6,3.2l4.9,2.7l5.2,2.2l5.4,1.5
		l5.4,1l5.8,0.3l5.6-0.3l5.4-1l5.4-1.5l5.2-2.2l4.9-2.7l4.6-3.2l4.1-3.7L89,81l3.2-4.4l2.7-4.9l2.2-5.2l1.5-5.4l1-5.4L100,50z"/>
</g>
</svg>
