<?xml version="1.0" encoding="utf-8"?>
<!-- Generator: Adobe Illustrator 19.2.1, SVG Export Plug-In . SVG Version: 6.00 Build 0)  -->
<svg version="1.1" id="Capa_1" xmlns="http://www.w3.org/2000/svg" xmlns:xlink="http://www.w3.org/1999/xlink" x="0px" y="0px"
	 viewBox="0 0 100 100" style="enable-background:new 0 0 100 100;" xml:space="preserve" width="100" height="100">
<style type="text/css">
	.st0{fill:#222220;}
	.st1{fill-rule:evenodd;clip-rule:evenodd;fill:#C5332B;}
	.st2{fill-rule:evenodd;clip-rule:evenodd;fill:#222220;}
</style>
<g>
	<path class="st0" d="M77.9,100H22.1l-1.2-0.2l-1.1-0.4l-1-0.6l-0.9-0.9l-0.6-1l-0.4-1.1l-0.2-1.2l0-89.2l0.2-1.2l0.4-1.1l0.6-1
		l0.9-0.9l1-0.6l1.1-0.4L22.1,0h55.9l1.2,0.2l1.1,0.4l1,0.6l0.9,0.9l0.6,1l0.4,1.1l0.2,1.2v89.2l-0.2,1.2l-0.4,1.1l-0.6,1l-0.9,0.9
		l-1,0.6l-1.1,0.4L77.9,100C77.9,100,77.9,100,77.9,100L77.9,100z M77.9,0.2H22.1l-1.2,0.2l-1.1,0.4l-1,0.6L18,2.2l-0.6,1L17,4.3
		l-0.2,1.2v89.2l0.2,1.2l0.4,1.1l0.6,1l0.8,0.8l1,0.6l1.1,0.4l1.2,0.2h55.8l1.2-0.2l1.1-0.4l1-0.6l0.8-0.9l0.6-1l0.4-1.1l0.2-1.2
		l0-89.2L83,4.2l-0.4-1.1l-0.6-1l-0.8-0.8l-1-0.6l-1.1-0.4L77.9,0.2L77.9,0.2z"/>
	<polyline class="st0" points="50,37.6 65.3,37.6 66.3,37.4 67.3,36.9 68.1,36.3 68.8,35.4 69.2,34.4 69.4,33.3 69.2,32.3 
		68.8,31.3 68.1,30.4 67.3,29.7 66.3,29.3 65.3,29.2 34.8,29.2 33.7,29.3 32.7,29.7 31.9,30.4 31.2,31.3 30.8,32.3 30.6,33.3 
		30.8,34.4 31.2,35.4 31.9,36.3 32.7,36.9 33.7,37.4 34.8,37.6 50,37.6 	"/>
	<path class="st1" d="M77.7,33.3l-0.2-2.9l-0.5-2.8l-0.7-2.8l-1.1-2.7L74,19.5l-1.6-2.4l-1.8-2.3l-2-2L66.3,11l-2.4-1.6l-2.6-1.3
		L58.5,7l-2.7-0.7l-2.9-0.5L50,5.6l-2.9,0.2l-2.9,0.5L41.5,7l-2.7,1.1l-2.6,1.3L33.7,11l-2.3,1.8l-2,2l-1.8,2.3L26,19.5l-1.3,2.6
		l-1.1,2.7l-0.7,2.8l-0.5,2.8l-0.2,2.9l0.2,2.9l0.5,2.9l0.7,2.8l1.1,2.7l1.3,2.6l1.6,2.4l1.8,2.3l2,2l2.3,1.8l2.4,1.6l2.6,1.3l2.7,1
		l2.7,0.8l2.9,0.5l2.9,0.2l2.9-0.2l2.9-0.5l2.7-0.8l2.7-1l2.6-1.3l2.4-1.6l2.3-1.8l2-2l1.8-2.3l1.6-2.4l1.3-2.6l1.1-2.7l0.7-2.8
		l0.5-2.9L77.7,33.3 M71,33.3l-0.2-2.5l-0.5-2.5l-0.8-2.4l-1-2.3l-1.3-2.2l-1.6-2l-1.8-1.8L62,16l-2.2-1.3l-2.3-1L55,12.9l-2.5-0.5
		L50,12.3l-2.6,0.2L45,12.9l-2.4,0.8l-2.3,1L38,16l-2,1.6l-1.8,1.8l-1.6,2l-1.3,2.2l-1.1,2.3l-0.7,2.4l-0.5,2.5L29,33.3l0.2,2.6
		l0.5,2.5l0.7,2.4l1.1,2.3l1.3,2.1l1.6,2l1.8,1.8l2,1.6l2.2,1.3l2.3,1l2.4,0.8l2.4,0.5l2.6,0.2l2.5-0.2l2.5-0.5l2.4-0.8l2.3-1
		l2.2-1.3l2-1.6l1.8-1.8l1.6-2l1.3-2.1l1-2.3l0.8-2.4l0.5-2.5L71,33.3z"/>
	<path class="st2" d="M77.9,95.9l0.6-0.2l0.5-0.5l0.2-0.6V5.4L79,4.8l-0.5-0.5l-0.6-0.2H22.1l-0.6,0.2l-0.5,0.5l-0.2,0.6v89.2
		l0.2,0.6l0.5,0.5l0.6,0.2H77.9 M77.9,98.6l1-0.2l0.9-0.4l0.9-0.6l0.6-0.9l0.4-0.9l0.2-1V5.4l-0.2-1l-0.4-0.9l-0.6-0.9L79.9,2
		l-0.9-0.4l-1-0.2H22.1l-1,0.2L20.1,2l-0.9,0.6l-0.6,0.9l-0.4,0.9l-0.2,1v89.2l0.2,1l0.4,0.9l0.6,0.9l0.9,0.6l0.9,0.4l1,0.2H77.9z"
		/>
	<path class="st2" d="M35.2,73.7l0.5,0.7l0.8,0.2l0.8-0.2l0.5-0.7l0.2-1.3v-1.3L37.7,70l-0.5-0.6L36.5,69l-0.8,0.3L35.2,70L35,71.2
		v1.3L35.2,73.7 M49.4,69.2h-1.7V68h4.7v1.2h-1.7v6.6h-1.3V69.2z M41,68h1.2l2.8,5.1V68h1.3v7.7h-1.2l-2.8-5.2v5.2H41V68z
		 M56.6,71.1l0.5-0.2l0.4-0.3l0.1-0.5l-0.1-0.5l-0.4-0.3l-0.5-0.2h-1.7v2H56.6z M67.7,68h1.2v6.5h3.5v1.3h-4.7V68z M61.8,73.7
		l0.5,0.7l0.8,0.2l0.8-0.2l0.5-0.7l0.2-1.3v-1.3L64.3,70l-0.5-0.6L63.1,69l-0.8,0.3L61.8,70l-0.2,1.3v1.3L61.8,73.7z M32.3,69.5
		l-0.4-0.6l-0.5-0.5L30.8,68L30,67.8l-0.7,0.1l-0.7,0.3L28,68.7l-0.4,0.6l-0.4,1.3l-0.1,1.3l0.1,1.3l0.4,1.2L28,75l0.6,0.5l0.6,0.2
		l0.8,0.1l0.7-0.1l0.7-0.4l0.5-0.5l0.3-0.7l-1.2-0.4l-0.4,0.7L30,74.6l-0.7-0.2l-0.5-0.5l-0.3-1.3v-1.4l0.3-1.3l0.5-0.6L30,69
		l0.7,0.3l0.5,0.5L32.3,69.5z M38.9,74l0.2-1.4v-1.5l-0.2-1.5l-0.4-0.7L38,68.3L37.3,68l-0.8-0.2L35.7,68l-0.8,0.3l-0.5,0.6L34,69.6
		l-0.3,1.5v1.5L34,74l0.3,0.8l0.5,0.5l0.8,0.4l0.8,0.1l0.8-0.1l0.7-0.4l0.5-0.5L38.9,74z M53.8,68h2.9l0.9,0.2l0.8,0.6l0.4,0.9v1
		l-0.4,0.9l-0.8,0.6l1.4,3.6h-1.3l-1.3-3.4h-1.5v3.4h-1.2V68z M63.1,75.8l0.8-0.1l0.7-0.4l0.6-0.5l0.3-0.8l0.3-1.4v-1.5l-0.3-1.5
		l-0.3-0.7l-0.6-0.6L63.8,68l-0.8-0.2L62.3,68l-0.7,0.3L61,68.9l-0.4,0.7l-0.2,1.5v1.5l0.2,1.4l0.4,0.8l0.5,0.5l0.7,0.4L63.1,75.8z"
		/>
	<path class="st2" d="M58,81.3h1.2l2.9,5.1v-5.1h1.2V89H62l-2.8-5.2V89H58V81.3 M39,87.8l0.5-0.1l0.5-0.3l0.3-0.5l0.3-1.1v-1.2
		l-0.3-1.2l-0.3-0.5l-0.5-0.3L39,82.5h-1v5.3H39z M31.5,81.3h1.2l2.7,7.7h-1.3l-0.8-2.2h-2.4L30.1,89h-1.3L31.5,81.3z M33,85.7
		l-0.8-2.3l-0.9,2.3H33z M53.1,81.3h1.1L57,89h-1.3l-0.7-2.2h-2.4L51.7,89h-1.3L53.1,81.3z M54.5,85.7l-0.8-2.3l-0.8,2.3H54.5z
		 M67.3,81.3h1.1l2.7,7.7h-1.3l-0.7-2.2h-2.4L65.9,89h-1.3L67.3,81.3z M68.6,85.7l-0.8-2.3l-0.8,2.3H68.6z M43.8,86.5l0.2,0.8
		l0.4,0.8l0.5,0.5l0.7,0.4l0.9,0.1l0.8-0.1l0.7-0.4l0.5-0.5l0.4-0.8l0.2-0.8v-5.2h-1.3v5.2l-0.1,0.5l-0.3,0.5L47,87.9l-0.5,0.1
		l-0.5-0.1l-0.5-0.3l-0.3-0.5l-0.1-0.5v-5.2h-1.3V86.5z M36.8,81.3H39l0.8,0.1l0.7,0.3l0.6,0.5l0.4,0.7l0.4,1.1l0.1,1.1l-0.1,1.2
		l-0.4,1.1l-0.4,0.7l-0.6,0.5l-0.7,0.3L39,89h-2.2V81.3z"/>
</g>
</svg>
