<?xml version="1.0" encoding="utf-8"?>
<!-- Generator: Adobe Illustrator 19.2.1, SVG Export Plug-In . SVG Version: 6.00 Build 0)  -->
<svg version="1.1" id="Capa_1" xmlns="http://www.w3.org/2000/svg" xmlns:xlink="http://www.w3.org/1999/xlink" x="0px" y="0px"
	 viewBox="0 0 100 100" style="enable-background:new 0 0 100 100;" xml:space="preserve" width="100" height="100">
<style type="text/css">
	.st0{fill-rule:evenodd;clip-rule:evenodd;fill:#C5332B;}
	.st1{fill-rule:evenodd;clip-rule:evenodd;fill:#222220;}
</style>
<g>
	<path class="st0" d="M88,50l-0.3-4.9l-1-4.9l-1.5-4.7L82.9,31L80,27l-3.2-3.9L73,19.8L69,17.1l-4.6-2.2l-4.6-1.7l-4.9-0.8L50,12
		l-5.1,0.3l-4.7,0.8l-4.7,1.7l-4.6,2.2l-4.1,2.7l-3.7,3.2L19.8,27L17,31l-2.2,4.4l-1.5,4.7l-1,4.9L11.9,50l0.3,4.9l1,4.9l1.5,4.7
		L17,69l2.9,4.2l3.2,3.7l3.7,3.2l4.1,2.7l4.6,2.2l4.7,1.7l4.7,0.8L50,88l4.9-0.3l4.9-0.8l4.6-1.7l4.6-2.2l4.1-2.7l3.7-3.2l3.2-3.7
		l2.9-4.2l2.2-4.4l1.5-4.7l1-4.9L88,50 M100,50l-0.3-5.6l-1-5.6l-1.5-5.3l-2.2-5.3l-2.7-4.9L89,18.8l-3.7-4.2l-4.1-3.7l-4.6-3.2
		l-4.9-2.7l-5.3-2L61,1.2l-5.4-0.8L50,0l-5.6,0.3l-5.6,0.8l-5.4,1.7l-5.1,2l-4.9,2.7l-4.6,3.2l-4.2,3.7l-3.7,4.2l-3.2,4.6l-2.7,4.9
		l-2.2,5.3l-1.5,5.3l-1,5.6L0,50l0.2,5.6l1,5.6l1.5,5.3l2.2,5.3l2.7,4.9l3.2,4.6l3.7,4.2l4.2,3.7l4.6,3.2l4.9,2.7l5.1,2.2l5.4,1.5
		l5.6,0.8L50,100l5.6-0.3l5.4-0.8l5.4-1.5l5.3-2.2l4.9-2.7l4.6-3.2l4.1-3.7l3.7-4.2l3.2-4.6l2.7-4.9l2.2-5.3l1.5-5.3l1-5.6L100,50z"
		/>
	<polyline class="st1" points="60.5,33.4 62.7,40.5 14.9,40.5 14.9,52.4 62.7,52.4 60.5,59.5 60.3,60.7 60.8,61.7 61.9,62.4 
		63.1,62.5 64.1,62.2 86.8,46.4 64.1,30.7 63.1,30.3 61.9,30.5 60.8,31.2 60.3,32.2 60.5,33.4 	"/>
</g>
</svg>
