<?xml version="1.0" encoding="utf-8"?>
<!-- Generator: Adobe Illustrator 19.2.1, SVG Export Plug-In . SVG Version: 6.00 Build 0)  -->
<svg version="1.1" id="Capa_1" xmlns="http://www.w3.org/2000/svg" xmlns:xlink="http://www.w3.org/1999/xlink" x="0px" y="0px"
	 viewBox="0 0 100 100" style="enable-background:new 0 0 100 100;" xml:space="preserve" width="100" height="100">
<style type="text/css">
	.st0{fill-rule:evenodd;clip-rule:evenodd;fill:#2B4490;}
	.st1{fill-rule:evenodd;clip-rule:evenodd;fill:#FFFFFF;}
	.st2{fill:#222220;}
</style>
<g>
	<polyline class="st0" points="98.2,5.2 97.9,3.9 97.2,2.8 96.2,2.1 94.9,1.8 5.2,1.8 3.9,2.1 2.8,2.8 2.1,3.9 1.8,5.2 1.8,94.7 
		2.1,95.9 2.8,97.1 3.9,97.8 5.2,98.1 94.9,98.1 96.2,97.8 97.2,97.1 97.9,95.9 98.2,94.7 98.2,5.2 	"/>
	<polyline class="st1" points="34.5,20.9 68.4,20.9 68.4,30 43.6,30 43.6,44.2 60.8,44.2 60.8,53.4 43.6,53.4 43.6,70 69.9,70 
		69.9,78.9 34.5,78.9 34.5,20.9 	"/>
	<path class="st2" d="M94.9,99.9H5.2l-1.6-0.3l-1.4-0.7L1,97.7l-0.7-1.4L0,94.7V5.2l0.3-1.6L1,2.2L2.2,1l1.4-0.7l1.6-0.2h89.8
		l1.6,0.1L97.8,1L99,2.1l0.7,1.4l0.3,1.6v89.5l-0.3,1.6L99,97.7l-1.1,1.2l-1.3,0.7L94.9,99.9C95,99.9,94.9,99.9,94.9,99.9L94.9,99.9
		z M94.9,0.4H5.2L3.7,0.5L2.3,1.2L1.2,2.3L0.5,3.7L0.3,5.2l0,89.5l0.3,1.5l0.7,1.4l1.1,1.1l1.4,0.7l1.5,0.3l89.7,0l1.5-0.3l1.2-0.7
		l1.1-1.1l0.7-1.4l0.3-1.5l0-89.5l-0.3-1.5l-0.7-1.4l-1.1-1.1l-1.2-0.7L94.9,0.4L94.9,0.4z"/>
</g>
</svg>
