<?xml version="1.0" encoding="utf-8"?>
<!-- Generator: Adobe Illustrator 19.2.1, SVG Export Plug-In . SVG Version: 6.00 Build 0)  -->
<svg version="1.1" id="Capa_1" xmlns="http://www.w3.org/2000/svg" xmlns:xlink="http://www.w3.org/1999/xlink" x="0px" y="0px"
	 viewBox="0 0 100 100" style="enable-background:new 0 0 100 100;" xml:space="preserve" width="100" height="100">
<style type="text/css">
	.st0{fill-rule:evenodd;clip-rule:evenodd;fill:#B4B8BB;}
	.st1{fill:#222220;}
	.st2{fill-rule:evenodd;clip-rule:evenodd;fill:#222220;}
</style>
<g>
	<path class="st0" d="M30.3,31l1.1-1.2l1.2-4.4h13.3l1,3.9l0.7,1.2L48,31v3.4l-1.1,3l-0.1,1.4h-1.3l-0.9-1.1v-1.2H33.6v2.2h-2.2
		v-2.2l-1.1-1.2V31 M45.9,29.8H32.6l0.9-3.3H45L45.9,29.8z M55.2,25.4h12.1l1.1,4.4l1.2,1.2v4.4l-1.2,1.2v2.2h-2.1v-2.2H55.1v2.2
		h-2.2v-1.1l-0.4-1.6l-0.6-0.6l-0.2-1.7v-1.3l1.3-3l0.6-2.4L55.2,25.4z M55.9,26.5h-1.1l-0.4,1.5v1.9h12.8l-0.9-3.3H55.9z"/>
	<path class="st1" d="M77.9,100H22.1l-1.4-0.2l-1.4-0.6l-1.1-0.8l-0.9-1.2L16.9,96l-0.2-1.4l0-89.2L16.9,4l0.5-1.3l0.9-1.2l1.1-0.9
		l1.4-0.5L22.1,0l55.9,0l1.4,0.2l1.3,0.5l1.1,0.9l0.9,1.2L83.1,4l0.2,1.4l0,89.2L83.1,96l-0.6,1.3l-0.9,1.2l-1.1,0.8l-1.3,0.6
		L77.9,100C77.9,100,77.9,100,77.9,100L77.9,100z M77.9,0.1H22.1l-1.4,0.2l-1.4,0.5l-1.1,0.9l-0.9,1.2L17,4.1l-0.2,1.3l0,89.2L17,96
		l0.5,1.3l0.9,1.2l1.1,0.8l1.3,0.6l1.3,0.2h55.9l1.4-0.2l1.2-0.6l1.1-0.8l0.9-1.2l0.6-1.3l0.2-1.3l0-89.2L83,4l-0.6-1.3l-0.9-1.2
		l-1.1-0.9l-1.2-0.5L77.9,0.1L77.9,0.1z"/>
	<path class="st2" d="M77.6,33.4l-0.1-3.1L77,27.2l-0.9-3l-1.2-2.8l-1.5-2.7l-1.8-2.5l-2-2.3l-2.3-2.1l-2.5-1.7L62,8.3l-2.9-1.2
		l-2.9-0.9l-3.1-0.5L50,5.6l-3.1,0.2l-3,0.5l-3,0.9L38,8.3l-2.7,1.6l-2.6,1.7l-2.2,2.1l-2.1,2.3l-1.7,2.5L25,21.3l-1.2,2.8l-0.9,3
		l-0.5,3.1l-0.2,3.1l0.2,3.1l0.5,3l0.9,3l1.2,2.8l1.6,2.7l1.7,2.6l2.1,2.2l2.2,2.1l2.6,1.8l2.7,1.6l2.8,1.2l3,0.9l3,0.5l3.1,0.2
		l3.1-0.2l3.1-0.5l2.9-0.9l2.9-1.2l2.7-1.6l2.5-1.8l2.3-2.1l2-2.2l1.8-2.6l1.5-2.7l1.2-2.8l0.9-3l0.6-3L77.6,33.4 M36.3,54.3
		l34.5-34.6l1.5,2.5l1.2,2.7l0.9,2.9l0.5,2.9l0.1,2.9l-0.2,3l-0.6,2.9l-0.9,2.8L72,45l-1.6,2.5l-1.8,2.3l-2,2.1l-2.3,1.8l-2.5,1.5
		L59,56.6l-2.8,0.9l-2.9,0.6l-2.9,0.2l-3-0.1l-2.9-0.5l-2.8-0.8l-2.7-1.2L36.3,54.3z M34.5,52.9l0.7,0.6l34.9-34.9l-0.5-0.8
		L34.5,52.9z M68.7,16.9l-0.6-0.7L32.8,51.5l0.6,0.6L68.7,16.9z M31.3,49.9l0.6,0.6l35.3-35.3l-0.7-0.6L31.3,49.9z M65.5,13.8
		l-0.8-0.5L29.8,48.2l0.6,0.7L65.5,13.8z M29.2,47l34.5-34.5L61,11l-2.7-1.2L55.5,9l-2.9-0.5l-2.9-0.1l-3,0.2l-2.9,0.6l-2.8,0.9
		l-2.6,1.3l-2.5,1.6l-2.3,1.8l-2.1,2l-1.7,2.3L28,21.6l-1.3,2.7l-0.9,2.8l-0.6,2.9L25.1,33l0.1,2.9l0.5,3l0.9,2.8l1.1,2.7L29.2,47z"
		/>
	<path class="st2" d="M77.9,96l0.7-0.2l0.5-0.5l0.1-0.7V5.4l-0.1-0.7l-0.5-0.5L77.9,4H22.1l-0.7,0.2l-0.5,0.5l-0.2,0.7v89.2l0.2,0.7
		l0.5,0.5l0.7,0.2H77.9 M77.9,98.6l1.2-0.2l1.2-0.6l0.9-0.9l0.6-1.1l0.2-1.3V5.4l-0.2-1.3l-0.6-1.1l-0.9-0.9l-1.2-0.6l-1.2-0.2H22.1
		l-1.3,0.2l-1.1,0.6l-0.9,0.9l-0.6,1.1l-0.2,1.3v89.2l0.2,1.3l0.6,1.1l0.9,0.9l1.1,0.6l1.3,0.2H77.9z"/>
	<path class="st2" d="M72.4,84.8l0.7,1.3v-1.3h0.9v3.1h-0.9l-1.8-3.1H72.4 M70.2,84.8H71v3.1h-0.9V84.8z M65.1,84.8L65,85.2l0.2,1.6
		l0.4,0.7l0.6,0.5L67,88l0.7-0.1l0.7-0.5l0.4-0.7l0.2-1.6l-0.1-0.4H68l0.1,0.4l-0.2,1.3l-0.4,0.5L67,87.1l-0.6-0.2l-0.3-0.5
		l-0.2-1.3l0.1-0.4H65.1z M62.8,84.8h0.9v3.1h-0.9V84.8z M59,84.8v0.9l0.3,1l0.3,0.4l0.6,0.1l0.5-0.2l0.3-0.4l0.9,0.3l-0.4,0.6
		l-0.6,0.4L60.2,88l-0.7-0.1l-0.6-0.4l-0.5-0.6l-0.3-1.2v-1H59z M54.2,84.8v0.9l0.3,1l0.4,0.4l0.5,0.1l0.6-0.2l0.3-0.4l0.8,0.3
		l-0.3,0.6l-0.6,0.4L55.5,88l-0.8-0.1l-0.6-0.4l-0.4-0.6l-0.3-1.2v-1H54.2z M51.1,84.8H52v3.1h-0.9V84.8z M46.2,84.8v3.1h0.8v-2.4
		H48l0.9,2.4h1l-1-2.5l0.5-0.5l0.1-0.1H46.2z M43,84.8h0.9v3.1H43V84.8z M37.5,84.8l0.3,0.3l0.6,0.3l0.9,0.2l0.4,0.2l0.2,0.6
		l-0.2,0.6l-0.4,0.2h-0.4L38.4,87L38,86.7l-0.2-0.4L37,86.5l0.2,0.6l0.5,0.5l0.6,0.3l0.6,0.1l0.8-0.1l0.6-0.4l0.4-0.5l0.1-0.7
		l-0.2-0.8L40,85l-0.5-0.2H37.5z M35.2,84.8v0.7h-1.7V87h2.5v0.9h-3.4v-3.1H35.2z M27.6,84.8v3.1h0.9v-2.4h1l1,2.4h0.9l-1-2.5
		l0.6-0.5l0.1-0.1H27.6z"/>
	<path class="st2" d="M41.7,67.4h5.4v1.4h-4.1V71h2.6v1.4h-2.6v3.9h-1.4V67.4 M48.7,67.4H50v8.8h-1.4V67.4z M52.2,67.4h1.4l3.2,5.9
		v-5.9h1.4v8.8h-1.3l-3.3-5.8v5.8h-1.4V67.4z M29.6,84.6l0.5-0.2l0.2-0.5l-0.2-0.5l-0.5-0.2h-1.2v1.4H29.6z M48.2,84.6l0.5-0.2
		l0.2-0.5l-0.2-0.5l-0.5-0.2h-1.3v1.4H48.2z M67.2,82.1h-0.5l0.5-1h0.9L67.2,82.1z M73.1,82.4h0.9v2.4h-0.9V82.4z M70.2,84.8v-2.4
		H71l1.3,2.4h-1.1L71,84.3v0.5H70.2z M68,84.8l-0.1-0.9l-0.4-0.5L67,83.1l-0.6,0.2l-0.3,0.5l-0.1,0.9h-0.9l0.1-1.1l0.4-0.7l0.6-0.5
		l0.8-0.2l0.7,0.2l0.7,0.5l0.4,0.7l0.1,1.1H68z M62.8,82.4h0.9v2.4h-0.9V82.4z M58.1,84.8v-0.2l0.3-1.3l0.5-0.5l0.6-0.4l0.7-0.2
		l0.7,0.2l0.6,0.4l0.4,0.6l-0.9,0.3l-0.3-0.4l-0.5-0.2l-0.6,0.2l-0.3,0.4l-0.3,1v0.1H58.1z M53.4,84.8v-0.2l0.3-1.3l0.4-0.5l0.6-0.4
		l0.7-0.2l0.7,0.2l0.6,0.4l0.4,0.6l-0.8,0.3l-0.4-0.4l-0.5-0.2l-0.5,0.2l-0.4,0.4l-0.3,1v0.1H53.4z M51.1,82.4H52v2.4h-0.9V82.4z
		 M49.4,84.8l0.2-0.5v-0.7l-0.3-0.7l-0.5-0.4l-0.7-0.2h-2v2.4H49.4z M43,84.8v-1.5h-1.3v-0.9h3.4v0.9h-1.3v1.5H43z M39.5,84.8
		l-0.2-0.1l-0.8-0.2l-0.4-0.2L38.1,84l0.1-0.4l0.3-0.3l0.3-0.2l0.6,0.2l0.4,0.5l0.8-0.3L40.3,83l-0.5-0.5l-0.5-0.2l-0.7-0.1
		l-0.5,0.2l-0.5,0.4l-0.4,0.5L37.2,84l0.2,0.6l0.1,0.2H39.5z M32.7,84.8v-2.4h3.2v0.9h-2.3v1.4h1.7v0.2H32.7z M31,84.8l0.2-0.5v-0.7
		l-0.3-0.7l-0.6-0.4l-0.7-0.2h-2v2.4H31z"/>
</g>
</svg>
