<?xml version="1.0" encoding="utf-8"?>
<!-- Generator: Adobe Illustrator 19.2.1, SVG Export Plug-In . SVG Version: 6.00 Build 0)  -->
<svg version="1.1" id="Capa_1" xmlns="http://www.w3.org/2000/svg" xmlns:xlink="http://www.w3.org/1999/xlink" x="0px" y="0px"
	 viewBox="0 0 100 100" style="enable-background:new 0 0 100 100;" xml:space="preserve" width="100" height="100">
<style type="text/css">
	.st0{fill-rule:evenodd;clip-rule:evenodd;fill:#222220;}
	.st1{fill-rule:evenodd;clip-rule:evenodd;fill:#C5332B;}
</style>
<g>
	<path class="st0" d="M43,73l0.4,0.8l0.8,0.7l1,0.3l0.9-0.3l0.9-0.7l0.4-0.8l0.5-2.3v-2.2l-0.5-2.2l-0.4-0.9l-0.9-0.5l-0.9-0.3
		l-1,0.3l-0.8,0.5L43,66.2l-0.5,2.2v2.2L43,73 M35.2,65.2H34v-1.7l0.9-0.3l0.8-0.7h1.7v14.1h-2.2V65.2z M30.1,62.6l-6.9,7l6.9,7
		v-5.9h2.5v-2.3h-2.5V62.6z M71.6,62.6l7,7l-7,7v-5.9h-2.3v-2.3h2.3V62.6z M40.9,65.6l-0.5,2.7v2.6l0.5,2.6l0.5,1.3l1,1l1.3,0.7
		l1.4,0.3l1.4-0.1l1.3-0.8l1-1l0.5-1.3l0.5-2.6v-2.6l-0.5-2.7L49,64.3l-1-1l-1.3-0.7l-1.4-0.3l-1.4,0.3l-1.3,0.7l-1,1L40.9,65.6z
		 M66.8,71l-0.4-1.7L65.6,68l-1.2-0.8l-1.3-0.1l-1.4,0.3l-1,0.9l-0.9-0.8l-1.2-0.4h-1.2l-1.2,0.4v-0.3h-2.3v9.4h2.3V71l0.3-0.8
		l0.5-0.5l0.7-0.1l0.8,0.1l0.5,0.5l0.3,0.8v5.6h2.3V71l0.1-0.8l0.5-0.5l0.8-0.1l0.7,0.1l0.5,0.5l0.3,0.8v5.6h2.3V71z"/>
	<path class="st0" d="M76,49.9l-0.3-1.3l-0.7-1.3l-0.9-1l-1.3-0.7l-1.4-0.3L70,45.6l-1.3,0.7l-0.9,1l-0.7,1.3l-0.3,1.3l0.3,1.4
		l0.7,1.3l0.9,1l1.3,0.6l1.4,0.1l1.4-0.1l1.3-0.6l0.9-1l0.7-1.3L76,49.9 M37.4,49.9l-0.1-1.3l-0.6-1.3l-1-1l-1.3-0.7l-1.4-0.3
		l-1.3,0.3l-1.3,0.7l-1,1l-0.6,1.3l-0.3,1.3l0.3,1.4l0.6,1.3l1,1l1.3,0.6l1.3,0.1l1.4-0.1l1.3-0.6l1-1l0.6-1.3L37.4,49.9z
		 M68.7,40.2h-9.5v-6.9h7.3L68.7,40.2z M76.9,49.9l-0.3-1.6l-0.8-1.6l-1.3-1.2l-1.4-0.8l-1.7-0.3l-1.7,0.3l-1.4,0.8L67,46.8
		l-0.8,1.6L66,50.1H38.3l-0.3-1.7l-0.8-1.6l-1.2-1.2l-1.6-0.8l-1.7-0.3l-1.7,0.3l-1.4,0.8l-1.2,1.2l-0.8,1.6l-0.3,1.7h-4.3V26.4h36
		v5.5h8.2l2.9,8.3h8.2v7.5h2.7v2.2H76.9h4.3H76.9z"/>
	<path class="st1" d="M100,50.1l-0.3-4.9l-0.7-4.8l-1.2-4.8l-1.7-4.6l-2.1-4.4l-2.5-4.3l-3-3.9l-3.3-3.6l-3.6-3.3l-3.9-3l-4.2-2.5
		l-4.6-2.1l-4.6-1.7L59.8,1l-5-0.7l-4.8-0.3l-5,0.3L40.3,1l-4.8,1.2l-4.6,1.7l-4.4,2.1l-4.2,2.5l-4,3l-3.7,3.3l-3.3,3.6l-2.9,3.9
		l-2.6,4.3l-2.1,4.4l-1.6,4.6l-1.3,4.8l-0.7,4.8L0,50.1l0.3,4.8l0.7,4.8l1.3,4.8l1.6,4.6l2.1,4.4l2.6,4.3l2.9,3.9l3.3,3.6l3.7,3.3
		l4,3l4.2,2.5l4.4,2.1l4.6,1.7l4.8,1.2l4.8,0.8l5,0.1l4.8-0.1l5-0.8l4.7-1.2l4.6-1.7l4.6-2.1l4.2-2.5l3.9-3l3.6-3.3l3.3-3.6l3-3.9
		l2.5-4.3l2.1-4.4l1.7-4.6l1.2-4.8l0.7-4.8L100,50.1 M88,50.1l-0.3-4.3l-0.7-4.2l-1.2-4.2l-1.7-3.9l-2-3.8l-2.5-3.4l-2.9-3.3
		l-3.3-2.9l-3.4-2.3l-3.8-2.1l-3.9-1.7l-4-1.2l-4.3-0.6l-4.2-0.3l-4.3,0.3L41.6,13l-4.2,1.2l-3.9,1.7l-3.7,2.1l-3.5,2.3l-3.1,2.9
		l-2.9,3.3l-2.5,3.4l-2.1,3.8l-1.7,3.9l-1.2,4.2l-0.7,4.2L12,50.1l0.3,4.2l0.7,4.2l1.2,4.2l1.7,3.9l2.1,3.8l2.5,3.4l2.9,3.3l3.1,2.9
		l3.5,2.5l3.7,2l3.9,1.7l4.2,1.2l4.2,0.7l4.3,0.3l4.2-0.3l4.3-0.7l4-1.2l3.9-1.7l3.8-2l3.4-2.5l3.3-2.9l2.9-3.3l2.5-3.4l2-3.8
		l1.7-3.9l1.2-4.2l0.7-4.2L88,50.1z"/>
</g>
</svg>
