<?xml version="1.0" encoding="utf-8"?>
<!-- Generator: Adobe Illustrator 19.2.1, SVG Export Plug-In . SVG Version: 6.00 Build 0)  -->
<svg version="1.1" id="Capa_1" xmlns="http://www.w3.org/2000/svg" xmlns:xlink="http://www.w3.org/1999/xlink" x="0px" y="0px"
	 viewBox="0 0 100 100" style="enable-background:new 0 0 100 100;" xml:space="preserve" width="100" height="100">
<style type="text/css">
	.st0{fill-rule:evenodd;clip-rule:evenodd;fill:#C5332B;}
	.st1{fill-rule:evenodd;clip-rule:evenodd;fill:#FFFFFF;}
	.st2{fill-rule:evenodd;clip-rule:evenodd;}
</style>
<g>
	<path class="st0" d="M0,50.2c-0.5-26,20.5-50,49.8-50c27.8,0,50,21.2,50.2,49.8c0.2,28.3-21.7,50-50.3,49.9
		C19.5,99.8-0.6,75,0,50.2z M88.5,50.2c0.1-21.8-16.6-38.8-38-38.9C28.6,11.2,11.4,28.1,11.4,50c-0.1,21.2,17,38.7,37.9,38.8
		C71.4,88.9,88.4,72.2,88.5,50.2z"/>
	<path class="st1" d="M88.5,50.2c-0.1,22-17.1,38.7-39.2,38.5c-20.9-0.1-38-17.5-37.9-38.8c0.1-21.9,17.2-38.8,39.1-38.7
		C71.9,11.4,88.6,28.5,88.5,50.2z M76.4,45.8c1.1-10.9-9-17.9-17.8-18.7c-2.5-0.2-3.8,0.6-4.8,2.8c-3.3,8.3-4.1,16.8-1.7,25.4
		c1.9,6.8,2.7,7.2,9.6,5.7c1.6-0.4,3.3-0.7,4.8-1.4C71.7,57.1,77.2,52.9,76.4,45.8z M44.9,30.7c-7,2.4-13.7,4.7-20.4,7.2
		C24,38,23.5,40,23.8,40.3c0.7,0.7,2,1.4,2.8,1.1c6.4-2.1,12.7-4.3,18.9-6.6c0.8-0.3,1.4-1.7,1.5-2.6C47,31.7,45.6,31.1,44.9,30.7z
		 M47.5,40.2c0-0.4,0-0.9-0.1-1.3c-1.2-0.3-2.6-1.1-3.7-0.7c-6.1,2-12.2,4.1-18.2,6.4c-0.8,0.3-1.3,1.6-1.9,2.5c1,0.4,2.2,1.5,3,1.2
		c6.2-1.9,12.3-3.9,18.4-6.1C45.9,41.9,46.7,40.9,47.5,40.2z M26,62.8c6.9-2.3,13.6-4.6,20.3-7c0.6-0.2,1.2-1.9,0.9-2.5
		c-0.3-0.7-1.8-1.4-2.5-1.2c-6.6,2.1-13.2,4.4-19.7,6.8c-0.6,0.2-1.1,1.7-1.1,2.5C24,61.8,25.2,62.3,26,62.8z M47.7,47.5
		c0-0.5,0-1-0.1-1.4c-1.3-0.3-2.8-1-3.9-0.7c-5.8,1.8-11.6,3.7-17.3,5.8c-1.1,0.4-1.8,2-2.7,3c1.3,0.3,2.8,1.2,4,0.8
		c5.8-1.8,11.5-3.8,17.2-5.8C46,48.9,46.8,48.1,47.7,47.5z M47.8,61.6c0-0.5,0-0.9,0-1.4c-1.2-0.3-2.5-1.1-3.5-0.8
		c-6.2,1.9-12.3,3.9-18.3,6.1c-0.9,0.3-1.4,1.8-2.1,2.7c1.1,0.5,2.5,1.6,3.4,1.3c6.1-2,12.2-4.2,18.2-6.4
		C46.3,62.8,47,62.1,47.8,61.6z"/>
	<path class="st2" d="M76.4,45.8c0.8,7.2-4.7,11.4-9.8,13.8c-1.5,0.7-3.2,1.1-4.8,1.4c-6.9,1.5-7.7,1.1-9.6-5.7
		c-2.4-8.6-1.6-17.1,1.7-25.4c0.9-2.3,2.3-3.1,4.8-2.8C67.4,27.9,77.5,34.9,76.4,45.8z"/>
	<path class="st2" d="M44.9,30.7c0.7,0.5,2.1,1,2.1,1.5c-0.1,0.9-0.7,2.3-1.5,2.6c-6.3,2.4-12.6,4.6-18.9,6.6
		c-0.8,0.3-2.2-0.4-2.8-1.1C23.5,40,24,38,24.5,37.8C31.2,35.4,37.9,33.1,44.9,30.7z"/>
	<path class="st2" d="M47.5,40.2c-0.8,0.7-1.6,1.6-2.5,2c-6.1,2.1-12.2,4.2-18.4,6.1c-0.8,0.2-2-0.8-3-1.2c0.6-0.8,1.1-2.1,1.9-2.5
		c6-2.3,12.1-4.4,18.2-6.4c1-0.3,2.4,0.5,3.7,0.7C47.5,39.4,47.5,39.8,47.5,40.2z"/>
	<path class="st2" d="M26,62.8c-0.8-0.5-2.1-0.9-2.1-1.4c-0.1-0.8,0.4-2.3,1.1-2.5c6.5-2.4,13.1-4.7,19.7-6.8
		c0.7-0.2,2.2,0.5,2.5,1.2c0.3,0.6-0.3,2.3-0.9,2.5C39.6,58.2,32.9,60.4,26,62.8z"/>
	<path class="st2" d="M47.7,47.5c-0.9,0.6-1.7,1.4-2.7,1.7c-5.7,2-11.4,4.1-17.2,5.8c-1.1,0.3-2.6-0.5-4-0.8c0.9-1,1.6-2.6,2.7-3
		c5.7-2.1,11.4-4.1,17.3-5.8c1.1-0.3,2.6,0.4,3.9,0.7C47.7,46.5,47.7,47,47.7,47.5z"/>
	<path class="st2" d="M47.8,61.6c-0.8,0.5-1.5,1.2-2.3,1.5c-6,2.2-12.1,4.4-18.2,6.4c-0.9,0.3-2.2-0.8-3.4-1.3
		c0.7-0.9,1.2-2.4,2.1-2.7c6-2.2,12.1-4.2,18.3-6.1c1-0.3,2.3,0.5,3.5,0.8C47.8,60.6,47.8,61.1,47.8,61.6z"/>
</g>
</svg>
