<?xml version="1.0" encoding="utf-8"?>
<!-- Generator: Adobe Illustrator 19.2.1, SVG Export Plug-In . SVG Version: 6.00 Build 0)  -->
<svg version="1.1" id="Capa_1" xmlns="http://www.w3.org/2000/svg" xmlns:xlink="http://www.w3.org/1999/xlink" x="0px" y="0px"
	 viewBox="0 0 100 100" style="enable-background:new 0 0 100 100;" xml:space="preserve" width="100" height="100">
<style type="text/css">
	.st0{clip-path:url(#SVGID_2_);fill-rule:evenodd;clip-rule:evenodd;fill:#222220;}
	
		.st1{clip-path:url(#SVGID_2_);fill:none;stroke:#222220;stroke-width:0.247;stroke-linecap:round;stroke-linejoin:round;stroke-miterlimit:10;}
	.st2{clip-path:url(#SVGID_2_);fill-rule:evenodd;clip-rule:evenodd;fill:#C5332B;}
</style>
<g>
	<g>
		<defs>
			<rect id="SVGID_1_" y="0" width="100" height="100"/>
		</defs>
		<clipPath id="SVGID_2_">
			<use xlink:href="#SVGID_1_"  style="overflow:visible;"/>
		</clipPath>
		<polyline class="st0" points="27.6,40.9 29.1,45.7 15.4,45.7 15.4,54.1 29.1,54.1 27.6,58.8 27.6,59.7 27.9,60.5 28.6,61 29.3,61 
			30.1,60.8 45.9,49.9 30.1,39 29.3,38.7 28.6,38.9 27.9,39.4 27.6,40 27.6,40.9 		"/>
		<line class="st1" x1="28.6" y1="45.7" x2="24.2" y2="45.7"/>
		<path class="st2" d="M87.5,49.9l-0.3-5l-1-4.7l-1.5-4.7l-2.2-4.4l-2.9-4.2l-3.2-3.7l-3.7-3.2l-4.2-2.9L64.2,15l-4.7-1.5l-4.7-1
			l-5-0.3l-4.9,0.3l-4.9,1L35.3,15L31,17.2l-4,2.9l-3.7,3.2l-3.4,3.7l-2.7,4.2L15,35.5l-1.5,4.7l-1,4.7l-0.3,5l0.3,4.9l1,4.9
			l1.5,4.7l2.2,4.4l2.7,4l3.4,3.7l3.7,3.4l4,2.7l4.4,2.2l4.7,1.5l4.9,1l4.9,0.3l5-0.3l4.7-1l4.7-1.5l4.4-2.2l4.2-2.7l3.7-3.4
			l3.2-3.7l2.9-4l2.2-4.4l1.5-4.7l1-4.9L87.5,49.9 M99.4,49.9l-0.3-5.5l-1-5.5l-1.5-5.4l-2.2-5l-2.7-4.9L88.5,19l-3.7-4.2l-4.2-3.7
			L76.1,8l-4.9-2.7l-5-2.2l-5.4-1.5l-5.5-1l-5.5-0.3l-5.5,0.3l-5.4,1l-5.4,1.5l-5.2,2.2L23.4,8l-4.5,3.2l-4,3.7L11,19l-3.2,4.5
			l-2.7,4.9l-2,5l-1.7,5.4l-0.8,5.5l-0.3,5.5l0.3,5.5l0.8,5.4l1.7,5.4l2,5.2l2.7,4.9l3.2,4.5l3.9,4l4,3.9l4.5,3.2l4.9,2.7l5.2,2
			l5.4,1.7l5.4,0.8l5.5,0.3l5.5-0.3l5.5-0.8l5.4-1.7l5-2l4.9-2.7l4.5-3.2l4.2-3.9l3.7-4l3.2-4.5l2.7-4.9l2.2-5.2l1.5-5.4l1-5.4
			L99.4,49.9z"/>
		<path class="st0" d="M55.8,43.9l1.5-5.9H78l1.5,5.9H55.8 M57.8,55.8h19.8v4h3.9v-4l2-2v-7.9l-2-2l-2-7.9H55.8l-2,7.9l-2,2v7.9l2,2
			v4h4V55.8z"/>
	</g>
</g>
</svg>
