<?xml version="1.0" encoding="utf-8"?>
<!-- Generator: Adobe Illustrator 19.2.1, SVG Export Plug-In . SVG Version: 6.00 Build 0)  -->
<svg version="1.1" id="Capa_1" xmlns="http://www.w3.org/2000/svg" xmlns:xlink="http://www.w3.org/1999/xlink" x="0px" y="0px"
	 viewBox="0 0 100 100" style="enable-background:new 0 0 100 100;" xml:space="preserve" width="100" height="100">
<style type="text/css">
	.st0{fill:none;}
	.st1{fill-rule:evenodd;clip-rule:evenodd;fill:#2B4490;}
	.st2{fill-rule:evenodd;clip-rule:evenodd;fill:#FFFFFF;}
</style>
<g>
	<circle class="st0" cx="50" cy="50" r="50"/>
	<path class="st1" d="M50,97.6C23.3,97.3,2.1,76.3,2.2,49.5C2.3,23.2,23.6,1.6,50.8,2C76.5,2.4,98,23.1,97.7,50.3
		C97.4,76.4,76.6,97.2,50,97.6z M37.9,85.1c4.2,1.8,11.7,3.1,19.5,1.3c10.4-2.3,18.3-8.2,23.8-17.2c1.4,0.8,2.7,1.5,4.3,2.4
		c-0.8-5.7-1.6-11-2.4-16.5c-5.3,2.1-10.3,4.1-15.5,6.2c1.5,0.9,2.9,1.7,4.2,2.5c-0.1,0.2-0.1,0.3-0.1,0.4
		C65.8,73.6,54.8,78.2,44,75.7c-2.7-0.6-2.7-0.6-3.5,2C39.6,80.1,38.8,82.6,37.9,85.1z M33,31.5c-2.3-2.7-4.6-5.3-7-8
		C16.3,31.4,7.8,49.9,18.2,69c-1.3,0.8-2.6,1.6-4.1,2.5c5.3,2.1,10.3,4.1,15.5,6.2c0.8-5.6,1.6-10.9,2.4-16.5
		c-1.7,0.9-3,1.7-4.3,2.4C23.1,56.3,21.8,41.5,33,31.5z M49.9,25.4c4.7-0.1,8.8,1.1,12.7,3.3c6.7,3.9,10.7,9.7,12.4,17.3
		c3.6-0.7,7-1.4,10.5-2.1c-1.2-6.1-3.7-11.5-7.6-16.2c-7.3-8.7-16.6-13-28.1-13.4c0-1.6,0-3.1,0-4.9c-4.5,3.5-8.7,6.9-13,10.4
		c4.4,3.5,8.6,6.8,13.1,10.4C49.9,28.5,49.9,27.1,49.9,25.4z"/>
	<path class="st2" d="M37.9,85.1c0.8-2.5,1.7-4.9,2.5-7.4c0.9-2.6,0.9-2.6,3.5-2c10.8,2.5,21.9-2.1,27.7-11.6
		c0.1-0.1,0.1-0.2,0.1-0.4c-1.3-0.8-2.7-1.6-4.2-2.5c5.3-2.1,10.3-4.1,15.5-6.2c0.8,5.5,1.6,10.9,2.4,16.5c-1.6-0.9-2.9-1.6-4.3-2.4
		c-5.5,9-13.4,14.9-23.8,17.2C49.6,88.2,42.2,86.9,37.9,85.1z"/>
	<path class="st2" d="M33,31.5c-11.2,10-10,24.8-5.4,32.1c1.3-0.7,2.7-1.5,4.3-2.4c-0.8,5.7-1.6,11-2.4,16.5
		c-5.2-2.1-10.2-4-15.5-6.2c1.5-0.9,2.8-1.7,4.1-2.5c-10.3-19.1-1.9-37.6,7.9-45.5C28.4,26.1,30.7,28.8,33,31.5z"/>
	<path class="st2" d="M49.9,25.4c0,1.6,0,3.1,0,4.9c-4.5-3.5-8.7-6.9-13.1-10.4c4.3-3.5,8.6-6.8,13-10.4c0,1.8,0,3.3,0,4.9
		c11.4,0.3,20.8,4.7,28.1,13.4c3.9,4.7,6.4,10,7.6,16.2c-3.5,0.7-7,1.4-10.5,2.1c-1.7-7.6-5.7-13.4-12.4-17.3
		C58.7,26.5,54.5,25.4,49.9,25.4z"/>
</g>
</svg>
