<?xml version="1.0" encoding="utf-8"?>
<!-- Generator: Adobe Illustrator 19.2.1, SVG Export Plug-In . SVG Version: 6.00 Build 0)  -->
<svg version="1.1" id="Capa_1" xmlns="http://www.w3.org/2000/svg" xmlns:xlink="http://www.w3.org/1999/xlink" x="0px" y="0px"
	 viewBox="0 0 100 100" style="enable-background:new 0 0 100 100;" xml:space="preserve" width="100" height="100">
<style type="text/css">
	.st0{fill:none;stroke:#222220;stroke-width:8.200000e-02;stroke-linecap:round;stroke-linejoin:round;stroke-miterlimit:10;}
	.st1{fill:#222220;}
	.st2{fill-rule:evenodd;clip-rule:evenodd;fill:#222220;}
	.st3{fill-rule:evenodd;clip-rule:evenodd;fill:#C5332B;}
</style>
<g>
	<path class="st0" d="M20.8,44h6 M22.4,38h4.5"/>
	<polyline class="st1" points="42.3,36 44.8,36 45.6,39.2 42.3,36 	"/>
	<polyline class="st1" points="48.3,54.5 46.8,56 46.8,60 42.8,60 42.8,56 22.8,56 22.8,60 18.8,60 18.8,56 16.8,54 16.8,46 
		18.8,44 20.8,36 29.7,36 31.8,38 22.4,38 20.8,44 38.3,44 48.3,54.5 	"/>
	<path class="st2" d="M62.4,56h14.8v4h4v-4l2-2v-8l-2-2l-2-8h-24l-2,8l-1.4,1.4L62.4,56 M55.2,44h24l-1.6-6H56.8L55.2,44z"/>
	<path class="st3" d="M73.1,80.2L19.8,26.9l-1.7,2.3l-1.4,2.5l-1.3,2.5l-1,2.7l-0.9,2.7l-0.7,2.8l-0.5,2.9l-0.2,2.9L12,51.1l0.2,2.9
		l0.4,2.9l0.6,2.8l0.8,2.8l1.1,2.7l1.2,2.6l1.4,2.5l1.6,2.4l1.8,2.2l1.9,2.1l2.1,2l2.3,1.8l2.4,1.6l2.5,1.4l2.6,1.2l2.7,1.1l2.8,0.8
		l2.8,0.6l2.8,0.4l2.9,0.2h2.9l2.9-0.3l2.8-0.4l2.8-0.7l2.8-0.9l2.7-1.1l2.5-1.3l2.5-1.5L73.1,80.2L73.1,80.2 M100,50l-0.1-3.3
		l-0.3-3.3l-0.5-3.2L98.3,37l-0.9-3.1l-1.2-3l-1.3-3L93.3,25l-1.7-2.8l-1.9-2.7l-2-2.5l-2.2-2.4l-2.4-2.3l-2.5-2l-2.7-1.9L75,6.7
		l-2.9-1.5l-3-1.3l-3.1-1.2L63,1.7L59.7,1l-3.2-0.6l-3.3-0.3L50,0l-3.3,0.1l-3.3,0.3L40.3,1l-3.2,0.7l-3.2,0.9l-3,1.2l-3,1.3L25,6.7
		l-2.8,1.7l-2.7,1.9l-2.5,2l-2.4,2.3l-2.3,2.4l-2.1,2.5l-1.9,2.7L6.7,25l-1.5,2.9l-1.4,3l-1.2,3L1.7,37L1,40.3l-0.6,3.2l-0.3,3.3
		L0,50l0.1,3.3l0.3,3.3L1,59.7L1.7,63l0.9,3.1l1.2,3.1l1.4,3L6.7,75l1.8,2.8l1.9,2.7l2.1,2.5l2.3,2.4l2.4,2.2l2.5,2l2.7,1.9l2.8,1.7
		l2.9,1.6l3,1.3l3,1.2l3.2,0.9l3.2,0.8l3.2,0.5l3.3,0.3L50,100l3.3-0.1l3.3-0.3l3.2-0.5l3.2-0.8l3.1-0.9l3.1-1.2l3-1.3l2.9-1.6
		l2.8-1.7l2.7-1.9l2.5-2l2.4-2.2l2.2-2.4l2-2.5l1.9-2.7l1.7-2.8l1.5-2.9l1.3-3l1.2-3.1l0.9-3.1l0.8-3.2l0.5-3.2l0.3-3.3L100,50z
		 M80.2,73.1l1.7-2.3l1.5-2.5l1.3-2.5l1.1-2.7l0.9-2.8l0.7-2.8l0.4-2.8l0.3-2.9v-2.9l-0.2-2.9l-0.4-2.8l-0.6-2.8l-0.8-2.8L84.9,35
		l-1.2-2.6l-1.4-2.5l-1.6-2.4l-1.8-2.3l-2-2.1l-2.1-1.9l-2.2-1.8l-2.4-1.6l-2.5-1.4l-2.6-1.2l-2.7-1.1l-2.7-0.8l-2.8-0.6l-2.9-0.4
		L51.1,12l-2.9,0.1l-2.9,0.2l-2.8,0.5l-2.8,0.7L37,14.3l-2.7,1.1l-2.6,1.3l-2.4,1.4l-2.4,1.7L80.2,73.1z"/>
</g>
</svg>
