<?xml version="1.0" encoding="utf-8"?>
<!-- Generator: Adobe Illustrator 19.2.1, SVG Export Plug-In . SVG Version: 6.00 Build 0)  -->
<svg version="1.1" id="Capa_1" xmlns="http://www.w3.org/2000/svg" xmlns:xlink="http://www.w3.org/1999/xlink" x="0px" y="0px"
	 viewBox="0 0 100 100" style="enable-background:new 0 0 100 100;" xml:space="preserve" width="100" height="100">
<style type="text/css">
	.st0{fill:none;stroke:#222220;stroke-width:0.251;stroke-linecap:round;stroke-linejoin:round;stroke-miterlimit:10;}
	.st1{fill-rule:evenodd;clip-rule:evenodd;fill:#222220;}
	.st2{fill-rule:evenodd;clip-rule:evenodd;fill:#C5332B;}
</style>
<g>
	<path class="st0" d="M50,67.6l5.3,3.1 M56.3,64.1L51,67.1 M65.1,72.2l-2.4,1.4 M65.9,72.9l-2.2,1.4 M56.3,71.2l5.4,3.1 M62.7,74.7
		l1.4,0.7 M61.7,74.2l-2.4,1.2 M63.7,74.2l2.4,1.2 M62.7,74.7l-1.4,0.7 M43.6,71.2l5.4,3.1 M50,74.7l-1.4,0.7 M50,74.7l1.4,0.7
		 M49,74.2l-2.4,1.2 M56.3,71.2L51,74.2l2.4,1.2 M57.3,70.7l5.4,2.9 M44.6,70.7l5.4,2.9 M55.3,70.7L50,73.6 M31.9,63.6l5.4,2.9
		 M36.3,67.1L30.9,70 M37.3,67.6l-5.4,3.1 M30.9,64.1l5.4,3.1 M22.4,65.3l2.2,1.2 M23.6,67.1l-1.2,0.5 M24.6,67.6l-2.2,1.2
		 M22.4,66.4l1.2,0.7 M29.8,63.6l-5.3,2.9 M25.6,67.1l5.3,2.9 M24.6,67.6l5.3,3.1 M30.9,64.1l-5.3,3.1 M30.9,71.2l5.4,3.1
		 M36.3,74.2l-2.4,1.2 M37.3,74.7l-1.4,0.7 M37.3,74.7l1.4,0.7 M22.4,73.6l1.2,0.7 M22.4,72.4l2.2,1.2 M23.6,74.2l-1.2,0.5
		 M24.6,74.7l1.4,0.7 M24.6,74.7l-1.4,0.7 M30.9,71.2l-5.3,3.1 M25.6,74.2l2.4,1.2 M31.9,70.7l5.4,2.9 M29.8,70.7l-5.3,2.9
		 M42.5,63.6l-5.2,2.9 M22.4,75.4H50 M37.3,67.6l5.2,3.1 M38.3,67.1l5.2,2.9 M38.3,74.2l2.4,1.2 M42.5,70.7l-5.2,2.9 M43.6,71.2
		l-5.2,3.1 M43.6,64.1l-5.2,3.1 M68.3,75.4H50 M74.4,60l-4.7,2.5 M75.4,60.5l-5.1,2.9 M49,60l-5.4,2.9 M50,60.5l-5.4,3 M50,60.5
		l5.3,3 M36.3,60l-5.4,2.9 M37.3,60.5l-5.4,3 M24.6,60.5l5.3,3 M25.6,60l5.3,2.9 M37.3,60.5l5.2,3 M38.3,60l5.2,2.9 M22.4,47.3v28.1
		 M77.6,47.3v23.2"/>
	<path class="st0" d="M74.4,52.9L69,55.8 M75.4,53.4l2.2,1.2 M75.4,53.4L70,56.4 M40,54.9l2.5,1.5 M47.6,54.7l-3,1.7 M51.5,58.5
		L50,59.3 M52.2,59.3L51,60 M44.6,56.4l5.4,2.9 M43.6,56.9L49,60 M51,60l4.2,2.4 M40,53.7l3.6,2 M46.9,54.1l-3.4,1.7 M26.5,47.3
		l3.4,2 M28.5,47.3l2.4,1.4 M33.4,47.3l-2.5,1.4 M33.9,48.1l-2,1.2 M30.9,49.8l3.7,2 M31.9,49.3l2,1.2 M22.4,52.2l1.2,0.7 M22.4,51
		l2.2,1.2 M23.6,52.9l-1.2,0.7 M33.9,47.3H22.4 M29.8,49.3l-5.3,2.9 M30.9,49.8l-5.3,3.1 M35.9,54.1l-4.1,2.4 M30.9,56.9l5.4,3.1
		 M31.9,56.4l5.4,2.9 M22.4,59.3l1.2,0.7 M23.6,60l-1.2,0.7 M24.6,60.5l-2.2,1.2 M22.4,58.1l2.2,1.2 M29.8,56.4l-5.3,2.9 M30.9,56.9
		L25.6,60 M35.8,53.1l-4.9,2.7 M24.6,53.4l-2.2,1.2 M25.6,52.9l5.3,2.9 M24.6,53.4l5.3,3.1 M42.5,56.4l-5.2,2.9 M43.6,56.9L38.3,60
		 M65.9,47.3h11.7 M65.9,48.1l2,1.2 M66.6,47.3l2.4,1.4 M68,56.4L65.1,58 M69,56.9l-3.2,1.9 M63.9,54.1l4.1,2.4 M64.2,53.1l4.7,2.7
		 M68,49.3l-2,1.2 M69,49.8l-3.6,2 M77.6,65.3l-2.2,1.2 M71.2,64.1l4.2,2.4 M76.4,67.1l1.2,0.5 M75.4,67.6l2.2,1.2 M75.4,67.6
		L74.9,68 M73.7,66.8l0.7,0.3h-0.2 M77.6,66.4l-1.2,0.7 M56.3,64.1l1.5,0.8 M60.5,67.6L56.3,70 M61.3,68.5l-4.1,2.2 M44.6,63.6
		l5.4,2.9 M49,67.1L43.6,70 M50,67.6l-5.4,3.1 M43.6,64.1l5.4,3.1 M55.3,63.6L50,66.4 M51,67.1l5.2,2.9"/>
	<path class="st1" d="M47.5,41.4H62l-1.7-6.1H41.4L47.5,41.4 M63.9,56.9v-3.6l2-2v-8l-2-2l-1.9-8H40.3l-5.3,8.8l-1.2,1.2v8l2,2v3.9
		H40v-3.9h6.3L63.9,56.9z"/>
	<path class="st2" d="M19.8,26.9L17.1,31l-2.2,4.4l-1.7,4.7l-0.8,4.9L12.1,50l0.3,4.9l0.8,4.9l1.7,4.7l2.2,4.4l2.7,4.1l3.2,3.7
		l3.7,3.4l4.2,2.7l4.4,2.2l4.7,1.7l4.7,0.8L50,88l4.9-0.3l4.9-0.8l4.6-1.7l4.6-2.2l4.1-2.7L19.8,26.9 M100,50l-0.3-5.6l-1-5.6
		l-1.5-5.4l-2.2-5.1l-2.7-4.9L89,18.8l-3.7-4.2l-4.1-3.7l-4.6-3.2l-4.9-2.7l-5.3-2.2L61,1.2l-5.4-0.8L50,0l-5.6,0.3l-5.6,0.8
		l-5.4,1.5l-5.1,2.2l-4.9,2.7l-4.6,3.2l-4.2,3.7l-3.7,4.2l-3.2,4.6l-2.7,4.9l-2.2,5.1l-1.5,5.4l-0.8,5.6L0,50l0.3,5.6l0.8,5.6
		l1.5,5.3l2.2,5.3l2.7,4.9l3.2,4.6l3.7,4.2l4.2,3.7l4.6,3.2l4.9,2.7l5.1,2l5.4,1.7l5.6,0.8L50,100l5.6-0.3l5.4-0.8l5.4-1.7l5.3-2
		l4.9-2.7l4.6-3.2l4.1-3.7l3.7-4.2l3.2-4.6l2.7-4.9l2.2-5.3l1.5-5.3l1-5.6L100,50z M80.2,73.1l2.7-4.1l2.2-4.4l1.5-4.7l1-4.9
		l0.3-4.9l-0.3-5.1l-1-4.7l-1.5-4.7L82.9,31l-2.7-4.2l-3.4-3.7L73,19.8L69,17.1l-4.4-2.2l-4.7-1.7l-4.9-0.8L50,12l-4.9,0.2l-4.9,1
		l-4.7,1.7L31,17.1L27,19.8L80.2,73.1z"/>
</g>
</svg>
