<?xml version="1.0" encoding="utf-8"?>
<!-- Generator: Adobe Illustrator 19.2.1, SVG Export Plug-In . SVG Version: 6.00 Build 0)  -->
<svg version="1.1" id="Capa_1" xmlns="http://www.w3.org/2000/svg" xmlns:xlink="http://www.w3.org/1999/xlink" x="0px" y="0px"
	 viewBox="0 0 100 100" style="enable-background:new 0 0 100 100;" xml:space="preserve" width="100" height="100">
<style type="text/css">
	.st0{fill:#222220;}
	.st1{fill-rule:evenodd;clip-rule:evenodd;fill:#C5332B;}
	.st2{fill-rule:evenodd;clip-rule:evenodd;fill:#222220;}
</style>
<g>
	<path class="st0" d="M77.9,100H22l-1.3-0.2l-1.4-0.6l-1.2-0.9l-0.9-1.1L16.7,96l-0.1-1.5l0-89l0.1-1.4l0.6-1.3l0.9-1.2l1.2-0.9
		l1.3-0.6L22,0l55.8,0l1.4,0.2l1.3,0.6l1.2,0.9l0.9,1.2L83.2,4l0.2,1.5l0,89l-0.2,1.4l-0.6,1.4l-0.9,1.1l-1.2,0.9l-1.3,0.6L77.9,100
		C77.9,100,77.9,100,77.9,100L77.9,100z M77.8,0.4L22,0.4l-1.3,0.2l-1.3,0.5l-1.1,0.8L17.6,3l-0.5,1.2L17,5.5v88.9l0.1,1.4l0.5,1.3
		l0.8,1l1.1,0.8l1.3,0.5l1.3,0.2l55.8,0l1.4-0.2l1.2-0.5l1.1-0.8l0.8-1l0.5-1.3l0.2-1.4V5.5l-0.2-1.4L82.3,3l-0.8-1.1l-1.1-0.8
		l-1.2-0.5L77.8,0.4L77.8,0.4z"/>
	<polyline class="st0" points="56.3,36.2 57.7,35.5 59,34.8 60.1,33.6 61,32.3 61.4,30.9 61.6,29.4 61.6,22.6 62.9,22.8 63.4,22.7 
		63.7,22.4 63.8,21.9 63.6,21.6 59.5,16.2 55.3,21.6 55.1,21.9 55.2,22.4 55.5,22.7 55.9,22.8 57.2,22.6 57.2,29.4 57,30.3 56.6,31 
		55.8,31.5 52.8,32.9 56.3,36.2 	"/>
	<polyline class="st0" points="52.2,32.3 52.2,16.2 47.7,16.2 47.7,27.9 52.2,32.3 	"/>
	<polyline class="st0" points="47.7,39.5 47.7,55 52.2,55 52.2,37.5 47.7,39.5 	"/>
	<polyline class="st0" points="36.6,50.5 36.6,47.4 36.8,45.5 37.2,43.8 37.9,42.2 38.9,40.6 40.2,39.3 41.6,38.1 43.2,37.2 
		48.1,34.9 51.4,38.3 44.9,41.2 43.6,42.1 42.6,43.1 41.7,44.4 41.2,45.8 41,47.4 41,53.3 36.6,50.5 	"/>
	<path class="st1" d="M77.7,33.5l-0.2-3.1l-0.6-3.1l-0.8-3l-1.2-2.8l-1.5-2.7l-1.8-2.5l-2.1-2.3l-2.3-2.1L64.7,10L62,8.5l-2.9-1.2
		l-3-0.8l-3-0.6L50,5.7l-3.1,0.2l-3.1,0.6l-3,0.8L38,8.5L35.3,10l-2.5,1.8l-2.3,2.1l-2.1,2.3l-1.8,2.5L25,21.5l-1.2,2.8l-0.8,3
		l-0.6,3.1l-0.1,3.1l0.1,3.1l0.6,3l0.8,3l1.2,2.9l1.5,2.7l1.8,2.5l2.1,2.2l2.3,2.1l2.5,1.9l2.7,1.5l2.8,1.1l3,0.8l3.1,0.6l3.1,0.2
		l3.1-0.2l3-0.6l3-0.8l2.9-1.1l2.7-1.5l2.5-1.9l2.3-2.1l2.1-2.2l1.8-2.5l1.5-2.7l1.2-2.9l0.8-3l0.6-3L77.7,33.5 M66.7,46.2
		L37.1,16.7l2.3-1.5l2.4-1.2l2.6-0.8l2.6-0.6l2.8-0.2l2.7,0.2l2.7,0.6L58,14l2.5,1.2l2.3,1.6l2.1,1.8l1.8,2.1l1.6,2.2l1.2,2.5
		l0.8,2.5l0.6,2.7l0.2,2.7l-0.2,2.8l-0.6,2.6l-0.8,2.6L68.2,44L66.7,46.2z M33.3,20.6L31.7,23l-1.2,2.4L29.6,28l-0.6,2.6l-0.2,2.8
		l0.2,2.7l0.6,2.7l0.8,2.5l1.2,2.5l1.6,2.2l1.8,2.1l2.1,1.9l2.3,1.5l2.5,1.2l2.5,0.8l2.7,0.6l2.7,0.2l2.8-0.2l2.6-0.6l2.6-0.8
		l2.5-1.2l2.3-1.5L33.3,20.6z"/>
	<path class="st2" d="M77.9,95.9l0.7-0.2l0.5-0.6l0.2-0.7v-89L79,4.9l-0.5-0.5l-0.7-0.2H22l-0.7,0.2l-0.5,0.5l-0.2,0.7v89l0.2,0.7
		l0.5,0.6l0.7,0.2H77.9 M77.9,98.5l1.2-0.2l1.1-0.6l0.8-0.9l0.6-1.1l0.3-1.2v-89l-0.3-1.2L81,3.2l-0.8-0.8l-1.1-0.6l-1.2-0.2H22
		l-1.2,0.2l-1.1,0.6l-0.8,0.8l-0.6,1.1l-0.2,1.2v89l0.2,1.2l0.6,1.1l0.8,0.9l1.1,0.6l1.2,0.2H77.9z"/>
	<path class="st2" d="M60.1,71.2l0.5-0.2l0.4-0.4l0.2-0.5L61,69.7l-0.5-0.2h-1.6v1.7H60.1 M60.5,74.1l0.6-0.3l0.3-0.6l-0.2-0.5
		l-0.4-0.5l-0.6-0.1h-1.3v1.9H60.5z M22.4,68.5h1l2.4,4.4v-4.4h1v6.7h-1l-2.4-4.4v4.4h-1V68.5z M29.7,73.4l0.5,0.6l0.7,0.3l0.7-0.2
		l0.4-0.7l0.3-1.6l-0.3-1.6l-0.4-0.6l-0.7-0.2l-0.7,0.2l-0.5,0.6l-0.2,1.6L29.7,73.4z M51.1,68.5h1l1.6,3.8l1.5-3.8h1v6.7h-1v-3.8
		l-1.5,3.8l-1.6-3.8v3.8h-1V68.5z M46.6,68.5h0.9l2.3,6.7h-1.1l-0.6-1.9h-2.2l-0.6,1.9h-1.1L46.6,68.5z M47.8,72.3l-0.8-2l-0.7,2
		H47.8z M68.6,68.5h0.9l2.3,6.7h-1.1l-0.6-1.9h-2.2l-0.6,1.9h-1.1L68.6,68.5z M64,68.5h1v6.7h-1V68.5z M69.7,72.3l-0.7-2l-0.8,2
		H69.7z M75.5,71.1l0.4-0.1l0.4-0.3l0.1-0.4l-0.1-0.5l-0.4-0.3l-0.4-0.1H74v1.6H75.5z M28.8,73.7l0.4,0.8l0.7,0.6l0.9,0.2l0.8-0.2
		l0.7-0.6l0.5-0.8l0.3-1.9l-0.3-1.9l-0.5-0.7l-0.7-0.6l-0.8-0.2l-0.9,0.2l-0.7,0.6l-0.4,0.7l-0.3,1.3v1.2L28.8,73.7z M41.6,75.3
		l0.7-0.2l0.8-0.6l0.4-0.7l-0.9-0.3l-0.4,0.5l-0.7,0.3L40.8,74l-0.4-0.5l-0.4-1.1v-1.2l0.4-1.1l0.4-0.5l0.7-0.2l0.6,0.2l0.5,0.5
		l0.9-0.3L43,69.1l-0.7-0.5l-0.8-0.2l-0.8,0.1L40,69l-0.5,0.8L39,71.1v1.4l0.5,1.4l0.5,0.7l0.8,0.4L41.6,75.3z M60.5,75.2l0.8-0.2
		l0.7-0.6l0.3-0.7v-0.8l-0.4-0.7l-0.7-0.6l0.6-0.4l0.3-0.7v-0.7l-0.3-0.7l-0.6-0.5l-0.8-0.2h-2.6v6.7H60.5z M73,68.5h2.5l0.8,0.2
		l0.6,0.5l0.4,0.7v0.8l-0.4,0.7l-0.6,0.6l1.1,3.1h-1.1l-1.1-2.9H74v2.9h-1V68.5z"/>
	<path class="st2" d="M35.7,81.8h3.9v1h-2.9v1.6h2v1h-2v1.9h3.1v1h-4.1V81.8 M32,87.4l0.7-0.2l0.6-0.6l0.3-1v-0.9l-0.3-1L32.6,83
		L32,82.9h-0.8v4.5H32z M48.3,84.4l0.4-0.1l0.3-0.3l0.1-0.5L49,83.2l-0.3-0.3l-0.4-0.1h-1.6v1.6H48.3z M51.4,81.8h1v6.6h-1V81.8z
		 M66.6,81.8h0.9l2.3,6.6h-1.1l-0.7-1.8H66l-0.7,1.8h-1.1L66.6,81.8z M67.7,85.6l-0.7-2l-0.7,2H67.7z M60.9,82.9h-1.5v-1h4v1h-1.5
		v5.5h-1V82.9z M34.1,87l0.4-1.2v-1.3l-0.4-1.2l-0.6-0.8l-0.7-0.6L32,81.8h-1.9v6.6H32l0.8-0.1l0.7-0.6L34.1,87z M48.3,85.5l0.7-0.1
		l0.7-0.5l0.4-0.6l0.1-0.7L50,82.9l-0.4-0.7L49,81.9l-0.7-0.1h-2.6v6.6h1v-2.9H48.3z M54.6,86.5l0.3,0.5l0.5,0.4l0.6,0.2l0.5-0.1
		l0.4-0.3l0.3-0.3v-0.4l-0.2-0.7l-0.6-0.3l-1-0.2l-0.5-0.3l-0.5-0.4L54,84.3l-0.1-0.6l0.1-0.7l0.4-0.6l0.6-0.5l0.8-0.2h0.7L57,82
		l0.6,0.5l0.3,0.7l-1,0.3l-0.4-0.6l-0.7-0.1l-0.5,0.1l-0.3,0.4L55,83.7l0.2,0.4l0.4,0.3l0.9,0.2l0.8,0.4l0.6,0.7l0.2,0.9L58,87.3
		l-0.5,0.7l-0.7,0.5l-0.8,0.2l-0.8-0.2L54.4,88l-0.5-0.6l-0.3-0.7L54.6,86.5z"/>
</g>
</svg>
