<?xml version="1.0" encoding="utf-8"?>
<!-- Generator: Adobe Illustrator 19.2.1, SVG Export Plug-In . SVG Version: 6.00 Build 0)  -->
<svg version="1.1" id="Capa_1" xmlns="http://www.w3.org/2000/svg" xmlns:xlink="http://www.w3.org/1999/xlink" x="0px" y="0px"
	 viewBox="0 0 100 100" style="enable-background:new 0 0 100 100;" xml:space="preserve" width="100" height="100">
<style type="text/css">
	.st0{fill:#222220;}
	.st1{fill-rule:evenodd;clip-rule:evenodd;fill:#C5332B;}
</style>
<g>
	<polyline class="st0" points="39.8,33 53.6,13.2 69.4,35.8 69.6,36.4 69.8,37 69.8,37.5 69.6,38.1 69.3,38.7 68.9,39.1 68.4,39.4 
		67.8,39.6 67.2,39.6 66.6,39.5 59.6,37.2 59.6,85 47.6,85 47.6,37.2 44.9,38.1 39.8,33 	"/>
	<path class="st1" d="M100,50l-0.1-3.2l-0.3-3.3L99,40.2L98.3,37l-1-3.1l-1.2-3.1l-1.3-3L93.3,25l-1.8-2.8l-1.9-2.7L87.6,17
		l-2.2-2.4L83,12.4l-2.5-2.1l-2.7-1.9L75,6.7l-2.9-1.5l-3-1.4l-3-1.2l-3.1-0.9L59.7,1l-3.2-0.5l-3.2-0.3L50,0l-3.2,0.1l-3.3,0.3
		L40.2,1L37,1.7l-3.1,0.9l-3,1.2l-3,1.4L25,6.7l-2.8,1.7l-2.7,1.9L17,12.4l-2.4,2.2L12.4,17l-2.1,2.5l-1.9,2.7L6.7,25l-1.5,2.9
		l-1.4,3l-1.1,3.1l-1,3.1L1,40.2l-0.5,3.2l-0.3,3.3L0,50l0.1,3.3l0.3,3.2L1,59.7l0.7,3.2l1,3.1l1.1,3.1l1.4,3L6.7,75l1.7,2.8
		l1.9,2.7l2.1,2.5l2.2,2.4l2.4,2.2l2.5,2.1l2.7,1.9l2.8,1.8l2.9,1.5l3,1.3l3,1.2l3.1,1l3.2,0.7l3.2,0.5l3.3,0.3L50,100l3.3-0.1
		l3.2-0.3l3.2-0.5l3.2-0.7l3.1-1l3-1.2l3-1.3l2.9-1.5l2.8-1.8l2.7-1.9l2.5-2.1l2.4-2.2l2.2-2.4l2.1-2.5l1.9-2.7l1.8-2.8l1.5-2.9
		l1.3-3l1.2-3.1l1-3.1l0.7-3.2l0.5-3.2l0.3-3.2L100,50 M73.1,80.1L19.8,26.9l-1.6,2.3l-1.5,2.5l-1.3,2.5l-1.1,2.7l-0.9,2.8l-0.6,2.8
		l-0.5,2.8L12,48.2V51l0.2,2.9l0.4,2.9l0.6,2.8l0.8,2.8l1.1,2.7l1.2,2.6l1.4,2.5l1.6,2.4l1.8,2.3l2,2.1l2.1,2l2.2,1.8l2.4,1.6
		l2.5,1.4l2.6,1.2l2.7,1.1l2.7,0.8l2.8,0.6l2.9,0.4l2.9,0.2l2.9-0.1l2.9-0.3l2.9-0.4l2.8-0.7l2.8-0.9l2.7-1.1l2.5-1.3l2.5-1.5
		L73.1,80.1z M80.1,73.1l1.7-2.3l1.4-2.4l1.3-2.6l1.1-2.7l0.9-2.8l0.7-2.8l0.4-2.9l0.3-2.9v-2.9L87.8,46l-0.4-2.9l-0.6-2.8l-0.9-2.7
		l-1.1-2.7l-1.2-2.6l-1.4-2.5l-1.6-2.4l-1.8-2.2l-2-2.1l-2.1-2l-2.2-1.8l-2.4-1.6l-2.5-1.4L65,15.1L62.3,14l-2.8-0.8l-2.8-0.6
		l-2.9-0.4L51,12h-2.9l-2.9,0.3l-2.8,0.5l-2.8,0.6l-2.8,0.9l-2.7,1.1l-2.5,1.3l-2.5,1.5l-2.3,1.6L80.1,73.1z"/>
</g>
</svg>
