<?xml version="1.0" encoding="utf-8"?>
<!-- Generator: Adobe Illustrator 19.2.1, SVG Export Plug-In . SVG Version: 6.00 Build 0)  -->
<svg version="1.1" id="Capa_1" xmlns="http://www.w3.org/2000/svg" xmlns:xlink="http://www.w3.org/1999/xlink" x="0px" y="0px"
	 viewBox="0 0 100 100" style="enable-background:new 0 0 100 100;" xml:space="preserve" width="100" height="100">
<style type="text/css">
	.st0{fill-rule:evenodd;clip-rule:evenodd;fill:#222220;}
	.st1{fill:#222220;}
	.st2{fill-rule:evenodd;clip-rule:evenodd;fill:#C5332B;}
</style>
<g>
	<polyline class="st0" points="49.8,20.3 50.2,20.3 50.7,20.2 51.1,20.1 51.5,19.8 51.9,19.5 52.2,19.1 52.4,18.7 52.6,18.2 
		52.7,17.6 52.7,17.1 52.6,16.6 52.4,16.1 52.2,15.7 51.9,15.4 51.5,15.1 51.1,14.9 50.6,14.8 50.2,14.8 49.7,14.9 49.3,15.2 
		48.9,15.4 48.6,15.8 48.3,16.3 48.1,16.7 48,17.2 47.9,17.7 48,18.3 48.1,18.7 48.3,19.2 48.6,19.6 48.9,19.9 49.3,20.1 49.8,20.3 
			"/>
	<polyline class="st1" points="53,26.8 54,28.4 54.2,28.8 54.2,34.2 54.2,34.5 54.7,35 55,35 55.8,35 56.1,35 56.3,34.8 56.5,34.5 
		56.6,34.2 56.6,27.8 56.5,27.5 53.2,21.7 52.9,21.5 52.6,21.3 51.4,21 50.2,21 48.9,21 47.7,21.3 47.4,21.5 47.1,21.7 45.6,25 
		45.3,25.6 42.1,28.3 41.4,28.7 39.6,29.5 39.4,29.7 39.3,29.9 39.2,30.2 39.3,30.5 39.6,31.4 39.8,31.6 40.1,31.8 40.4,31.9 
		40.7,31.8 43.2,30.5 43.6,30.3 46.5,33.8 43,39.3 41.9,48.4 41.9,48.7 42,48.9 42.2,49.1 42.5,49.3 43.8,49.4 44.1,49.4 44.4,49.3 
		44.5,49.1 44.7,48.8 45.7,40.9 48.8,36.1 49.6,36.4 49.7,37 50.4,42.1 54.5,50.9 54.7,51.1 54.9,51.2 55.2,51.3 55.5,51.2 57,50.5 
		57.2,50.4 57.4,50.1 57.4,49.8 57.3,49.5 53.7,41.7 53.7,41 53,33.7 53,26.8 	"/>
	<path class="st1" d="M78,100l-56.9,0l-0.8-0.2L18.8,99l-0.6-0.5l-0.6-0.7l-0.4-0.7l-0.5-1.6l0-0.9V5.4l0-0.8L17.2,3l0.4-0.7
		l0.6-0.7l0.6-0.5l1.5-0.8l0.8-0.2L22,0h56l0.8,0.1l0.8,0.2l0.8,0.3L81.2,1l0.7,0.5l0.5,0.7l0.4,0.7l0.3,0.8l0.2,0.8l0.1,0.9v89.2
		l-0.1,0.8l-0.2,0.8l-0.8,1.5l-0.5,0.7L81.2,99l-0.7,0.4l-0.8,0.3l-0.8,0.2L78,100C78,100,78,100,78,100L78,100z M78,0.1H22
		l-0.8,0.1l-0.8,0.2l-1.5,0.8l-0.6,0.5l-0.6,0.6L17.3,3l-0.5,1.6l0,0.8v89.2l0,0.8l0.5,1.5l0.4,0.7l0.6,0.6l0.6,0.5l1.5,0.8l0.8,0.2
		l0.8,0l56.8,0l0.8-0.2l0.8-0.3l0.7-0.4l0.6-0.5l0.5-0.6l0.8-1.5l0.2-0.8l0.1-0.8V5.4l-0.1-0.8L83,3.8L82.7,3l-0.4-0.7l-0.5-0.6
		l-0.6-0.5l-0.7-0.4l-0.8-0.3l-0.8-0.2L78,0.1L78,0.1z"/>
	<path class="st2" d="M77.8,33.4l-0.1-2.1l-0.3-2.1l-0.4-2.1l-0.5-2l-0.7-2L75,21.3l-1-1.8L73,17.7l-1.3-1.6l-1.3-1.6L68.9,13
		l-1.6-1.3l-1.6-1.3l-1.8-1.1l-1.8-1l-1.9-0.8l-2-0.7l-2-0.5L54.1,6l-2.1-0.3L50,5.6l-2.1,0.1L45.8,6l-2,0.4l-2,0.5l-2,0.7l-1.9,0.8
		l-1.8,1l-1.8,1.1l-1.7,1.3L31.1,13l-1.5,1.5l-1.3,1.6L27,17.7l-1.1,1.8l-1,1.8l-0.8,1.9l-0.7,2l-0.5,2l-0.4,2.1l-0.2,2.1l-0.1,2.1
		l0.1,2.1l0.2,2.1l0.4,2l0.5,2l0.7,2l0.8,1.9l1,1.8L27,49l1.2,1.7l1.3,1.6l1.5,1.5l1.6,1.4l1.7,1.2l1.8,1.1l1.8,1l1.9,0.8l2,0.7
		l2,0.5l2,0.4l2.1,0.2l2.1,0.1l2.1-0.1l2.1-0.2l2.1-0.4l2-0.5l2-0.7l1.9-0.8l1.8-1l1.8-1.1l1.6-1.2l1.6-1.4l1.5-1.5l1.3-1.6L73,49
		l1.1-1.8l1-1.8l0.8-1.9l0.7-2l0.5-2l0.4-2l0.3-2.1L77.8,33.4 M66.8,46.2L37.1,16.6l1.4-1l1.5-0.9l1.6-0.7l1.6-0.6l1.7-0.5l1.7-0.3
		l1.7-0.2l1.8,0l1.7,0.1l1.7,0.2l1.7,0.4l1.7,0.5l1.6,0.6l1.5,0.8l1.5,0.9l1.4,1l1.3,1.1l1.2,1.2l1.1,1.3l1,1.4l0.9,1.5l0.8,1.5
		l0.6,1.6l0.5,1.7l0.4,1.7l0.2,1.7l0.1,1.7l0,1.8l-0.2,1.7l-0.3,1.7L70,40.1l-0.6,1.6l-0.8,1.6l-0.9,1.5L66.8,46.2z M33.2,20.6
		l-1,1.4l-0.8,1.5L30.6,25L30,26.7l-0.5,1.6L29.1,30L29,31.7l-0.1,1.7l0.1,1.7l0.2,1.7l0.3,1.7l0.5,1.6l0.7,1.6l0.8,1.6l0.9,1.5
		l1,1.4l1.1,1.3l1.2,1.2L37,50l1.4,1l1.5,0.9l1.6,0.8l1.6,0.7l1.6,0.5l1.7,0.3l1.7,0.2l1.7,0.1l1.7-0.1l1.7-0.2l1.7-0.3l1.6-0.5
		l1.6-0.6l1.6-0.8l1.5-0.9l1.4-1L33.2,20.6z"/>
	<path class="st0" d="M78,98.6l0.8-0.1l0.7-0.2l0.7-0.4l0.6-0.5l0.5-0.6l0.4-0.7l0.2-0.7l0.1-0.8V5.4l-0.1-0.8l-0.2-0.7l-0.4-0.7
		l-0.5-0.6l-0.6-0.5l-0.7-0.4l-0.7-0.2L78,1.4H22l-0.8,0.1l-0.8,0.2l-0.7,0.4l-0.6,0.5l-0.5,0.6l-0.3,0.7l-0.2,0.7L18,5.4v89.2
		l0.1,0.8l0.2,0.7l0.3,0.7l0.5,0.6l0.6,0.5l0.7,0.4l0.8,0.2l0.8,0.1H78 M78,95.9l0.4-0.1l0.4-0.2l0.3-0.3l0.2-0.4l0-0.4V5.4l0-0.4
		l-0.2-0.4l-0.3-0.3l-0.4-0.2L78,4.1H22l-0.4,0.1l-0.3,0.2l-0.3,0.3L20.7,5l-0.1,0.4v89.2l0.1,0.4l0.2,0.4l0.3,0.3l0.3,0.2l0.4,0.1
		H78z"/>
	<path class="st0" d="M51.6,73.2l0.2,0.3l0.3,0.3l0.4,0.1l0.4-0.1l0.3-0.3l0.2-0.3l0.2-0.9v-0.9l-0.2-0.9l-0.2-0.3l-0.3-0.3
		l-0.4-0.1l-0.4,0.1l-0.3,0.3l-0.2,0.3l-0.2,0.9v0.9L51.6,73.2 M45.5,69.1h0.8l2.1,3.7v-3.7h0.9v5.5h-0.8l-2-3.7v3.7h-0.9V69.1z
		 M50.8,73.5l0.2,0.4l0.3,0.3l0.3,0.3l0.4,0.2l0.5,0l0.5,0l0.4-0.2l0.4-0.3l0.3-0.3l0.2-0.4l0.2-0.8l0-0.8l0-0.8l-0.2-0.8l-0.2-0.5
		l-0.3-0.3l-0.4-0.3L53,69.1l-0.5,0l-0.5,0l-0.4,0.2l-0.3,0.3L51,69.9l-0.2,0.4l-0.2,0.8l-0.1,0.8l0.1,0.8L50.8,73.5z"/>
	<path class="st0" d="M36.3,82.4h3.3v0.9h-2.4v1.3h1.6v0.9h-1.6v1.6h2.5V88h-3.4V82.4 M33.4,84.7l0.3-0.1l0.2-0.2l0.1-0.2l0.1-0.3
		L34,83.7l-0.1-0.2l-0.2-0.2l-0.3,0h-1.3v1.4H33.4z M47.2,83.3h-1.3v-0.9h3.4v0.9H48V88h-0.8V83.3z M43.4,85.5l-0.6-1.6l-0.6,1.6
		H43.4z M42.4,82.4h0.8l2,5.5h-1l-0.5-1.5h-1.7L41.4,88h-0.9L42.4,82.4z M55.5,82.4h0.8l2.1,3.7v-3.7h0.9V88h-0.8l-2-3.7V88h-0.9
		V82.4z M51.4,86.5l0.2,0.3l0.3,0.3l0.4,0.1l0.4-0.1l0.3-0.2l0.2-0.4l0.2-0.9v-0.9l-0.2-0.9L53,83.5l-0.3-0.3l-0.4-0.1l-0.4,0.1
		l-0.3,0.2l-0.2,0.3l-0.2,0.9v0.9L51.4,86.5z M60.6,82.4h3.3v0.9h-2.4v1.3h1.6v0.9h-1.6v1.6H64V88h-3.4V82.4z M68.7,86.3l-0.1-0.6
		l-0.3-0.5l-0.4-0.3l-0.5-0.2l-0.8-0.2l-0.2-0.1l-0.2-0.2l0-0.2l0-0.3l0.2-0.2l0.2-0.2l0.3-0.1h0.3l0.3,0.1l0.2,0.2l0.2,0.3l0.8-0.2
		l-0.2-0.5l-0.3-0.4l-0.4-0.3l-0.5-0.2h-0.5l-0.5,0.1l-0.4,0.3l-0.3,0.4l-0.2,0.4L65.2,84l0.1,0.5l0.2,0.4l0.4,0.3l0.5,0.2l0.8,0.2
		l0.2,0.1l0.2,0.2l0.1,0.2l0.1,0.3l-0.1,0.3L67.6,87l-0.3,0.2l-0.4,0.1l-0.3-0.1L66.2,87l-0.3-0.3l-0.2-0.3L65,86.6l0.2,0.4l0.2,0.3
		l0.3,0.3l0.4,0.2l0.4,0.1l0.4,0.1l0.5-0.1l0.4-0.2l0.4-0.3l0.3-0.3l0.2-0.4L68.7,86.3z M52.2,88.1l0.5-0.1l0.4-0.2l0.4-0.3l0.3-0.3
		l0.2-0.4l0.2-0.8l0-0.8l0-0.8L54,83.6l-0.2-0.5l-0.3-0.3l-0.4-0.3l-0.4-0.2l-0.5,0l-0.5,0l-0.4,0.2L51,82.8l-0.3,0.4l-0.2,0.4
		l-0.2,0.8l-0.1,0.8l0.1,0.8l0.2,0.8l0.2,0.4l0.3,0.3l0.3,0.3l0.4,0.2L52.2,88.1z M33.4,85.5l0.5-0.1l0.4-0.2l0.3-0.3l0.2-0.5L35,84
		l0-0.5l-0.2-0.4l-0.3-0.3l-0.4-0.2l-0.5-0.1h-2.2V88h0.9v-2.4H33.4z"/>
</g>
</svg>
