<?xml version="1.0" encoding="utf-8"?>
<!-- Generator: Adobe Illustrator 16.0.0, SVG Export Plug-In . SVG Version: 6.00 Build 0)  -->
<!DOCTYPE svg PUBLIC "-//W3C//DTD SVG 1.1//EN" "http://www.w3.org/Graphics/SVG/1.1/DTD/svg11.dtd">
<svg version="1.1" id="Layer_1" xmlns="http://www.w3.org/2000/svg" xmlns:xlink="http://www.w3.org/1999/xlink" x="0px" y="0px"
	 width="100px" height="100px" viewBox="0 0 100 100" enable-background="new 0 0 100 100" xml:space="preserve">
<g>
	<polyline fill="#231F20" points="39.351,46.308 41.291,52.278 41.396,53.013 41.291,53.692 40.978,54.323 40.453,54.794 
		39.823,55.108 39.139,55.264 38.406,55.108 37.775,54.794 16.685,39.132 25.552,32.584 33.58,26.613 37.775,23.522 38.406,23.208 
		39.139,23.051 39.823,23.154 40.453,23.469 40.978,23.994 41.291,24.623 41.396,25.304 41.291,26.038 39.244,32.271 39.561,32.584 
		68.362,32.584 69.047,32.74 69.675,33.057 70.147,33.526 70.463,34.154 70.618,34.836 70.618,80.304 57.501,80.304 57.501,45.678 
		52.675,45.678 39.351,46.308 	"/>
	<path fill-rule="evenodd" clip-rule="evenodd" fill="#EE3E33" d="M99.266,50.028l-0.104-3.248l-0.314-3.197l-0.525-3.195
		l-0.735-3.141l-0.945-3.093l-1.102-2.985l-1.363-2.933l-1.523-2.828l-1.675-2.777l-1.892-2.565l-2.045-2.516l-2.204-2.355
		l-2.358-2.2l-2.469-2.043l-2.624-1.887l-2.727-1.676L71.772,5.87l-2.938-1.362l-2.988-1.1l-3.097-0.944L59.6,1.732l-3.146-0.525
		L53.2,0.895L50,0.788l-3.2,0.106l-3.253,0.313l-3.147,0.525l-3.148,0.731l-3.095,0.944l-3.042,1.1L28.175,5.87l-2.834,1.519
		l-2.728,1.676l-2.622,1.887l-2.466,2.043l-2.361,2.2l-2.205,2.355l-2.046,2.516l-1.888,2.565l-1.733,2.777l-1.52,2.828L4.46,31.169
		l-1.154,2.985l-0.892,3.093l-0.733,3.141l-0.526,3.195L0.84,46.78l-0.105,3.248l0.105,3.194l0.314,3.194l0.526,3.194l0.733,3.146
		l0.892,3.087l1.154,2.987l1.313,2.936l1.52,2.826l1.733,2.776l1.888,2.62l2.046,2.463l2.205,2.355l2.361,2.202l2.466,2.041
		l2.622,1.886l2.728,1.675l2.834,1.521l2.939,1.36l3.042,1.102l3.095,0.942l3.148,0.732l3.147,0.525L46.8,99.11l3.2,0.102l3.2-0.102
		l3.253-0.316l3.146-0.525l3.149-0.732l3.097-0.942l2.988-1.102l2.938-1.36l2.887-1.521l2.727-1.675l2.624-1.886l2.469-2.041
		l2.358-2.202l2.204-2.355l2.045-2.463l1.892-2.62l1.675-2.776l1.523-2.826l1.363-2.936l1.102-2.987l0.945-3.087l0.735-3.146
		l0.525-3.194l0.314-3.194L99.266,50.028 M79.747,72.762L27.231,20.326l2.307-1.676l2.413-1.466l2.572-1.257l2.623-1.049
		l2.677-0.891l2.779-0.68l2.78-0.42l2.835-0.263h2.832l2.833,0.158l2.781,0.419l2.78,0.629l2.73,0.785l2.621,1.048l2.57,1.204
		l2.466,1.414l2.361,1.573l2.202,1.78l2.1,1.938l1.889,2.042l1.783,2.251l1.576,2.308l1.416,2.46l1.261,2.567l0.995,2.62l0.84,2.724
		l0.575,2.775l0.421,2.828l0.21,2.776l-0.054,2.88l-0.262,2.776l-0.42,2.832l-0.68,2.721l-0.894,2.725l-1.051,2.618l-1.259,2.517
		l-1.471,2.46L79.747,72.762z M72.771,79.725L20.251,27.241L18.627,29.6l-1.47,2.409l-1.259,2.513l-1.103,2.62l-0.839,2.724
		l-0.683,2.725l-0.472,2.828l-0.21,2.829l-0.053,2.827l0.21,2.829l0.421,2.776l0.576,2.776l0.839,2.721l0.997,2.621l1.259,2.566
		l1.365,2.465l1.625,2.355l1.731,2.197l1.942,2.097l2.098,1.887l2.203,1.78l2.362,1.574l2.466,1.412l2.57,1.206l2.622,1.046
		l2.729,0.84l2.729,0.575l2.83,0.42l2.835,0.155h2.834l2.832-0.26l2.78-0.421l2.782-0.681l2.676-0.891l2.623-1.05l2.52-1.255
		l2.466-1.467L72.771,79.725z"/>
</g>
</svg>
