<?xml version="1.0" encoding="utf-8"?>
<!-- Generator: Adobe Illustrator 19.2.1, SVG Export Plug-In . SVG Version: 6.00 Build 0)  -->
<svg version="1.1" id="Capa_1" xmlns="http://www.w3.org/2000/svg" xmlns:xlink="http://www.w3.org/1999/xlink" x="0px" y="0px"
	 viewBox="0 0 100 100" style="enable-background:new 0 0 100 100;" xml:space="preserve" width="100" height="100">
<style type="text/css">
	.st0{fill:#222220;}
	.st1{fill-rule:evenodd;clip-rule:evenodd;fill:#C5332B;}
</style>
<g>
	<polyline class="st0" points="28,35 27.7,36.8 27.7,38.6 27.7,60 21.2,57.8 20.5,57.7 19.8,57.8 19.2,58.1 18.7,58.7 18.3,59.2 
		18.2,60 18.3,60.7 18.6,61.3 33.4,81.8 48.2,61.3 48.5,60.7 48.6,60 48.5,59.2 48.2,58.7 47.7,58.1 47,57.8 46.3,57.7 45.6,57.8 
		39.1,60 39.1,45 28,35 	"/>
	<polyline class="st0" points="70.5,76 70.5,81.8 59,81.8 59,64.6 70.5,76 	"/>
	<polyline class="st0" points="59,53.2 59,38.6 58.9,37.2 58.7,35.7 58.1,34.4 57.5,33.1 56.6,32 55.6,31 54.4,30.1 53.1,29.5 
		51.7,29 50.3,28.7 48.9,28.6 47.4,28.8 46.1,29.1 44.7,29.6 43.5,30.4 42.3,31.2 41.4,32.3 40.2,33.8 31.9,25.7 33.7,23.7 
		35.3,22.3 37,20.9 38.8,19.9 40.7,18.9 42.7,18.2 44.7,17.7 46.8,17.4 48.9,17.2 51,17.3 53.1,17.6 55.1,18.1 57.1,18.8 59,19.7 
		60.8,20.8 62.6,22 64.1,23.4 65.6,25 66.8,26.7 67.9,28.5 68.8,30.4 69.5,32.4 70,34.4 70.3,36.5 70.5,38.6 70.5,64.7 59,53.2 	"/>
	<path class="st1" d="M100,50l-0.1-3.3l-0.3-3.3l-0.5-3.2l-0.8-3.2l-0.9-3.1l-1.2-3.1l-1.3-2.9L93.3,25l-1.7-2.8l-1.9-2.6L87.6,17
		l-2.2-2.4L83,12.4l-2.5-2.1l-2.7-1.9L75,6.7l-2.9-1.5l-3-1.4l-3-1.1l-3.2-1L59.8,1l-3.3-0.5l-3.3-0.3L50,0l-3.3,0.1l-3.3,0.3
		L40.3,1l-3.2,0.7l-3.2,1l-3,1.1l-3,1.4L25,6.7l-2.8,1.7l-2.7,1.9L17,12.4l-2.3,2.2L12.4,17l-2.1,2.6l-1.9,2.6L6.7,25l-1.6,2.9
		l-1.4,2.9l-1.1,3.1l-0.9,3.1L1,40.3l-0.5,3.2l-0.3,3.3L0,50l0.1,3.3l0.3,3.3L1,59.7l0.8,3.2l0.9,3.2l1.1,3l1.4,3L6.7,75l1.7,2.8
		l1.9,2.7l2.1,2.5l2.3,2.4l2.3,2.2l2.6,2.1l2.7,1.9l2.8,1.7l2.9,1.6l3,1.3l3,1.2l3.2,0.9l3.2,0.8l3.2,0.5l3.3,0.3L50,100l3.3-0.1
		l3.3-0.3l3.3-0.5l3.2-0.8l3.2-0.9l3-1.2l3-1.3l2.9-1.6l2.8-1.7l2.7-1.9l2.5-2.1l2.4-2.2l2.2-2.4l2.1-2.5l1.9-2.7l1.7-2.8l1.6-2.9
		l1.3-3l1.2-3l0.9-3.2l0.8-3.2l0.5-3.2l0.3-3.3L100,50 M80.2,73.1l1.6-2.3l1.5-2.5l1.3-2.6l1.1-2.7l0.9-2.7l0.7-2.8l0.4-2.8l0.3-2.9
		v-2.9l-0.2-2.8l-0.4-2.9l-0.7-2.8L86,37.6l-1-2.7l-1.3-2.6l-1.4-2.5l-1.6-2.4l-1.8-2.2l-2-2.1l-2.1-2l-2.2-1.8l-2.4-1.6l-2.5-1.5
		l-2.6-1.2L62.4,14l-2.7-0.8l-2.8-0.6L54,12.2L51.1,12h-2.9l-2.9,0.3l-2.8,0.4l-2.8,0.7L37,14.3l-2.7,1.1l-2.6,1.3l-2.5,1.5
		l-2.3,1.6L80.2,73.1z M19.9,26.9l-1.7,2.4l-1.5,2.4l-1.3,2.6l-1.1,2.7l-0.9,2.8l-0.7,2.8l-0.5,2.8l-0.2,2.9L12,51.1l0.2,2.9
		l0.4,2.8l0.7,2.8l0.8,2.7l1,2.7l1.3,2.6l1.4,2.5l1.6,2.4l1.8,2.2l2,2.1l2.1,2l2.3,1.8l2.3,1.6l2.5,1.4l2.6,1.3l2.7,1l2.8,0.8
		l2.8,0.7l2.8,0.4L49,88h2.9l2.8-0.3l2.8-0.4l2.8-0.7l2.7-0.9l2.7-1.1l2.6-1.3l2.5-1.5l2.3-1.6L19.9,26.9z"/>
</g>
</svg>
