<?xml version="1.0" encoding="utf-8"?>
<!-- Generator: Adobe Illustrator 19.2.1, SVG Export Plug-In . SVG Version: 6.00 Build 0)  -->
<svg version="1.1" id="Capa_1" xmlns="http://www.w3.org/2000/svg" xmlns:xlink="http://www.w3.org/1999/xlink" x="0px" y="0px"
	 viewBox="0 0 100 100" style="enable-background:new 0 0 100 100;" xml:space="preserve" width="100" height="100">
<style type="text/css">
	.st0{fill-rule:evenodd;clip-rule:evenodd;fill:#C5332B;}
	.st1{fill:#222220;}
	.st2{fill-rule:evenodd;clip-rule:evenodd;fill:#FFFFFF;}
</style>
<g>
	<polyline class="st0" points="30.8,96.4 3.5,69.2 3.5,30.9 30.8,3.6 69.2,3.6 96.4,30.9 96.4,69.2 69.2,96.4 30.8,96.4 	"/>
	<path class="st1" d="M70.5,100H29.4L0.1,70.8L0,29.5L29.3,0.1L70.5,0l29.4,29.3l0.1,41.2L70.7,99.9C70.7,99.9,70.6,100,70.5,100
		L70.5,100z M70.4,0.5L29.4,0.6l-29,29.1l0.1,40.9l29.1,28.9l40.8-0.1l29.1-29.1l-0.1-40.9L70.4,0.5L70.4,0.5z"/>
	<polyline class="st2" points="74.7,36.8 90.1,36.8 90.1,40.9 78.9,40.9 78.9,47.4 86.7,47.4 86.7,51.6 78.9,51.6 78.9,59.1 
		90.9,59.1 90.9,63.3 74.7,63.3 74.7,36.8 	"/>
	<path class="st2" d="M19.7,47.5l0.8-0.1l0.8-0.3l0.7-0.5l0.5-0.7l0.3-0.8l0.1-0.8l-0.1-0.8l-0.3-0.8L22,41.9l-0.7-0.5L20.5,41
		l-0.8-0.1h-6.3v6.6H19.7 M21.2,36.8H9.3h10.4l1.4,0.1l1.4,0.4l1.3,0.7l1.2,1l0.9,1.1l0.7,1.3l0.4,1.4l0.1,1.4l-0.1,1.4l-0.4,1.4
		l-0.7,1.2l-1,1.2l-1.1,0.9L22.5,51l-1.4,0.5l-1.4,0.1h-6.3v11.6H9.3V36.8H21.2z"/>
	<path class="st2" d="M62.6,47.5l0.8-0.1l0.8-0.3l0.6-0.5l0.5-0.7l0.3-0.8l0.1-0.8l-0.1-0.8l-0.3-0.8l-0.5-0.7l-0.6-0.5L63.5,41
		l-0.8-0.1h-5.9v6.6H62.6 M52.6,36.8h10l1.4,0.1l1.4,0.4l1.3,0.6l1.1,0.9l1,1.1l0.7,1.2l0.4,1.4l0.2,1.4l-0.1,1.4l-0.4,1.4L68.9,48
		l-0.8,1.2l-1.1,1L65.8,51l4.6,12.3h-4.4l-4.4-11.6h-4.9v11.6h-4.2V36.8z"/>
	<path class="st2" d="M36.3,36.8h3.7l9.2,26.5h-4.4l-2.6-7.4H34l-2.5,7.4h-4.4L36.3,36.8 M40.9,51.8L38.2,44l-2.7,7.8H40.9z"/>
</g>
</svg>
