<?xml version="1.0" encoding="utf-8"?>
<!-- Generator: Adobe Illustrator 19.2.1, SVG Export Plug-In . SVG Version: 6.00 Build 0)  -->
<svg version="1.1" id="Capa_1" xmlns="http://www.w3.org/2000/svg" xmlns:xlink="http://www.w3.org/1999/xlink" x="0px" y="0px"
	 viewBox="0 0 100 100" style="enable-background:new 0 0 100 100;" xml:space="preserve" width="100" height="100">
<style type="text/css">
	.st0{fill:#222220;}
	.st1{fill-rule:evenodd;clip-rule:evenodd;fill:#2B4490;}
	.st2{fill-rule:evenodd;clip-rule:evenodd;fill:#FFFFFF;}
</style>
<g>
	<path class="st0" d="M50,99.9C50,99.9,50,99.9,50,99.9l-5.6-0.3l-5.6-0.8L33.6,97l-5.2-2l-4.9-2.7l-4.6-3.2l-4.2-3.7l-3.7-4.2
		l-3.2-4.6l-2.7-4.9l-2.2-5.2L1.2,61l-0.8-5.4L0,50l0.3-5.6l0.8-5.6l1.5-5.4l2.2-5.1l2.7-4.9l3.2-4.6l3.7-4.2l4.2-3.7l4.6-3.2
		L28.3,5l5.3-2.2l5.3-1.5l5.6-1L50,0.1l5.6,0.2l5.6,1l5.3,1.5L71.7,5l4.9,2.7l4.6,3.2l4.2,3.7l3.7,4.2l3.2,4.6l2.7,4.9l2.2,5.1
		l1.5,5.4l0.8,5.6L100,50l-0.3,5.6L98.8,61l-1.5,5.4l-2.2,5.2l-2.7,4.9l-3.2,4.6l-3.7,4.2l-4.2,3.7l-4.6,3.2L71.7,95l-5.3,2
		l-5.2,1.7l-5.6,0.8L50,99.9C50,99.9,50,99.9,50,99.9L50,99.9z M50,0.4l-5.6,0.2l-5.5,1l-5.2,1.5l-5.2,2.2L23.6,8L19,11.2l-4.2,3.7
		l-3.7,4.2l-3.2,4.5l-2.7,4.9l-2.2,5l-1.5,5.4l-0.8,5.5L0.3,50l0.3,5.5l0.8,5.4L3,66.3l2.2,5.2l2.7,4.9l3.2,4.5l3.7,4.2l4.2,3.7
		l4.5,3.2l4.9,2.7l5.2,2l5.2,1.7l5.5,0.8l5.5,0.3l5.6-0.3l5.6-0.8l5.2-1.7l5.2-2l4.9-2.7l4.5-3.2l4.2-3.7l3.7-4.2l3.2-4.5l2.7-4.9
		l2.2-5.2l1.5-5.4l0.8-5.4l0.3-5.6l-0.3-5.5l-0.8-5.6L97,33.5l-2.2-5l-2.7-4.9l-3.2-4.5l-3.7-4.2L81,11.2L76.4,8l-4.9-2.7l-5.2-2.2
		l-5.2-1.5l-5.6-1L50,0.4L50,0.4z"/>
	<polyline class="st1" points="97.8,50 97.5,44.3 96.5,38.5 94.8,33 92.4,27.7 89.4,22.8 85.8,18.3 81.8,14.2 77.2,10.7 72.3,7.7 
		66.9,5.3 61.5,3.6 55.7,2.4 50,2.1 44.3,2.4 38.5,3.6 33.1,5.3 27.7,7.7 22.8,10.7 18.2,14.2 14.2,18.3 10.6,22.8 7.6,27.7 5.2,33 
		3.5,38.5 2.5,44.3 2.2,50 2.5,55.7 3.5,61.5 5.2,66.9 7.6,72.1 10.6,77.1 14.2,81.7 18.2,85.8 22.8,89.3 27.7,92.3 33.1,94.7 
		38.5,96.4 44.3,97.4 50,97.7 55.7,97.4 61.5,96.4 66.9,94.7 72.3,92.3 77.2,89.3 81.8,85.8 85.8,81.7 89.4,77.1 92.4,72.1 
		94.8,66.9 96.5,61.5 97.5,55.7 97.8,50 	"/>
	<polyline class="st2" points="18.2,28.6 53.7,64 46.8,67.5 45.8,68.4 45.4,69.6 45.6,70.7 46.5,71.8 47.6,72.3 76.5,76.5 
		72.3,47.5 71.8,46.3 70.8,45.6 69.6,45.4 68.4,45.8 67.6,46.8 64,53.7 28.5,18.3 18.2,28.6 	"/>
</g>
</svg>
