<?xml version="1.0" encoding="utf-8"?>
<!-- Generator: Adobe Illustrator 19.2.1, SVG Export Plug-In . SVG Version: 6.00 Build 0)  -->
<svg version="1.1" id="Capa_1" xmlns="http://www.w3.org/2000/svg" xmlns:xlink="http://www.w3.org/1999/xlink" x="0px" y="0px"
	 viewBox="0 0 100 100" style="enable-background:new 0 0 100 100;" xml:space="preserve" width="100" height="100">
<style type="text/css">
	.st0{fill-rule:evenodd;clip-rule:evenodd;fill:#2B4490;}
	.st1{fill:#222220;}
	.st2{fill:#FFFFFF;}
</style>
<g>
	<polyline class="st0" points="97.8,50 97.5,44.3 96.5,38.5 94.8,32.9 92.4,27.7 89.4,22.8 85.8,18.2 81.8,14.2 77.2,10.6 72.3,7.6 
		67.1,5.2 61.5,3.5 55.7,2.5 50,2.2 44.3,2.5 38.5,3.5 33.1,5.2 27.9,7.6 22.8,10.6 18.2,14.2 14.2,18.2 10.6,22.8 7.6,27.7 
		5.2,32.9 3.5,38.5 2.5,44.3 2.2,50 2.5,55.7 3.5,61.5 5.2,66.9 7.6,72.1 10.6,77.2 14.2,81.8 18.2,85.8 22.8,89.4 27.9,92.4 
		33.1,94.8 38.5,96.5 44.3,97.5 50,97.8 55.7,97.5 61.5,96.5 67.1,94.8 72.3,92.4 77.2,89.4 81.8,85.8 85.8,81.8 89.4,77.2 
		92.4,72.1 94.8,66.9 96.5,61.5 97.5,55.7 97.8,50 	"/>
	<path class="st1" d="M50,100C50,100,50,100,50,100l-5.6-0.3l-5.4-1l-5.4-1.5l-5.3-2l-4.9-2.7L18.8,89l-4.1-3.7L11,81.2l-3.4-4.6
		l-2.7-4.9l-2-5.3l-1.5-5.3l-1-5.6L0,50l0.3-5.6l1-5.6l1.5-5.4l2-5.1l2.7-4.9l3.4-4.6l3.7-4.2l4.1-3.7l4.6-3.2l4.9-2.7l5.3-2.2
		L39,1.2l5.4-0.9L50,0l5.6,0.3l5.6,0.8l5.4,1.5l5.1,2.2l4.9,2.7l4.6,3.2l4.2,3.7l3.7,4.2l3.2,4.6l2.7,4.9l2.2,5.1l1.5,5.4l0.8,5.6
		L100,50l-0.3,5.6l-0.8,5.6l-1.5,5.3l-2.2,5.3l-2.7,4.9l-3.2,4.6l-3.7,4.1L81.2,89l-4.6,3.4l-4.9,2.7l-5.1,2l-5.4,1.5l-5.6,1L50,100
		C50,100,50,100,50,100L50,100z M50,0.3l-5.6,0.3L39,1.5L33.7,3l-5.2,2.2l-4.9,2.7L19,11.1l-4,3.7L11.3,19l-3.4,4.6l-2.7,4.9l-2,5
		l-1.5,5.4l-1,5.6L0.3,50l0.3,5.6l1,5.6l1.5,5.2l2,5.2l2.7,4.9l3.4,4.5l3.7,4l4,3.7l4.5,3.4l4.9,2.7l5.2,2l5.4,1.5l5.4,1l5.5,0.3
		l5.6-0.3l5.6-1l5.4-1.5l5-2l4.9-2.7l4.5-3.4l4.2-3.7l3.7-4l3.2-4.5l2.7-4.9l2.2-5.2l1.5-5.2l0.8-5.5l0.3-5.6l-0.3-5.6l-0.8-5.6
		L97,33.5l-2.2-5l-2.7-4.9L88.9,19l-3.7-4.2L81,11.1l-4.5-3.2l-4.9-2.7L66.5,3l-5.4-1.5l-5.6-0.8L50,0.3L50,0.3z"/>
	<polyline class="st2" points="32.4,46.8 31.6,45.8 30.4,45.4 29.2,45.6 28.2,46.5 27.7,47.5 23.5,76.5 52.5,72.3 53.5,71.8 
		54.4,70.8 54.6,69.6 54.2,68.4 53.2,67.6 46.3,64 81.8,28.5 71.5,18.2 36,53.7 32.4,46.8 	"/>
</g>
</svg>
