<?xml version="1.0" encoding="utf-8"?>
<!-- Generator: Adobe Illustrator 19.2.1, SVG Export Plug-In . SVG Version: 6.00 Build 0)  -->
<svg version="1.1" id="Capa_1" xmlns="http://www.w3.org/2000/svg" xmlns:xlink="http://www.w3.org/1999/xlink" x="0px" y="0px"
	 viewBox="0 0 100 100" style="enable-background:new 0 0 100 100;" xml:space="preserve" width="100" height="100">
<style type="text/css">
	.st0{fill-rule:evenodd;clip-rule:evenodd;fill:#2B4490;}
	.st1{fill:#222220;}
	.st2{fill-rule:evenodd;clip-rule:evenodd;fill:#FFFFFF;}
</style>
<g>
	<polyline class="st0" points="97.9,50 97.6,44.9 96.9,40 95.6,35.2 93.8,30.6 91.5,26.1 88.7,21.8 85.6,17.9 82.1,14.4 78.2,11.3 
		73.9,8.4 69.6,6.2 64.8,4.4 60,3.1 55.1,2.4 50,2.1 45.1,2.4 40.1,3.1 35.2,4.4 30.6,6.2 26.2,8.4 22,11.3 18,14.4 14.5,17.9 
		11.4,21.8 8.6,26.1 6.3,30.6 4.5,35.2 3.2,40 2.4,44.9 2.3,50 2.4,54.9 3.2,59.9 4.5,64.8 6.3,69.4 8.6,73.9 11.4,78.2 14.5,82 
		18,85.5 22,88.7 26.2,91.4 30.6,93.7 35.2,95.5 40.1,96.8 45.1,97.6 50,97.9 55.1,97.6 60,96.8 64.8,95.5 69.6,93.7 73.9,91.4 
		78.2,88.7 82.1,85.5 85.6,82 88.7,78.2 91.5,73.9 93.8,69.4 95.6,64.8 96.9,59.9 97.6,54.9 97.9,50 	"/>
	<path class="st1" d="M50,100C50,100,50,100,50,100l-5.2-0.3l-5.1-0.8l-5.1-1.4l-4.9-1.8L25,93.2l-4.4-2.8l-4-3.3l-3.8-3.7l-3.3-4.1
		L6.8,75l-2.4-4.7l-1.8-4.9l-1.4-5.1l-0.8-5.1L0,50l0.3-5.2l0.8-5.2l1.4-5.1l1.8-4.8L6.8,25l2.8-4.4l3.2-4.1l3.8-3.7l4-3.4L25,6.6
		l4.7-2.4l4.9-1.8L39.7,1l5.1-0.7L50,0l5.2,0.3L60.4,1l5.1,1.4l4.8,1.8L75,6.6l4.5,2.8l4,3.4l3.8,3.7l3.3,4.1l2.8,4.4l2.4,4.7
		l1.8,4.8l1.4,5.1l0.8,5.2L100,50l-0.1,5.2L99,60.3l-1.4,5.1l-1.8,4.9L93.4,75l-2.8,4.4l-3.2,4.1l-3.8,3.7l-4,3.3L75,93.2l-4.7,2.4
		l-4.8,1.8l-5.1,1.4l-5.2,0.8L50,100C50,100,50,100,50,100L50,100z M50,0.3l-5.2,0.3l-5.1,0.7l-5.1,1.4l-4.9,1.8l-4.6,2.4l-4.4,2.8
		l-3.9,3.4l-3.8,3.7l-3.2,4.1L7,25.1l-2.4,4.6l-1.8,4.8l-1.4,5.1l-0.8,5.2L0.3,50l0.3,5.2l0.8,5.1l1.4,5.1l1.8,4.9L7,74.9l2.8,4.4
		l3.2,4.1l3.8,3.7l3.9,3.2l4.4,2.8l4.6,2.4l4.9,1.8l5.1,1.4l5.1,0.8l5.2,0.3l5.2-0.3l5.2-0.8l5.1-1.4l4.8-1.8l4.6-2.4l4.5-2.8
		l3.9-3.2l3.8-3.7l3.2-4.1l2.8-4.4l2.4-4.6l1.8-4.9l1.4-5.1l0.8-5.1l0.1-5.2l-0.1-5.2l-0.8-5.2l-1.4-5.1l-1.8-4.8l-2.4-4.6l-2.8-4.4
		l-3.2-4.1l-3.8-3.6l-3.9-3.4l-4.5-2.8l-4.6-2.4l-4.8-1.8l-5.1-1.4l-5.2-0.7L50,0.3L50,0.3z"/>
	<polyline class="st2" points="50,25.8 23,52.8 20.3,47.5 19.7,46.8 18.7,46.5 17.9,46.6 17,47.2 16.8,48.2 13.4,70.3 35.6,67 
		36.5,66.6 37,65.9 37.2,64.9 36.9,64.1 36.2,63.4 30.8,60.7 50,41.5 69.3,60.7 63.9,63.4 63.2,64.1 63,64.9 63.1,65.9 63.7,66.6 
		64.5,67 86.8,70.3 83.4,48.2 83.1,47.2 82.3,46.6 81.4,46.5 80.4,46.8 79.9,47.5 77.2,52.8 50,25.8 	"/>
</g>
</svg>
