<?xml version="1.0" encoding="utf-8"?>
<!-- Generator: Adobe Illustrator 19.2.1, SVG Export Plug-In . SVG Version: 6.00 Build 0)  -->
<svg version="1.1" id="Capa_1" xmlns="http://www.w3.org/2000/svg" xmlns:xlink="http://www.w3.org/1999/xlink" x="0px" y="0px"
	 viewBox="0 0 100 100" style="enable-background:new 0 0 100 100;" xml:space="preserve" width="100" height="100">
<style type="text/css">
	.st0{fill:#222220;}
	.st1{fill-rule:evenodd;clip-rule:evenodd;fill:#119679;}
	.st2{fill-rule:evenodd;clip-rule:evenodd;fill:#222220;}
</style>
<g>
	<path class="st0" d="M75,99.8H24.3L23,99.7l-1.2-0.5l-1-0.8l-0.8-1l-0.5-1.1l-0.2-1.3V4.7l0.2-1.2l0.5-1.2l0.8-1l1-0.8L23,0
		l1.3-0.2H75L76.2,0l1.2,0.4l1,0.8l0.8,1l0.4,1.2l0.2,1.2v90.2l-0.2,1.3l-0.4,1.1l-0.8,1l-1,0.8l-1.2,0.5L75,99.8
		C75,99.8,75,99.8,75,99.8L75,99.8z M75,0L24.3,0l-1.3,0.2l-1.2,0.4L21,1.3l-0.8,1l-0.5,1.2l-0.2,1.2v90.2l0.2,1.3l0.5,1.1l0.8,1
		l0.9,0.8l1.2,0.5l1.3,0.2l50.7,0l1.2-0.2l1.2-0.5l1-0.8l0.7-1l0.4-1.1l0.2-1.3l0-90.2l-0.2-1.2l-0.4-1.2l-0.8-1l-1-0.8l-1.2-0.4
		L75,0L75,0z M38.6,41.1C38.5,41.1,38.5,41,38.6,41.1l-0.1-2.1c0-0.1,0.2-0.1,0.2,0L38.6,41.1C38.6,41,38.6,41.1,38.6,41.1
		L38.6,41.1z M53.7,20.8h-1.8c0,0-0.1,0-0.1-0.1c0,0,0-0.1,0.1-0.1h1.8C53.8,20.7,53.8,20.7,53.7,20.8
		C53.8,20.8,53.8,20.8,53.7,20.8L53.7,20.8z"/>
	<path class="st1" d="M68.7,30.1l-0.2-2.5l-0.4-2.5l-0.9-2.4l-1.1-2.2l-1.4-2.1l-1.6-1.9l-1.9-1.6l-2.1-1.4L57,12.5l-2.4-0.9
		l-2.5-0.5L49.6,11l-2.5,0.1l-2.5,0.5l-2.4,0.9l-2.2,1.1l-2,1.4l-1.9,1.6l-1.7,1.9l-1.4,2.1L32,22.8l-0.8,2.4l-0.5,2.5l-0.2,2.5
		l0.2,2.5l0.5,2.5l0.8,2.4l1.1,2.2l1.4,2.1l1.7,1.9l1.9,1.7l2,1.4l2.2,1.1l2.4,0.9l2.5,0.4l2.5,0.2l2.5-0.2l2.5-0.4l2.4-0.9l2.2-1.1
		l2.1-1.4l1.9-1.7l1.6-1.9l1.4-2.1l1.1-2.2l0.9-2.4l0.4-2.5L68.7,30.1 M74.8,30.1l-0.2-2.8l-0.4-2.8l-0.8-2.7l-1.1-2.6l-1.4-2.5
		l-1.6-2.3l-1.9-2.1l-2.1-1.9L63,8.8l-2.5-1.4L58,6.3l-2.7-0.8l-2.8-0.4l-2.8-0.2l-2.8,0.2L44,5.5l-2.6,0.8l-2.6,1.1l-2.5,1.4
		L34,10.4l-2.1,1.9l-1.9,2.1l-1.6,2.3L27,19.2l-1,2.6l-0.9,2.7l-0.4,2.8l-0.2,2.8l0.2,2.8l0.4,2.8l0.9,2.6l1,2.6l1.4,2.5l1.6,2.3
		l1.9,2.1l2.1,1.9l2.3,1.6l2.5,1.4l2.6,1l2.6,0.9l2.8,0.4l2.8,0.2l2.8-0.2l2.8-0.4l2.7-0.9l2.6-1l2.5-1.4l2.3-1.6l2.1-1.9l1.9-2.1
		l1.6-2.3l1.4-2.5l1.1-2.6l0.8-2.6l0.4-2.8L74.8,30.1z"/>
	<polyline class="st0" points="39.7,20.7 39.2,20.9 38.7,21.3 38.6,21.9 38.6,45.2 45.6,45.2 45.6,27.8 55.5,27.8 54.5,30.7 
		54.3,31.3 54.3,31.9 54.6,32.5 55,32.9 55.6,33 56.2,32.7 56.4,32.6 67.5,24.2 56.2,15.9 55.6,15.6 55,15.7 54.6,16.1 54.3,16.6 
		54.3,17.2 55.5,20.7 39.7,20.7 	"/>
	<path class="st2" d="M43.2,61.5l0.4-0.2l0.2-0.4l-0.2-0.4l-0.4-0.2h-1.1v1.2H43.2 M63.2,63.4l0.3,0.6l0.5,0.4l0.7,0.1l0.7-0.1
		L66,64l0.3-0.6l0.2-1.5l-0.2-1.5L66,59.9l-0.6-0.4l-0.7-0.2L64,59.5l-0.5,0.4l-0.3,0.6L62.9,62L63.2,63.4z M58.7,59.4h1.4l0.7,0.2
		l0.5,0.3l0.4,0.6l0.3,0.9v1l-0.3,0.9L61.3,64l-0.5,0.3l-0.7,0.1h-1.4V59.4z M41.4,59.4h1.9l0.6,0.2l0.5,0.4l0.3,0.5v0.7l-0.3,0.5
		l-0.5,0.4l0.9,2.3h-0.8l-0.9-2.2h-0.9v2.2h-0.8V59.4z M32.8,59.4h2l0.7,0.3l0.5,0.5l0.2,0.7L36,61.6l-0.5,0.5l-0.7,0.2h-1.2v2.2
		h-0.9V59.4z M64,63.2l0.3,0.4l0.5,0.2l0.5-0.2l0.3-0.4l0.2-1.2l-0.2-1.2l-0.3-0.4l-0.5-0.2l-0.5,0.2L64,60.8L63.8,62L64,63.2z
		 M60.1,63.7l0.5-0.2l0.4-0.4l0.2-0.8v-0.8l-0.2-0.7l-0.4-0.4l-0.5-0.2h-0.7v3.4H60.1z M56.7,59.4h0.8v5h-0.8V59.4z M51,59.4h0.9v5
		H51V59.4z M53.9,60.3h-1.2v-0.9h3.1v0.9h-1.1v4.2h-0.8V60.3z M34.8,61.5l0.4-0.2l0.2-0.4l-0.2-0.4l-0.4-0.2h-1.2v1.2H34.8z
		 M37.4,59.4h2.9v0.9h-2.1v1.2h1.5v0.8h-1.5v1.5h2.3v0.8h-3.1V59.4z M46,59.4h0.8l1.1,3l1.2-3h0.8v5H49v-2.8l-1.2,2.8l-1.1-2.8v2.8
		H46V59.4z"/>
	<path class="st2" d="M31.5,68.7h0.9l1,3.4l1.1-3.4h0.9l-1.6,5h-0.6L31.5,68.7 M40.1,70.7l0.4-0.2l0.2-0.5l-0.2-0.4l-0.4-0.2H39v1.3
		H40.1z M36.2,68.7h0.8v5h-0.8V68.7z M44.2,68.7h0.8l1.7,5h-0.8l-0.4-1.5h-1.6l-0.4,1.5h-0.9L44.2,68.7z M45.1,71.5L44.6,70
		l-0.5,1.5H45.1z M49.5,70.7l0.4-0.2l0.2-0.5l-0.2-0.4l-0.4-0.2h-1.1v1.3H49.5z M60.6,72.4l0.3,0.4l0.5,0.2l0.5-0.2l0.3-0.4l0.2-1.3
		l-0.2-1.2l-0.3-0.4l-0.5-0.2l-0.5,0.2l-0.3,0.4l-0.2,1.2L60.6,72.4z M64.4,68.7h0.8L67,72v-3.3h0.8v5H67l-1.9-3.3v3.3h-0.8V68.7z
		 M38.2,68.7h1.9l0.6,0.1l0.5,0.4l0.3,0.6v0.6L41.2,71l-0.5,0.3l0.9,2.4h-0.9l-0.8-2.2H39v2.2h-0.8V68.7z M47.6,68.7h1.9l0.6,0.1
		l0.5,0.4l0.3,0.6v0.6L50.6,71l-0.5,0.3l0.9,2.4h-0.8l-0.9-2.2h-0.9v2.2h-0.8V68.7z M58.8,69.6l-0.3-0.5l-0.5-0.3l-0.7-0.2l-0.6,0.1
		L56.1,69l-0.4,0.5l-0.3,1.1v1.1l0.3,1l0.4,0.6l0.5,0.3l0.7,0.1l0.6-0.2l0.5-0.4l0.3-0.5L58,72.4l-0.3,0.4L57.2,73l-0.4-0.2
		l-0.3-0.3l-0.3-0.9v-0.9l0.3-0.9l0.3-0.3l0.4-0.2l0.5,0.2l0.3,0.4L58.8,69.6z M59.9,69.8l-0.2,1.4l0.2,1.5l0.3,0.6l0.5,0.4l0.7,0.2
		l0.7-0.2l0.6-0.4l0.3-0.6l0.2-1.5L63,69.8l-0.3-0.6l-0.6-0.4l-0.7-0.2l-0.7,0.2l-0.5,0.4L59.9,69.8z"/>
	<path class="st2" d="M28.8,77.8h0.8v4.3h2.2v0.8h-3V77.8 M59.4,77.8h0.8l1.7,5H61l-0.4-1.4h-1.6l-0.5,1.4h-0.8L59.4,77.8z M37,82.1
		l2.3-3.5h-2v-0.9h3.2v0.6L38,82.1h2.4v0.8H37V82.1z M68,80.7l-1.7-2.9h0.9l1.2,2l1.2-2h0.9l-1.7,2.9v2.1H68V80.7z M46.7,79.8
		l0.4-0.2l0.2-0.4l-0.2-0.4l-0.4-0.2h-1.1v1.2H46.7z M50.1,81.6l0.3,0.4l0.5,0.2l0.5-0.2l0.3-0.4l0.2-1.2l-0.2-1.2l-0.3-0.5
		l-0.5-0.1l-0.5,0.2l-0.3,0.4l-0.2,1.2L50.1,81.6z M60.2,80.7l-0.5-1.5l-0.5,1.5H60.2z M53.6,82l0.8-0.3l0.2,0.3l0.3,0.2h0.4
		l0.3-0.2l0.3-0.3l0.1-0.3v-3.5h0.8v3.5L56.5,82l-0.4,0.6l-0.7,0.3h-0.8L54,82.6L53.6,82z M49.4,81.7l0.3,0.7l0.6,0.4l0.7,0.1
		l0.7-0.1l0.5-0.4l0.3-0.7l0.3-1.4l-0.3-1.5l-0.3-0.6l-0.5-0.4l-0.7-0.2l-0.7,0.2l-0.6,0.4l-0.3,0.6l-0.3,1.5L49.4,81.7z M44.9,77.8
		h1.9l0.6,0.2l0.5,0.4l0.3,0.5v0.7l-0.3,0.5l-0.5,0.4l0.9,2.3h-0.9l-0.9-2.2h-0.9v2.2h-0.8V77.8z M32.8,81.2l0.2,0.7l0.3,0.5
		l0.5,0.4l0.7,0.1l0.6-0.1l0.6-0.4l0.3-0.5l0.2-0.7v-3.4h-0.8v3.4l-0.2,0.5l-0.3,0.3l-0.4,0.1L34,82.1l-0.3-0.3l-0.2-0.5v-3.4h-0.8
		V81.2z"/>
	<path class="st2" d="M31,89.1l0.4-0.3l0.2-0.4L31.4,88L31,87.8h-1.2v1.3H31 M48.8,89.8l-0.5-1.5l-0.5,1.5H48.8z M47.9,87h0.8l1.7,5
		h-0.9l-0.4-1.5h-1.6L47,92.1h-0.8L47.9,87z M38.2,87h2.9v0.8H39V89h1.5v0.9H39v1.5h2.3v0.8h-3.1V87z M35.5,89.1l0.4-0.3l0.2-0.4
		L35.9,88l-0.4-0.2h-1.1v1.3H35.5z M60.2,87H61v5h-0.8V87z M63.1,90.7l0.3,0.5l0.5,0.2l0.5-0.2l0.3-0.5l0.2-1.2l-0.2-1.2l-0.3-0.4
		L64,87.7l-0.5,0.2l-0.3,0.4l-0.2,1.2L63.1,90.7z M66.9,87h0.7l1.9,3.3V87h0.8v5h-0.7l-1.9-3.3v3.3h-0.8V87z M31,89.8h-1.2v2.2H29
		v-5h2l0.7,0.2l0.5,0.5l0.3,0.7l-0.3,0.8l-0.5,0.5L31,89.8z M36.1,89.7l0.9,2.4h-0.8l-0.9-2.2h-0.9v2.2h-0.8v-5h1.9l0.6,0.1l0.5,0.4
		l0.3,0.6v0.6l-0.3,0.6L36.1,89.7z M44,92.1l0.7-0.2l0.5-0.4l0.3-0.5l-0.8-0.3l-0.3,0.4L44,91.4l-0.5-0.2l-0.3-0.3L43,90v-0.9
		l0.3-0.9l0.3-0.3l0.5-0.2l0.4,0.2l0.3,0.3l0.7-0.3l-0.3-0.5L44.6,87L44,86.9L43.4,87l-0.6,0.3l-0.3,0.5L42.2,89v1.1l0.3,1l0.3,0.6
		l0.6,0.3L44,92.1z M51.3,90.4l0.1,0.7l0.4,0.5l0.5,0.3l0.7,0.2l0.6-0.2l0.5-0.3l0.4-0.5l0.1-0.7V87h-0.8v3.4l-0.1,0.4l-0.3,0.3
		L53,91.4l-0.5-0.2l-0.3-0.3l-0.1-0.4V87h-0.8V90.4z M57.8,92.1l0.6-0.2l0.5-0.4l0.3-0.5l-0.8-0.3l-0.3,0.4l-0.5,0.2l-0.4-0.2
		L57,90.9L56.7,90v-0.9l0.3-0.9l0.3-0.3l0.4-0.2l0.5,0.2l0.3,0.3l0.8-0.3l-0.3-0.5L58.4,87l-0.7-0.1L57.1,87l-0.5,0.3l-0.4,0.5
		L55.9,89v1.1l0.3,1l0.4,0.6l0.5,0.3L57.8,92.1z M64,92.1l0.7-0.2l0.5-0.4l0.3-0.6l0.3-1.5l-0.3-1.4l-0.3-0.7l-0.5-0.3L64,86.9
		l-0.7,0.2l-0.6,0.3l-0.3,0.7l-0.2,1.4l0.2,1.5l0.3,0.6l0.6,0.4L64,92.1z"/>
	<path class="st2" d="M75,98.5l1.1-0.2l1-0.5l0.8-0.8l0.5-1l0.2-1.1V4.7l-0.2-1.1l-0.5-1l-0.8-0.8l-1-0.5L75,1.1H24.3l-1.1,0.2
		l-1,0.5l-0.9,0.8l-0.5,1l-0.2,1.1v90.2l0.2,1.1l0.5,1l0.9,0.8l1,0.5l1.1,0.2H75 M75,96.1l0.6-0.2l0.4-0.4l0.2-0.6V4.7l-0.2-0.6
		l-0.4-0.4L75,3.5H24.3l-0.6,0.2l-0.5,0.4l-0.1,0.6v90.2l0.1,0.6l0.5,0.4l0.6,0.2H75z"/>
	<polyline class="st2" points="64.3,86.7 63.7,86.7 64.2,85.6 65.2,85.6 64.3,86.7 	"/>
</g>
</svg>
