<?xml version="1.0" encoding="utf-8"?>
<!-- Generator: Adobe Illustrator 19.2.1, SVG Export Plug-In . SVG Version: 6.00 Build 0)  -->
<svg version="1.1" id="Capa_1" xmlns="http://www.w3.org/2000/svg" xmlns:xlink="http://www.w3.org/1999/xlink" x="0px" y="0px"
	 viewBox="0 0 100 100" style="enable-background:new 0 0 100 100;" xml:space="preserve" width="100" height="100">
<style type="text/css">
	.st0{fill-rule:evenodd;clip-rule:evenodd;fill:#C5332B;}
	.st1{fill-rule:evenodd;clip-rule:evenodd;fill:#222220;}
</style>
<g>
	<path class="st0" d="M88,50.1l-0.3-4.3l-0.7-4.2l-1.2-4.2l-1.7-3.9l-2.1-3.8l-2.3-3.4l-2.9-3.3l-3.3-2.9l-3.4-2.3l-3.8-2.1
		l-3.9-1.7l-4-1.2l-4.3-0.7L50,12.1l-4.3,0.3L41.6,13l-4.2,1.2l-3.9,1.7l-3.7,2.1l-3.5,2.3l-3.1,2.9l-2.9,3.3l-2.5,3.4l-2.1,3.8
		l-1.6,3.9L13,41.6l-0.8,4.2L12,50.1l0.3,4.2l0.8,4.2l1.2,4.2l1.6,3.9l2.1,3.8l2.5,3.4l2.9,3.3l3.1,2.9l3.5,2.3l3.7,2.1l3.9,1.7
		l4.2,1.2l4.2,0.7l4.3,0.3l4.2-0.3l4.3-0.7l4-1.2l3.9-1.7l3.8-2.1l3.4-2.3l3.3-2.9l2.9-3.3l2.3-3.4l2.1-3.8l1.7-3.9l1.2-4.2l0.7-4.2
		L88,50.1 M100,50.1l-0.3-4.9l-0.7-4.8l-1.2-4.8l-1.7-4.6l-2.1-4.4l-2.5-4.3l-3-3.9l-3.3-3.6l-3.7-3.3l-3.9-3l-4.3-2.5l-4.4-2.1
		l-4.6-1.7L59.8,1l-5-0.6L50,0.1l-5,0.3L40.3,1l-4.8,1.2l-4.6,1.7l-4.4,2.1l-4.2,2.5l-4,3l-3.5,3.3l-3.4,3.6l-2.9,3.9l-2.6,4.3
		l-2.1,4.4l-1.6,4.6L1,40.3l-0.8,4.8L0,50.1l0.3,4.8L1,59.7l1.2,4.8l1.6,4.6l2.1,4.4l2.6,4.3l2.9,3.9l3.4,3.6l3.5,3.3l4,3l4.2,2.5
		l4.4,2.1l4.6,1.7l4.8,1.2l4.8,0.7l5,0.3l4.8-0.3l5-0.7l4.7-1.2l4.6-1.7l4.4-2.1l4.3-2.5l3.9-3l3.7-3.3l3.3-3.6l3-3.9l2.5-4.3
		l2.1-4.4l1.7-4.6l1.2-4.8l0.7-4.8L100,50.1z"/>
	<path class="st1" d="M32.2,32.5h-3.5v-4.9l1.8-0.3l1.6-0.9l1.3-1.3h5v40h-6.1V32.5 M53.2,54.6l0.7,1.6l1,1.3l1.4,1l1.6,0.7l1.7,0.3
		l1.7-0.3l1.6-0.7l1.4-1l1-1.3l0.7-1.6l0.9-3.8l0.5-3.9V43l-0.5-3.8l-0.9-3.9l-0.7-1.6l-1-1.3l-1.4-1l-1.6-0.7l-1.7-0.3l-1.7,0.3
		l-1.6,0.7l-1.4,1l-1,1.3l-0.7,1.6l-0.9,3.9L51.9,43v3.9l0.4,3.9L53.2,54.6z M47.8,77.4l0.7,0.8l1,0.4l0.9-0.3l0.7-0.9l0.3-1.6v-1.7
		l-0.3-1.6l-0.7-0.9l-0.9-0.3l-1,0.3l-0.7,0.9l-0.3,2.3L47.8,77.4z M40.4,71.5H38V70h6.1v1.6H42V80h-1.6V71.5z M55.3,70h1.4l3.7,6.6
		V70h1.6v10h-1.4l-3.7-6.6V80h-1.6V70z M47.2,33.7l-1,4.6l-0.5,4.6v4.6l0.5,4.6l1,4.4l0.9,2.2l1.2,2l1.7,1.8l1.8,1.4l2.1,1l2.3,0.7
		l2.3,0.3l2.3-0.3l2.3-0.7l2.1-1l2-1.4l1.6-1.8l1.3-2l0.9-2.2l1-4.4l0.5-4.6v-4.6l-0.5-4.6l-1-4.6l-0.9-2.2l-1.3-2l-1.6-1.8l-2-1.4
		l-2.1-1l-2.3-0.7l-2.3-0.1l-2.3,0.1l-2.3,0.7l-2.1,1L51,27.7l-1.7,1.8l-1.2,2L47.2,33.7z M46.4,72.2L46,74v2l0.4,1.8L47,79l1,0.9
		l1.4,0.3l1.3-0.3L52,79l0.7-1.2l0.4-2.9l-0.4-2.7L52,70.9l-1.2-0.8l-1.3-0.3l-1.4,0.3l-1,0.8L46.4,72.2z"/>
</g>
</svg>
