<?xml version="1.0" encoding="utf-8"?>
<!-- Generator: Adobe Illustrator 19.2.1, SVG Export Plug-In . SVG Version: 6.00 Build 0)  -->
<svg version="1.1" id="Capa_1" xmlns="http://www.w3.org/2000/svg" xmlns:xlink="http://www.w3.org/1999/xlink" x="0px" y="0px"
	 viewBox="0 0 100 100" style="enable-background:new 0 0 100 100;" xml:space="preserve" width="100" height="100">
<style type="text/css">
	.st0{fill-rule:evenodd;clip-rule:evenodd;fill:#222220;}
	.st1{fill:#222220;}
	.st2{fill-rule:evenodd;clip-rule:evenodd;fill:#C5332B;}
</style>
<g>
	<polyline class="st0" points="48.1,23.4 45.8,23.4 45.8,21.8 51.9,21.8 51.9,23.4 49.7,23.4 49.7,31.8 48.1,31.8 48.1,23.4 	"/>
	<polyline class="st0" points="62.9,21.8 64.4,21.8 68.1,28.4 68.1,21.8 69.7,21.8 69.7,31.8 68.1,31.8 64.6,25 64.6,31.8 
		62.9,31.8 62.9,21.8 	"/>
	<polyline class="st1" points="70,68.5 71.5,69.5 73.4,70.2 75.3,70.2 77.1,69.5 78.8,68.5 78.8,46.4 77.1,45.4 75.3,44.7 
		73.4,44.7 71.5,45.4 70,46.4 70,68.5 	"/>
	<path class="st2" d="M100,50.1l-0.3-5.6l-1-5.6l-1.5-5.4l-2.2-5.1l-2.7-4.9L89,19l-3.7-4.2L81.2,11l-4.6-3.2l-4.9-2.7l-5.3-2.2
		L61,1.4l-5.4-1L50,0l-5.6,0.3l-5.6,1l-5.4,1.5l-5.1,2.2l-4.9,2.7L18.8,11l-4.2,3.7L10.9,19l-3.2,4.6l-2.7,4.9l-2.2,5.1l-1.5,5.4
		l-0.8,5.6L0,50.1l0.3,5.6l0.8,5.4l1.5,5.4l2.2,5.2l2.7,4.9l3.2,4.6l3.7,4.1l4.2,3.7l4.6,3.4l4.9,2.7l5.1,2l5.4,1.5l5.6,1L50,100
		l5.6-0.3l5.4-1l5.4-1.5l5.3-2l4.9-2.7l4.6-3.4l4.1-3.7l3.7-4.1l3.2-4.6l2.7-4.9l2.2-5.2l1.5-5.4l1-5.4L100,50.1 M88,50.1L87.6,45
		l-1-4.7l-1.5-4.7L82.9,31l-2.7-4.1l-3.4-3.7L73,20L69,17.1l-4.6-2.2l-4.6-1.5l-4.9-1L50,12l-5.1,0.3l-4.7,1l-4.7,1.5L31,17.1
		L26.8,20l-3.7,3.2l-3.2,3.7L17.1,31l-2.2,4.6l-1.7,4.7l-1,4.7l-0.3,5.1l0.3,4.9l1,4.9l1.7,4.6l2.2,4.6l2.7,4.1l3.2,3.7l3.7,3.4
		l4.2,2.7l4.4,2.2l4.7,1.5l4.7,1L50,88l4.9-0.3l4.9-1l4.6-1.5l4.6-2.2l4.1-2.7l3.7-3.4l3.4-3.7l2.7-4.1l2.2-4.6l1.5-4.6l1-4.9
		L88,50.1z"/>
	<polyline class="st1" points="70,54.5 54.4,54.5 54.1,52.8 53.1,51.3 51.7,50.4 50,50.1 48.3,50.4 46.8,51.3 45.9,52.8 45.6,54.5 
		30,54.5 30,59.9 45.6,59.9 45.9,61.6 46.8,62.9 48.3,64 50,64.3 51.7,64 53.1,62.9 54.1,61.6 54.4,59.9 70,59.9 70,54.5 	"/>
	<polyline class="st1" points="21.2,68.5 22.7,69.5 24.6,70.2 26.4,70.2 28.3,69.5 30,68.5 30,46.4 28.3,45.4 26.4,44.7 24.6,44.7 
		22.7,45.4 21.2,46.4 21.2,68.5 	"/>
	<polyline class="st1" points="50,47.9 56.6,35.7 43.4,35.7 50,47.9 	"/>
	<polyline class="st1" points="33.6,21.7 32.2,22 31,22.8 30.3,24.2 31.9,24.5 32.2,23.9 32.9,23.4 33.6,23.2 35.1,23.7 35.4,24.2 
		35.4,24.9 35.3,25.6 34.6,25.9 32.9,26.7 31.4,28.1 30.5,29.8 30.2,31.8 37.1,31.8 37.1,30.1 32,30.1 33.2,28.4 35.1,27.4 
		36.3,26.6 37,25.2 37,23.7 35.9,22.3 34.9,21.8 33.6,21.7 	"/>
	<path class="st0" d="M55.6,29.1l0.7,0.8l1,0.3l1-0.3l0.5-0.8l0.3-2.4l-0.3-2.4l-0.5-0.8l-1-0.3l-1,0.3l-0.7,0.8l-0.3,2.4L55.6,29.1
		 M57.3,21.7l-1.4,0.2l-1.2,0.8l-0.7,1.2l-0.3,2.9l0.3,2.9l0.7,1.2l1.2,0.8l1.4,0.3l1.4-0.3l1-0.8l0.7-1.2l0.5-2.9l-0.5-2.9
		l-0.7-1.2l-1-0.8L57.3,21.7z"/>
</g>
</svg>
