<?xml version="1.0" encoding="utf-8"?>
<!-- Generator: Adobe Illustrator 19.2.1, SVG Export Plug-In . SVG Version: 6.00 Build 0)  -->
<svg version="1.1" id="Capa_1" xmlns="http://www.w3.org/2000/svg" xmlns:xlink="http://www.w3.org/1999/xlink" x="0px" y="0px"
	 viewBox="0 0 100 100" style="enable-background:new 0 0 100 100;" xml:space="preserve" width="100" height="100">
<style type="text/css">
	.st0{fill-rule:evenodd;clip-rule:evenodd;fill:#222220;}
	.st1{fill:#222220;}
	.st2{fill:#FFFFFF;}
	.st3{fill-rule:evenodd;clip-rule:evenodd;fill:#FFFFFF;}
	.st4{fill-rule:evenodd;clip-rule:evenodd;fill:#C5332B;}
</style>
<g>
	<polyline class="st0" points="37.5,57.5 37.1,55.8 36.1,54.5 34.8,53.5 33.1,53.1 31.4,53.5 29.9,54.5 29,55.8 28.7,57.5 29,59.2 
		29.9,60.7 31.4,61.6 33.1,61.9 34.8,61.6 36.1,60.7 37.1,59.2 37.5,57.5 	"/>
	<rect x="15.1" y="54.1" class="st0" width="1.7" height="3.4"/>
	<polyline class="st0" points="81.7,57.5 81.3,55.8 80.3,54.5 78.8,53.5 77.1,53.1 75.6,53.5 74,54.5 73,55.8 72.7,57.5 73,59.2 
		74,60.7 75.6,61.6 77.1,61.9 78.8,61.6 80.3,60.7 81.3,59.2 81.7,57.5 	"/>
	<polyline class="st1" points="64.7,57.5 72,57.5 72.3,56 73,54.5 74.2,53.5 75.6,52.6 77.1,52.5 78.8,52.6 80.1,53.5 81.3,54.5 
		82,56 82.3,57.5 84,57.5 84,47.4 80.6,37.2 16,37.2 16,57.5 28,57.5 28.2,56 28.8,54.5 30,53.5 31.4,52.6 33.1,52.5 34.6,52.6 
		35.9,53.5 37.1,54.5 37.8,56 38.1,57.5 64.7,57.5 	"/>
	<polyline class="st2" points="47.6,40.6 51.7,40.6 51.7,44.6 47.6,40.6 	"/>
	<rect x="65.6" y="40.6" class="st3" width="5.4" height="16.2"/>
	<rect x="20.2" y="40.6" class="st3" width="5.8" height="16.2"/>
	<polyline class="st2" points="40.9,47.4 39.8,47.4 39.8,46.3 40.9,47.4 	"/>
	<path class="st4" d="M99.9,49.9l-0.3-5.6l-0.8-5.4l-1.7-5.4l-2-5.2l-2.7-4.9l-3.2-4.6l-3.7-4.2l-4.2-3.7l-4.6-3.2l-4.9-2.7l-5.2-2
		l-5.2-1.7l-5.6-0.8L50,0l-5.6,0.3l-5.6,0.8l-5.2,1.7l-5.2,2l-4.9,2.7l-4.6,3.2l-4.2,3.7l-3.7,4.2l-3.2,4.6L5,28.3l-2,5.2l-1.7,5.4
		l-0.8,5.4l-0.3,5.6l0.3,5.6l0.8,5.6l1.7,5.4l2,5.1l2.7,4.9l3.2,4.6l3.7,4.2l4.2,3.7l4.6,3.2l4.9,2.7l5.2,2.2l5.2,1.5l5.6,1L50,100
		l5.6-0.3l5.6-1l5.2-1.5l5.2-2.2l4.9-2.7l4.6-3.2l4.2-3.7l3.7-4.2l3.2-4.6l2.7-4.9l2-5.1l1.7-5.4l0.8-5.6L99.9,49.9 M80.1,73.1
		l2.7-4.2l2.2-4.4l1.7-4.7l0.8-4.9l0.3-4.9L87.6,45l-0.8-4.9L85,35.4L82.8,31l-2.7-4.1l-3.2-3.7l-3.7-3.4L69,17.1l-4.4-2.2l-4.7-1.5
		l-4.9-1L50,12l-4.9,0.3l-4.9,0.8l-4.7,1.7L31,17.1L27,19.8L80.1,73.1z M19.9,26.9L17.2,31L15,35.5l-1.7,4.6L12.4,45l-0.3,4.9
		l0.3,5.1l1,4.7l1.5,4.7l2.2,4.4l2.7,4.2l3.4,3.7L27,80l4.1,2.9l4.4,2.2l4.7,1.5l4.9,1L50,88l4.9-0.3l4.9-1l4.7-1.5l4.4-2.2L73,80
		L19.9,26.9z"/>
	<polyline class="st2" points="81,40.6 83.2,47.4 72,47.4 72,40.6 81,40.6 	"/>
	<polyline class="st2" points="52.7,45.7 52.7,40.6 64.6,40.6 64.6,47.4 54.4,47.4 52.7,45.7 	"/>
	<polyline class="st2" points="38.8,45.1 38.8,47.4 27,47.4 27,40.6 34.4,40.6 38.8,45.1 	"/>
	<rect x="16.7" y="40.6" class="st2" width="2.5" height="6.8"/>
</g>
</svg>
