<?xml version="1.0" encoding="utf-8"?>
<!-- Generator: Adobe Illustrator 19.2.1, SVG Export Plug-In . SVG Version: 6.00 Build 0)  -->
<svg version="1.1" id="Capa_1" xmlns="http://www.w3.org/2000/svg" xmlns:xlink="http://www.w3.org/1999/xlink" x="0px" y="0px"
	 viewBox="0 0 100 100" style="enable-background:new 0 0 100 100;" xml:space="preserve" width="100" height="100">
<style type="text/css">
	.st0{fill:#222220;}
	.st1{fill:none;stroke:#222220;stroke-width:9.500000e-02;stroke-linecap:round;stroke-linejoin:round;stroke-miterlimit:10;}
	.st2{fill-rule:evenodd;clip-rule:evenodd;fill:#222220;}
	.st3{fill-rule:evenodd;clip-rule:evenodd;fill:#C5332B;}
</style>
<g>
	<polygon class="st0" points="57.2,52.4 62.7,45.8 65,49.1 63.3,50.8 61.9,52.7 60.6,55.8 61.8,56.8 63.2,54 64.5,52.2 66.1,50.6 
		66.6,51.3 65,52.9 63.9,54.8 62.7,57.6 66.8,61.3 66.6,59 67,57.3 67.8,55.7 68.8,54.4 70.5,56.6 69.7,57.7 69.5,59 69.6,60.3 
		70.2,61.5 71.3,62.2 72.6,62.6 73.9,62.5 75.1,61.8 75.8,60.8 76.4,59.6 76.2,58.3 75.7,57.2 74.7,56.2 73.5,55.7 72.2,55.9 
		70.4,53.5 72.1,53 73.8,53 75.3,53.5 76.8,54.3 77.9,55.6 78.7,57 79.1,58.7 79,60.4 78.5,62 77.5,63.4 76.2,64.5 74.7,65.1 
		73,65.4 70.8,65 74.4,69.3 77.3,68.2 79.2,67.1 80.8,65.4 82,63.4 82.7,61.3 82.9,59 82.6,56.8 81.8,54.6 80.5,52.7 79,51.2 
		76.9,50 74.8,49.3 72.5,49.1 70.2,49.5 68.2,50.4 67.6,49.6 69.9,48.6 72.3,48.2 74.9,48.2 77.3,48.8 76.2,47.4 73.8,46.7 
		71.3,46.6 68.8,47.1 66.5,48 64.1,44.8 64,44.3 64.1,44 64.3,43.9 65.3,43.9 65.3,44 65.7,44.3 66.2,44.3 66.5,44 66.6,43.6 
		66.6,39.5 66.5,39.2 66.2,38.9 65.7,39.1 64.6,39.2 63.9,39.3 63.5,39.1 63.5,38.2 63.7,38 63.9,37.4 63.9,37 63.6,36.5 62.8,36.5 
		61.9,37.5 61.1,37.5 57.7,32.2 57.2,31.6 54.9,31.6 54.5,31.4 53.5,31.5 53.2,31.5 52.7,31.6 52.4,31.8 52.3,32 52.3,32.4 
		52.5,32.8 52.7,33.5 53.1,33.9 53.3,34 53.8,34.1 54.8,34.1 55.3,33.6 55.7,33.5 55.9,33.3 56.2,33.2 57,33.2 57.2,33.6 57.4,34.2 
		57.6,34.8 58,35.2 58.3,35.9 58.8,36.7 58.8,37.8 58.5,37.8 55.4,37.9 52.1,38.3 49.3,38.8 46.7,39.6 45.6,40.7 	"/>
	<polygon class="st1" points="57.2,52.4 62.7,45.8 65,49.1 63.3,50.8 61.9,52.7 60.6,55.8 61.8,56.8 63.2,54 64.5,52.2 66.1,50.6 
		66.6,51.3 65,52.9 63.9,54.8 62.7,57.6 66.8,61.3 66.6,59 67,57.3 67.8,55.7 68.8,54.4 70.5,56.6 69.7,57.7 69.5,59 69.6,60.3 
		70.2,61.5 71.3,62.2 72.6,62.6 73.9,62.5 75.1,61.8 75.8,60.8 76.4,59.6 76.2,58.3 75.7,57.2 74.7,56.2 73.5,55.7 72.2,55.9 
		70.4,53.5 72.1,53 73.8,53 75.3,53.5 76.8,54.3 77.9,55.6 78.7,57 79.1,58.7 79,60.4 78.5,62 77.5,63.4 76.2,64.5 74.7,65.1 
		73,65.4 70.8,65 74.4,69.3 77.3,68.2 79.2,67.1 80.8,65.4 82,63.4 82.7,61.3 82.9,59 82.6,56.8 81.8,54.6 80.5,52.7 79,51.2 
		76.9,50 74.8,49.3 72.5,49.1 70.2,49.5 68.2,50.4 67.6,49.6 69.9,48.6 72.3,48.2 74.9,48.2 77.3,48.8 76.2,47.4 73.8,46.7 
		71.3,46.6 68.8,47.1 66.5,48 64.1,44.8 64,44.3 64.1,44 64.3,43.9 65.3,43.9 65.3,44 65.7,44.3 66.2,44.3 66.5,44 66.6,43.6 
		66.6,39.5 66.5,39.2 66.2,38.9 65.7,39.1 64.6,39.2 63.9,39.3 63.5,39.1 63.5,38.2 63.7,38 63.9,37.4 63.9,37 63.6,36.5 62.8,36.5 
		61.9,37.5 61.1,37.5 57.7,32.2 57.2,31.6 54.9,31.6 54.5,31.4 53.5,31.5 53.2,31.5 52.7,31.6 52.4,31.8 52.3,32 52.3,32.4 
		52.5,32.8 52.7,33.5 53.1,33.9 53.3,34 53.8,34.1 54.8,34.1 55.3,33.6 55.7,33.5 55.9,33.3 56.2,33.2 57,33.2 57.2,33.6 57.4,34.2 
		57.6,34.8 58,35.2 58.3,35.9 58.8,36.7 58.8,37.8 58.5,37.8 55.4,37.9 52.1,38.3 49.3,38.8 46.7,39.6 45.6,40.7 	"/>
	<path class="st2" d="M52.1,58.5l-1,1.1l-0.5,0.5l-0.8,0.5l-1.2,0.1l-1,0.3L38,60.9l-0.5,2.2l-0.9,2.1l-1.4,1.8l-1.8,1.4l-2.1,1
		l-2.3,0.4h-2.2l-2.3-0.7l-2-1l-1.8-1.4l-1.3-2l-0.9-2.1l-0.4-2.3l0.1-2.2l0.8-2.2l1-2.1l1.7-1.6l1.8-1.3l2.2-0.8v-0.5l-0.9-0.3
		l-0.9-0.4h-0.4l-0.1-0.8l-0.7,0.3l-0.5,0.3l-1.2,0.5l-1.4,2l-1.6,2h-1.8l0.3-1.2l0.8-1l0.4-1l0.8-1.2l0.9-0.8l2.1-1.6l-0.7-0.3
		l-1.3-0.8l-0.7-0.7l0.1-1.2l0.4-0.7l0.3-0.7h2.5l0.4-0.5h2.7v-0.3h8.5v0.4h1.3L52.1,58.5 M31.1,57h-0.1l0.4-2.3l1.2,1l0.9,1.2
		l-1.2,0.3L31.1,57z M32,61.2l2.2-0.7l-0.4,1.6L33,63.5l-1,1.2l-1.4,0.9L29,66.1h-1.7l-1.6-0.4L24.3,65l-1.2-1l-0.8-1.4l-0.5-1.6
		v-1.7l0.4-1.6l0.8-1.4l1-1.2l1.4-0.8l1.6-0.5l-0.3,1.3l-0.8,1l-1,0.8l-0.7,1l-0.5,1.2v1.3l0.4,1.3l0.7,1l1,0.8l1.2,0.5l1.2,0.1
		l1.3-0.3l1.2-0.7l0.8-0.9L32,61.2z"/>
	<path class="st1" d="M52.1,58.5l-1,1.1l-0.5,0.5l-0.8,0.5l-1.2,0.1l-1,0.3L38,60.9l-0.5,2.2l-0.9,2.1l-1.4,1.8l-1.8,1.4l-2.1,1
		l-2.3,0.4h-2.2l-2.3-0.7l-2-1l-1.8-1.4l-1.3-2l-0.9-2.1l-0.4-2.3l0.1-2.2l0.8-2.2l1-2.1l1.7-1.6l1.8-1.3l2.2-0.8v-0.5l-0.9-0.3
		l-0.9-0.4h-0.4l-0.1-0.8l-0.7,0.3l-0.5,0.3l-1.2,0.5l-1.4,2l-1.6,2h-1.8l0.3-1.2l0.8-1l0.4-1l0.8-1.2l0.9-0.8l2.1-1.6l-0.7-0.3
		l-1.3-0.8l-0.7-0.7l0.1-1.2l0.4-0.7l0.3-0.7h2.5l0.4-0.5h2.7v-0.3h8.5v0.4h1.3L52.1,58.5z M31.1,57h-0.1l0.4-2.3l1.2,1l0.9,1.2
		l-1.2,0.3L31.1,57z M32,61.2l2.2-0.7l-0.4,1.6L33,63.5l-1,1.2l-1.4,0.9L29,66.1h-1.7l-1.6-0.4L24.3,65l-1.2-1l-0.8-1.4l-0.5-1.6
		v-1.7l0.4-1.6l0.8-1.4l1-1.2l1.4-0.8l1.6-0.5l-0.3,1.3l-0.8,1l-1,0.8l-0.7,1l-0.5,1.2v1.3l0.4,1.3l0.7,1l1,0.8l1.2,0.5l1.2,0.1
		l1.3-0.3l1.2-0.7l0.8-0.9L32,61.2z"/>
	<path class="st3" d="M99.9,50l-0.3-4.9l-0.8-4.8l-1.2-4.7l-1.6-4.7l-2.1-4.4l-2.6-4.2l-2.9-3.9l-3.4-3.6l-3.5-3.4l-4-2.9L73.5,6
		l-4.4-2.2l-4.6-1.6L59.7,1l-4.8-0.8L49.9,0l-4.8,0.3L40.2,1l-4.7,1.2l-4.6,1.6L26.4,6l-4.2,2.5l-3.9,2.9l-3.6,3.4l-3.3,3.6l-3,3.9
		l-2.5,4.2l-2.1,4.4l-1.7,4.7L1,40.2l-0.7,4.8L0.1,50l0.3,4.9L1,59.8l1.2,4.7l1.7,4.7l2.1,4.4l2.5,4.2l3,4l3.3,3.5l3.6,3.4l3.9,2.9
		l4.2,2.6l4.6,2.1l4.6,1.6l4.7,1.3l4.9,0.7l4.8,0.3l4.9-0.3l4.8-0.7l4.8-1.3l4.6-1.6l4.4-2.1l4.2-2.6l4-2.9l3.5-3.4l3.4-3.5l2.9-4
		l2.6-4.2l2.1-4.4l1.6-4.7l1.2-4.7l0.8-4.8L99.9,50 M19.9,27.7l-2.3,3.5l-2,3.8L14,38.9l-1.2,4l-0.7,4.2L12,51.3l0.3,4.2l0.8,4.2
		l1.2,4l1.6,3.8l2.1,3.8l2.5,3.4l2.7,3.1l3.1,2.7l3.4,2.5l3.8,2.1l3.8,1.6l4,1.3l4.2,0.7l4.2,0.3l4.2-0.1l4.2-0.7l4-1.2l3.9-1.4
		l3.8-2.1L73,81L19.9,27.7z M80.1,74l2.3-3.5l2-3.6l1.6-3.9l1-4l0.7-4.2l0.3-4.2l-0.3-4.3l-0.8-4l-1.2-4l-1.7-3.9l-2-3.6l-2.5-3.4
		L76.8,24l-3.1-2.7l-3.4-2.5l-3.6-2.1l-3.9-1.6l-4-1.2l-4-0.8l-4.3-0.3L46.2,13L42,13.7l-4,1.2L34,16.4l-3.6,2l-3.5,2.3L80.1,74z"/>
</g>
</svg>
