<?xml version="1.0" encoding="utf-8"?>
<!-- Generator: Adobe Illustrator 19.2.1, SVG Export Plug-In . SVG Version: 6.00 Build 0)  -->
<svg version="1.1" id="Capa_1" xmlns="http://www.w3.org/2000/svg" xmlns:xlink="http://www.w3.org/1999/xlink" x="0px" y="0px"
	 viewBox="0 0 100 100" style="enable-background:new 0 0 100 100;" xml:space="preserve" width="100" height="100">
<style type="text/css">
	.st0{fill:#222220;}
	.st1{fill-rule:evenodd;clip-rule:evenodd;fill:#C5332B;}
</style>
<g>
	<polyline class="st0" points="31.9,62.5 31.9,37.6 46.8,50 31.9,62.5 	"/>
	<polyline class="st0" points="54.5,49.6 61,44.3 63,44.3 63,55.7 60.9,55.7 54.5,49.6 	"/>
	<polyline class="st0" points="31.9,27.1 31.9,22.2 70.2,22.2 70.2,24.2 60.7,33.6 43.3,33.6 43.3,38.5 31.9,27.1 	"/>
	<polyline class="st0" points="43.3,61.8 43.3,69.2 63.6,69.2 70.2,75.8 70.2,80.6 31.9,80.6 31.9,73.2 43.3,61.8 	"/>
	<path class="st1" d="M100,50l-0.1-3.4l-0.4-3.4L99,39.8l-0.8-3.3l-1-3.3l-1.3-3.2L94.4,27l-1.6-2.9l-1.9-2.9l-2.1-2.7l-2.3-2.6
		l-2.4-2.4l-2.6-2.3l-2.7-2.1L76,7.3l-3-1.7l-3.1-1.5l-3.2-1.2l-3.2-1L60.2,1l-3.3-0.5l-3.4-0.4L50,0l-3.4,0.1l-3.4,0.4L39.8,1
		l-3.3,0.9l-3.3,1l-3.2,1.2L27,5.6l-2.9,1.7l-2.9,1.8l-2.7,2.1l-2.6,2.3l-2.4,2.4l-2.3,2.6l-2.1,2.7l-1.8,2.9L5.6,27l-1.5,3.1
		l-1.2,3.2l-1,3.3L1,39.8l-0.5,3.3l-0.4,3.4L0,50l0.1,3.4l0.4,3.4L1,60.2l0.9,3.4l1,3.2l1.2,3.2L5.6,73l1.7,3l1.8,2.9l2.1,2.7
		l2.3,2.6l2.4,2.4l2.6,2.3l2.7,2.1l2.9,1.9l2.9,1.6l3.1,1.5l3.2,1.3l3.3,1l3.3,0.8l3.3,0.6l3.4,0.3L50,100l3.4-0.1l3.4-0.3l3.3-0.6
		l3.4-0.8l3.2-1l3.2-1.3l3.1-1.5l3-1.6l2.9-1.9l2.7-2.1l2.6-2.3l2.4-2.4l2.3-2.6l2.1-2.7l1.9-2.9l1.6-3l1.5-3.1l1.3-3.2l1-3.2
		l0.8-3.4l0.5-3.3l0.4-3.4L100,50 M50,55.7L26.1,79.5l2.4,1.8l2.6,1.6l2.7,1.4l2.8,1.2l2.9,1l2.9,0.7l3,0.5l3,0.2h3l3-0.2l3-0.5
		l3-0.7l2.9-1l2.8-1.2l2.7-1.4l2.6-1.6l2.4-1.8L50,55.7z M79.5,26.1L55.7,50l23.9,23.9l1.8-2.4l1.6-2.6l1.4-2.7l1.2-2.8l1-2.9l0.7-3
		l0.5-3l0.2-3v-3l-0.2-3l-0.5-3l-0.7-2.9l-1-2.9l-1.2-2.8L83,31.1l-1.6-2.6L79.5,26.1z M73.9,20.5L50,44.3L26.1,20.5l2.4-1.8
		l2.6-1.6l2.7-1.4l2.8-1.2l2.9-1l2.9-0.7l3-0.5l3-0.2h3l3,0.2l3,0.5l3,0.7l2.9,1l2.8,1.2l2.7,1.4l2.6,1.6L73.9,20.5z M44.3,50
		L20.5,73.9l-1.8-2.4l-1.6-2.6l-1.4-2.7l-1.2-2.8l-1-2.9l-0.7-3l-0.5-3l-0.2-3v-3l0.2-3l0.5-3l0.7-2.9l1-2.9l1.2-2.8l1.4-2.7
		l1.6-2.6l1.8-2.4L44.3,50z"/>
</g>
</svg>
