<?xml version="1.0" encoding="utf-8"?>
<!-- Generator: Adobe Illustrator 19.2.1, SVG Export Plug-In . SVG Version: 6.00 Build 0)  -->
<svg version="1.1" id="Capa_1" xmlns="http://www.w3.org/2000/svg" xmlns:xlink="http://www.w3.org/1999/xlink" x="0px" y="0px"
	 viewBox="0 0 100 100" style="enable-background:new 0 0 100 100;" xml:space="preserve" width="100" height="100">
<style type="text/css">
	.st0{fill-rule:evenodd;clip-rule:evenodd;fill:#222220;}
	.st1{fill:#222220;}
	.st2{fill-rule:evenodd;clip-rule:evenodd;fill:#C5332B;}
</style>
<g>
	<path class="st0" d="M43,22.4h16.6l1.4,5.4H39l0.4-1.3L43,22.4 M37.9,25.1l-0.7,2.7l-1.8,1.8V37l1.8,1.8v3.7h3.6v-3.7h10.8
		l11.2,3.4v-3.4l1.8-1.8v-7.3l-1.8-1.8l-1.8-7.3H39L37.9,25.1z"/>
	<path class="st1" d="M77.9,100H22.1l-1.4-0.2l-1.4-0.6l-1.1-0.8l-0.9-1.2L16.9,96l-0.2-1.4l0-89.1l0.2-1.4l0.5-1.3l0.9-1.2l1.1-0.9
		l1.4-0.5L22.1,0l55.8,0l1.4,0.2l1.3,0.5l1.2,0.9l0.9,1.2L83.1,4l0.2,1.4l0,89.1l-0.2,1.4l-0.5,1.3l-0.9,1.2l-1.2,0.8l-1.3,0.6
		L77.9,100C77.9,100,77.9,100,77.9,100L77.9,100z M77.9,0.2l-55.8,0l-1.3,0.2l-1.3,0.5l-1,0.9l-0.9,1.1L17,4.1l-0.2,1.3l0,89.1
		l0.2,1.3l0.5,1.2l0.9,1.1l1,0.8l1.3,0.6l1.3,0.2l55.8,0l1.4-0.2l1.2-0.6l1.2-0.8l0.9-1.1l0.5-1.2l0.2-1.3V5.4L83,4.1l-0.5-1.2
		l-0.9-1.1l-1.1-0.9l-1.2-0.5L77.9,0.2L77.9,0.2z"/>
	<path class="st2" d="M77.7,33.4l-0.2-3.1L77,27.2l-0.9-3L75,21.4l-1.6-2.7l-1.7-2.5l-2.1-2.3l-2.3-2.1l-2.5-1.7L62,8.3l-2.8-1.2
		l-3-0.9l-3.1-0.5L50,5.6l-3.1,0.2l-3,0.5l-3,0.9L38,8.3l-2.7,1.6l-2.5,1.7l-2.3,2.1l-2.1,2.3l-1.7,2.5L25,21.4l-1.2,2.8l-0.9,3
		l-0.5,3.1l-0.2,3.1l0.2,3.1l0.5,3l0.9,3l1.2,2.8l1.6,2.7l1.7,2.6l2.1,2.2l2.3,2.1l2.5,1.7l2.7,1.6l2.8,1.2l3,0.9l3,0.5l3.1,0.2
		l3.1-0.2l3.1-0.5l3-0.9l2.8-1.2l2.7-1.6l2.5-1.7l2.3-2.1l2.1-2.2l1.7-2.6l1.6-2.7l1.2-2.8l0.9-3l0.5-3L77.7,33.4 M62.8,50.1
		L33.3,20.6l-1.5,2.2l-1.3,2.5L29.7,28l-0.6,2.6L29,33.4l0.1,2.7l0.6,2.7l0.9,2.6l1.3,2.4l1.5,2.3l1.8,2l2,1.8l2.3,1.5l2.4,1.3
		l2.6,0.9l2.7,0.6l2.7,0.2l2.8-0.2l2.6-0.6l2.6-0.9l2.5-1.2L62.8,50.1z M66.7,46.1L37.2,16.6l2.2-1.5l2.5-1.3l2.5-0.9l2.7-0.5
		l2.8-0.2l2.7,0.2l2.7,0.5l2.5,0.9l2.5,1.3l2.2,1.6l2.1,1.7l1.8,2.1l1.6,2.2l1.3,2.5l0.9,2.5l0.5,2.7l0.2,2.7l-0.2,2.8l-0.5,2.7
		l-0.9,2.5l-1.3,2.5L66.7,46.1z"/>
	<path class="st0" d="M60.2,88.2l0.5-0.2l0.2-0.5L60.7,87l-0.5-0.2h-1.2v1.4H60.2 M38.1,85.9H39l1.3,3.2l1.3-3.2h0.9v5.5h-0.9v-3.2
		l-1.3,3.2L39,88.3v3.2h-0.9V85.9z M49.9,86.8h-1.3v-0.9H52v0.9h-1.3v4.7h-0.9V86.8z M44.7,90l0.4,0.5l0.6,0.2l0.5-0.2l0.4-0.5
		l0.2-1.4l-0.2-1.3l-0.4-0.5l-0.5-0.2l-0.6,0.2l-0.4,0.5l-0.2,1.3L44.7,90z M54.9,85.8l-0.8,0.1l-0.6,0.5l-0.4,0.7L53,88.6l0.2,1.6
		l0.4,0.7l0.6,0.5l0.8,0.2l0.8-0.2l0.6-0.5l0.4-0.7l0.2-1.6l-0.2-1.6l-0.4-0.7l-0.6-0.5L54.9,85.8z M39.8,75.8h0.9v2.2h2v-2.2h0.9
		v5.5h-0.9v-2.4h-2v2.4h-0.9V75.8z M30.2,75.8h1l1.2,3.8l1.2-3.8h0.9l-1.7,5.5H32L30.2,75.8z M35.4,75.8h3.2v0.9h-2.3v1.4h1.7v0.9
		h-1.7v1.6h2.5v0.9h-3.4V75.8z M44.8,75.8h0.9v5.5h-0.9V75.8z M56.7,75.8h0.9v4.7h2.5v0.9h-3.4V75.8z M45.5,65.7h0.9l2,3.7v-3.7h0.9
		v5.5h-0.9l-2-3.7v3.7h-0.9V65.7z M51.6,69.8l0.4,0.5l0.5,0.2l0.6-0.2l0.4-0.5l0.2-1.3l-0.2-1.4l-0.4-0.5l-0.6-0.2L52,66.7l-0.4,0.5
		l-0.2,1.4L51.6,69.8z M62.2,79.9l0.4,0.5l0.5,0.2l0.6-0.2l0.3-0.5l0.3-1.4l-0.3-1.3l-0.3-0.5l-0.6-0.2l-0.5,0.2l-0.4,0.5L62,78.5
		L62.2,79.9z M45.6,75.5H45l0.5-1h1L45.6,75.5z M50.8,66.9l-0.3,1.7l0.3,1.6l0.3,0.7l0.7,0.4l0.7,0.2l0.8-0.2l0.6-0.4l0.4-0.7
		l0.2-1.6l-0.2-1.7l-0.4-0.7l-0.6-0.4l-0.8-0.2l-0.7,0.2l-0.7,0.4L50.8,66.9z M50.7,76.9L50,77.2l-0.4-0.4l-0.5-0.2l-0.5,0.1
		l-0.4,0.5l-0.3,0.9v1l0.3,1l0.4,0.4l0.5,0.2l0.5-0.2l0.4-0.5l0.8,0.3l-0.3,0.7l-0.6,0.4l-0.7,0.2l-0.8-0.1L47.8,81l-0.4-0.6
		L47,79.2V78l0.4-1.2l0.4-0.6l0.6-0.4l0.7-0.1l0.7,0.1l0.6,0.5L50.7,76.9z M53.5,81.5l0.8-0.2l0.6-0.4l0.4-0.6l0.2-0.7v-3.8h-0.9
		v3.8l-0.2,0.5l-0.3,0.4l-0.6,0.1l-0.5-0.1l-0.3-0.4l-0.2-0.5v-3.8h-0.9v3.8l0.2,0.7l0.4,0.6l0.6,0.4L53.5,81.5z M61.4,77l-0.3,1.6
		l0.3,1.7l0.3,0.6l0.7,0.5l0.7,0.2l0.8-0.2l0.6-0.5l0.4-0.6l0.2-1.7L64.8,77l-0.4-0.7l-0.6-0.4l-0.8-0.2l-0.7,0.2l-0.7,0.4L61.4,77z
		 M66.1,80l0.2,0.6l0.5,0.5l0.5,0.3l0.7,0.1l0.7-0.1l0.7-0.4l0.4-0.6l0.1-0.7L69.6,79l-0.5-0.6l-0.7-0.4L67.5,78l-0.3-0.2l-0.1-0.4
		l0.1-0.4l0.3-0.3l0.3-0.1l0.6,0.1l0.3,0.5l0.9-0.2l-0.2-0.6L68.9,76l-0.6-0.3h-0.6l-0.6,0.2l-0.5,0.4l-0.3,0.5l-0.1,0.6l0.2,0.7
		l0.4,0.5l0.6,0.2l0.8,0.2l0.5,0.3l0.2,0.5l-0.3,0.7l-0.3,0.1l-0.4,0.1l-0.5-0.1L67,80.2l-0.2-0.5L66.1,80z M58.2,85.9h2l0.7,0.1
		l0.6,0.5l0.3,0.6v0.7l-0.3,0.7l-0.6,0.4l1,2.6H61L60,89h-1v2.4h-0.9V85.9z M55.8,87.4l-0.3-0.5l-0.6-0.2l-0.6,0.2L54,87.4l-0.2,1.3
		L54,90l0.3,0.5l0.6,0.2l0.6-0.2l0.3-0.5l0.2-1.4L55.8,87.4z M43.9,87.1l-0.2,1.6l0.2,1.6l0.4,0.7l0.6,0.5l0.8,0.2l0.7-0.2l0.7-0.5
		l0.3-0.7l0.3-1.6l-0.3-1.6L47,86.4l-0.7-0.5l-0.7-0.1l-0.8,0.1l-0.6,0.5L43.9,87.1z"/>
	<path class="st0" d="M77.9,95.8l0.7-0.1l0.5-0.5l0.2-0.7V5.4l-0.2-0.7l-0.5-0.5l-0.7-0.2H22.1l-0.7,0.2l-0.5,0.5l-0.2,0.7v89.1
		l0.2,0.7l0.5,0.5l0.7,0.1H77.9 M77.9,98.5l1.3-0.2l1.1-0.6l0.9-0.9l0.6-1.2l0.2-1.2V5.4l-0.2-1.3l-0.6-1.1l-0.9-0.9l-1.1-0.6
		l-1.3-0.2H22.1l-1.3,0.2l-1.1,0.6l-0.9,0.9l-0.6,1.1l-0.2,1.3v89.1l0.2,1.2l0.6,1.2l0.9,0.9l1.1,0.6l1.3,0.2H77.9z"/>
</g>
</svg>
