<?xml version="1.0" encoding="utf-8"?>
<!-- Generator: Adobe Illustrator 19.2.1, SVG Export Plug-In . SVG Version: 6.00 Build 0)  -->
<svg version="1.1" id="Capa_1" xmlns="http://www.w3.org/2000/svg" xmlns:xlink="http://www.w3.org/1999/xlink" x="0px" y="0px"
	 viewBox="0 0 100 100" style="enable-background:new 0 0 100 100;" xml:space="preserve" width="100" height="100">
<style type="text/css">
	.st0{fill-rule:evenodd;clip-rule:evenodd;fill:#222220;}
	.st1{fill-rule:evenodd;clip-rule:evenodd;fill:#C5332B;}
</style>
<g>
	<path class="st0" d="M68.7,27.6l-0.1-0.8l-0.3-0.7l-0.5-0.6l-0.6-0.5l-0.8-0.3l-0.8-0.1l-0.7,0.1l-0.7,0.3l-0.6,0.5L63,26.1
		l-0.3,0.7l-0.1,0.8l0.1,0.8l0.3,0.7l0.5,0.6l0.6,0.5l0.7,0.3l0.7,0.1l0.8-0.1l0.8-0.3l0.6-0.5l0.5-0.6l0.3-0.7L68.7,27.6
		 M36.6,58.9l-0.1-1.3l-0.3-1.3L35.5,55l-0.8-1.1l-1-0.9l-1.1-0.7l-1.2-0.6l-1.3-0.3l-1.3-0.1l-1.3,0.1l-1.3,0.3l-1.2,0.6L24,53
		l-1,0.9L22.3,55l-0.6,1.2l-0.3,1.3l-0.1,1.3l0.1,1.3l0.3,1.3l0.6,1.2l0.8,1.1l1,0.9l1.1,0.8l1.2,0.5l1.3,0.3l1.3,0.1l1.3-0.1
		l1.3-0.3l1.2-0.5l1.1-0.8l1-0.9l0.8-1.1l0.6-1.2l0.3-1.3L36.6,58.9z M33.5,58.9l-0.1-1l-0.3-1L32.5,56l-0.7-0.7l-0.9-0.5l-1-0.3
		l-1-0.1l-1,0.1l-1,0.3L26,55.2L25.3,56l-0.6,0.9l-0.3,1l-0.1,1l0.1,1l0.3,1l0.6,0.9l0.7,0.7l0.9,0.5l1,0.3l1,0.1l1-0.1l1-0.3
		l0.9-0.5l0.7-0.7l0.6-0.9l0.3-1L33.5,58.9z M76.3,54.3l-0.1-1.2l-0.3-1.2l-0.6-1l-0.7-0.9l-0.9-0.7l-1-0.6l-1.2-0.3l-1.2-0.1
		L69,48.3l-1.2,0.3l-1,0.6l-0.9,0.7l-0.7,0.9l-0.6,1l-0.3,1.2l-0.1,1.2l0.1,1.2l0.3,1.2l0.6,1l0.7,0.9l0.9,0.7l1,0.6l1.2,0.3
		l1.2,0.1l1.2-0.1l1.2-0.3l1-0.6l0.9-0.7l0.7-0.9l0.6-1l0.3-1.2L76.3,54.3z M21.3,35.9h27.5L49,37l3-1.7l-1.2-2.1l1-0.6l3.1,5.3
		l-1,0.6l-1.2-2.1l-3.3,2l1.1,5.1l1.3,6l0.1,0.7H31.3l-1.6-0.3h-1.6L26.6,50h-2.2L21.3,35.9z M58.4,44.6l0.6-2.5h2.1l-1.4,1.2
		L58.4,44.6z M68.7,35.9v-3.7h-6.1v3.7v-3.7v6.7v-4.8v4.8h-6.1l-1.8,8.6l-0.1,0.6l-0.3,1.2L54.1,50h3.1l0.6-1.7l0.9-1.5l1-1.4
		l1.2-1.3l1.4-1.1l1.5-0.9l1.6-0.7l1.7-0.5l1.7-0.3l1.8-0.1l1.7,0.2L74,41l1.7,0.6l1.6,0.8l1.4,1l1.3,1.2l1.1-1.1l-1.4-1.3L78,41.1
		l-1.7-0.9l-1.8-0.6l-1.9-0.4L70.6,39l-2,0.1V35.9z M48,54.3H36.9l-0.8-1.2l-1-1L34,51.2h10.2l0.4,0L48,54.3z M72.8,66.2l0.5-0.1
		l1.6-0.5l1.4-0.7l1.3-0.9l1.3-1l1-1.2l0.9-1.3l0.7-1.4l0.5-1.6l0.3-1.6l0.1-1.6l-0.1-1.6L82,51.2l-0.5-1.6l-0.7-1.4L80,46.8
		l-1.1-1.2l-1.2-1.1l-1.3-0.9L74.9,43l-1.6-0.5l-1.6-0.3l-1.6-0.1l-1.6,0.1L67,42.5L65.4,43L64,43.7l-1.3,0.9l-1.2,1l-1,1.3
		l-0.9,1.3l-0.7,1.4l-0.5,1.6l-0.1,0.5L72.8,66.2z"/>
	<path class="st1" d="M100,50l-0.1-3.5l-0.3-3.4L99,39.8l-0.8-3.3l-1-3.2l-1.3-3.2L94.4,27L92.7,24l-1.8-2.9l-2.1-2.7l-2.2-2.6
		l-2.4-2.4l-2.5-2.2l-2.8-2L76,7.3l-3-1.7l-3.1-1.4l-3.2-1.3l-3.3-1L60.2,1l-3.4-0.6l-3.4-0.3L50,0l-3.4,0.1l-3.4,0.3L39.8,1
		l-3.3,0.8l-3.3,1l-3.2,1.3L27,5.6l-3,1.7l-2.8,1.9l-2.8,2l-2.5,2.2l-2.4,2.4l-2.2,2.6l-2.1,2.7L7.3,24L5.6,27l-1.4,3.1l-1.3,3.2
		l-1,3.2L1,39.8l-0.6,3.3l-0.3,3.4L0,50l0.1,3.4l0.3,3.4L1,60.1l0.8,3.3l1,3.2l1.3,3.2L5.6,73l1.7,3l1.8,2.8l2.1,2.7l2.2,2.6
		l2.4,2.4l2.5,2.2l2.8,2.1l2.8,1.8l3,1.7l3.1,1.5l3.2,1.2l3.3,1l3.3,0.8l3.4,0.6l3.4,0.4L50,100l3.4-0.1l3.4-0.4l3.4-0.6l3.3-0.8
		l3.3-1l3.2-1.2l3.1-1.5l3-1.7l2.8-1.8l2.8-2.1l2.5-2.2l2.4-2.4l2.2-2.6l2.1-2.7l1.8-2.8l1.7-3l1.4-3.1l1.3-3.2l1-3.2l0.8-3.3
		l0.6-3.3l0.3-3.4L100,50 M80.2,73.1L26.9,19.8l2.4-1.7l2.5-1.5l2.6-1.3l2.8-1.1l2.8-0.9l2.9-0.6l2.9-0.5l2.9-0.2l3,0.1l2.9,0.2
		l2.9,0.5l2.9,0.7l2.8,0.9l2.7,1.2l2.6,1.3l2.5,1.6l2.4,1.7l2.2,1.9l2.1,2.1l1.9,2.2l1.8,2.4l1.6,2.5l1.3,2.6l1.2,2.8l0.9,2.8
		l0.7,2.9l0.5,2.9l0.3,2.9v2.9l-0.2,2.9L87.3,57l-0.6,2.9l-0.9,2.8l-1.1,2.8l-1.3,2.7l-1.5,2.5L80.2,73.1z M73.1,80.1L19.8,26.9
		l-1.7,2.4l-1.5,2.5l-1.3,2.7l-1.1,2.7L13.3,40l-0.6,2.9l-0.5,2.9L12,48.8v2.9l0.3,2.9l0.5,2.9l0.7,2.9l0.9,2.8l1.2,2.7l1.3,2.6
		l1.6,2.5l1.8,2.4l1.9,2.2l2.1,2.1l2.2,1.9l2.4,1.7l2.5,1.6l2.6,1.4l2.7,1.1l2.8,1l2.9,0.7l2.9,0.5l2.9,0.3h3l2.9-0.2l2.9-0.4
		l2.9-0.7l2.8-0.9l2.8-1.1l2.6-1.3l2.5-1.5L73.1,80.1z"/>
</g>
</svg>
