<?xml version="1.0" encoding="utf-8"?>
<!-- Generator: Adobe Illustrator 19.2.1, SVG Export Plug-In . SVG Version: 6.00 Build 0)  -->
<svg version="1.1" id="Capa_1" xmlns="http://www.w3.org/2000/svg" xmlns:xlink="http://www.w3.org/1999/xlink" x="0px" y="0px"
	 viewBox="0 0 100 100" style="enable-background:new 0 0 100 100;" xml:space="preserve" width="100" height="100">
<style type="text/css">
	.st0{fill:#222220;}
	.st1{fill-rule:evenodd;clip-rule:evenodd;fill:#C5332B;}
</style>
<g>
	<polyline class="st0" points="31.9,24.8 31.9,22.2 70.1,22.2 70.1,33.6 43.3,33.6 43.3,38 49.4,44.3 63,44.3 63,55.7 43.3,55.7 
		43.3,69.2 63.4,69.2 70.1,76.4 70.1,80.6 31.9,80.6 31.9,24.8 	"/>
	<path class="st1" d="M99.9,50l-0.1-3.4l-0.3-3.4l-0.6-3.4l-0.8-3.3L97,33.2l-1.2-3.2l-1.5-3l-1.7-3l-1.9-2.9l-2.1-2.7l-2.2-2.6
		l-2.4-2.4l-2.6-2.3l-2.7-2.1l-2.9-1.9l-3-1.6l-3-1.5l-3.2-1.3l-3.2-1l-3.3-0.8l-3.3-0.6l-3.4-0.4L50,0l-3.4,0.1l-3.4,0.4l-3.3,0.6
		l-3.3,0.8l-3.2,1l-3.2,1.3l-3,1.5l-3,1.6l-2.9,1.9l-2.7,2.1l-2.6,2.3l-2.4,2.4l-2.2,2.6l-2.1,2.7L7.4,24l-1.7,3l-1.5,3L3,33.2
		l-1.1,3.3l-0.8,3.3l-0.6,3.4l-0.3,3.4L0.1,50l0.1,3.4l0.3,3.4l0.6,3.3l0.8,3.3L3,66.7l1.2,3.2l1.5,3l1.7,3l1.9,2.9l2.1,2.7l2.2,2.6
		l2.4,2.4l2.6,2.2l2.7,2.1l2.9,1.8l3,1.7l3,1.5l3.2,1.2l3.2,1.1l3.3,0.8l3.3,0.6l3.4,0.4L50,100l3.4-0.1l3.4-0.4l3.3-0.6l3.3-0.8
		l3.2-1.1l3.2-1.2l3-1.5l3-1.7l2.9-1.8l2.7-2.1l2.6-2.2l2.4-2.4l2.2-2.6l2.1-2.7l1.9-2.9l1.7-3l1.5-3l1.2-3.2l1.1-3.2l0.8-3.3
		l0.6-3.3l0.3-3.4L99.9,50 M19.9,26.9l-1.7,2.4l-1.5,2.5l-1.3,2.7l-1.1,2.7L13.4,40L12.7,43l-0.4,2.9l-0.2,3l0.1,2.9l0.2,2.9
		l0.5,2.9l0.7,2.9l0.9,2.8l1.2,2.7l1.3,2.6l1.5,2.5l1.8,2.4l1.9,2.2l2.1,2.1l2.2,1.9l2.4,1.8l2.5,1.5l2.6,1.3l2.7,1.2l2.8,0.9
		l2.9,0.7l2.9,0.5l2.9,0.2l2.9,0.1l2.9-0.2l2.9-0.4l2.9-0.7l2.8-0.9l2.8-1.1l2.6-1.3l2.6-1.5l2.4-1.7L19.9,26.9z M80.1,73.1l1.7-2.4
		l1.5-2.6l1.3-2.6l1.1-2.8l0.9-2.8l0.7-2.9l0.4-2.9l0.2-2.9l-0.1-2.9l-0.2-2.9l-0.5-2.9l-0.7-2.9l-0.9-2.8L84.4,34L83,31.4l-1.5-2.5
		l-1.8-2.4l-1.9-2.2l-2.1-2.1l-2.2-1.9l-2.4-1.7l-2.5-1.6L66,15.5l-2.7-1.1l-2.8-0.9l-2.9-0.7l-2.9-0.5l-2.9-0.2L48.8,12l-2.9,0.2
		L43,12.7l-2.9,0.6l-2.8,0.9l-2.8,1.1l-2.6,1.3l-2.6,1.5l-2.4,1.7L80.1,73.1z"/>
</g>
</svg>
