<?xml version="1.0" encoding="utf-8"?>
<!-- Generator: Adobe Illustrator 19.2.1, SVG Export Plug-In . SVG Version: 6.00 Build 0)  -->
<svg version="1.1" id="Capa_1" xmlns="http://www.w3.org/2000/svg" xmlns:xlink="http://www.w3.org/1999/xlink" x="0px" y="0px"
	 viewBox="0 0 100 100" style="enable-background:new 0 0 100 100;" xml:space="preserve" width="100" height="100">
<style type="text/css">
	.st0{fill:none;stroke:#222220;stroke-width:8.200000e-02;stroke-linecap:round;stroke-linejoin:round;stroke-miterlimit:10;}
	.st1{fill:#222220;}
	.st2{fill-rule:evenodd;clip-rule:evenodd;fill:#C5332B;}
</style>
<g>
	<path class="st0" d="M50,31.4h3 M50,33.1h3"/>
	<polyline class="st1" points="35.4,41.7 35.1,42.2 31.2,49.2 31.3,49.6 31.4,50.2 31.3,50.7 31,51.1 30.6,51.4 30.1,51.6 
		29.6,51.7 29.1,51.6 28.6,51.3 28.3,50.9 28,50.5 28,49.9 28.1,49.5 28.3,49 28.7,48.6 29.2,48.4 29.7,48.3 34.2,40.4 35.4,41.7 	
		"/>
	<polyline class="st1" points="32.4,38.5 31.2,38.2 29.6,38.2 28.1,38.3 26.6,38.6 25.1,39.1 23.7,39.8 22.5,40.6 21.3,41.7 
		20.3,42.8 19.4,44.1 18.7,45.5 18.2,47 17.9,48.5 17.9,50.1 18,51.6 18.2,53.1 18.7,54.5 19.4,56 20.3,57.2 21.3,58.4 22.5,59.4 
		23.8,60.3 25.1,60.9 26.6,61.4 28.1,61.8 29.7,61.9 31.2,61.8 32.7,61.5 34.2,60.9 35.6,60.3 36.9,59.4 38.1,58.4 39,57.3 39.9,56 
		40.6,54.6 41.1,53.1 41.5,51.6 41.6,50.1 41.3,47.7 43.2,49.3 43.2,50.3 43.1,51.9 42.8,53.5 42.3,55 41.6,56.5 40.7,57.9 
		39.7,59.1 38.6,60.3 37.2,61.3 35.9,62.1 34.3,62.7 32.8,63.2 31.2,63.5 29.6,63.6 28,63.5 26.4,63.1 24.8,62.6 23.4,62 22,61.2 
		20.7,60.1 19.6,59 18.6,57.7 17.7,56.3 17,54.9 16.5,53.3 16.3,51.8 16.2,50.1 16.2,48.5 16.5,46.9 17,45.3 17.6,43.9 18.5,42.4 
		19.4,41.2 20.5,40 21.8,39 23.2,38.1 24.6,37.5 26.2,36.9 27.8,36.6 29.4,36.5 29.9,36.5 32.4,38.5 	"/>
	<polyline class="st1" points="56.7,49.9 56.8,49.1 57,47.5 57.4,46 57.9,44.5 58.7,43.2 59.5,41.8 60.5,40.7 61.7,39.6 62.9,38.7 
		60.2,33.9 53.5,45.7 53,46.4 51.7,45.3 58.7,33.1 41.3,33.1 42,34.2 43.5,36.9 37.9,31.4 37.5,29.7 35.5,26.3 35.5,24.6 45.7,24.6 
		45.7,26.3 37.5,26.3 40.4,31.4 59.6,31.4 60.7,29.7 56.8,29.7 56.8,28 67,26.3 67,29.7 62.6,29.7 61.2,32.2 64.4,37.9 65.9,37.2 
		67.5,36.8 69.1,36.5 70.8,36.5 72.4,36.6 74,37 75.6,37.5 77.1,38.2 78.4,39.2 79.7,40.2 80.8,41.4 81.8,42.7 82.6,44.2 83.2,45.7 
		83.6,47.3 83.8,48.9 83.8,50.5 83.7,52.2 83.4,53.8 82.8,55.4 82,56.8 81.1,58.2 80.1,59.5 78.9,60.6 77.5,61.5 76.1,62.3 
		74.5,62.9 72.9,63.3 71.3,63.5 70,63.5 68.3,61.8 69.6,61.8 71.1,61.8 72.7,61.6 74.2,61.2 75.6,60.6 76.9,59.8 78.1,58.9 
		79.2,57.8 80.2,56.6 80.9,55.3 81.5,53.8 82,52.4 82.1,50.8 82.1,49.3 82,47.8 81.6,46.2 81,44.8 80.2,43.5 79.3,42.2 78.2,41.1 
		77,40.2 75.7,39.4 74.3,38.8 72.7,38.4 71.2,38.2 69.7,38.2 68.1,38.3 66.6,38.7 65.2,39.3 70.3,48.3 70.9,48.4 71.3,48.6 71.7,49 
		71.9,49.5 72,49.9 72,50.5 71.7,50.9 71.4,51.3 70.9,51.6 70.4,51.7 69.9,51.6 69.4,51.4 69.1,51.1 68.8,50.7 68.6,50.2 68.7,49.6 
		68.9,49.2 63.7,40.2 62.5,41.1 61.4,42.2 60.5,43.4 59.7,44.7 59.1,46.2 58.7,47.6 58.5,49.2 58.5,50.7 58.6,52 56.7,49.9 	"/>
	<path class="st2" d="M19.8,26.9l-1.6,2.4l-1.5,2.5l-1.3,2.6L14.3,37l-0.9,2.7l-0.7,2.8l-0.4,2.8L12,48.2v2.9l0.2,2.8l0.4,2.8
		l0.6,2.8l0.8,2.8l1,2.7l1.3,2.6l1.4,2.5l1.6,2.4l1.8,2.2l2,2.1l2.1,2l2.2,1.7l2.4,1.6l2.5,1.4l2.6,1.3l2.7,1l2.7,0.9l2.8,0.6
		l2.8,0.4L49,88l2.8-0.1l2.9-0.2l2.8-0.5l2.8-0.7l2.7-0.9l2.7-1.1l2.6-1.3l2.5-1.5l2.4-1.7L19.8,26.9 M80.2,73.1l1.6-2.4l1.5-2.5
		l1.3-2.6l1.1-2.6l0.9-2.7l0.7-2.8l0.5-2.8l0.2-2.9L88,49l-0.2-2.9l-0.4-2.8l-0.7-2.8l-0.8-2.7l-1-2.7l-1.2-2.6l-1.4-2.5l-1.6-2.4
		l-1.8-2.2l-1.9-2.1l-2.1-2l-2.2-1.8l-2.4-1.6l-2.5-1.4l-2.6-1.3l-2.7-1l-2.8-0.8l-2.8-0.6l-2.8-0.4l-2.8-0.2h-2.9l-2.8,0.3
		l-2.8,0.4l-2.8,0.7L37,14.4l-2.7,1l-2.6,1.3l-2.5,1.5l-2.4,1.6L80.2,73.1z M100,50l-0.1-3.2l-0.3-3.3L99,40.3l-0.7-3.2L97.4,34
		l-1.2-3.1l-1.3-3l-1.5-2.8l-1.8-2.8l-1.9-2.7l-2.1-2.5l-2.2-2.4L83,12.5l-2.5-2.1l-2.7-1.9L75,6.8l-2.9-1.6l-3-1.3l-3.1-1.1l-3.2-1
		L59.7,1l-3.2-0.5l-3.2-0.3L50,0l-3.2,0.1l-3.3,0.3L40.3,1l-3.2,0.7l-3.1,1l-3.1,1.1l-3,1.3L25,6.8l-2.8,1.7l-2.6,1.9L17,12.5
		l-2.4,2.2l-2.2,2.4l-2.1,2.5l-1.9,2.7l-1.7,2.8l-1.5,2.8l-1.4,3L2.7,34l-0.9,3.1L1,40.3l-0.5,3.2l-0.3,3.3L0,50l0.1,3.3l0.3,3.2
		L1,59.7L1.8,63l0.9,3.1l1.1,3.1l1.4,3L6.7,75l1.7,2.7l1.9,2.7l2.1,2.5l2.2,2.4l2.4,2.2l2.6,2.1l2.6,1.9l2.8,1.8l2.8,1.5l3,1.4
		l3.1,1.1l3.1,0.9l3.2,0.8l3.2,0.5l3.3,0.3L50,100l3.3-0.1l3.2-0.3l3.2-0.5l3.2-0.8l3.2-0.9l3.1-1.1l3-1.4l2.9-1.5l2.7-1.8l2.7-1.9
		l2.5-2.1l2.4-2.2l2.2-2.4l2.1-2.5l1.9-2.7l1.8-2.7l1.5-2.9l1.3-3l1.2-3.1l0.9-3.1l0.7-3.2l0.5-3.2l0.3-3.2L100,50z"/>
</g>
</svg>
