<?xml version="1.0" encoding="utf-8"?>
<!-- Generator: Adobe Illustrator 19.2.1, SVG Export Plug-In . SVG Version: 6.00 Build 0)  -->
<svg version="1.1" id="Capa_1" xmlns="http://www.w3.org/2000/svg" xmlns:xlink="http://www.w3.org/1999/xlink" x="0px" y="0px"
	 viewBox="0 0 100 100" style="enable-background:new 0 0 100 100;" xml:space="preserve" width="100" height="100">
<style type="text/css">
	.st0{fill-rule:evenodd;clip-rule:evenodd;fill:#222220;}
	.st1{fill-rule:evenodd;clip-rule:evenodd;fill:#C5332B;}
</style>
<g>
	<polyline class="st0" points="50,56.6 50,62.8 48.1,62.8 48.1,55.6 45,54 43.6,62.8 42,62.8 42,53.2 33,53.2 37.5,53.2 33,53.2 
		33,62.8 31.4,62.8 29.8,53.2 28.4,53.3 28.3,53.2 24,55.5 26.8,58.3 25.5,59.6 21.4,55.6 25,51.9 24.3,51.2 23.9,50.3 23.6,49.3 
		23.5,48.3 23.6,47.3 23.9,46.5 23.9,45.7 23.7,44.9 23.3,44.1 22.7,43.5 22,43.1 21.2,42.8 21.2,46.8 18,46.8 18,37.2 19.9,37.3 
		21.7,37.6 23.4,38.2 25.1,38.9 26.7,39.8 28.2,40.9 29.6,42.2 30.8,43.6 37.1,43.6 50,56.6 	"/>
	<polyline class="st0" points="51.7,45.5 51.3,44.2 50,40.4 82,40.4 78.8,50 82,50 82,53.2 75.6,53.2 75.5,54.5 75.2,55.8 74.8,57 
		74.2,58.2 73.5,59.2 72.6,60.2 71.6,61 70.5,61.7 69.3,62.2 68.1,62.5 66.6,61.2 66.8,61.2 68,60.9 69.3,60.5 70.4,59.9 71.4,59.1 
		72.4,58.1 73,57 73.6,55.8 73.9,54.5 74,53.2 67.6,53.2 67.5,53.7 67.3,54.1 66.9,54.5 66.5,54.7 66,54.8 65.5,54.7 65.1,54.5 
		64.7,54.1 64.5,53.7 64.4,53.2 59.7,53.2 51.7,45.5 	"/>
	<path class="st1" d="M19.8,26.9l-1.7,2.4l-1.5,2.4l-1.3,2.6l-1.1,2.7l-0.9,2.8l-0.7,2.8l-0.5,2.9l-0.2,2.9L12,51.1l0.2,2.9l0.4,2.8
		l0.6,2.8l0.9,2.8l1,2.7l1.3,2.6l1.4,2.5l1.6,2.4l1.8,2.2l2,2.1l2.1,2l2.2,1.8l2.4,1.6l2.5,1.4l2.6,1.2l2.7,1.1l2.8,0.9l2.8,0.6
		l2.9,0.4l2.9,0.2h2.9l2.9-0.3l2.8-0.4l2.8-0.7l2.7-0.9l2.7-1.1l2.6-1.3l2.4-1.5l2.3-1.6L19.8,26.9 M100,50l-0.1-3.3l-0.3-3.2
		L99,40.2L98.3,37l-0.9-3.1l-1.2-3l-1.3-3L93.3,25l-1.8-2.8l-1.9-2.7L87.6,17l-2.2-2.4l-2.4-2.2l-2.5-2.1l-2.7-1.9L75,6.7l-2.9-1.5
		l-3-1.4l-3-1.1l-3.1-1L59.7,1l-3.2-0.5l-3.3-0.3L50,0l-3.2,0.1l-3.3,0.3L40.3,1l-3.2,0.7l-3.1,1l-3.1,1.1l-3,1.4L25,6.7l-2.8,1.7
		l-2.7,1.9l-2.5,2.1l-2.4,2.2L12.4,17l-2.1,2.5l-1.9,2.7L6.7,25l-1.5,2.9l-1.3,3l-1.2,3L1.7,37L1,40.2l-0.5,3.2l-0.3,3.2L0,50
		l0.1,3.2l0.3,3.2L1,59.8L1.7,63l0.9,3.1l1.2,3l1.3,3L6.7,75l1.8,2.8l1.9,2.7l2.1,2.5l2.2,2.4l2.4,2.2l2.5,2.1l2.7,1.9l2.8,1.7
		l2.9,1.5l3,1.4l3.1,1.1l3.1,1l3.2,0.7l3.2,0.5l3.3,0.3L50,100l3.2-0.1l3.3-0.3l3.2-0.5l3.2-0.7l3.1-1l3-1.1l3-1.4l2.9-1.5l2.8-1.7
		l2.7-1.9l2.5-2.1l2.4-2.2l2.2-2.4l2.1-2.5l1.9-2.7l1.8-2.8l1.5-2.9l1.3-3l1.2-3l0.9-3.1l0.7-3.2l0.5-3.2l0.3-3.2L100,50z
		 M80.2,73.1L26.9,19.8l2.3-1.6l2.4-1.5l2.6-1.3l2.7-1.1l2.7-0.9l2.8-0.7l2.8-0.4l2.9-0.3h2.9l2.9,0.2l2.9,0.4l2.8,0.6l2.8,0.8
		l2.7,1.1l2.6,1.2l2.5,1.4l2.4,1.6l2.2,1.8l2.1,2l2,2.1l1.8,2.3l1.6,2.3l1.4,2.5l1.3,2.6l1,2.7l0.9,2.8l0.6,2.8l0.4,2.8l0.2,2.9
		l-0.1,2.9l-0.2,2.8l-0.5,2.9l-0.7,2.8l-0.9,2.8l-1.1,2.7l-1.3,2.6l-1.5,2.5L80.2,73.1z"/>
</g>
</svg>
