<?xml version="1.0" encoding="utf-8"?>
<!-- Generator: Adobe Illustrator 19.2.1, SVG Export Plug-In . SVG Version: 6.00 Build 0)  -->
<svg version="1.1" id="Capa_1" xmlns="http://www.w3.org/2000/svg" xmlns:xlink="http://www.w3.org/1999/xlink" x="0px" y="0px"
	 viewBox="0 0 100 100" style="enable-background:new 0 0 100 100;" xml:space="preserve" width="100" height="100">
<style type="text/css">
	.st0{fill-rule:evenodd;clip-rule:evenodd;fill:#222220;}
	.st1{fill-rule:evenodd;clip-rule:evenodd;fill:#C5332B;}
</style>
<g>
	<path class="st0" d="M65.8,35l-0.1-0.8l-0.3-0.8l-0.5-0.7l-0.6-0.5l-0.8-0.3l-0.8-0.1l-0.8,0.1l-0.7,0.3l-0.6,0.5L60,33.4l-0.3,0.8
		L59.6,35l0.1,0.8l0.3,0.7l0.5,0.6l0.6,0.5l0.7,0.3l0.8,0.1l0.8-0.1l0.8-0.3l0.6-0.5l0.5-0.6l0.3-0.7L65.8,35 M33.5,56.1l-4.4-0.3
		v1.4l0.2,1.3l0.5,1.2l0.6,1.1l0.9,1l1,0.9l1.2,0.6l1.2,0.4l1.3,0.2l1.4-0.1l1.3-0.3l1.2-0.5l1.1-0.7l1-0.9l0.8-1l0.6-1.2l0.4-1.2
		l0.2-1.4l-4.5-0.2l-0.1,0.8L39.1,58l-0.5,0.7l-0.6,0.5l-0.8,0.3l-0.8,0.1l-0.8-0.2l-0.7-0.4l-0.6-0.5l-0.4-0.6l-0.2-0.8L33.5,56.1z
		 M37.3,43.8l-0.5-0.1l-19.6-1.1l2.4,12.6l8.1,0.5v1.4l0.2,1.4l0.4,1.4l0.6,1.3l0.9,1.1l1,1l1.2,0.9l1.2,0.6l1.4,0.4l1.5,0.2
		l1.4-0.1l1.4-0.3l1.4-0.4l1.2-0.7l1.1-0.9l1-1l0.8-1.2l0.6-1.3l0.4-1.4l0.2-1.4l4.5,0.3l0.4-1.1l2.2-7.3l0.3-1.1l1.9,0.1l3.8,0.2
		l5.9-3.8l4.1,7v11.8l2.1,2.5h0.9V52.7l6.7,12.8l2.6-1.4l-7.1-13.6l1-0.5l-1,0.5l1-0.5l-7.7-13.2h-0.1L62,39.9l1,1.6l-5.2,3.4
		l2.1-1.4l3-2l-5.1,3.3l-6.2-0.3l-0.5-0.1L37.3,43.8z"/>
	<path class="st1" d="M99.9,50l-0.1-3.3l-0.3-3.3l-0.5-3.3l-0.8-3.1l-0.9-3.1l-1.1-3.1l-1.4-3L93.2,25l-1.7-2.8l-1.9-2.7L87.5,17
		l-2.2-2.4l-2.4-2.2l-2.5-2.1l-2.6-1.9L75,6.7L72,5.1l-3-1.4l-3-1.1l-3.1-1L59.7,1l-3.2-0.5l-3.2-0.3L50,0l-3.2,0.1l-3.2,0.3L40.3,1
		l-3.2,0.7l-3.1,1l-3,1.1l-3,1.4L25,6.7l-2.8,1.7l-2.7,1.9l-2.5,2.1l-2.4,2.2L12.5,17l-2.1,2.5l-1.9,2.7L6.8,25l-1.6,2.9l-1.4,3
		l-1.1,3.1l-0.9,3.1l-0.8,3.1l-0.5,3.3l-0.3,3.3L0.1,50l0.1,3.3l0.3,3.3l0.5,3.2l0.8,3.2l0.9,3.1l1.1,3.1l1.4,3L6.8,75l1.7,2.8
		l1.9,2.7l2.1,2.5l2.2,2.4l2.4,2.2l2.5,2.1l2.7,1.9l2.8,1.7l2.9,1.5l3,1.4l3,1.1l3.1,1l3.2,0.7l3.2,0.5l3.2,0.3L50,100l3.3-0.1
		l3.2-0.3l3.2-0.5l3.2-0.7l3.1-1l3-1.1l3-1.4l2.9-1.5l2.8-1.7l2.6-1.9l2.5-2.1l2.4-2.2l2.2-2.4l2.1-2.5l1.9-2.7l1.7-2.8l1.6-2.9
		l1.4-3l1.1-3.1l0.9-3.1l0.8-3.2l0.5-3.2l0.3-3.3L99.9,50 M73.1,80.2L19.9,26.9l-1.7,2.4l-1.5,2.4l-1.3,2.6L14.4,37l-0.9,2.7
		l-0.7,2.8l-0.4,2.8l-0.3,2.9v2.9l0.2,2.9l0.4,2.9l0.6,2.8l0.9,2.7l1,2.7l1.2,2.6l1.4,2.5l1.6,2.4l1.8,2.2l1.9,2.1l2.1,2l2.2,1.8
		l2.4,1.6l2.5,1.5l2.6,1.2l2.7,1l2.7,0.8l2.8,0.6l2.9,0.4l2.9,0.2h2.9l2.9-0.3l2.8-0.4l2.8-0.7l2.7-0.9l2.6-1.1l2.6-1.3l2.4-1.5
		L73.1,80.2z M80.1,73.1l1.7-2.4l1.5-2.4l1.3-2.6l1.1-2.7l0.9-2.7l0.7-2.8l0.4-2.8l0.3-2.9v-2.9l-0.2-2.9l-0.4-2.9l-0.6-2.8
		l-0.9-2.7l-1-2.7l-1.2-2.6l-1.4-2.5l-1.6-2.4l-1.8-2.2l-1.9-2.1l-2.1-2l-2.2-1.8l-2.4-1.6l-2.5-1.5L65,15.1l-2.7-1l-2.7-0.8
		l-2.8-0.6l-2.9-0.4L51.1,12h-2.9l-2.9,0.3l-2.8,0.4l-2.8,0.7L37,14.3l-2.6,1.1l-2.6,1.3l-2.4,1.5l-2.4,1.7L80.1,73.1z"/>
</g>
</svg>
