<?xml version="1.0" encoding="utf-8"?>
<!-- Generator: Adobe Illustrator 19.2.1, SVG Export Plug-In . SVG Version: 6.00 Build 0)  -->
<svg version="1.1" id="Capa_1" xmlns="http://www.w3.org/2000/svg" xmlns:xlink="http://www.w3.org/1999/xlink" x="0px" y="0px"
	 viewBox="0 0 100 100" style="enable-background:new 0 0 100 100;" xml:space="preserve" width="100" height="100">
<style type="text/css">
	.st0{fill-rule:evenodd;clip-rule:evenodd;fill:#222220;}
	.st1{fill-rule:evenodd;clip-rule:evenodd;fill:#C5332B;}
</style>
<g>
	<path class="st0" d="M36.8,60.3l-0.3-1.9l-1-1.5l-1.5-1L32,55.6l-1.9,0.3l-1.5,1l-1.2,1.5l-0.3,1.9l0.3,1.9l1.2,1.5l1.5,1l1.9,0.5
		l1.9-0.5l1.5-1l1-1.5L36.8,60.3 M71.9,65.3l2.3-0.4l1.7-1l1.2-1.5l0.3-1.9l-0.3-1.9l-1-1.7l-1.7-1l-1.9-0.3l-1.9,0.3l-1.5,1.2
		l-1,1.7l-0.5,2.4L71.9,65.3z M53.4,60.3H37.6l-0.2-1.7l-0.8-1.7l-1.2-1.2l-1.7-0.8L32,54.6l-1.9,0.3l-1.5,0.8l-1.4,1.2l-0.7,1.7
		l-0.3,1.7h-4.6V35.4h38v5.8h8.8l2.9,8.8h8.8v8h2.9v2.4h-4.7l-0.2-1.7l-0.8-1.5l-1.2-1.2l-1.5-0.8l-1.7-0.3l-1.7,0.2l-1.5,0.7
		l-1.4,1l-0.8,1.5l-0.5,1.7L53.4,60.3z M69.8,50l-2.4-7.3h-7.8V50H69.8z"/>
	<path class="st1" d="M100,50l-0.2-5.6l-1-5.6l-1.5-5.2l-2.2-5.2l-2.7-4.9l-3.2-4.6l-3.7-4.2l-4.2-3.7l-4.6-3.2L71.7,5l-5.1-2.2
		l-5.4-1.5l-5.6-0.8L50,0.1l-5.6,0.3L39,1.2l-5.4,1.5L28.3,5l-4.9,2.7l-4.6,3.2l-4.1,3.7L11,18.9l-3.2,4.6l-2.7,4.9l-2.2,5.2
		l-1.5,5.2l-1,5.6L0,50l0.3,5.6l1,5.6l1.5,5.4l2.2,5.1l2.7,4.9l3.2,4.6l3.7,4.2l4.1,3.7l4.6,3.2l4.9,2.7l5.3,2.2l5.4,1.5l5.4,0.8
		l5.6,0.3l5.6-0.3l5.6-0.8l5.4-1.5l5.1-2.2l4.9-2.7l4.6-3.2l4.2-3.7l3.7-4.2l3.2-4.6l2.7-4.9l2.2-5.1l1.5-5.4l1-5.6L100,50 M80.2,73
		L26.9,19.9l4.1-2.7l4.6-2.2l4.7-1.7l4.7-0.8l5.1-0.3l4.9,0.3l4.7,0.8l4.7,1.7l4.6,2.2l4.1,2.7l3.7,3.2l3.2,3.7l2.9,4.2l2.2,4.4
		l1.5,4.7l1,4.9l0.3,4.9l-0.3,4.9l-1,4.9l-1.5,4.7L83.1,69L80.2,73z M73.2,80.1L19.8,27L17.1,31l-2.2,4.4l-1.5,4.7l-1,4.9L12,50
		l0.3,4.9l1,4.9l1.5,4.7l2.2,4.4l2.7,4.2l3.4,3.7l3.7,3.2l4.1,2.7l4.4,2.2l4.7,1.7l4.9,0.8l4.9,0.3l4.9-0.3l4.9-0.8l4.7-1.7l4.4-2.2
		L73.2,80.1z"/>
</g>
</svg>
