<?xml version="1.0" encoding="utf-8"?>
<!-- Generator: Adobe Illustrator 19.2.1, SVG Export Plug-In . SVG Version: 6.00 Build 0)  -->
<svg version="1.1" id="Capa_1" xmlns="http://www.w3.org/2000/svg" xmlns:xlink="http://www.w3.org/1999/xlink" x="0px" y="0px"
	 viewBox="0 0 100 100" style="enable-background:new 0 0 100 100;" xml:space="preserve" width="100" height="100">
<style type="text/css">
	.st0{fill-rule:evenodd;clip-rule:evenodd;fill:#222220;}
	.st1{fill-rule:evenodd;clip-rule:evenodd;fill:#C5332B;}
</style>
<g>
	<path class="st0" d="M48,53.4L46.9,54l-1,0.7L45,55.5l-0.6,1l-0.5,1.2l-0.2,1.2v1.2l0.2,1.2l0.5,1.1l0.7,1l0.9,0.9l1,0.7l1.1,0.5
		l1.2,0.2h1.2l1.2-0.2l1.1-0.4l1.1-0.7l0.9-0.8l0.7-1l0.5-1.2L48,53.4 M39.9,46.6l-0.5-0.1L37,46l-2.4-0.8l-2.2-1L30.3,43l-2-1.4
		L26.3,40l-1.7-1.8L23,36.3l-1.3-2.1v31.5l1.1-1.9l1.3-1.8l1.4-1.7l1.6-1.5l1.7-1.3l1.9-1.2l2-1l2-0.8l2.1-0.6l2.2-0.5l-0.7,1.5
		l-0.5,1.6L37.5,58l-0.1,1.6l0.2,1.6l0.4,1.6l0.5,1.5l0.8,1.5l0.9,1.3l1.1,1.2l1.3,1.1l1.3,0.9l1.5,0.7l1.5,0.5l1.6,0.3l1.6,0.1
		l1.6-0.1l1.6-0.3l1.6-0.6l1.5-0.7l1.3-0.9l1.2-1.1l1.1-1.2l0.4-0.6l1.5-11.2l-0.2-0.8l-0.5-1l2.2,0.6l2.1,0.9l2,1.1l1.9,1.3
		l1.2,0.8l1.3,0.6l1.4,0.4l1.5,0.2h1.5l1.4-0.2l1.4-0.5l1.3-0.6l1.2-0.9l1-1.1l0.9-1.2l0.6-1.3l0.5-1.4l0.2-1.5v-1.5l-0.2-1.4
		l-0.5-1.4l-0.6-1.3l-0.9-1.2l-1-1.1L80.2,42l-1.3-0.7l-1.4-0.5l-1.4-0.2l-1.5-0.1l-1.5,0.2l-1.4,0.4l-1.3,0.6l-2.9,2l-1.9,1.1
		l-2,0.9l-2,0.6l-2.1,0.4l-2.2,0.1h-4.8L39.9,46.6z"/>
	<path class="st1" d="M100,50l-0.1-3.4l-0.4-3.4L99,39.8l-0.8-3.3l-1.1-3.3l-1.2-3.2L94.4,27l-1.7-3l-1.9-2.9l-2-2.7l-2.3-2.6
		l-2.4-2.5l-2.6-2.2l-2.7-2L76,7.3l-3-1.7l-3.1-1.5l-3.2-1.2l-3.3-1l-3.3-0.8l-3.3-0.6l-3.4-0.4L50,0l-3.4,0.1l-3.4,0.4l-3.4,0.6
		l-3.3,0.8l-3.2,1l-3.2,1.2L27,5.6l-2.9,1.7l-2.9,1.9l-2.7,2l-2.6,2.2l-2.4,2.5l-2.3,2.6l-2,2.7L7.3,24l-1.7,3l-1.5,3.1l-1.2,3.2
		l-1.1,3.3l-0.8,3.3l-0.6,3.3l-0.4,3.4L0,50l0.1,3.4l0.4,3.4l0.6,3.4l0.8,3.3l1.1,3.3l1.2,3.2L5.6,73l1.7,3l1.9,2.8l2,2.7l2.3,2.6
		l2.4,2.4l2.6,2.3l2.7,2l2.9,1.9l2.9,1.7l3.1,1.5l3.2,1.2l3.2,1.1l3.3,0.8l3.4,0.6l3.4,0.4L50,100l3.4-0.1l3.4-0.4l3.3-0.6l3.3-0.8
		l3.3-1.1l3.2-1.2l3.1-1.5l3-1.7l2.8-1.9l2.7-2l2.6-2.3l2.4-2.4l2.3-2.6l2-2.7l1.9-2.8l1.7-3l1.5-3.1l1.2-3.2l1.1-3.3l0.8-3.3
		l0.6-3.4l0.4-3.4L100,50 M73.1,80.1L19.9,26.9l-1.7,2.4l-1.5,2.5l-1.3,2.7l-1.1,2.7l-0.9,2.8l-0.6,2.9l-0.4,2.9l-0.2,3l0.1,2.9
		l0.2,3l0.5,2.9l0.7,2.9l0.9,2.8l1.1,2.7l1.4,2.6l1.5,2.5l1.8,2.4l1.9,2.3l2,2l2.3,1.9l2.4,1.8l2.5,1.6l2.6,1.3l2.7,1.1l2.8,0.9
		l2.9,0.7l2.9,0.5l3,0.3h2.9l3-0.2l2.9-0.4l2.9-0.6l2.8-0.9l2.7-1.1l2.7-1.3l2.5-1.5L73.1,80.1z M80.1,73.1l1.7-2.4l1.5-2.5l1.3-2.7
		l1.1-2.7l0.9-2.8l0.6-2.9l0.4-2.9l0.2-3v-2.9l-0.3-3l-0.5-2.9l-0.7-2.9l-0.9-2.8L84.5,34l-1.3-2.6l-1.6-2.5l-1.8-2.4l-1.9-2.3
		l-2-2.1l-2.3-1.9l-2.4-1.8l-2.5-1.6L66,15.5l-2.7-1.1l-2.8-0.9l-2.9-0.7l-2.9-0.5l-3-0.3h-2.9l-3,0.2l-2.9,0.5l-2.9,0.6l-2.8,0.9
		l-2.7,1.1l-2.6,1.3l-2.6,1.5l-2.4,1.7L80.1,73.1z"/>
</g>
</svg>
