<?xml version="1.0" encoding="utf-8"?>
<!-- Generator: Adobe Illustrator 19.2.1, SVG Export Plug-In . SVG Version: 6.00 Build 0)  -->
<svg version="1.1" id="Capa_1" xmlns="http://www.w3.org/2000/svg" xmlns:xlink="http://www.w3.org/1999/xlink" x="0px" y="0px"
	 viewBox="0 0 100 100" style="enable-background:new 0 0 100 100;" xml:space="preserve" width="100" height="100">
<style type="text/css">
	.st0{fill:#222220;}
	.st1{fill-rule:evenodd;clip-rule:evenodd;fill:#2B4490;}
	.st2{fill-rule:evenodd;clip-rule:evenodd;fill:#FFFFFF;}
	.st3{fill-rule:evenodd;clip-rule:evenodd;fill:#222220;}
</style>
<g>
	<path class="st0" d="M77.9,100H22.1l-1.4-0.2l-1.2-0.6l-1.1-0.9l-0.9-1.1L16.9,96l-0.2-1.4l0-89.2L16.8,4l0.6-1.3l0.9-1.1l1.1-0.9
		l1.2-0.5L22.1,0h55.8l1.4,0.2l1.2,0.5l1.1,0.9l0.9,1.1L83.1,4l0.2,1.3v89.2L83.2,96l-0.6,1.2l-0.9,1.1l-1.1,0.9l-1.2,0.6L77.9,100
		C77.9,100,77.9,100,77.9,100L77.9,100z M77.9,0.2H22.1l-1.4,0.2l-1.2,0.5l-1.1,0.8l-0.8,1.1L17,4.1l-0.2,1.3l0,89.2l0.2,1.4
		l0.6,1.2l0.8,1.1l1.1,0.8l1.2,0.6l1.4,0.2h55.8l1.4-0.2l1.2-0.6l1.1-0.8l0.8-1.1l0.6-1.2l0.2-1.4V5.4L83,4l-0.6-1.3l-0.8-1.1
		l-1.1-0.8l-1.2-0.5L77.9,0.2L77.9,0.2z"/>
	<polyline class="st1" points="77.7,33.3 77.5,30.2 77,27.1 76.1,24.2 74.9,21.3 73.4,18.6 71.6,16.1 69.6,13.7 67.3,11.6 64.8,9.9 
		62.1,8.4 59.1,7.1 56.1,6.3 53.1,5.8 50,5.6 46.9,5.8 43.9,6.3 40.9,7.1 37.9,8.4 35.3,9.9 32.8,11.6 30.4,13.7 28.4,16.1 
		26.6,18.6 25.1,21.3 23.9,24.2 23,27.1 22.5,30.2 22.3,33.3 22.5,36.4 23,39.5 23.9,42.5 25.1,45.4 26.6,48.1 28.4,50.6 30.4,53 
		32.8,55 35.3,56.8 37.9,58.3 40.9,59.5 43.9,60.4 46.9,60.9 50,61 53.1,60.9 56.1,60.4 59.1,59.5 62.1,58.3 64.8,56.8 67.3,55 
		69.6,53 71.6,50.6 73.4,48.1 74.9,45.4 76.1,42.5 77,39.5 77.5,36.4 77.7,33.3 	"/>
	<path class="st2" d="M61.9,32.8l-3.2-5.6l-1.3,1.1l-1,1.3l-0.7,1.6l-0.3,1.6v1.7l0.5,1.7l0.8,1.5l1.1,1.2l1.3,1l1.6,0.7l1.7,0.3
		l1.7-0.2l1.6-0.5l1.5-0.8l1.2-1.1l0.9-1.4l0.7-1.6l0.2-1.7l-0.1-1.7l-0.6-1.6l-0.8-1.4l-1.1-1.2l-1.5-0.9l-1.5-0.6l-1.7-0.2
		L61.2,26l-1.6,0.6l3.2,5.7l0.6,0.1l0.4,0.4l0.1,0.6l-0.1,0.6l-0.4,0.4l-0.6,0.1l-0.6-0.1l-0.4-0.4l-0.1-0.6L61.9,32.8 M37.2,32.3
		l-0.6,0.1l-0.4,0.4l-0.1,0.6l0.1,0.6l0.5,0.4l0.5,0.1l0.6-0.1l0.4-0.4l0.2-0.6l-0.2-0.6l3.2-5.6l1.3,1.1l1,1.3l0.7,1.6l0.4,1.6
		l-0.1,1.7l-0.5,1.7l-0.8,1.5l-1.1,1.2l-1.3,1l-1.6,0.7l-1.7,0.3l-1.7-0.2l-1.6-0.5l-1.5-0.8l-1.2-1.1l-0.9-1.4L30,35.2l-0.2-1.7
		l0.1-1.7l0.6-1.6l0.8-1.4l1.1-1.2l1.5-0.9l1.6-0.6l1.6-0.2l1.7,0.1l1.7,0.6L37.2,32.3z M56,21.6l0.7-1h-2.4v-1.1l6.4-1v2.2h-2.7
		L57,22.1l2.1,3.6l1.6-0.6l1.7-0.3l1.7,0.1l1.6,0.4l1.6,0.8l1.3,1l1.1,1.2l0.8,1.5l0.6,1.6l0.3,1.7l-0.1,1.7l-0.5,1.6L70,37.8
		l-1,1.3l-1.3,1.1l-1.4,0.8l-1.6,0.6L63,41.9l-1.7-0.1l-1.7-0.5l-1.5-0.8l-1.3-1l-1-1.3l-0.8-1.4L54.5,35l-0.2-1.7l0.2-1.7l0.5-1.6
		l0.8-1.5l1-1.3l1.3-1l-1.7-3l-5,8.6l0.5,0.7l0.2,0.8L52,34.2l-0.5,0.7l-0.8,0.5L50,35.5l-0.8-0.2l-0.7-0.5L48,34.2l-0.1-0.8
		l0.2-0.8l0.5-0.7l-5-8.6l-1.7,3l1.3,1l1.1,1.3l0.7,1.5l0.5,1.6l0.2,1.7L45.5,35l-0.5,1.7l-0.8,1.4l-1,1.3l-1.3,1l-1.5,0.8l-1.7,0.5
		L37,41.9l-1.7-0.2l-1.6-0.6l-1.4-0.8L31,39.2l-1-1.3l-0.8-1.5l-0.5-1.6L28.7,33l0.3-1.7l0.6-1.6l0.8-1.5l1.1-1.2l1.4-1l1.5-0.8
		l1.6-0.4l1.7-0.1l1.7,0.3l1.6,0.6l2.1-3.6l-2.2-3.7v-1h6.5v1h-5.2l1.8,3.2H56z M55.5,22.6h-11l5,8.6h1L55.5,22.6z"/>
	<path class="st3" d="M77.9,98.6l1.2-0.2l1.1-0.7l0.8-0.8l0.6-1.1l0.3-1.2V5.4l-0.3-1.2L81.1,3l-0.8-0.8l-1.1-0.6l-1.2-0.2H22.1
		l-1.2,0.2l-1.1,0.6L18.9,3l-0.6,1.1l-0.2,1.2v89.2l0.2,1.2l0.6,1.1l0.8,0.8l1.1,0.7l1.2,0.2H77.9 M77.9,95.9l0.7-0.2l0.5-0.5
		l0.2-0.7V5.4L79,4.7l-0.5-0.5L77.9,4H22.1l-0.7,0.2L21,4.7l-0.2,0.7v89.2l0.2,0.7l0.5,0.5l0.7,0.2H77.9z"/>
	<path class="st3" d="M60,83.8h-1.5v-1h4.1v1H61v5.6h-1V83.8 M31.3,82.8h1v6.7h-1V82.8z M27.5,85.5l0.5-0.2l0.4-0.4l0.2-0.5L28.4,84
		l-0.5-0.2h-1.6v1.7H27.5z M27.9,88.5l0.6-0.3l0.3-0.6l-0.2-0.5l-0.4-0.5l-0.6-0.1h-1.3v1.9H27.9z M39.6,82.8h1v6.7h-1V82.8z
		 M47.9,82.8h1v5.6h3v1h-4V82.8z M53.5,82.8h3.8v1h-2.8v1.6h2v1h-2v2h3v1h-4V82.8z M65.8,82.8h0.9l2.3,6.7H68l-0.7-1.9h-2.1
		l-0.7,1.9h-1.1L65.8,82.8z M66.9,86.6l-0.7-2l-0.7,2H66.9z M70.5,84.7l0.1,0.6l0.3,0.6l0.5,0.4l0.6,0.2l1,0.2l0.6,0.4l0.2,0.6
		l-0.1,0.4l-0.2,0.4L73,88.5l-0.5,0.1l-0.7-0.1l-0.5-0.4l-0.3-0.6l-0.9,0.4l0.4,0.7l0.5,0.6l0.7,0.4l0.8,0.1l0.8-0.2l0.7-0.4
		l0.5-0.7l0.2-0.8l-0.2-0.8L74,85.9l-0.8-0.4l-1-0.2l-0.4-0.2l-0.1-0.5l0.1-0.5l0.3-0.3l0.5-0.2l0.7,0.2l0.4,0.6l1-0.3l-0.4-0.7
		L73.7,83L73,82.7h-0.8l-0.7,0.2l-0.6,0.5L70.7,84L70.5,84.7z M42.6,88.3l0.6,0.8l0.7,0.4l0.8,0.2l0.8-0.2l0.7-0.6l0.4-0.8l-0.9-0.3
		l-0.4,0.5l-0.7,0.3L44,88.4l-0.4-0.5l-0.4-1.1v-1.2l0.4-1.1l0.4-0.5l0.7-0.2l0.6,0.2l0.5,0.5l0.9-0.3l-0.5-0.8l-0.7-0.5l-0.8-0.2
		l-0.8,0.1l-0.7,0.5L42.6,84l-0.4,1.4v1.4L42.6,88.3z M34.4,88.3l0.5,0.8l0.8,0.4l0.8,0.2l0.8-0.2l0.7-0.6l0.5-0.8l-1-0.3L37,88.3
		l-0.6,0.3l-0.7-0.2l-0.5-0.5L35,86.8v-1.2l0.3-1.1l0.5-0.5l0.6-0.2l0.7,0.2l0.4,0.5l1-0.3l-0.5-0.8l-0.8-0.5l-0.8-0.2l-0.8,0.1
		l-0.8,0.5L34.4,84L34,85.4v1.4L34.4,88.3z M27.9,89.5l0.8-0.2l0.7-0.6l0.3-0.8v-0.8l-0.4-0.7L28.7,86l0.6-0.5l0.3-0.7v-0.8
		l-0.3-0.7L28.7,83l-0.8-0.2h-2.6v6.7H27.9z"/>
	<path class="st3" d="M57.5,73.3l0.4,0.6l0.7,0.2l0.7-0.2l0.4-0.6l0.2-1.6l-0.2-1.6l-0.4-0.6l-0.7-0.3l-0.7,0.3l-0.4,0.6l-0.2,1.6
		L57.5,73.3 M45.9,73.3l0.5,0.6l0.7,0.2l0.7-0.2l0.4-0.6l0.3-1.6l-0.3-1.6l-0.4-0.6L47,69.3l-0.7,0.3l-0.5,0.6l-0.2,1.6L45.9,73.3z
		 M51,68.4h1V74h3v1h-4V68.4z M39.4,70.3l0.1,0.6l0.3,0.5l0.4,0.4l0.6,0.2l1,0.3l0.6,0.3l0.2,0.7l-0.1,0.4l-0.2,0.3l-0.4,0.3h-0.5
		L40.8,74l-0.5-0.4L40,73l-0.9,0.4l0.3,0.7l0.5,0.6l0.8,0.4l0.7,0.1l0.8-0.1l0.8-0.5l0.5-0.7l0.1-0.8l-0.2-0.9l-0.6-0.7l-0.8-0.4
		l-1-0.3l-0.4-0.2l-0.1-0.4l0.1-0.5l0.3-0.4l0.5-0.2l0.7,0.2l0.4,0.6l1-0.3L43,69.1l-0.6-0.5l-0.7-0.3L41,68.3l-0.7,0.3l-0.6,0.4
		l-0.4,0.7L39.4,70.3z M47,75.1l0.8-0.2l0.7-0.6l0.5-0.8l0.3-1.9l-0.3-1.9L48.6,69l-0.7-0.6L47,68.3l-0.9,0.2L45.5,69L45,69.9
		l-0.3,1.2v1.3l0.3,1.2l0.5,0.8l0.7,0.6L47,75.1z M60.6,69.9L60.2,69l-0.7-0.6l-0.8-0.2l-0.9,0.2L56.9,69l-0.4,0.8l-0.3,1.2v1.3
		l0.3,1.2l0.4,0.8l0.8,0.6l0.9,0.2l0.8-0.2l0.7-0.6l0.5-0.8l0.2-1.9L60.6,69.9z"/>
</g>
</svg>
