<?xml version="1.0" encoding="utf-8"?>
<!-- Generator: Adobe Illustrator 19.2.1, SVG Export Plug-In . SVG Version: 6.00 Build 0)  -->
<svg version="1.1" id="Capa_1" xmlns="http://www.w3.org/2000/svg" xmlns:xlink="http://www.w3.org/1999/xlink" x="0px" y="0px"
	 viewBox="0 0 100 100" style="enable-background:new 0 0 100 100;" xml:space="preserve" width="100" height="100">
<style type="text/css">
	.st0{fill:#222220;}
	.st1{fill-rule:evenodd;clip-rule:evenodd;fill:#2B4490;}
	.st2{fill-rule:evenodd;clip-rule:evenodd;fill:#222220;}
	.st3{fill-rule:evenodd;clip-rule:evenodd;fill:#FFFFFF;}
</style>
<g>
	<path class="st0" d="M78,100H22l-1.4-0.2l-1.3-0.6l-1.2-0.8l-0.8-1.2L16.8,96l-0.2-1.4V5.4L16.8,4l0.6-1.4l0.8-1.1l1.2-0.9l1.3-0.5
		L22,0h56l1.4,0.2l1.3,0.5l1.2,0.9l0.8,1.1L83.2,4l0.2,1.4v89.2L83.2,96l-0.6,1.3l-0.8,1.2l-1.2,0.8l-1.3,0.6L78,100
		C78,100,78,100,78,100L78,100z M78,0.1H22l-1.4,0.2l-1.3,0.5l-1.2,0.9l-0.8,1.1l-0.6,1.4l-0.2,1.3v89.2l0.2,1.4l0.6,1.3l0.8,1.2
		l1.2,0.8l1.3,0.6l1.3,0.2h56l1.4-0.2l1.3-0.6l1.2-0.8l0.8-1.2l0.6-1.3l0.2-1.3V5.4L83.1,4l-0.6-1.4l-0.8-1.1l-1.2-0.9l-1.3-0.5
		L78,0.1L78,0.1z"/>
	<polyline class="st1" points="77.8,33.3 77.6,30.2 77.1,27.2 76.2,24.2 75,21.3 73.5,18.5 71.7,16 69.6,13.8 67.3,11.6 64.7,9.9 
		62,8.3 59.2,7.1 56.2,6.3 53.1,5.8 50,5.6 46.9,5.8 43.8,6.3 40.8,7.1 38,8.3 35.3,9.9 32.7,11.6 30.4,13.8 28.3,16 26.5,18.5 
		25,21.3 23.8,24.2 23,27.2 22.4,30.2 22.2,33.3 22.4,36.4 23,39.5 23.8,42.5 25,45.4 26.5,48.1 28.3,50.6 30.4,53 32.7,55 
		35.3,56.9 38,58.3 40.8,59.5 43.8,60.4 46.9,60.9 50,61 53.1,60.9 56.2,60.4 59.2,59.5 62,58.3 64.7,56.9 67.3,55 69.6,53 
		71.7,50.6 73.5,48.1 75,45.4 76.2,42.5 77.1,39.5 77.6,36.4 77.8,33.3 	"/>
	<path class="st2" d="M78,98.6l1.3-0.2l1.1-0.6l0.9-0.9l0.6-1.1l0.2-1.3V5.4l-0.2-1.3l-0.6-1.1l-0.9-1l-1.1-0.5L78,1.4H22l-1.3,0.2
		l-1.1,0.5l-0.9,1l-0.6,1.1L18,5.4v89.2l0.2,1.3l0.6,1.1l0.9,0.9l1.1,0.6l1.3,0.2H78 M78,96l0.7-0.2l0.5-0.5l0.2-0.7V5.4l-0.2-0.7
		l-0.5-0.5L78,4H22l-0.7,0.2l-0.5,0.5l-0.2,0.7v89.2l0.2,0.7l0.5,0.5L22,96H78z"/>
	<path class="st3" d="M63.9,37.2L63.3,38l-0.2,0.8l0.1,0.9l0.5,0.8l0.7,0.6l0.9,0.2l0.9-0.1l0.8-0.4l0.6-0.7l0.2-0.8v-0.9l-0.4-0.9
		l-0.7-0.6l-0.8-0.3h-0.9l-1.2-1.6l1.3-0.3h1.3l1.2,0.5l1,0.8l0.7,1.1l0.4,1.2v1.3l-0.4,1.3l-0.7,1l-1,0.8L66.2,43h-1.3l-1.2-0.3
		l-1.1-0.7l-0.9-1l-0.5-1.2l-0.1-1.2l0.2-1.2l0.5-1l0.8-0.9L63.9,37.2 M58.8,37.4L58.7,39l0.1,1.5l0.6,1.5l0.8,1.3l1.1,1.1l1.3,0.8
		l1.5,0.5l1.6,0.2l1.5-0.2l1.5-0.6l1.3-0.8l1.1-1.1l0.8-1.4l0.5-1.5l0.1-1.5L72,37.2l-0.6-1.4l-0.8-1.3l-1.2-1.1l-1.3-0.8l-1.5-0.5
		l-1.6-0.1l-1.5,0.3l-1.5,0.5l-0.4-0.5l1.6-0.6l1.7-0.4l1.8,0.1l1.7,0.4l-0.8-1L66,30.6l-1.7-0.1l-1.7,0.3l-1.6,0.7l-1.7-2.2
		l-0.1-0.4l0.1-0.2h0.8l0.1,0.1l0.2,0.1l0.4,0.1l0.2-0.2v-3.3l-0.3-0.1h-0.3l-0.7,0.2l-0.5,0.1l-0.3-0.2v-0.6l0.2-0.1V24l-0.1-0.3
		l-0.6-0.1L58,24.4h-0.5l-2.2-3.6l-0.4-0.4h-1.7l-0.2-0.1h-1l-0.2,0.2h-0.3l-0.1,0.2V21l0.2,0.3l0.1,0.4l0.3,0.2l0.2,0.2h0.3
		l0.5,0.1l0.2-0.1l0.2-0.1l0.1-0.2l0.3-0.1l0.2-0.1l0.2-0.1h0.3l0.2,0.1l0.2,0.1l0.1,0.5l0.1,0.4l0.3,0.2l0.2,0.6l0.4,0.5v0.7
		l-0.2,0.1l-2.1,0.1l-2.2,0.2l-1.8,0.4l-1.8,0.5l-0.6,0.4l-0.3,0.5L44,26.9l-4.8,0.4h-0.3V27h-5.7v0.2h-1.8l-0.2,0.4h-1.7L29.3,28
		L29,28.5v0.9l0.4,0.4l0.8,0.5l0.6,0.2l-1.5,1L28.7,32l-0.6,0.8l-0.2,0.7l-0.6,0.7l-0.2,0.8l1.3,0.1l1-1.4l1.1-1.3l0.8-0.4l0.3-0.2
		l0.4-0.1l0.2,0.4l0.3,0.1l0.6,0.3l0.6,0.2v0.3l-1.5,0.5l-1.3,0.9l-1.1,1.2L29,36.7l-0.5,1.6l-0.1,1.5l0.3,1.6l0.6,1.5l0.9,1.3
		l1.2,1l1.5,0.8l1.5,0.4h1.6l1.5-0.3l1.5-0.7l1.2-1l1-1.2l0.7-1.5l0.3-1.5l6.5,0.1l0.7-0.2l0.8-0.1l0.5-0.4l0.5-0.3l0.1-0.2l7.6-9
		l1.6,2.1L59,33.2l-0.9,1.4L57.4,36l-0.3,1.6l0.8,0.7l0.5-1.9l1-1.8l1.5-1.5l0.4,0.5l-1.1,1.1L59.3,36L58.8,37.4z M37.3,37.5
		L37.3,37.5l0.2-1.6l0.8,0.6l0.6,0.9l-0.8,0.2L37.3,37.5z M33.9,36.9L33,37.6l-0.5,1l-0.2,1.1l0.4,1.1l0.7,0.9l1,0.6l1.1,0.1
		l1.1-0.3l0.9-0.8l0.6-1l1.4-0.4L39,41.1l-0.8,1.2l-1,0.8L36,43.5l-1.4,0.1l-1.3-0.4l-1.1-0.8l-0.8-1.1l-0.5-1.3v-1.3l0.4-1.3
		l0.8-1.1l1.1-0.8l1.3-0.5l-0.2,0.9L33.9,36.9z"/>
	<path class="st2" d="M73.7,85.8l0.3,0.3l0.6,0.2l0.9,0.2l0.4,0.3l0.2,0.5l-0.2,0.6l-0.3,0.2l-0.5,0.1l-0.5-0.1l-0.4-0.3L74,87.3
		l-0.8,0.3l0.2,0.6l0.5,0.5l0.6,0.3l0.6,0.1l0.8-0.1l0.6-0.4l0.4-0.6l0.1-0.7l-0.2-0.7L76.2,86l-0.4-0.2H73.7 M69.6,85.8l-0.3,0.7
		h1.2l-0.3-0.7h0.9l1.1,3.1h-1l-0.5-1.6H69L68.4,89h-0.9l1.1-3.1H69.6z M64.7,85.8h0.9V89h-0.9V85.8z M61.7,85.8v0.7h-1.7v1.6h2.5
		V89h-3.4v-3.1H61.7z M55.4,85.8v2.3h2.5V89h-3.4v-3.1H55.4z M50.7,85.8v0.8l0.2,1l0.4,0.4l0.6,0.2l0.5-0.2l0.3-0.5l0.9,0.3
		l-0.4,0.6l-0.6,0.5l-0.7,0.2L51.2,89l-0.7-0.4L50.1,88l-0.3-1.2v-1H50.7z M47.6,85.8h0.9V89h-0.9V85.8z M43.8,85.8v0.8l0.2,1
		l0.4,0.4l0.5,0.2l0.6-0.2l0.3-0.5l0.9,0.3l-0.4,0.6l-0.6,0.5L45,89.1L44.3,89l-0.7-0.4L43.2,88l-0.3-1.2v-1H43.8z M38,85.8l0,0.3
		l0.2,1.6l0.4,0.7l0.6,0.5l0.8,0.2l0.8-0.2l0.6-0.5l0.4-0.7l0.2-1.6l0-0.3h-0.9l0.1,0.3l-0.2,1.4L40.5,88l-0.6,0.2L39.3,88L39,87.5
		l-0.2-1.4l0-0.3H38z M34.9,85.8h0.9V89h-0.9V85.8z M28.8,85.8l0,0.3l0.2,1.6l0.4,0.7l0.6,0.5l0.8,0.2l0.7-0.2l0.7-0.5l0.3-0.7
		l0.3-1.6l-0.1-0.3h-0.9l0.1,0.3l-0.2,1.4L31.2,88l-0.5,0.2L30.1,88l-0.4-0.5l-0.1-1.4l0-0.3H28.8z M26.5,85.8h0.9V89h-0.9V85.8z
		 M24.9,85.8l0.3,0.8l0.3-0.8h0.9L25.2,89L24,85.8H24.9z M23.1,85.8H24V89h-0.9V85.8z"/>
	<path class="st2" d="M50.8,68.9h0.9v4.8h2.5v0.8h-3.4V68.9 M46.6,73.1l0.3,0.5l0.6,0.2l0.6-0.2l0.3-0.5l0.2-1.4l-0.2-1.4l-0.3-0.5
		l-0.6-0.2l-0.6,0.2l-0.3,0.5l-0.2,1.4L46.6,73.1z M56.3,73.1l0.3,0.5l0.6,0.2l0.6-0.2l0.3-0.5l0.2-1.4L58,70.4l-0.3-0.5l-0.6-0.2
		l-0.6,0.2l-0.3,0.5l-0.2,1.4L56.3,73.1z M40.8,73.2l0.3,0.6l0.4,0.4l0.6,0.3l0.7,0.1l0.7-0.1l0.6-0.3l0.4-0.6l0.2-0.7l-0.2-0.8
		l-0.5-0.6l-0.7-0.3l-0.9-0.2l-0.3-0.2L42,70.6l0.1-0.4l0.2-0.3l0.4-0.1l0.6,0.1l0.3,0.5l0.9-0.3l-0.3-0.5l-0.4-0.5l-0.6-0.2h-0.6
		L42,69.1l-0.5,0.3L41.2,70l-0.1,0.6l0.1,0.6l0.5,0.5l0.6,0.3l0.8,0.2l0.5,0.3l0.2,0.5l-0.3,0.6l-0.3,0.2l-0.4,0.1l-0.5-0.2
		l-0.4-0.3l-0.3-0.4L40.8,73.2z M45.8,70.2l-0.2,1.6l0.2,1.6l0.4,0.7l0.6,0.5l0.8,0.1l0.8-0.1l0.6-0.5l0.4-0.7l0.2-1.6l-0.2-1.6
		l-0.4-0.7L48.3,69l-0.8-0.2L46.7,69l-0.6,0.5L45.8,70.2z M55.4,70.2l-0.2,1.6l0.2,1.6l0.4,0.7l0.6,0.5l0.8,0.1l0.8-0.1l0.6-0.5
		l0.4-0.7l0.2-1.6l-0.2-1.6l-0.4-0.7L57.9,69l-0.8-0.2L56.4,69l-0.6,0.5L55.4,70.2z M75.8,85.8l-0.3-0.2l-0.8-0.1l-0.4-0.2L74.3,85
		l0.1-0.4l0.3-0.3l0.4-0.1l0.5,0.1l0.4,0.5l0.8-0.2L76.5,84L76,83.6l-0.5-0.3h-0.7l-0.5,0.2l-0.5,0.4l-0.4,0.5L73.4,85l0.2,0.7
		l0.1,0.2H75.8z M68.7,85.8l0.8-2.4h0.8l0.8,2.4h-0.9l-0.3-0.9l-0.3,0.9H68.7z M64.7,85.8v-1.5h-1.3v-0.9h3.4v0.9h-1.3v1.5H64.7z
		 M59.2,85.8v-2.4h3.3v0.9h-2.4v1.4h1.7v0.2H59.2z M54.5,83.4h0.9v2.4h-0.9V83.4z M49.9,85.8v-0.3l0.3-1.2l0.4-0.6l0.6-0.4l0.8-0.1
		l0.7,0.1l0.6,0.5l0.3,0.6l-0.8,0.3l-0.3-0.5l-0.6-0.1l-0.5,0.1l-0.4,0.5l-0.2,0.9v0.2H49.9z M47.6,83.4h0.9v2.4h-0.9V83.4z
		 M42.9,85.8v-0.3l0.3-1.2l0.4-0.6l0.6-0.4l0.7-0.1l0.8,0.1l0.5,0.5l0.4,0.6l-0.8,0.3l-0.3-0.5l-0.6-0.1l-0.5,0.1L44,84.8l-0.2,0.9
		v0.2H42.9z M40.9,85.8l-0.1-0.9l-0.3-0.5l-0.6-0.2l-0.6,0.2L39,84.9l-0.1,0.9H38l0.2-1.2l0.4-0.7l0.6-0.4l0.8-0.2l0.8,0.2l0.6,0.4
		l0.4,0.7l0.2,1.2H40.9z M34.9,85.8v-1.5h-1.3v-0.9H37v0.9h-1.3v1.5H34.9z M31.7,85.8l-0.1-0.9l-0.4-0.5l-0.5-0.2l-0.6,0.2l-0.4,0.5
		l-0.1,0.9h-0.9l0.2-1.2l0.4-0.7l0.6-0.4l0.8-0.2l0.7,0.2l0.7,0.4l0.3,0.7l0.2,1.2H31.7z M25.5,85.8l0.9-2.4h0.9v2.4h-0.9v-0.1
		l0,0.1H25.5z M23.1,85.8v-2.4H24l0.9,2.4H24l0-0.1v0.1H23.1z"/>
</g>
</svg>
