<?xml version="1.0" encoding="utf-8"?>
<!-- Generator: Adobe Illustrator 17.0.0, SVG Export Plug-In . SVG Version: 6.00 Build 0)  -->
<!DOCTYPE svg PUBLIC "-//W3C//DTD SVG 1.1//EN" "http://www.w3.org/Graphics/SVG/1.1/DTD/svg11.dtd">
<svg version="1.1" id="Capa_1" xmlns="http://www.w3.org/2000/svg" xmlns:xlink="http://www.w3.org/1999/xlink" x="0px" y="0px"
	 width="100px" height="100px" viewBox="0 0 100 100" enable-background="new 0 0 100 100" xml:space="preserve">
<g>
	<g>
		<path fill="#222220" d="M44.813,37.88l12.137-0.003c-0.207-1.074-0.53-2.211-0.995-2.465l-9.729,0.002
			C45.567,35.414,45.12,36.472,44.813,37.88z M41.356,42.77c0,0-0.831-4.207,1.652-4.818c0.403-1.923,1.251-4.273,3.217-4.273h9.729
			c1.607,0,2.428,2.089,2.838,4.492c2.567,1.057,1.286,4.599,1.286,4.599h-0.89c0.022,1.022,0.007,1.836,0.003,2.222l-1.738-0.033
			c0,0,0.015-0.911-0.028-2.189H44.242c-0.053,1.008-0.064,1.769-0.062,1.97l-1.734,0.03c0,0-0.013-0.82,0.033-2H41.356z"/>
		<path fill="#222220" d="M44.947,21.845c3.642,0.881,7.463,0.883,11.473,0l0.095,0.433c-4.069,0.9-7.963,0.9-11.671,0
			L44.947,21.845z"/>
		<path fill="#222220" d="M43.615,24.517c4.523,1.177,9.236,1.177,14.136-0.002l0.102,0.435c-4.963,1.194-9.749,1.194-14.351-0.003
			L43.615,24.517z"/>
		<path fill="#222220" d="M42.294,27.636c5.393,1.766,10.984,1.768,16.781,0l0.127,0.425c-5.878,1.793-11.562,1.794-17.047-0.002
			L42.294,27.636z"/>
		<g>
			<defs>
				<rect id="SVGID_1_" x="26.371" y="9.032" width="49.442" height="49.444"/>
			</defs>
			<clipPath id="SVGID_2_">
				<use xlink:href="#SVGID_1_"  overflow="visible"/>
			</clipPath>
			<path clip-path="url(#SVGID_2_)" fill-rule="evenodd" clip-rule="evenodd" fill="#C5332B" d="M69.648,33.72l-0.167-2.49
				l-0.498-2.323l-0.746-2.324l-1.078-2.157l-1.413-2.074l-1.575-1.826l-1.826-1.577l-2.075-1.412l-2.157-1.079l-2.323-0.749
				l-2.321-0.495l-2.492-0.167l-2.403,0.167l-2.41,0.495l-2.324,0.749l-2.157,1.079l-1.992,1.412l-1.828,1.577l-1.657,1.826
				l-1.33,2.074l-1.075,2.157l-0.749,2.324l-0.498,2.323l-0.166,2.49l0.166,2.405l0.498,2.408l0.749,2.324l1.075,2.157l1.33,1.992
				l1.657,1.828l1.828,1.656l1.992,1.325l2.157,1.085l2.324,0.744l2.41,0.5l2.403,0.162l2.492-0.162l2.321-0.5l2.323-0.744
				l2.157-1.085l2.075-1.325l1.826-1.656l1.575-1.828l1.413-1.992l1.078-2.157l0.746-2.324l0.498-2.408L69.648,33.72 M75.539,33.72
				l-0.166-2.739l-0.5-2.739l-0.744-2.652l-1.082-2.492l-1.328-2.408l-1.577-2.241l-1.823-2.074l-2.074-1.824l-2.242-1.579
				l-2.408-1.328l-2.49-1.077L56.452,9.82l-2.736-0.497l-2.741-0.167l-2.739,0.167L45.58,9.82l-2.654,0.747l-2.574,1.077
				l-2.408,1.328l-2.239,1.579l-1.99,1.824l-1.91,2.074l-1.574,2.241l-1.331,2.408l-0.995,2.492l-0.831,2.652l-0.413,2.739
				l-0.166,2.739l0.166,2.736l0.413,2.656l0.831,2.657l0.995,2.574l1.331,2.405l1.574,2.239l1.91,1.993l1.99,1.906l2.239,1.58
				l2.408,1.328l2.574,0.993l2.654,0.829l2.656,0.416l2.739,0.162l2.741-0.162l2.736-0.416l2.654-0.829l2.49-0.993l2.408-1.328
				l2.242-1.58l2.074-1.906l1.823-1.993l1.577-2.239l1.328-2.405l1.082-2.574l0.744-2.657l0.5-2.656L75.539,33.72z"/>
		</g>
	</g>
	<path fill="#222220" d="M78.93,100H21.07l-1.463-0.194l-1.283-0.589l-1.176-0.878l-0.888-1.176l-0.59-1.274l-0.201-1.475
		L15.468,5.595l0.194-1.46l0.589-1.283l0.88-1.174l1.177-0.89l1.273-0.589L21.056,0H78.93l1.462,0.192l1.284,0.587l1.176,0.88
		l0.888,1.177l0.589,1.272l0.202,1.473l0.002,88.821l-0.194,1.46l-0.589,1.283l-0.88,1.176l-1.177,0.886l-1.274,0.59L78.944,100
		C78.94,100,78.935,100,78.93,100L78.93,100z M78.919,0.187H21.07L19.632,0.38l-1.229,0.57l-1.14,0.86l-0.851,1.14l-0.57,1.237
		l-0.184,1.421l0.002,88.794l0.191,1.437l0.572,1.227l0.859,1.14l1.14,0.85l1.238,0.57l1.423,0.186l57.842-0.002l1.445-0.192
		l1.227-0.572l1.142-0.858l0.851-1.139l0.569-1.237l0.186-1.421L84.342,5.595l-0.191-1.435l-0.572-1.229L82.72,1.793L81.579,0.94
		l-1.237-0.569L78.919,0.187L78.919,0.187z"/>
	<path fill-rule="evenodd" clip-rule="evenodd" fill="#222220" d="M78.93,95.756l0.676-0.194l0.485-0.482l0.192-0.677V5.595
		L80.091,4.92l-0.485-0.483L78.93,4.244H21.07l-0.677,0.192L19.909,4.92l-0.194,0.676v88.807l0.194,0.677l0.483,0.482l0.677,0.194
		H78.93 M78.93,98.555l1.256-0.194l1.159-0.676l0.967-0.87l0.58-1.157l0.192-1.256V5.595l-0.192-1.254l-0.58-1.161l-0.967-0.963
		l-1.159-0.578L78.93,1.445H21.07l-1.258,0.194l-1.159,0.578l-0.965,0.963l-0.58,1.161l-0.192,1.254v88.807l0.192,1.256l0.58,1.157
		l0.965,0.87l1.159,0.676l1.258,0.194H78.93z"/>
	<g>
		<path d="M29.496,66.106l0.821-0.094c0.05,0.326,0.149,0.565,0.301,0.719c0.151,0.154,0.355,0.231,0.61,0.231
			c0.273,0,0.477-0.07,0.615-0.206c0.137-0.135,0.206-0.296,0.206-0.477c0-0.117-0.028-0.217-0.087-0.299
			c-0.057-0.082-0.159-0.154-0.303-0.216c-0.099-0.04-0.324-0.11-0.676-0.214c-0.453-0.134-0.769-0.298-0.952-0.492
			c-0.258-0.271-0.386-0.602-0.386-0.995c0-0.253,0.062-0.487,0.182-0.707c0.12-0.219,0.294-0.386,0.522-0.502
			c0.226-0.114,0.5-0.171,0.821-0.171c0.525,0,0.92,0.135,1.186,0.408c0.264,0.271,0.403,0.635,0.416,1.09l-0.843,0.043
			c-0.037-0.254-0.114-0.438-0.232-0.549c-0.119-0.11-0.298-0.167-0.535-0.167c-0.244,0-0.436,0.06-0.575,0.179
			c-0.089,0.077-0.134,0.179-0.134,0.308c0,0.117,0.042,0.216,0.125,0.299c0.105,0.107,0.365,0.217,0.774,0.331
			c0.411,0.115,0.714,0.234,0.911,0.358c0.197,0.12,0.351,0.289,0.462,0.502c0.112,0.214,0.167,0.475,0.167,0.789
			c0,0.283-0.067,0.549-0.199,0.796c-0.134,0.247-0.323,0.431-0.565,0.552c-0.242,0.12-0.547,0.181-0.91,0.181
			c-0.528,0-0.933-0.144-1.216-0.435C29.72,67.083,29.552,66.662,29.496,66.106z"/>
		<path d="M33.433,65.274c0-0.505,0.064-0.926,0.191-1.269c0.095-0.253,0.224-0.478,0.39-0.679c0.164-0.199,0.343-0.35,0.54-0.446
			c0.259-0.13,0.56-0.194,0.9-0.194c0.615,0,1.109,0.226,1.478,0.679c0.37,0.452,0.554,1.08,0.554,1.886
			c0,0.799-0.182,1.425-0.55,1.875c-0.366,0.452-0.856,0.677-1.47,0.677c-0.622,0-1.115-0.224-1.482-0.674
			C33.615,66.678,33.433,66.061,33.433,65.274z M34.302,65.24c0,0.56,0.109,0.985,0.328,1.274c0.217,0.289,0.495,0.433,0.831,0.433
			c0.336,0,0.612-0.142,0.828-0.43c0.216-0.288,0.324-0.717,0.324-1.291c0-0.569-0.105-0.99-0.314-1.271
			c-0.211-0.278-0.49-0.418-0.838-0.418s-0.627,0.14-0.841,0.425C34.408,64.244,34.302,64.67,34.302,65.24z"/>
		<path d="M38.167,67.719v-4.91h0.843v4.075h2.099v0.834H38.167z"/>
		<path d="M41.538,65.274c0-0.505,0.064-0.926,0.191-1.269c0.095-0.253,0.224-0.478,0.39-0.679c0.164-0.199,0.343-0.35,0.54-0.446
			c0.259-0.13,0.56-0.194,0.9-0.194c0.615,0,1.109,0.226,1.478,0.679c0.37,0.452,0.554,1.08,0.554,1.886
			c0,0.799-0.182,1.425-0.55,1.875c-0.366,0.452-0.856,0.677-1.47,0.677c-0.622,0-1.115-0.224-1.482-0.674
			C41.721,66.678,41.538,66.061,41.538,65.274z M42.408,65.24c0,0.56,0.109,0.985,0.328,1.274c0.217,0.289,0.495,0.433,0.831,0.433
			s0.612-0.142,0.828-0.43c0.216-0.288,0.324-0.717,0.324-1.291c0-0.569-0.105-0.99-0.314-1.271
			c-0.211-0.278-0.49-0.418-0.838-0.418s-0.627,0.14-0.841,0.425C42.513,64.244,42.408,64.67,42.408,65.24z"/>
		<path d="M48.811,67.719v-4.114h-1.239v-0.836h3.321v0.836h-1.237v4.114H48.811z"/>
		<path d="M51.437,67.719v-4.95h3.099v0.836h-2.256v1.097h2.099v0.836h-2.099v1.346h2.334v0.834H51.437z"/>
		<path d="M55.353,67.719v-4.91h0.843v4.075h2.099v0.834H55.353z"/>
		<path d="M58.895,67.719v-4.95h3.099v0.836h-2.256v1.097h2.099v0.836h-2.099v1.346h2.334v0.834H58.895z"/>
		<path d="M63.853,67.719l-1.493-4.95h0.915l1.059,3.662l1.023-3.662h0.895l-1.497,4.95H63.853z"/>
		<path d="M66.559,62.484l0.393-1.008h0.898l-0.784,1.008H66.559z M66.656,67.719v-4.95h0.843v4.95H66.656z"/>
		<path d="M72.071,67.719h-0.918l-0.365-1.125h-1.671l-0.344,1.125h-0.895l1.627-4.95h0.893L72.071,67.719z M70.517,65.759
			l-0.575-1.836l-0.564,1.836H70.517z"/>
		<path d="M34.891,73.571c0-0.505,0.064-0.928,0.191-1.271c0.095-0.251,0.224-0.478,0.39-0.679c0.164-0.199,0.343-0.348,0.54-0.445
			c0.259-0.13,0.56-0.196,0.9-0.196c0.615,0,1.109,0.226,1.478,0.679s0.554,1.082,0.554,1.888c0,0.798-0.182,1.423-0.55,1.873
			c-0.366,0.452-0.856,0.679-1.47,0.679c-0.622,0-1.115-0.226-1.482-0.676C35.073,74.976,34.891,74.357,34.891,73.571z
			 M35.761,73.536c0,0.56,0.109,0.985,0.328,1.276c0.217,0.288,0.495,0.431,0.831,0.431c0.336,0,0.612-0.142,0.828-0.428
			c0.216-0.288,0.324-0.719,0.324-1.293c0-0.567-0.105-0.99-0.314-1.269c-0.211-0.279-0.49-0.418-0.838-0.418
			s-0.627,0.14-0.841,0.423C35.866,72.541,35.761,72.966,35.761,73.536z"/>
		<path d="M41.01,74.404l0.821-0.094c0.05,0.324,0.149,0.565,0.301,0.719c0.151,0.152,0.355,0.229,0.61,0.229
			c0.273,0,0.477-0.069,0.615-0.206c0.137-0.135,0.206-0.294,0.206-0.477c0-0.117-0.028-0.216-0.087-0.299
			c-0.057-0.082-0.159-0.154-0.303-0.214c-0.099-0.04-0.324-0.112-0.676-0.216c-0.453-0.132-0.769-0.296-0.952-0.49
			c-0.258-0.271-0.386-0.604-0.386-0.997c0-0.251,0.062-0.487,0.182-0.706c0.12-0.221,0.294-0.388,0.522-0.502
			c0.226-0.114,0.5-0.172,0.821-0.172c0.525,0,0.92,0.135,1.186,0.41c0.264,0.271,0.403,0.635,0.416,1.09l-0.843,0.043
			c-0.037-0.254-0.114-0.438-0.232-0.549c-0.119-0.112-0.298-0.167-0.535-0.167c-0.244,0-0.436,0.06-0.575,0.177
			c-0.089,0.077-0.134,0.181-0.134,0.308c0,0.117,0.042,0.217,0.125,0.301c0.105,0.107,0.365,0.216,0.774,0.331
			c0.411,0.114,0.714,0.234,0.911,0.356c0.197,0.122,0.351,0.289,0.462,0.503c0.112,0.212,0.167,0.475,0.167,0.788
			c0,0.283-0.067,0.55-0.199,0.798c-0.134,0.247-0.323,0.431-0.565,0.552c-0.242,0.12-0.547,0.181-0.91,0.181
			c-0.528,0-0.933-0.145-1.216-0.435C41.234,75.379,41.065,74.958,41.01,74.404z"/>
		<path d="M45.092,76.015v-4.948h0.843v4.948H45.092z"/>
		<path d="M46.525,74.404l0.821-0.094c0.05,0.324,0.149,0.565,0.301,0.719c0.151,0.152,0.355,0.229,0.61,0.229
			c0.273,0,0.477-0.069,0.615-0.206c0.137-0.135,0.206-0.294,0.206-0.477c0-0.117-0.028-0.216-0.087-0.299
			c-0.057-0.082-0.159-0.154-0.303-0.214c-0.099-0.04-0.324-0.112-0.676-0.216c-0.453-0.132-0.769-0.296-0.952-0.49
			c-0.258-0.271-0.386-0.604-0.386-0.997c0-0.251,0.062-0.487,0.182-0.706c0.12-0.221,0.294-0.388,0.522-0.502
			c0.226-0.114,0.5-0.172,0.821-0.172c0.525,0,0.92,0.135,1.186,0.41c0.264,0.271,0.403,0.635,0.416,1.09l-0.843,0.043
			c-0.037-0.254-0.114-0.438-0.232-0.549c-0.119-0.112-0.298-0.167-0.535-0.167c-0.244,0-0.436,0.06-0.575,0.177
			c-0.089,0.077-0.134,0.181-0.134,0.308c0,0.117,0.042,0.217,0.125,0.301c0.105,0.107,0.365,0.216,0.774,0.331
			c0.411,0.114,0.714,0.234,0.911,0.356c0.197,0.122,0.351,0.289,0.462,0.503c0.112,0.212,0.167,0.475,0.167,0.788
			c0,0.283-0.067,0.55-0.199,0.798c-0.134,0.247-0.323,0.431-0.565,0.552c-0.242,0.12-0.547,0.181-0.91,0.181
			c-0.528,0-0.933-0.145-1.216-0.435C46.749,75.379,46.58,74.958,46.525,74.404z"/>
		<path d="M51.572,76.015v-4.112h-1.239v-0.836h3.321v0.836h-1.237v4.112H51.572z"/>
		<path d="M54.197,76.015v-4.948h3.099v0.836H55.04V73h2.099v0.834H55.04v1.346h2.334v0.834H54.197z"/>
		<path d="M58.079,76.015v-4.948h1.263l0.759,3.375l0.749-3.375h1.266v4.948h-0.784V72.12l-0.829,3.895h-0.813l-0.826-3.895v3.895
			H58.079z"/>
		<path d="M66.721,76.015h-0.918l-0.365-1.125h-1.671l-0.344,1.125h-0.895l1.627-4.948h0.893L66.721,76.015z M65.168,74.056
			l-0.575-1.836l-0.564,1.836H65.168z"/>
		<path d="M25.739,82.491l0.818,0.308c-0.125,0.542-0.334,0.943-0.625,1.204c-0.293,0.261-0.662,0.391-1.11,0.391
			c-0.555,0-1.012-0.224-1.368-0.672c-0.358-0.448-0.537-1.064-0.537-1.843c0-0.823,0.181-1.462,0.538-1.916
			c0.36-0.458,0.833-0.686,1.418-0.686c0.51,0,0.926,0.181,1.244,0.538c0.191,0.211,0.333,0.515,0.428,0.91l-0.834,0.237
			c-0.05-0.258-0.152-0.458-0.309-0.609c-0.157-0.147-0.348-0.221-0.572-0.221c-0.309,0-0.56,0.13-0.754,0.395
			c-0.192,0.261-0.289,0.689-0.289,1.278c0,0.625,0.095,1.074,0.286,1.338c0.189,0.264,0.436,0.398,0.741,0.398
			c0.224,0,0.416-0.084,0.579-0.254C25.552,83.12,25.669,82.856,25.739,82.491z"/>
		<path d="M27.11,81.866c0-0.502,0.064-0.926,0.191-1.268c0.095-0.251,0.224-0.478,0.39-0.679c0.164-0.201,0.343-0.348,0.54-0.445
			c0.259-0.13,0.56-0.197,0.9-0.197c0.615,0,1.109,0.227,1.478,0.679c0.37,0.452,0.554,1.08,0.554,1.886
			c0,0.799-0.182,1.425-0.55,1.876c-0.366,0.452-0.856,0.676-1.47,0.676c-0.622,0-1.115-0.224-1.482-0.672
			C27.292,83.274,27.11,82.655,27.11,81.866z M27.98,81.832c0,0.562,0.109,0.987,0.328,1.274c0.217,0.291,0.495,0.435,0.831,0.435
			c0.336,0,0.612-0.144,0.828-0.431c0.216-0.284,0.324-0.716,0.324-1.291c0-0.565-0.105-0.99-0.314-1.268
			c-0.211-0.281-0.49-0.418-0.838-0.418s-0.627,0.14-0.841,0.421C28.085,80.839,27.98,81.264,27.98,81.832z"/>
		<path d="M31.809,84.311v-4.95h1.263l0.759,3.378l0.749-3.378h1.266v4.95h-0.784v-3.896l-0.829,3.896H33.42l-0.826-3.896v3.896
			H31.809z"/>
		<path d="M36.684,84.311v-4.95h1.355c0.512,0,0.846,0.027,1.003,0.077c0.239,0.074,0.44,0.234,0.6,0.485
			c0.162,0.247,0.242,0.569,0.242,0.963c0,0.304-0.047,0.559-0.139,0.766c-0.094,0.207-0.212,0.368-0.356,0.488
			c-0.142,0.117-0.289,0.194-0.436,0.234c-0.202,0.047-0.493,0.07-0.876,0.07h-0.55v1.866H36.684z M37.527,80.2v1.405h0.463
			c0.331,0,0.554-0.027,0.666-0.077c0.112-0.054,0.201-0.134,0.264-0.244c0.064-0.11,0.095-0.237,0.095-0.385
			c0-0.181-0.045-0.328-0.134-0.445c-0.089-0.117-0.202-0.191-0.339-0.221c-0.1-0.023-0.303-0.033-0.607-0.033H37.527z"/>
		<path d="M40.6,84.311v-4.906h0.843v4.074h2.099v0.833H40.6z"/>
		<path d="M44.142,84.311v-4.95h3.099V80.2h-2.256v1.097h2.099v0.833h-2.099v1.348h2.334v0.833H44.142z"/>
		<path d="M48.023,84.311v-4.95h1.263l0.759,3.378l0.749-3.378h1.266v4.95h-0.784v-3.896l-0.829,3.896h-0.813l-0.826-3.896v3.896
			H48.023z"/>
		<path d="M52.898,84.311v-4.95h3.099V80.2h-2.256v1.097h2.099v0.833h-2.099v1.348h2.334v0.833H52.898z"/>
		<path d="M56.8,84.311v-4.95h0.821l1.711,3.308v-3.308h0.783v4.95h-0.846l-1.684-3.227v3.227H56.8z"/>
		<path d="M61.947,84.311V80.2h-1.239v-0.839h3.321V80.2h-1.237v4.11H61.947z"/>
		<path d="M68.34,84.311h-0.918l-0.365-1.124h-1.671l-0.344,1.124h-0.895l1.627-4.95h0.893L68.34,84.311z M66.786,82.354
			l-0.575-1.836l-0.564,1.836H66.786z"/>
		<path d="M68.791,84.311v-4.95h1.776c0.446,0,0.771,0.047,0.973,0.134c0.202,0.09,0.363,0.247,0.485,0.475
			c0.122,0.227,0.182,0.488,0.182,0.779c0,0.371-0.092,0.679-0.276,0.92c-0.184,0.244-0.46,0.395-0.826,0.458
			c0.182,0.127,0.333,0.264,0.452,0.415c0.119,0.151,0.279,0.418,0.48,0.806l0.51,0.963h-1.008l-0.61-1.077
			c-0.217-0.385-0.365-0.625-0.445-0.726s-0.164-0.171-0.254-0.207c-0.089-0.037-0.231-0.054-0.425-0.054h-0.171v2.064H68.791z
			 M69.634,81.455h0.624c0.405,0,0.659-0.02,0.759-0.06c0.1-0.04,0.179-0.11,0.236-0.207c0.057-0.1,0.085-0.224,0.085-0.371
			c0-0.167-0.037-0.301-0.112-0.405c-0.075-0.104-0.181-0.167-0.318-0.194c-0.069-0.01-0.274-0.017-0.615-0.017h-0.659V81.455z"/>
		<path d="M72.979,84.311v-4.95h0.843v4.95H72.979z"/>
		<path d="M74.455,81.866c0-0.502,0.064-0.926,0.191-1.268c0.095-0.251,0.224-0.478,0.39-0.679c0.164-0.201,0.343-0.348,0.54-0.445
			c0.259-0.13,0.56-0.197,0.9-0.197c0.615,0,1.109,0.227,1.478,0.679c0.37,0.452,0.554,1.08,0.554,1.886
			c0,0.799-0.182,1.425-0.55,1.876c-0.366,0.452-0.856,0.676-1.47,0.676c-0.622,0-1.115-0.224-1.482-0.672
			C74.638,83.274,74.455,82.655,74.455,81.866z M75.325,81.832c0,0.562,0.109,0.987,0.328,1.274
			c0.217,0.291,0.495,0.435,0.831,0.435c0.336,0,0.612-0.144,0.828-0.431c0.216-0.284,0.324-0.716,0.324-1.291
			c0-0.565-0.105-0.99-0.314-1.268c-0.211-0.281-0.49-0.418-0.838-0.418s-0.627,0.14-0.841,0.421
			C75.43,80.839,75.325,81.264,75.325,81.832z"/>
	</g>
</g>
</svg>
