<?xml version="1.0" encoding="utf-8"?>
<!-- Generator: Adobe Illustrator 19.2.1, SVG Export Plug-In . SVG Version: 6.00 Build 0)  -->
<svg version="1.1" id="Capa_1" xmlns="http://www.w3.org/2000/svg" xmlns:xlink="http://www.w3.org/1999/xlink" x="0px" y="0px"
	 viewBox="0 0 100 100" style="enable-background:new 0 0 100 100;" xml:space="preserve" width="100" height="100">
<style type="text/css">
	.st0{fill-rule:evenodd;clip-rule:evenodd;fill:#2B4490;}
	.st1{fill:none;stroke:#222220;stroke-width:0.247;stroke-linecap:round;stroke-linejoin:round;stroke-miterlimit:10;}
	.st2{fill-rule:evenodd;clip-rule:evenodd;fill:#FFFFFF;}
	.st3{fill:#222220;}
</style>
<g>
	<polyline class="st0" points="97.7,49.9 97.4,44.2 96.4,38.6 94.5,33 92.2,27.8 89.3,22.8 85.8,18.2 81.5,14.2 77.1,10.6 72.1,7.6 
		66.9,5.2 61.3,3.5 55.7,2.5 50,2.2 44.3,2.5 38.5,3.5 33,5.2 27.7,7.6 22.9,10.6 18.3,14.2 14.2,18.2 10.7,22.8 7.7,27.8 5.3,33 
		3.6,38.6 2.4,44.2 2.1,49.9 2.4,55.8 3.6,61.4 5.3,66.9 7.7,72.2 10.7,77.1 14.2,81.6 18.3,85.8 22.9,89.4 27.7,92.2 33,94.6 
		38.5,96.5 44.3,97.5 50,97.8 55.7,97.5 61.3,96.5 66.9,94.6 72.1,92.2 77.1,89.4 81.5,85.8 85.8,81.6 89.3,77.1 92.2,72.2 
		94.5,66.9 96.4,61.4 97.4,55.8 97.7,49.9 	"/>
	<line class="st1" x1="16.1" y1="34.1" x2="15.8" y2="34.1"/>
	<polyline class="st2" points="32.6,40.5 32.3,39.5 31.6,38.8 30.6,38.4 29.6,38.8 28.8,39.5 28.6,40.5 28.8,41.5 29.6,42.3 
		30.6,42.5 31.6,42.3 32.3,41.5 32.6,40.5 	"/>
	<polyline class="st2" points="18.1,31 17.8,29.8 16.9,29 15.8,28.7 14.6,29 13.7,29.8 13.4,31 13.7,32.2 14.6,33.2 15.8,33.4 
		16.9,33.2 17.8,32.2 18.1,31 	"/>
	<polyline class="st2" points="11,47 11.5,46.9 11.7,46.4 11.7,40.8 12.6,39.1 12.6,51.3 13.1,51.9 12.6,52.6 12.6,59.7 12.9,60.2 
		13.4,60.4 14.6,60.4 15.1,60.2 15.3,59.7 15.3,52.6 14.9,51.9 15.3,51.3 15.3,46.9 16.3,46.9 16.3,52.3 16.6,52.9 16.3,53.8 
		16.3,63.2 16.4,63.7 16.9,64.1 18.5,64.1 19,63.7 19.1,63.2 19.1,53.8 18.8,52.9 19.1,52.3 19.1,39 22.2,46.4 22.5,46.7 26.1,48.7 
		26.7,48.9 27.1,48.6 28.2,46.2 28.2,55.7 28.6,56.3 28.2,57 28.2,63.2 28.6,63.4 29.8,63.4 30.1,63.2 30.3,62.9 30.3,57 29.9,56.3 
		30.3,55.7 30.3,51.9 30.9,51.9 30.9,54.6 31.3,55.3 30.9,56 30.9,60.5 31.1,60.9 31.4,61 32.5,61 32.8,60.9 33,60.5 33,56 
		32.6,55.3 33,54.5 33,46.4 33.6,48.2 33.6,51.8 33.8,52.1 34.1,52.3 34.7,52.3 35,52.1 35.2,51.8 35.2,48.2 35,47.9 33.5,43.7 
		33,43.2 30.6,42.8 28.2,43.2 30.4,42.8 30.8,42.8 28.2,43.2 27.6,43.7 26.4,46.5 26.1,46.9 25.9,46.7 23.9,45.5 23.5,45.2 
		22.3,41.7 19.6,34.7 19,34.4 15.9,34.1 12.7,34.4 12.2,34.7 9.7,40.5 9.7,46.4 10,46.9 10.5,47 11,47 	"/>
	<path class="st2" d="M82,55.1l-3.5-6.1l-1.5,1.4l-1.2,1.9l-0.7,2l-0.2,2.2l0.5,2l1,1.9l1.5,1.5l1.9,1.2l2,0.7H84l2-0.5l1.9-1.2
		l1.5-1.5l1-1.9l0.5-2v-2.2l-0.5-2l-1.2-1.9l-1.5-1.3l-1.9-1l-2.2-0.5l-2.2,0.2l-2,0.5l3.5,6.2l0.8,0.2l0.3,0.8l-0.3,0.8l-0.7,0.3
		l-0.8-0.2L81.8,56L82,55.1 M69.8,53.5h-1.2l-5.4-9.3h11.8L69.8,53.5z M75.7,43l0.7-1h-2.7v-1.2l6.9-1.2V42h-2.9l-1,1.7l2.2,3.7
		l2.2-0.7l2.4-0.2l2.4,0.5l2,1l1.9,1.5l1.4,1.9l0.8,2.2l0.2,2.4l-0.3,2.4l-0.8,2.2l-1.5,1.9l-1.9,1.3l-2.2,0.8L83,64.9l-2.4-0.3
		l-2.2-0.8l-1.9-1.3l-1.5-1.9l-0.8-2.2L73.9,56l0.2-2.2l0.8-2.4l1.3-1.9l1.7-1.5l-1.9-3.4l-5.2,9.4l0.5,1v1.2l-0.5,1l-1,0.7h-1.2
		l-1-0.7l-0.7-1v-1.2l0.7-1l-5.4-9.4l-1.9,3.4l1.9,1.5l1.3,1.9l0.8,2.4l0.2,2.2l-0.3,2.4l-1,2.2l-1.5,1.9l-1.9,1.3l-2.2,0.8
		l-2.4,0.3L53,64.6l-2.2-0.8l-1.9-1.3l-1.3-1.9l-1-2.2L46.2,56l0.2-2.4l0.8-2.2l1.3-1.9l1.9-1.5l2.2-1l2.2-0.5l2.4,0.2l2.2,0.7
		l2.2-3.7l-2.2-4v-1.2h6.9v1.2h-5.6l1.9,3.4H75.7z M58.9,48.4l-2-0.5l-2.2-0.2l-2,0.5l-1.9,1l-1.7,1.3l-1,1.9l-0.7,2v2.2l0.5,2
		l1.2,1.9l1.5,1.5l1.9,1.2l2,0.5h2.2l2-0.7l1.9-1.2l1.3-1.5l1-1.9l0.5-2l-0.2-2.2l-0.7-2l-1.2-1.9l-1.5-1.4l-3.5,6.1l0.2,0.8
		L56,56.7l-0.8,0.2l-0.7-0.3l-0.2-0.8l0.3-0.8l0.7-0.2L58.9,48.4z"/>
	<path class="st3" d="M50,100C50,100,50,100,50,100l-5.6-0.3l-5.6-1l-5.4-1.5l-5.1-2.2l-4.9-2.7L18.9,89l-4.2-3.7l-3.7-4.1l-3.2-4.6
		L5,71.7l-2.2-5.2l-1.5-5.4l-1-5.6l-0.2-5.6l0.2-5.6l1-5.4l1.5-5.4L5,28.3l2.7-4.9l3.2-4.6l3.7-4.1l4.2-3.7l4.6-3.4l4.9-2.7l5.1-2
		l5.4-1.5l5.6-1L50,0l5.6,0.3l5.4,1l5.4,1.5l5.2,2l4.9,2.7l4.6,3.4l4.1,3.7l3.7,4.1l3.2,4.6l2.7,4.9l2.2,5.2l1.5,5.4l1,5.4l0.3,5.6
		l-0.3,5.6l-1,5.6L97,66.5l-2.2,5.2l-2.7,4.9l-3.2,4.6l-3.7,4.1L81.1,89l-4.6,3.2l-4.9,2.7l-5.2,2.2L61,98.6l-5.4,1L50,100
		C50,100,50,100,50,100L50,100z M50,0.3l-5.5,0.3l-5.5,1l-5.4,1.5l-5,2l-4.9,2.7l-4.5,3.4L14.9,15l-3.7,4L8,23.5l-2.7,4.9l-2.2,5.2
		L1.6,39l-1,5.4l-0.2,5.5l0.2,5.6l1,5.5l1.5,5.4l2.2,5.2L8,76.5l3.2,4.5l3.7,4l4.2,3.7l4.5,3.2l4.9,2.7l5,2.2l5.4,1.5l5.6,1l5.5,0.3
		l5.6-0.3l5.4-1l5.4-1.5l5.2-2.2l4.9-2.7l4.5-3.2l4-3.7l3.7-4l3.2-4.5l2.7-4.9l2.2-5.2l1.5-5.4l1-5.5l0.3-5.5l-0.3-5.5l-1-5.4
		l-1.5-5.4l-2.2-5.2l-2.7-4.9L88.6,19L85,15l-4-3.7l-4.5-3.4l-4.9-2.7l-5.2-2l-5.4-1.5l-5.4-1L50,0.3L50,0.3z"/>
	<rect x="39.9" y="5.1" class="st2" width="1.9" height="89.7"/>
</g>
</svg>
