<?xml version="1.0" encoding="utf-8"?>
<!-- Generator: Adobe Illustrator 19.2.1, SVG Export Plug-In . SVG Version: 6.00 Build 0)  -->
<svg version="1.1" id="Capa_1" xmlns="http://www.w3.org/2000/svg" xmlns:xlink="http://www.w3.org/1999/xlink" x="0px" y="0px"
	 viewBox="0 0 100 100" style="enable-background:new 0 0 100 100;" xml:space="preserve" width="100" height="100">
<style type="text/css">
	.st0{fill:none;stroke:#222220;stroke-width:0.191;stroke-linecap:round;stroke-linejoin:round;stroke-miterlimit:10;}
	.st1{fill-rule:evenodd;clip-rule:evenodd;fill:#222220;}
	.st2{fill:#FFFFFF;}
</style>
<g>
	<polygon class="st0" points="96.7,66.7 97.7,66.5 98.7,66 99.4,65.3 99.9,64.4 100,63.4 100,36.6 99.9,35.6 99.4,34.7 98.7,34 
		97.7,33.5 96.7,33.3 3.3,33.3 2.3,33.5 1.3,34 0.6,34.7 0.1,35.6 0,36.6 0,63.4 0.1,64.4 0.6,65.3 1.3,66 2.3,66.5 3.3,66.7 	"/>
	<polyline class="st1" points="96.7,65.5 97.6,65.4 98.3,64.9 98.8,64.2 99,63.4 99,36.6 98.8,35.8 98.3,35.1 97.6,34.6 96.7,34.5 
		3.3,34.5 2.4,34.6 1.7,35.1 1.2,35.8 1,36.6 1,63.4 1.2,64.2 1.7,64.9 2.4,65.4 3.3,65.5 96.7,65.5 	"/>
	<polyline class="st2" points="28.7,63 29.6,63.3 30.4,63.3 31.2,63 31.8,62.4 32.1,61.7 32.2,60.8 31.9,60 29.9,56.7 70,56.7 
		68.1,60 67.8,60.8 67.9,61.7 68.2,62.4 68.8,63 69.6,63.3 70.4,63.3 71.2,63 91.1,50 71.2,37 70.4,36.7 69.6,36.7 68.8,37 
		68.2,37.6 67.9,38.3 67.8,39.2 68.1,40 70,43.3 29.9,43.3 31.9,40 32.2,39.2 32.1,38.3 31.8,37.6 31.2,37 30.4,36.7 29.6,36.7 
		28.7,37 8.9,50 28.7,63 	"/>
</g>
</svg>
