<?xml version="1.0" encoding="utf-8"?>
<!-- Generator: Adobe Illustrator 19.2.1, SVG Export Plug-In . SVG Version: 6.00 Build 0)  -->
<svg version="1.1" id="Capa_1" xmlns="http://www.w3.org/2000/svg" xmlns:xlink="http://www.w3.org/1999/xlink" x="0px" y="0px"
	 viewBox="0 0 100 100" style="enable-background:new 0 0 100 100;" xml:space="preserve" width="100" height="100">
<style type="text/css">
	.st0{fill-rule:evenodd;clip-rule:evenodd;fill:#222220;}
	.st1{fill:none;stroke:#222220;stroke-width:0.189;stroke-linecap:round;stroke-linejoin:round;stroke-miterlimit:10;}
	.st2{fill:#FFFFFF;}
</style>
<g>
	<polyline class="st0" points="95.7,69.7 96.8,69.5 97.7,68.8 98.3,68 98.6,66.9 98.6,33.1 98.3,32 97.7,31.2 96.8,30.6 95.7,30.3 
		4.2,30.3 3.1,30.6 2.2,31.2 1.6,32 1.3,33.1 1.3,66.9 1.6,68 2.2,68.8 3.1,69.5 4.2,69.7 95.7,69.7 	"/>
	<polygon class="st1" points="95.7,71.1 97,70.9 98.2,70.3 99.2,69.4 99.8,68.2 100,66.9 100,33.1 99.8,31.9 99.2,30.7 98.2,29.7 
		97,29.1 95.7,28.9 4.2,28.9 2.9,29.1 1.7,29.7 0.7,30.7 0.1,31.9 0,33.1 0,66.9 0.1,68.2 0.7,69.4 1.7,70.3 2.9,70.9 4.2,71.1 	"/>
	<polyline class="st2" points="59.5,62.6 59.2,63.7 59.2,64.8 59.7,65.7 60.4,66.4 61.5,66.8 62.5,66.8 63.5,66.4 88.7,50 
		63.5,33.6 62.5,33.2 61.5,33.2 60.4,33.6 59.7,34.3 59.2,35.2 59.2,36.3 59.5,37.4 61.9,41.5 11.2,41.5 11.2,58.5 61.9,58.5 
		59.5,62.6 	"/>
</g>
</svg>
