<?xml version="1.0" encoding="utf-8"?>
<!-- Generator: Adobe Illustrator 19.2.1, SVG Export Plug-In . SVG Version: 6.00 Build 0)  -->
<svg version="1.1" id="Capa_1" xmlns="http://www.w3.org/2000/svg" xmlns:xlink="http://www.w3.org/1999/xlink" x="0px" y="0px"
	 viewBox="0 0 100 100" style="enable-background:new 0 0 100 100;" xml:space="preserve" width="100" height="100">
<style type="text/css">
	.st0{fill:#222220;}
	.st1{fill:none;stroke:#222220;stroke-width:0.109;stroke-linecap:round;stroke-linejoin:round;stroke-miterlimit:10;}
	.st2{fill-rule:evenodd;clip-rule:evenodd;fill:#222220;}
	.st3{fill-rule:evenodd;clip-rule:evenodd;fill:#C5332B;}
</style>
<g>
	<path class="st0" d="M54.2,49c0,0,0.3,0,0.3,0c0.1,0,0.2-0.3,0.2-0.3l0.3-0.2l0.3-0.2l0.5,0l0.9-0.8l0-0.4l0.5-0.6l0.4-0.2l0.7-1.2
		l-1.6-4l-0.4,0.7l0,0.4l-0.2,0.4l-0.4,0.3L55.3,43L55,43l-0.8,0.3L54.2,49"/>
	<path class="st1" d="M59.1,22l-0.8-1.6 M59.5,22l-0.9-1.8 M58.7,44.8L58.7,44.8l-0.2-0.2v-0.1l-0.1-0.1v-0.2l0.1-0.2V44l0.1-0.2
		l0.1-0.2l0.1-0.1l0.1-0.1l0.1-0.2h0.1l0.2-0.1h0.2l0.2,0.2v0.2l0.1,0.1l-0.1,0.2V44l-0.1,0.1v0.2l-0.1,0.2l-0.1,0.1l-0.2,0.1
		l-0.1,0.1L59,44.8H58.7z M58.1,37.6l2.1,2.2 M58.2,37.1l2.1,2.3 M58.6,33.9L61,34 M58.6,33.5l2.4,0.1 M58.5,29.9l2.3-2.1
		 M58.4,29.5l2.3-2"/>
	<polygon class="st2" points="58.8,44.5 58.8,44.1 58.9,44 58.9,43.9 59,43.8 59,43.7 59.1,43.6 59.2,43.5 59.3,43.5 59.4,43.6 
		59.4,43.9 59.3,44 59.3,44.1 59.2,44.2 59.1,44.3 59.1,44.4 59,44.5 58.9,44.5 58.9,44.5 	"/>
	<polygon class="st1" points="58.8,44.5 58.8,44.1 58.9,44 58.9,43.9 59,43.8 59,43.7 59.1,43.6 59.2,43.5 59.3,43.5 59.4,43.6 
		59.4,43.9 59.3,44 59.3,44.1 59.2,44.2 59.1,44.3 59.1,44.4 59,44.5 58.9,44.5 58.9,44.5 	"/>
	<path class="st1" d="M58.1,28.8L58.1,28.8l0.2-0.2l0.1-0.2v-0.8l-0.1-0.2l-0.1-0.2l-0.1-0.1L58,27l-0.1-0.1h-0.1l-0.1-0.1l-0.1,0.1
		h-0.1L57.4,27v0.1l-0.1,0.2V28l0.1,0.1l0.1,0.2v0.2l0.1,0.1l0.1,0.1h0.1L58.1,28.8L58.1,28.8z M60.1,23.6L60.1,23.6L60.1,23.6
		l0.2-0.2v-0.5l-0.1-0.2v-0.1l-0.1-0.2L60,22.3l-0.1-0.1l-0.2-0.1L59.6,22h-0.1l-0.1-0.1L59.3,22h-0.1l-0.1,0.1L59,22.2v0.6l0.1,0.2
		l0.1,0.1l0.1,0.2l0.1,0.1l0.1,0.2l0.1,0.1h0.1l0.2,0.1L60.1,23.6L60.1,23.6z"/>
	<polygon class="st2" points="58,28.4 58.1,28.3 58.1,27.7 58,27.6 58,27.5 57.9,27.4 57.9,27.3 57.7,27.3 57.7,27.5 57.6,27.6 
		57.6,27.7 57.7,27.8 57.7,28.1 57.8,28.2 57.8,28.3 57.9,28.3 57.9,28.4 	"/>
	<polygon class="st1" points="58,28.4 58.1,28.3 58.1,27.7 58,27.6 58,27.5 57.9,27.4 57.9,27.3 57.7,27.3 57.7,27.5 57.6,27.6 
		57.6,27.7 57.7,27.8 57.7,28.1 57.8,28.2 57.8,28.3 57.9,28.3 57.9,28.4 	"/>
	<path class="st1" d="M51.8,41.6l0.5-2.2l0.3-2.3l0.2-2.4l0.1-2.4l-0.1-2.4l-0.3-2.4l-0.4-2.1 M50.4,28l-0.6,2.3 M50.7,28.2
		l-0.5,2.2"/>
	<polygon class="st2" points="46.5,29 46.6,29 46.6,28.9 46.7,28.9 46.7,28.8 46.8,28.6 46.8,28.5 46.9,28.4 46.9,27.8 46.8,27.7 
		46.7,27.6 46.6,27.6 46.6,27.7 46.5,27.7 46.5,27.8 46.4,27.9 46.4,28.2 46.3,28.3 46.3,28.8 46.4,28.9 46.4,29 	"/>
	<polygon class="st1" points="46.5,29 46.6,29 46.6,28.9 46.7,28.9 46.7,28.8 46.8,28.6 46.8,28.5 46.9,28.4 46.9,27.8 46.8,27.7 
		46.7,27.6 46.6,27.6 46.6,27.7 46.5,27.7 46.5,27.8 46.4,27.9 46.4,28.2 46.3,28.3 46.3,28.8 46.4,28.9 46.4,29 	"/>
	<path class="st1" d="M40.5,28.8L40.5,28.8l0.2,0.2h0.1l0.2,0.1h0.4l0.2-0.1h0.3l0.2-0.1l0.2-0.1l0.1-0.2l0.2-0.1l0.1-0.1l0.1-0.2
		v-0.4l-0.1-0.1l-0.1-0.1h-0.2l-0.2-0.1H42l-0.2,0.1h-0.2l-0.2,0.1l-0.3,0.1L41,27.9L40.8,28l-0.1,0.2l-0.1,0.1l-0.1,0.2V28.8z
		 M46.4,29.5L46.4,29.5l0.3-0.1l0.1-0.1l0.1-0.1l0.1-0.1l0.1-0.2l0.1-0.2l0.1-0.3v-0.8l-0.1-0.2l-0.1-0.2L47,27.1h-0.5l-0.2,0.1
		l-0.1,0.2L46,27.8V28l-0.1,0.2v0.7l0.1,0.2l0.1,0.1l0.1,0.1L46.4,29.5L46.4,29.5z"/>
	<polygon class="st2" points="41,28.6 41,28.7 41.4,28.7 41.6,28.6 41.7,28.6 41.8,28.5 41.9,28.5 42,28.4 42.1,28.4 42.2,28.3 
		42.2,28.2 42.3,28.2 42.3,28.1 42.2,28 41.7,28 41.6,28.1 41.5,28.1 41.4,28.2 41.3,28.2 41.2,28.3 41.1,28.4 41,28.4 	"/>
	<polygon class="st1" points="41,28.6 41,28.7 41.4,28.7 41.6,28.6 41.7,28.6 41.8,28.5 41.9,28.5 42,28.4 42.1,28.4 42.2,28.3 
		42.2,28.2 42.3,28.2 42.3,28.1 42.2,28 41.7,28 41.6,28.1 41.5,28.1 41.4,28.2 41.3,28.2 41.2,28.3 41.1,28.4 41,28.4 	"/>
	<path class="st1" d="M48.3,46.8L48.3,46.8 M47.7,46.1l0.8,0.2 M48.5,47.1L48.5,47.1l-0.2-0.2h-0.4L47.8,47h-0.2l-0.1,0.1l-0.1,0.1
		l-0.2,0.1l-0.1,0.1l-0.1,0.1v0.2L47,47.8l0.1,0.1V48l0.1,0.1h0.6l0.2-0.1l0.1-0.1l0.1-0.1l0.2-0.1v-0.1l0.1-0.1l0.1-0.1V47.1z
		 M49.5,33.2l-2.8-0.1 M49.5,33.4l-2.8-0.1 M49.9,37.7l-2.6,2.5 M49.8,37.3L47.1,40 M50,29.3l-2.6-2.6 M50.1,28.9l-2.4-2.5
		 M39.9,28.5h0.2l0.2-0.1l0.1-0.1l0.1-0.2l0.1-0.2l0.1-0.2l0.1-0.2v-0.7l-0.1-0.2v-0.2l-0.1-0.1l-0.2-0.2h-0.3L40,26.2l-0.2,0.1
		l-0.1,0.1l-0.1,0.2l-0.1,0.2L39.4,27v0.9l0.1,0.2v0.2l0.1,0.1L39.9,28.5L39.9,28.5z"/>
	<polygon class="st2" points="48.5,45.7 48.5,45.6 48.6,45.5 48.6,45.4 48.5,45.3 48.5,45.1 48.4,44.9 48.4,44.8 48.3,44.7 
		48.2,44.6 48.2,44.5 48.1,44.5 48,44.5 47.8,44.5 47.8,44.8 47.9,44.9 47.9,45 48,45.2 48,45.3 48.2,45.5 48.2,45.6 48.3,45.6 
		48.4,45.7 	"/>
	<polygon class="st1" points="48.5,45.7 48.5,45.6 48.6,45.5 48.6,45.4 48.5,45.3 48.5,45.1 48.4,44.9 48.4,44.8 48.3,44.7 
		48.2,44.6 48.2,44.5 48.1,44.5 48,44.5 47.8,44.5 47.8,44.8 47.9,44.9 47.9,45 48,45.2 48,45.3 48.2,45.5 48.2,45.6 48.3,45.6 
		48.4,45.7 	"/>
	<path class="st1" d="M43.3,38.8L43.3,38.8l0.2-0.2l0.1-0.1h0.6l0.2,0.1h0.3l0.2,0.1l0.2,0.2l0.1,0.1l0.2,0.1l0.1,0.2l0.1,0.1v0.3
		l-0.1,0.1l-0.1,0.1l-0.2,0.2h-0.7L44,39.9l-0.2-0.1l-0.2-0.1l-0.1-0.2l-0.2-0.1l-0.1-0.2V38.8z M46.7,39.2l0.1,0.8 M46.5,39.3
		L46.5,39.3l0.2-0.1l0.1-0.2l0.1-0.1l0.1-0.2v-0.2l0.1-0.2V38L47,37.8v-0.2l-0.1-0.2l-0.1-0.2l-0.1-0.1L46.6,37h-0.1l-0.2-0.1h-0.1
		L46.1,37L46,37l-0.1,0.1l-0.1,0.2l-0.1,0.2v0.9l0.1,0.2l0.1,0.2L46,39l0.1,0.1l0.1,0.1L46.5,39.3L46.5,39.3z M47.6,46.4l0.8,0.2
		 M45,49.4l3.5,0.3l3.4-0.2 M46.1,49.2l2.7,0.1l2.7-0.1 M48.7,46.1l0.2-0.2v-0.1l0.1-0.2v-0.2l-0.1-0.2V45l-0.1-0.3l-0.1-0.2
		l-0.1-0.2l-0.2-0.1l-0.1-0.2L48.1,44H48l-0.2-0.1h-0.1L47.7,44l-0.1,0.1l-0.1,0.1v0.2l-0.1,0.2v0.2l0.1,0.2l0.1,0.2v0.2l0.2,0.2
		l0.1,0.2l0.1,0.2l0.2,0.1l0.1,0.1H48.7z"/>
	<polygon class="st2" points="43.7,39 43.8,38.9 44.1,38.9 44.2,39 44.4,39 44.5,39.1 44.6,39.1 44.8,39.3 44.9,39.3 44.9,39.6 
		44.4,39.6 44.3,39.5 44.2,39.5 44,39.4 44,39.4 43.9,39.3 43.9,39.2 43.8,39.2 43.8,39.1 	"/>
	<polygon class="st1" points="43.7,39 43.8,38.9 44.1,38.9 44.2,39 44.4,39 44.5,39.1 44.6,39.1 44.8,39.3 44.9,39.3 44.9,39.6 
		44.4,39.6 44.3,39.5 44.2,39.5 44,39.4 44,39.4 43.9,39.3 43.9,39.2 43.8,39.2 43.8,39.1 	"/>
	<polygon class="st2" points="39.7,40.1 39.9,39.9 39.9,39 39.8,38.9 39.8,38.8 39.7,38.7 39.5,38.7 39.5,38.8 39.4,38.9 39.4,39.5 
		39.5,39.7 39.5,39.9 39.6,40 	"/>
	<polygon class="st1" points="39.7,40.1 39.9,39.9 39.9,39 39.8,38.9 39.8,38.8 39.7,38.7 39.5,38.7 39.5,38.8 39.4,38.9 39.4,39.5 
		39.5,39.7 39.5,39.9 39.6,40 	"/>
	<polygon class="st1" points="39.8,40.5 39.9,40.5 40,40.4 40.1,40.3 40.2,40.1 40.3,40 40.3,38.8 40.2,38.6 40.1,38.5 40,38.3 
		39.9,38.2 39.7,38.1 39.5,38.1 39.3,38.2 39.2,38.3 39.1,38.4 39.1,38.6 39,38.8 39,39.7 39.1,39.9 39.2,40.1 39.3,40.2 39.4,40.4 
		39.5,40.5 	"/>
	<polygon class="st2" points="42.1,43.9 42.2,44 42.3,44 42.4,43.9 42.6,43.9 42.7,43.8 42.8,43.7 42.9,43.6 43,43.6 43.1,43.5 
		43.2,43.4 43.2,43.2 43.3,43.2 43.2,43.1 43.2,43 43,43 42.9,43.1 42.8,43.1 42.7,43.2 42.6,43.2 42.5,43.3 42.4,43.4 42.3,43.5 
		42.2,43.6 42.1,43.7 	"/>
	<polygon class="st1" points="42.1,43.9 42.2,44 42.3,44 42.4,43.9 42.6,43.9 42.7,43.8 42.8,43.7 42.9,43.6 43,43.6 43.1,43.5 
		43.2,43.4 43.2,43.2 43.3,43.2 43.2,43.1 43.2,43 43,43 42.9,43.1 42.8,43.1 42.7,43.2 42.6,43.2 42.5,43.3 42.4,43.4 42.3,43.5 
		42.2,43.6 42.1,43.7 	"/>
	<path class="st1" d="M42.3,45L42.3,45l0.1-0.2l0.1-0.1l0.2-0.1h0.8l0.3,0.1H44l0.4,0.2l0.1,0.2l0.1,0.1v0.1l0.1,0.2l-0.1,0.1v0.1
		l-0.1,0.1l-0.2,0.1L44,46h-0.8L43,45.9l-0.2-0.1l-0.2-0.1l-0.1-0.1l-0.1-0.2l-0.1-0.1V45z M43.2,48L43.2,48l0.1-0.2l0.1-0.2v-0.2
		l-0.1-0.2V47l-0.1-0.2L43,46.6l-0.3-0.3l-0.1-0.1l-0.2-0.1L42.2,46l-0.1-0.1h-0.2l-0.2,0.2l-0.1,0.1l-0.1,0.1v0.4l0.1,0.2l0.1,0.2
		l0.1,0.2l0.1,0.2l0.2,0.1l0.1,0.2l0.2,0.1l0.2,0.1l0.2,0.1L43.2,48L43.2,48z M41.7,44.2L41.7,44.2l0.2,0.1l0.2,0.1h0.2l0.2-0.1h0.2
		l0.2-0.1l0.2-0.2l0.1-0.1l0.2-0.2l0.1-0.1l0.2-0.2v-0.2l0.1-0.1v-0.2l-0.2-0.2l-0.1-0.1h-0.1l-0.2-0.1L43,42.6h-0.2l-0.2,0.1
		l-0.2,0.1l-0.2,0.1l-0.1,0.2l-0.2,0.1l-0.1,0.2l-0.1,0.2l-0.1,0.2v0.1L41.7,44.2L41.7,44.2z"/>
	<polygon class="st2" points="42.7,45.1 42.8,45 43.6,45 43.7,45.1 43.8,45.1 43.9,45.2 44,45.2 44,45.3 44,45.3 44,45.5 43.9,45.5 
		43.8,45.6 43.6,45.6 43.5,45.5 43.2,45.5 43.1,45.4 43,45.4 42.9,45.3 42.8,45.3 42.8,45.2 42.7,45.2 	"/>
	<polygon class="st1" points="42.7,45.1 42.8,45 43.6,45 43.7,45.1 43.8,45.1 43.9,45.2 44,45.2 44,45.3 44,45.3 44,45.5 43.9,45.5 
		43.8,45.6 43.6,45.6 43.5,45.5 43.2,45.5 43.1,45.4 43,45.4 42.9,45.3 42.8,45.3 42.8,45.2 42.7,45.2 	"/>
	<polygon class="st2" points="42.9,47.6 43,47.5 43,47.4 42.9,47.3 42.9,47.1 42.8,47 42.7,46.9 42.6,46.8 42.5,46.7 42.5,46.6 
		42.4,46.6 42.3,46.5 42,46.5 42,46.7 42.1,46.8 42.1,46.9 42.2,47 42.2,47.1 42.3,47.2 42.4,47.3 42.5,47.4 42.6,47.5 42.6,47.6 	
		"/>
	<polygon class="st1" points="42.9,47.6 43,47.5 43,47.4 42.9,47.3 42.9,47.1 42.8,47 42.7,46.9 42.6,46.8 42.5,46.7 42.5,46.6 
		42.4,46.6 42.3,46.5 42,46.5 42,46.7 42.1,46.8 42.1,46.9 42.2,47 42.2,47.1 42.3,47.2 42.4,47.3 42.5,47.4 42.6,47.5 42.6,47.6 	
		"/>
	<polygon class="st1" points="41.7,44.7 41.5,44.4 41.1,44.2 40.7,44.4 40.5,44.7 40.7,45.1 41.1,45.3 41.5,45.1 	"/>
	<polygon class="st2" points="41.3,44.7 41.3,44.5 40.9,44.5 40.9,44.9 41.3,44.9 	"/>
	<polygon class="st1" points="41.3,44.7 41.3,44.5 40.9,44.5 40.9,44.9 41.3,44.9 	"/>
	<path class="st1" d="M40,40.4l0.3,1 M41.2,45.3l0.4,0.8 M41.5,45.1l0.5,0.8 M41.6,45l0.7,0.1 M41.7,44.7l0.7,0.2"/>
	<polygon class="st2" points="40.5,43.2 40.6,43.2 40.6,42.6 40.5,42.5 40.5,42.2 40.4,42 40.3,41.9 40.1,41.9 40.1,42.5 40.2,42.7 
		40.2,42.8 40.3,42.9 40.3,43 40.4,43.1 40.4,43.2 	"/>
	<polygon class="st1" points="40.5,43.2 40.6,43.2 40.6,42.6 40.5,42.5 40.5,42.2 40.4,42 40.3,41.9 40.1,41.9 40.1,42.5 40.2,42.7 
		40.2,42.8 40.3,42.9 40.3,43 40.4,43.1 40.4,43.2 	"/>
	<path class="st1" d="M43.2,48l0.6,0.5 M44.6,45.4l0.7,0.2 M44.5,45.7l0.8,0.2 M47,48.2L47,48.2l-0.2-0.1h-0.5l-0.1,0.1L46,48.2
		h-0.1l-0.1,0.1l-0.1,0.2l-0.1,0.1l-0.1,0.1v0.4h0.1l0.1,0.1h0.4l0.1-0.1h0.2l0.1-0.1l0.2-0.1l0.1-0.1l0.1-0.1v-0.1l0.1-0.2V48.2z
		 M45.3,45.8v-0.2l0.1-0.1l0.1-0.1h0.2l0.2-0.1h0.6l0.3,0.1l0.6,0.3l0.1,0.1l0.1,0.1l0.1,0.2v0.1l-0.1,0.1v0.2l-0.1,0.1h-0.2
		l-0.2,0.1h-0.8L46,46.6l-0.2-0.1l-0.1-0.1l-0.2-0.1l-0.1-0.1L45.3,46V45.8z M41.4,44.3l0.3-0.2 M40.8,43.6l0.3,0.6 M41.6,44.5
		l0.2-0.2 M40.4,43.7l0.3,0.7 M39.7,40.5l0.2,1 M40.7,43.7l0.2-0.2v-0.2l0.1-0.1v-0.7l-0.1-0.2v-0.2l-0.1-0.2l-0.2-0.2l-0.1-0.1
		l-0.1-0.2h-0.2l-0.1-0.1H40l-0.1,0.1h-0.1l-0.1,0.2l-0.1,0.1v0.6l0.1,0.2v0.3l0.1,0.2l0.1,0.2l0.2,0.1l0.1,0.2l0.1,0.1l0.2,0.1
		H40.7z"/>
	<polygon class="st2" points="45.1,49 45.1,48.9 45,48.8 44.9,48.8 44.9,48.7 44.8,48.7 44.7,48.6 44.4,48.6 44.3,48.5 44.2,48.5 
		44.1,48.6 44,48.6 44.1,48.7 44.1,48.8 44.2,48.8 44.2,48.9 44.3,48.9 44.4,49 44.5,49 44.6,49.1 45.1,49.1 	"/>
	<polygon class="st1" points="45.1,49 45.1,48.9 45,48.8 44.9,48.8 44.9,48.7 44.8,48.7 44.7,48.6 44.4,48.6 44.3,48.5 44.2,48.5 
		44.1,48.6 44,48.6 44.1,48.7 44.1,48.8 44.2,48.8 44.2,48.9 44.3,48.9 44.4,49 44.5,49 44.6,49.1 45.1,49.1 	"/>
	<path class="st1" d="M43.4,47.7l0.7,0.6 M45.4,49.2L45.4,49.2l0.1-0.2l-0.1-0.2l-0.1-0.1l-0.1-0.1l-0.1-0.1l-0.2-0.1l-0.1-0.1h-0.2
		l-0.2-0.1H44l-0.1,0.1h-0.1l-0.1,0.1v0.3l0.1,0.2l0.1,0.1l0.1,0.1l0.1,0.1l0.2,0.1l0.2,0.1h0.3l0.2,0.1l0.2-0.1h0.1L45.4,49.2
		L45.4,49.2L45.4,49.2z"/>
	<polygon class="st2" points="45.7,45.8 45.8,45.8 45.9,45.7 46.4,45.7 46.6,45.8 46.8,45.8 46.9,45.9 47,46 47.1,46 47.1,46.2 
		47,46.2 46.9,46.3 46.5,46.3 46.3,46.2 46.1,46.2 46,46.1 45.9,46.1 45.8,46 45.7,45.9 	"/>
	<polygon class="st1" points="45.7,45.8 45.8,45.8 45.9,45.7 46.4,45.7 46.6,45.8 46.8,45.8 46.9,45.9 47,46 47.1,46 47.1,46.2 
		47,46.2 46.9,46.3 46.5,46.3 46.3,46.2 46.1,46.2 46,46.1 45.9,46.1 45.8,46 45.7,45.9 	"/>
	<path class="st1" d="M47.2,48.1L47,48.2 M47,47.8l-0.3,0.3"/>
	<polygon class="st2" points="46.7,48.3 46.4,48.3 46.3,48.4 46.1,48.4 46,48.5 46,48.6 45.9,48.6 45.9,48.7 45.8,48.8 45.9,48.8 
		45.9,48.9 46,48.9 46.1,48.8 46.3,48.8 46.4,48.7 46.5,48.7 46.5,48.6 46.6,48.5 46.7,48.4 	"/>
	<polygon class="st1" points="46.7,48.3 46.4,48.3 46.3,48.4 46.1,48.4 46,48.5 46,48.6 45.9,48.6 45.9,48.7 45.8,48.8 45.9,48.8 
		45.9,48.9 46,48.9 46.1,48.8 46.3,48.8 46.4,48.7 46.5,48.7 46.5,48.6 46.6,48.5 46.7,48.4 	"/>
	<polygon class="st2" points="48.2,47.2 47.8,47.2 47.8,47.3 47.7,47.3 47.7,47.4 47.6,47.4 47.6,47.5 47.5,47.5 47.5,47.6 
		47.4,47.6 47.4,47.8 47.7,47.8 47.7,47.7 47.8,47.7 47.9,47.6 48,47.5 48.1,47.5 48.1,47.4 48.2,47.4 	"/>
	<polygon class="st1" points="48.2,47.2 47.8,47.2 47.8,47.3 47.7,47.3 47.7,47.4 47.6,47.4 47.6,47.5 47.5,47.5 47.5,47.6 
		47.4,47.6 47.4,47.8 47.7,47.8 47.7,47.7 47.8,47.7 47.9,47.6 48,47.5 48.1,47.5 48.1,47.4 48.2,47.4 	"/>
	<path class="st1" d="M43.7,42.8l0.4-0.3 M43.5,42.6l0.5-0.3 M44,42.4L44,42.4l0.3,0.2h0.5l0.2-0.1l0.4-0.2l0.2-0.2l0.1-0.1l0.2-0.2
		l0.1-0.2l0.1-0.1V41l-0.2-0.2h-0.7l-0.2,0.1L44.7,41l-0.2,0.2l-0.2,0.1l-0.2,0.2L44,41.6L44,41.8V42.4z M45.4,39.9l0.8,0.4
		 M45.5,39.7l0.9,0.4"/>
	<polygon class="st2" points="44.3,42.1 44.4,42.2 44.6,42.2 44.7,42.1 44.8,42.1 44.9,42 45,42 45.1,41.9 45.2,41.8 45.4,41.6 
		45.4,41.5 45.5,41.5 45.5,41.3 45,41.3 44.9,41.4 44.8,41.5 44.7,41.5 44.6,41.6 44.5,41.7 44.4,41.8 44.4,41.9 44.3,42 	"/>
	<polygon class="st1" points="44.3,42.1 44.4,42.2 44.6,42.2 44.7,42.1 44.8,42.1 44.9,42 45,42 45.1,41.9 45.2,41.8 45.4,41.6 
		45.4,41.5 45.5,41.5 45.5,41.3 45,41.3 44.9,41.4 44.8,41.5 44.7,41.5 44.6,41.6 44.5,41.7 44.4,41.8 44.4,41.9 44.3,42 	"/>
	<path class="st1" d="M47.4,40.5l-0.2-0.4L46.8,40l-0.4,0.1l-0.2,0.4l0.2,0.4l0.4,0.2l0.4-0.2L47.4,40.5z M46,41l0.3-0.2 M47,41
		l0.1,0.3 M46.3,39.2l0.1,0.9 M45.7,40.8l0.5-0.3 M46.7,41l0.1,0.4"/>
	<polygon class="st2" points="47,40.5 47,40.4 46.8,40.3 46.6,40.4 46.6,40.7 46.8,40.8 47,40.7 	"/>
	<polygon class="st1" points="47,40.5 47,40.4 46.8,40.3 46.6,40.4 46.6,40.7 46.8,40.8 47,40.7 	"/>
	<line class="st1" x1="47.7" y1="43.6" x2="47.8" y2="43.9"/>
	<polygon class="st2" points="47.5,43.2 47.6,43.2 47.6,42.5 47.5,42.4 47.5,42.3 47.4,42.1 47.3,42.1 47.3,42 47.2,41.9 47,41.9 
		47,42.5 47.1,42.7 47.1,42.8 47.2,42.9 47.2,43 47.3,43.1 47.4,43.2 	"/>
	<polygon class="st1" points="47.5,43.2 47.6,43.2 47.6,42.5 47.5,42.4 47.5,42.3 47.4,42.1 47.3,42.1 47.3,42 47.2,41.9 47,41.9 
		47,42.5 47.1,42.7 47.1,42.8 47.2,42.9 47.2,43 47.3,43.1 47.4,43.2 	"/>
	<path class="st1" d="M39.1,35.9l0.1,0.4 M39.5,35.8v0.5 M39.8,36.5l0.6-0.3 M39.7,37.2l0.5,0.3 M39.9,37l0.5,0.2 M39.5,36.3
		l0.7-0.3l0.1,0.1l0.1,0.1l0.1,0.1H41l0.2-0.1h0.3l0.2-0.1l0.2-0.2l0.1-0.1l0.2-0.2l0.1-0.1v-0.2l0.1-0.1V35l-0.1-0.1l-0.1-0.1h-0.1
		l-0.2-0.1h-0.6l-0.4,0.2L40.7,35l-0.2,0.2l-0.2,0.1l-0.1,0.2l-0.1,0.1V36 M39.2,35.9h0.2l0.1-0.1l0.1-0.1l0.1-0.2l0.1-0.1l0.1-0.2
		V35l0.1-0.3v-0.2l-0.1-0.2v-0.2l-0.1-0.2l-0.1-0.2l-0.1-0.1l-0.1-0.1l-0.1-0.1h-0.1l-0.2,0.1H39l-0.1,0.2l-0.1,0.1L38.7,34
		l-0.1,0.2v0.9l0.1,0.2l0.1,0.2l0.1,0.2l0.1,0.1L39.2,35.9L39.2,35.9z M42.2,31.2l0.9,0.5 M42.4,35.1l0.8-0.4 M42.2,34.9l0.8-0.4
		 M42.4,38.2l1,0.5 M42.3,38.5l1,0.4 M42.4,30.9l0.9,0.5 M47.7,43.7l0.2-0.2l0.1-0.1v-0.8l-0.1-0.3v-0.2l-0.1-0.2l-0.2-0.2l-0.2-0.2
		l-0.2-0.1l-0.1-0.1h-0.2l-0.1,0.1l-0.2,0.2v0.1l-0.1,0.2v0.4l0.1,0.3v0.2l0.1,0.2l0.1,0.2l0.2,0.2l0.1,0.1l0.2,0.1l0.1,0.1H47.7z
		 M47.4,43.7l0.2,0.4"/>
	<polygon class="st2" points="39.3,35.4 39.4,35.4 39.4,35.2 39.5,35.1 39.5,34.1 39.4,34.1 39.4,34 39.2,34 39.2,34.1 39.1,34.1 
		39.1,34.3 39,34.5 39,35 39.1,35.1 39.1,35.3 39.2,35.3 39.2,35.4 	"/>
	<polygon class="st1" points="39.3,35.4 39.4,35.4 39.4,35.2 39.5,35.1 39.5,34.1 39.4,34.1 39.4,34 39.2,34 39.2,34.1 39.1,34.1 
		39.1,34.3 39,34.5 39,35 39.1,35.1 39.1,35.3 39.2,35.3 39.2,35.4 	"/>
	<line class="st1" x1="39.6" y1="37.3" x2="39.7" y2="38.1"/>
	<polygon class="st2" points="39.6,36.9 39.5,36.7 39.3,36.6 39.2,36.7 39.1,36.9 39.2,37 39.3,37 39.5,37 	"/>
	<polygon class="st1" points="39.6,36.9 39.5,36.7 39.3,36.6 39.2,36.7 39.1,36.9 39.2,37 39.3,37 39.5,37 	"/>
	<path class="st1" d="M39.9,36.9l-0.2-0.4l-0.4-0.2l-0.4,0.2l-0.2,0.4l0.2,0.4l0.4,0.1l0.4-0.1L39.9,36.9z M39.2,37.3l0.1,0.9"/>
	<polygon class="st2" points="40.5,35.8 40.6,35.9 41,35.9 41.1,35.8 41.3,35.8 41.4,35.7 41.5,35.7 41.7,35.5 41.8,35.4 41.8,35.2 
		41.3,35.2 41.2,35.3 41,35.3 40.9,35.4 40.8,35.5 40.7,35.5 40.6,35.6 40.6,35.7 40.5,35.7 	"/>
	<polygon class="st1" points="40.5,35.8 40.6,35.9 41,35.9 41.1,35.8 41.3,35.8 41.4,35.7 41.5,35.7 41.7,35.5 41.8,35.4 41.8,35.2 
		41.3,35.2 41.2,35.3 41,35.3 40.9,35.4 40.8,35.5 40.7,35.5 40.6,35.6 40.6,35.7 40.5,35.7 	"/>
	<polygon class="st1" points="40.3,37.4 40.3,37.3 40.4,37.2 40.5,37.1 41.3,37.1 41.5,37.2 41.7,37.3 41.9,37.4 42.1,37.5 
		42.2,37.7 42.3,37.8 42.4,38 42.4,38.4 42.3,38.5 42.2,38.6 41.4,38.6 41.2,38.5 41,38.5 40.8,38.4 40.6,38.2 40.4,38.1 40.4,37.9 
		40.3,37.8 40.2,37.6 40.2,37.5 	"/>
	<polygon class="st2" points="40.6,37.5 41.2,37.5 41.3,37.6 41.4,37.6 41.6,37.7 41.7,37.7 41.7,37.8 41.9,38 41.9,38.1 41.8,38.1 
		41.8,38.2 41.5,38.2 41.4,38.1 41.2,38.1 41.1,38 41,38 40.9,37.9 40.8,37.9 40.7,37.8 40.6,37.7 	"/>
	<polygon class="st1" points="40.6,37.5 41.2,37.5 41.3,37.6 41.4,37.6 41.6,37.7 41.7,37.7 41.7,37.8 41.9,38 41.9,38.1 41.8,38.1 
		41.8,38.2 41.5,38.2 41.4,38.1 41.2,38.1 41.1,38 41,38 40.9,37.9 40.8,37.9 40.7,37.8 40.6,37.7 	"/>
	<path class="st1" d="M40.3,29.5l-0.2-0.4l-0.4-0.2l-0.4,0.2l-0.1,0.4l0.1,0.4l0.4,0.2l0.4-0.2L40.3,29.5z M40,30l0.2,0.1 M39.9,29
		l0.7-0.3"/>
	<polygon class="st2" points="40,29.5 39.9,29.4 39.7,29.3 39.6,29.4 39.5,29.5 39.6,29.7 39.7,29.7 39.9,29.7 	"/>
	<polygon class="st1" points="40,29.5 39.9,29.4 39.7,29.3 39.6,29.4 39.5,29.5 39.6,29.7 39.7,29.7 39.9,29.7 	"/>
	<path class="st1" d="M39.1,32.9v0.7 M39.5,32.9v0.7 M39.4,29.9l-0.1,0.6 M39.8,30l-0.1,0.6 M39.7,28.4L39.6,29 M40,28.5V29"/>
	<polygon class="st2" points="39.3,32.5 39.4,32.5 39.5,32.4 39.5,32.3 39.6,32.2 39.6,31.3 39.5,31.2 39.5,31.1 39.4,31.1 
		39.3,31.2 39.2,31.3 39.2,31.6 39.1,31.7 39.1,32.2 39.2,32.3 39.2,32.4 	"/>
	<polygon class="st1" points="39.3,32.5 39.4,32.5 39.5,32.4 39.5,32.3 39.6,32.2 39.6,31.3 39.5,31.2 39.5,31.1 39.4,31.1 
		39.3,31.2 39.2,31.3 39.2,31.6 39.1,31.7 39.1,32.2 39.2,32.3 39.2,32.4 	"/>
	<path class="st1" d="M40.2,29.2l0.6-0.3 M39.3,33L39.3,33l0.2-0.1l0.2-0.1l0.1-0.1l0.1-0.2l0.1-0.2v-0.2l0.1-0.2v-0.5L40,31.2V31
		l-0.1-0.2l-0.2-0.2l-0.2-0.1h-0.1l-0.1,0.1h-0.2L39,30.8l-0.1,0.1l-0.1,0.2v0.2l-0.1,0.2v0.7l0.1,0.2v0.2l0.1,0.1l0.1,0.2h0.1
		L39.3,33z"/>
	<polygon class="st2" points="40.6,30.1 40.6,30 40.9,30 41.1,30.1 41.3,30.1 41.6,30.4 41.7,30.4 41.8,30.5 41.8,30.6 41.9,30.7 
		41.8,30.7 41.8,30.8 41.4,30.8 41.3,30.7 41.2,30.7 41.1,30.6 40.9,30.6 40.8,30.5 40.8,30.4 40.7,30.3 40.6,30.3 	"/>
	<polygon class="st1" points="40.6,30.1 40.6,30 40.9,30 41.1,30.1 41.3,30.1 41.6,30.4 41.7,30.4 41.8,30.5 41.8,30.6 41.9,30.7 
		41.8,30.7 41.8,30.8 41.4,30.8 41.3,30.7 41.2,30.7 41.1,30.6 40.9,30.6 40.8,30.5 40.8,30.4 40.7,30.3 40.6,30.3 	"/>
	<path class="st1" d="M46.2,36.7l0.2-0.1h0.1l0.1-0.2l0.1-0.1l0.1-0.2v-0.9L46.7,35v-0.2l-0.1-0.2l-0.1-0.1l-0.2-0.2h-0.1l-0.1-0.1
		H46l-0.2,0.1l-0.2,0.2l-0.1,0.2v0.2l-0.1,0.2v0.5l0.1,0.2V36l0.1,0.2l0.1,0.2l0.1,0.1l0.2,0.1L46.2,36.7L46.2,36.7z M43.1,34.5
		l0.1,0.2h0.1l0.1,0.1h0.8l0.4-0.2l0.2-0.2l0.2-0.1l0.1-0.1l0.1-0.2l0.1-0.2v-0.4l-0.1-0.1h-0.2l-0.1-0.1h-0.4l-0.2,0.1H44l-0.3,0.1
		l-0.2,0.1l-0.1,0.2l-0.2,0.1L43.2,34l-0.1,0.1L43,34.3L43.1,34.5L43.1,34.5z M45.9,33.6v0.7 M46.3,33.7v0.6 M46.7,33.2l-0.1-0.4
		l-0.5-0.2l-0.4,0.2l-0.1,0.4l0.1,0.4l0.4,0.2l0.5-0.2L46.7,33.2z M40.3,29.9L40.3,29.9l0.1-0.2l0.2-0.1h0.6l0.2,0.1l0.2,0.1
		l0.2,0.1l0.2,0.1l0.2,0.2l0.1,0.1l0.1,0.2l0.1,0.1v0.3l-0.2,0.2l-0.1,0.1h-0.2l-0.2,0.1l-0.2-0.1h-0.2l-0.6-0.3l-0.2-0.1l-0.1-0.2
		l-0.2-0.1v-0.2l-0.1-0.1L40.3,29.9L40.3,29.9z M40.2,29.7L40.2,29.7"/>
	<polygon class="st2" points="43.5,34.4 44,34.4 44.1,34.3 44.2,34.3 44.4,34.2 44.5,34.1 44.5,34 44.6,34 44.7,33.9 44.7,33.7 
		44.1,33.7 44,33.8 44,33.8 43.8,34 43.7,34 43.6,34.1 43.5,34.2 	"/>
	<polygon class="st1" points="43.5,34.4 44,34.4 44.1,34.3 44.2,34.3 44.4,34.2 44.5,34.1 44.5,34 44.6,34 44.7,33.9 44.7,33.7 
		44.1,33.7 44,33.8 44,33.8 43.8,34 43.7,34 43.6,34.1 43.5,34.2 	"/>
	<polygon class="st2" points="46.2,36.2 46.3,36.2 46.3,36.1 46.4,36 46.4,35.2 46.3,35.1 46.3,34.9 46.2,34.9 46.2,34.8 46,34.8 
		46,34.9 45.9,35 45.9,35.8 46,35.9 46,36 46.1,36.1 46.1,36.2 	"/>
	<polygon class="st1" points="46.2,36.2 46.3,36.2 46.3,36.1 46.4,36 46.4,35.2 46.3,35.1 46.3,34.9 46.2,34.9 46.2,34.8 46,34.8 
		46,34.9 45.9,35 45.9,35.8 46,35.9 46,36 46.1,36.1 46.1,36.2 	"/>
	<path class="st1" d="M46,36.6V37 M46.4,36.6v0.3"/>
	<polygon class="st2" points="46.5,38.8 46.5,38.7 46.6,38.7 46.6,38.5 46.7,38.4 46.7,38.1 46.6,38 46.6,37.7 46.5,37.6 46.5,37.5 
		46.4,37.4 46.3,37.4 46.2,37.5 46.2,37.7 46.1,37.8 46.1,38.2 46.2,38.3 46.2,38.5 46.3,38.6 46.3,38.7 46.4,38.8 	"/>
	<polygon class="st1" points="46.5,38.8 46.5,38.7 46.6,38.7 46.6,38.5 46.7,38.4 46.7,38.1 46.6,38 46.6,37.7 46.5,37.6 46.5,37.5 
		46.4,37.4 46.3,37.4 46.2,37.5 46.2,37.7 46.1,37.8 46.1,38.2 46.2,38.3 46.2,38.5 46.3,38.6 46.3,38.7 46.4,38.8 	"/>
	<path class="st1" d="M43.2,31.5l0.2-0.2h0.9l0.2,0.1l0.2,0.1l0.2,0.2l0.2,0.1l0.1,0.2l0.1,0.1l0.1,0.2v0.3l-0.1,0.1v0.1H45
		l-0.1,0.1h-0.4l-0.2-0.1H44l-0.4-0.2l-0.2-0.2l-0.1-0.1l-0.1-0.2L43.2,32l-0.1-0.2v-0.1L43.2,31.5z M45.2,32.8l0.4,0.2 M45.3,32.5
		l0.5,0.3 M45.1,33.4l0.5-0.2 M45.2,33.7l0.5-0.3"/>
	<polygon class="st2" points="43.6,31.7 44.1,31.7 44.2,31.8 44.3,31.9 44.5,31.9 44.6,32 44.6,32.1 44.7,32.1 44.8,32.2 44.8,32.4 
		44.2,32.4 44.1,32.3 44,32.3 43.9,32.1 43.8,32.1 43.6,31.9 	"/>
	<polygon class="st1" points="43.6,31.7 44.1,31.7 44.2,31.8 44.3,31.9 44.5,31.9 44.6,32 44.6,32.1 44.7,32.1 44.8,32.2 44.8,32.4 
		44.2,32.4 44.1,32.3 44,32.3 43.9,32.1 43.8,32.1 43.6,31.9 	"/>
	<path class="st1" d="M46,32l-0.1,0.7 M46.4,32.1l-0.1,0.6 M46.3,29.4l-0.1,0.3 M46.6,29.4v0.4"/>
	<polygon class="st2" points="46.4,33.2 46.3,33 46,33 45.9,33.2 46,33.4 46.3,33.4 	"/>
	<polygon class="st1" points="46.4,33.2 46.3,33 46,33 45.9,33.2 46,33.4 46.3,33.4 	"/>
	<polygon class="st1" points="46.2,32.1 46.4,32.1 46.5,32 46.6,31.9 46.7,31.7 46.8,31.6 46.9,31.4 46.9,31.2 47,30.9 47,30.5 
		46.7,29.9 46.5,29.7 46.4,29.7 46.3,29.7 46.1,29.7 46,29.7 45.9,29.9 45.8,30 45.7,30.2 45.6,30.4 45.6,31.3 45.7,31.5 45.8,31.7 
		45.9,31.9 46,32 46.1,32 	"/>
	<polygon class="st2" points="46.3,31.6 46.4,31.6 46.4,31.5 46.5,31.4 46.5,31.1 46.6,30.9 46.6,30.7 46.5,30.6 46.5,30.4 
		46.4,30.3 46.4,30.2 46.2,30.2 46.2,30.3 46.1,30.4 46.1,30.7 46,30.8 46,31.2 46.1,31.3 46.1,31.5 46.2,31.5 46.2,31.6 	"/>
	<polygon class="st1" points="46.3,31.6 46.4,31.6 46.4,31.5 46.5,31.4 46.5,31.1 46.6,30.9 46.6,30.7 46.5,30.6 46.5,30.4 
		46.4,30.3 46.4,30.2 46.2,30.2 46.2,30.3 46.1,30.4 46.1,30.7 46,30.8 46,31.2 46.1,31.3 46.1,31.5 46.2,31.5 46.2,31.6 	"/>
	<polygon class="st2" points="57.4,39.7 57.5,39.7 57.5,39.6 57.6,39.5 57.6,39.4 57.7,39.4 57.7,38.6 57.6,38.6 57.4,38.8 
		57.4,38.9 57.3,39 57.3,39.7 	"/>
	<polygon class="st1" points="57.4,39.7 57.5,39.7 57.5,39.6 57.6,39.5 57.6,39.4 57.7,39.4 57.7,38.6 57.6,38.6 57.4,38.8 
		57.4,38.9 57.3,39 57.3,39.7 	"/>
	<polygon class="st1" points="57.3,40.1 57.5,40.1 57.6,40 57.7,39.9 57.8,39.8 57.9,39.7 58,39.5 58,39.3 58.1,39.1 58.1,38.6 
		58,38.5 58,38.4 57.9,38.3 57.8,38.2 57.5,38.2 57.4,38.3 57.3,38.4 57.2,38.5 57.1,38.7 57,38.9 57,39 56.9,39.2 56.9,39.6 
		57,39.7 57,39.9 57.1,40 57.2,40 	"/>
	<polygon class="st2" points="50.5,39.5 50.4,39.4 50.3,39.3 50.3,39.2 50.2,39.1 50.2,38.4 50.4,38.4 50.5,38.5 50.5,38.6 
		50.6,38.7 50.6,39.4 	"/>
	<polygon class="st1" points="50.5,39.5 50.4,39.4 50.3,39.3 50.3,39.2 50.2,39.1 50.2,38.4 50.4,38.4 50.5,38.5 50.5,38.6 
		50.6,38.7 50.6,39.4 	"/>
	<path class="st1" d="M49.5,46.6l-0.2-0.4L48.9,46l-0.4,0.2l-0.2,0.4l0.2,0.4l0.4,0.2l0.4-0.2L49.5,46.6z M51,48.6L51,48.6l0.1-0.2
		v-0.3L51,48.1l-0.1-0.2l-0.1-0.1l-0.1-0.2l-0.1-0.1l-0.2-0.1l-0.1-0.1h-0.2L50,47.2h-0.3l-0.2,0.2v0.5l0.1,0.1l0.1,0.2l0.1,0.1
		l0.1,0.1l0.2,0.2h0.1l0.2,0.1l0.1,0.1h0.3L51,48.6L51,48.6z M50.8,48.7l0.7,0.4 M51.2,41.4l-1.9,4.8 M51,40.9l-2,5.1 M53.2,42.8
		l0.8,0.1l0.8-0.2 M53.2,43.2l0.9,0.1L55,43 M50.6,39.8h-0.2l-0.1-0.1l-0.1-0.1l-0.1-0.1L50,39.4l-0.1-0.2V39l-0.1-0.2v-0.1l0.1-0.2
		v-0.3l0.1-0.1l0.1-0.1l0.1-0.1h0.2l0.1,0.1l0.1,0.1l0.1,0.1l0.1,0.1l0.1,0.2v0.1l0.1,0.2v0.6l-0.1,0.1v0.1l-0.1,0.1L50.6,39.8
		L50.6,39.8z"/>
	<polygon class="st2" points="49.1,46.6 49,46.4 48.7,46.4 48.7,46.8 49,46.8 	"/>
	<polygon class="st1" points="49.1,46.6 49,46.4 48.7,46.4 48.7,46.8 49,46.8 	"/>
	<path class="st1" d="M48.8,45.9L48.8,45.9 M49.4,46.8l0.3,0.4"/>
	<polygon class="st2" points="50.7,48.3 50.7,48.1 50.6,48.1 50.6,48 50.5,47.9 50.4,47.8 50.3,47.8 50.1,47.6 49.9,47.6 49.9,47.9 
		50,48 50.1,48.1 50.3,48.2 50.4,48.2 50.4,48.3 	"/>
	<polygon class="st1" points="50.7,48.3 50.7,48.1 50.6,48.1 50.6,48 50.5,47.9 50.4,47.8 50.3,47.8 50.1,47.6 49.9,47.6 49.9,47.9 
		50,48 50.1,48.1 50.3,48.2 50.4,48.2 50.4,48.3 	"/>
	<path class="st1" d="M50.8,39.7l0.6,1.3l0.6,1 M50.4,39.8L51,41l0.7,1.1 M51.1,48.4l0.6,0.3 M49.2,47.1l0.3,0.4"/>
	<polygon class="st2" points="52.8,43 52.9,43 52.9,42.9 52.8,42.8 52.7,42.7 52.7,42.6 52.6,42.5 52.5,42.5 52.4,42.4 52.3,42.3 
		52,42.3 52,42.5 52.1,42.6 52.2,42.7 52.2,42.8 52.3,42.8 52.4,42.9 52.5,43 52.6,43 52.7,43.1 52.8,43.1 	"/>
	<polygon class="st1" points="52.8,43 52.9,43 52.9,42.9 52.8,42.8 52.7,42.7 52.7,42.6 52.6,42.5 52.5,42.5 52.4,42.4 52.3,42.3 
		52,42.3 52,42.5 52.1,42.6 52.2,42.7 52.2,42.8 52.3,42.8 52.4,42.9 52.5,43 52.6,43 52.7,43.1 52.8,43.1 	"/>
	<path class="st1" d="M55.9,41.5l0.6-0.8l0.5-1 M56.3,41.7l0.5-0.8l0.5-0.9 M58,46.3l0.9-1.5 M56.1,48.4l0.7-0.7 M55.7,48.2l0.9-0.8
		 M57,40.7l1.6,4.1 M56.8,41l1.5,3.9 M54.2,43.3V49 M53.8,43.3v5.8 M57.6,46.2l1-1.6 M53.1,43.3L53.1,43.3l0.1-0.5l-0.1-0.1L53,42.5
		l-0.1-0.1l-0.1-0.1l-0.2-0.2L52.5,42h-0.2l-0.1-0.1h-0.4L51.7,42h-0.1v0.5l0.1,0.2l0.1,0.1l0.1,0.2l0.2,0.1l0.1,0.1l0.2,0.1
		l0.1,0.1L53.1,43.3L53.1,43.3z"/>
	<polygon class="st2" points="55.1,42.7 55.4,42.7 55.5,42.6 55.6,42.5 55.7,42.4 55.8,42.4 55.8,42.3 55.9,42.2 55.9,42.1 56,42.1 
		56,42 55.9,42 55.9,41.9 55.8,41.9 55.7,42 55.6,42 55.5,42.1 55.4,42.1 55.4,42.2 55.3,42.3 55.2,42.3 55.2,42.4 55.1,42.5 	"/>
	<polygon class="st1" points="55.1,42.7 55.4,42.7 55.5,42.6 55.6,42.5 55.7,42.4 55.8,42.4 55.8,42.3 55.9,42.2 55.9,42.1 56,42.1 
		56,42 55.9,42 55.9,41.9 55.8,41.9 55.7,42 55.6,42 55.5,42.1 55.4,42.1 55.4,42.2 55.3,42.3 55.2,42.3 55.2,42.4 55.1,42.5 	"/>
	<path class="st1" d="M49.6,32.1l-0.1,1.2v1.1 M50,32.2l-0.1,2 M54.9,42.9L54.9,42.9L55,43l0.1,0.1l0.2-0.1h0.1l0.2-0.1h0.1l0.2-0.2
		l0.1-0.1l0.1-0.1l0.1-0.2l0.1-0.1V42l0.1-0.1l-0.1-0.1v-0.1l-0.1-0.1h-0.1L56,41.5h-0.1l-0.2,0.1h-0.1l-0.2,0.1l-0.1,0.1l-0.2,0.1
		L55,42L55,42.2l-0.1,0.1v0.2l-0.1,0.1L54.9,42.9L54.9,42.9z"/>
	<polygon class="st2" points="49.7,35.8 49.7,35.7 49.6,35.7 49.6,35.4 49.5,35.3 49.5,35 49.6,34.9 49.6,34.7 49.7,34.7 49.7,34.6 
		49.8,34.6 49.8,34.7 49.9,34.8 49.9,35.1 50,35.2 49.9,35.3 49.9,35.7 49.8,35.7 49.8,35.8 	"/>
	<polygon class="st1" points="49.7,35.8 49.7,35.7 49.6,35.7 49.6,35.4 49.5,35.3 49.5,35 49.6,34.9 49.6,34.7 49.7,34.7 49.7,34.6 
		49.8,34.6 49.8,34.7 49.9,34.8 49.9,35.1 50,35.2 49.9,35.3 49.9,35.7 49.8,35.7 49.8,35.8 	"/>
	<path class="st1" d="M49.7,32.2L49.7,32.2l-0.2-0.1V32l-0.1-0.1l-0.1-0.1V31l0.1-0.1v-0.2l0.1-0.1l0.1-0.2l0.1-0.1h0.4l0.1,0.1
		l0.1,0.1l0.1,0.2v0.8l-0.1,0.2l-0.1,0.2L50.1,32v0.1l-0.2,0.1H49.7z M50,36.1l0.3,1.8 M49.6,36.1l0.2,1.1l0.2,1 M49.8,36.1h-0.2
		L49.5,36l-0.1-0.1l-0.1-0.2v-0.1l-0.1-0.2v-0.6l0.1-0.1v-0.2l0.1-0.1l0.1-0.1l0.1-0.1h0.3l0.1,0.1l0.1,0.1l0.1,0.1v0.2l0.1,0.1v0.8
		l-0.1,0.1l-0.1,0.2V36L50,36.1H49.8z"/>
	<polygon class="st2" points="49.8,31.8 49.7,31.8 49.7,31.7 49.6,31.6 49.6,31.3 49.7,31.2 49.7,30.9 49.8,30.8 49.9,30.7 50,30.8 
		50,30.9 50.1,31 50.1,31.2 50,31.3 50,31.6 49.9,31.7 49.9,31.8 	"/>
	<polygon class="st1" points="49.8,31.8 49.7,31.8 49.7,31.7 49.6,31.6 49.6,31.3 49.7,31.2 49.7,30.9 49.8,30.8 49.9,30.7 50,30.8 
		50,30.9 50.1,31 50.1,31.2 50,31.3 50,31.6 49.9,31.7 49.9,31.8 	"/>
	<path class="st1" d="M58.2,34.5l0.1-1.8 M58.6,34.6l0.1-1v-1"/>
	<polygon class="st2" points="58.2,36 58.3,36 58.4,35.9 58.4,35.6 58.5,35.5 58.5,35.2 58.4,35.1 58.4,34.9 58.2,34.9 58.2,35 
		58.1,35.1 58.1,35.4 58,35.5 58,35.7 58.1,35.8 58.1,36 	"/>
	<polygon class="st1" points="58.2,36 58.3,36 58.4,35.9 58.4,35.6 58.5,35.5 58.5,35.2 58.4,35.1 58.4,34.9 58.2,34.9 58.2,35 
		58.1,35.1 58.1,35.4 58,35.5 58,35.7 58.1,35.8 58.1,36 	"/>
	<path class="st1" d="M58.2,30.8l-0.3-2 M57.6,38.2l0.4-1.9 M57.9,38.3l0.3-1l0.2-1.1 M58.2,36.4h0.2l0.1-0.1l0.1-0.1V36l0.1-0.1
		l0.1-0.2V35l-0.1-0.2v-0.1l-0.1-0.1l-0.1-0.1h-0.1l-0.1-0.1l-0.1,0.1h-0.1L58,34.6l-0.1,0.2l-0.1,0.1v0.2l-0.1,0.1v0.6l0.1,0.2v0.1
		l0.1,0.1l0.1,0.1L58.2,36.4L58.2,36.4z"/>
	<polygon class="st2" points="58.5,32.3 58.6,32.3 58.6,32.1 58.6,32 58.6,31.7 58.6,31.6 58.6,31.3 58.5,31.3 58.5,31.2 58.4,31.2 
		58.4,31.3 58.3,31.3 58.3,31.6 58.2,31.7 58.3,31.8 58.3,32.2 58.4,32.3 	"/>
	<polygon class="st1" points="58.5,32.3 58.6,32.3 58.6,32.1 58.6,32 58.6,31.7 58.6,31.6 58.6,31.3 58.5,31.3 58.5,31.2 58.4,31.2 
		58.4,31.3 58.3,31.3 58.3,31.6 58.2,31.7 58.3,31.8 58.3,32.2 58.4,32.3 	"/>
	<path class="st1" d="M58.6,30.8l-0.1-1.1l-0.2-1.2 M58.5,32.7L58.5,32.7l0.2-0.1h0.1l0.1-0.2v-0.1l0.1-0.2v-0.5l-0.1-0.2v-0.2
		l-0.1-0.1L58.6,31l-0.1-0.1l-0.1-0.1h-0.3l-0.1,0.1V31L58,31.1l-0.1,0.2V32l0.1,0.2v0.1l0.1,0.2l0.1,0.1l0.1,0.1H58.5z"/>
	<polygon class="st2" points="48.5,19.8 48.5,19.6 48.4,19.5 48.3,19.4 48.3,19.3 48.2,19.3 48.1,19.2 47.9,19.2 47.9,19.1 
		47.8,19.1 47.8,19.2 47.7,19.2 47.8,19.3 47.8,19.4 47.9,19.4 47.9,19.5 48,19.6 48.1,19.6 48.1,19.7 48.3,19.7 48.3,19.8 	"/>
	<polygon class="st1" points="48.5,19.8 48.5,19.6 48.4,19.5 48.3,19.4 48.3,19.3 48.2,19.3 48.1,19.2 47.9,19.2 47.9,19.1 
		47.8,19.1 47.8,19.2 47.7,19.2 47.8,19.3 47.8,19.4 47.9,19.4 47.9,19.5 48,19.6 48.1,19.6 48.1,19.7 48.3,19.7 48.3,19.8 	"/>
	<path class="st1" d="M48,20.7l0.8-0.2 M52.4,17.5h-2.9l-2.9,0.3 M54.6,17.3l-4.2-0.2l-4.1,0.4"/>
	<polygon class="st2" points="48.2,22.8 48.3,22.8 48.4,22.7 48.5,22.6 48.6,22.6 48.6,22.5 48.7,22.4 48.7,22.3 48.8,22.2 
		48.8,22.1 48.9,22 48.9,21.7 48.8,21.6 48.6,21.6 48.5,21.7 48.4,21.8 48.4,21.9 48.3,22 48.3,22.1 48.2,22.3 	"/>
	<polygon class="st1" points="48.2,22.8 48.3,22.8 48.4,22.7 48.5,22.6 48.6,22.6 48.6,22.5 48.7,22.4 48.7,22.3 48.8,22.2 
		48.8,22.1 48.9,22 48.9,21.7 48.8,21.6 48.6,21.6 48.5,21.7 48.4,21.8 48.4,21.9 48.3,22 48.3,22.1 48.2,22.3 	"/>
	<path class="st1" d="M41.7,22.9L41.7,22.9l0.2-0.2l0.2-0.1h0.4l0.2,0.1l0.2,0.1l0.2,0.1l0.4,0.2l0.1,0.2l0.2,0.1v0.2l0.1,0.2V24
		l-0.1,0.2h-0.1l-0.1,0.1h-0.8l-0.4-0.2l-0.2-0.2L42,23.8l-0.1-0.2l-0.1-0.1l-0.1-0.2V22.9z M48.8,20v-0.4l-0.1-0.2l-0.1-0.1
		l-0.2-0.2L48.3,19l-0.1-0.1H48l-0.1-0.1h-0.2l-0.1,0.1h-0.1L47.5,19v0.3l0.1,0.1v0.1l0.2,0.2l0.2,0.1l0.1,0.1l0.1,0.1h0.2l0.1,0.1
		h0.2L48.8,20L48.8,20z M47.9,20.4l0.9-0.2 M47.2,25.6h0.2l0.2-0.1h0.1l0.2-0.2l0.1-0.1L48,25l0.1-0.2l0.1-0.3l0.1-0.2v-0.4
		l-0.1-0.2v-0.2l-0.1-0.1L48,23.3h-0.4l-0.2,0.1l-0.1,0.1l-0.1,0.2l-0.2,0.1L47,24l-0.1,0.3v0.2l-0.1,0.2v0.4l0.1,0.2v0.1l0.1,0.1
		L47.2,25.6z M48.1,23.2h0.4l0.1-0.1l0.2-0.2l0.1-0.1l0.1-0.2l0.1-0.2l0.1-0.2l0.1-0.3v-0.6l-0.1-0.1v-0.2h-0.1L48.9,21h-0.2
		l-0.2,0.1l-0.1,0.1l-0.3,0.3l-0.2,0.4l-0.1,0.3l-0.1,0.2v0.4l0.1,0.2V23l0.1,0.1L48.1,23.2z"/>
	<polygon class="st2" points="42.2,23.1 42.2,23 42.4,23 42.5,23.1 42.7,23.1 42.9,23.2 43,23.3 43.1,23.3 43.2,23.4 43.3,23.5 
		43.3,23.6 43.4,23.7 43.4,23.8 43.3,23.8 43.2,23.9 43.1,23.8 42.8,23.8 42.7,23.7 42.6,23.7 42.5,23.6 42.4,23.5 42.2,23.3 
		42.1,23.2 42.1,23.1 	"/>
	<polygon class="st1" points="42.2,23.1 42.2,23 42.4,23 42.5,23.1 42.7,23.1 42.9,23.2 43,23.3 43.1,23.3 43.2,23.4 43.3,23.5 
		43.3,23.6 43.4,23.7 43.4,23.8 43.3,23.8 43.2,23.9 43.1,23.8 42.8,23.8 42.7,23.7 42.6,23.7 42.5,23.6 42.4,23.5 42.2,23.3 
		42.1,23.2 42.1,23.1 	"/>
	<path class="st1" d="M42.4,21L42.4,21l-0.1-0.2l-0.1-0.1v-0.1l0.1-0.2v-0.2l0.1-0.1l0.1-0.2l0.1-0.1l0.1-0.2l0.1-0.1l0.1-0.1
		l0.2-0.1h0.3l0.1,0.1l0.1,0.1v0.1l0.1,0.1l-0.1,0.2v0.3l-0.1,0.2l-0.1,0.1l-0.1,0.2l-0.2,0.1L43,20.9L42.9,21H42.4z M42.5,21.9
		l0.1,0.2v0.1l0.2,0.1h0.1l0.2,0.1h0.7l0.4-0.2l0.4-0.2l0.1-0.1l0.1-0.2l0.1-0.1v-0.3l-0.1-0.1l-0.1-0.1L44.4,21h-0.1l-0.2-0.1h-0.3
		L43.7,21h-0.2l-0.2,0.1l-0.2,0.1l-0.2,0.1l-0.2,0.1l-0.1,0.1l-0.1,0.2V21.9z M42.7,27.8l0.9-0.4 M42.8,28l1-0.4"/>
	<polygon class="st2" points="42.6,20.7 42.6,20.3 42.7,20.2 42.7,20.1 42.8,20 42.8,19.9 42.9,19.9 43,19.8 43.1,19.7 43.2,19.7 
		43.3,19.8 43.3,19.9 43.2,20 43.2,20.2 43.1,20.2 43.1,20.3 43,20.4 42.9,20.5 42.9,20.6 42.8,20.6 42.7,20.7 	"/>
	<polygon class="st1" points="42.6,20.7 42.6,20.3 42.7,20.2 42.7,20.1 42.8,20 42.8,19.9 42.9,19.9 43,19.8 43.1,19.7 43.2,19.7 
		43.3,19.8 43.3,19.9 43.2,20 43.2,20.2 43.1,20.2 43.1,20.3 43,20.4 42.9,20.5 42.9,20.6 42.8,20.6 42.7,20.7 	"/>
	<path class="st1" d="M41.8,22.7l-0.4,0.8 M41.4,22.5L41,23.4"/>
	<polygon class="st2" points="40,28.1 40.1,28 40.2,27.9 40.2,27.8 40.3,27.7 40.3,27.4 40.4,27.3 40.4,26.9 40.3,26.8 40.3,26.7 
		40.1,26.7 40,26.8 40,26.9 39.9,27 39.9,27.1 39.8,27.2 39.8,27.9 39.9,28 	"/>
	<polygon class="st1" points="40,28.1 40.1,28 40.2,27.9 40.2,27.8 40.3,27.7 40.3,27.4 40.4,27.3 40.4,26.9 40.3,26.8 40.3,26.7 
		40.1,26.7 40,26.8 40,26.9 39.9,27 39.9,27.1 39.8,27.2 39.8,27.9 39.9,28 	"/>
	<polygon class="st1" points="40.4,25.7 40.8,25.7 40.9,25.6 41,25.4 41.2,25.3 41.3,25.1 41.4,24.9 41.5,24.6 41.5,24.4 41.6,24.2 
		41.5,24 41.5,23.7 41.4,23.5 41.3,23.4 40.9,23.4 40.7,23.5 40.6,23.6 40.4,23.8 40.4,23.9 40.3,24.1 40.2,24.4 40.1,24.6 
		40.1,25.2 40.2,25.4 40.2,25.5 40.3,25.6 	"/>
	<polygon class="st2" points="40.5,25.3 40.6,25.3 40.7,25.2 40.8,25.1 40.9,25 40.9,24.9 41,24.7 41,24.6 41.1,24.5 41.1,24 41,24 
		41,23.9 40.9,24 40.8,24 40.7,24.1 40.7,24.2 40.6,24.3 40.6,24.4 40.5,24.5 40.5,24.7 40.4,24.8 40.4,25.2 40.5,25.2 	"/>
	<polygon class="st1" points="40.5,25.3 40.6,25.3 40.7,25.2 40.8,25.1 40.9,25 40.9,24.9 41,24.7 41,24.6 41.1,24.5 41.1,24 41,24 
		41,23.9 40.9,24 40.8,24 40.7,24.1 40.7,24.2 40.6,24.3 40.6,24.4 40.5,24.5 40.5,24.7 40.4,24.8 40.4,25.2 40.5,25.2 	"/>
	<path class="st1" d="M42.4,21.9L42.4,21.9 M42.4,22.2l0.2-0.1 M42.7,21l-0.4,0.8 M42.3,20.9l-0.4,0.7 M40.3,25.7l-0.1,0.5
		 M40.6,25.7l-0.2,0.7"/>
	<polygon class="st2" points="42.1,22.2 42,22 41.7,22 41.6,22.2 41.7,22.3 42,22.3 	"/>
	<polygon class="st1" points="42.1,22.2 42,22 41.7,22 41.6,22.2 41.7,22.3 42,22.3 	"/>
	<polygon class="st1" points="42.4,22.2 42.3,21.8 41.9,21.6 41.5,21.8 41.3,22.2 41.5,22.5 41.9,22.7 42.3,22.5 	"/>
	<polygon class="st2" points="44.5,24.6 44.6,24.5 44.8,24.5 44.9,24.6 45.1,24.6 45.2,24.7 45.3,24.8 45.4,24.8 45.5,24.9 45.6,25 
		45.7,25.1 45.7,25.3 45.6,25.4 45.5,25.4 45.4,25.3 45.2,25.3 45.1,25.2 45,25.1 44.8,25.1 44.7,25 44.7,24.9 44.6,24.8 44.5,24.8 
			"/>
	<polygon class="st1" points="44.5,24.6 44.6,24.5 44.8,24.5 44.9,24.6 45.1,24.6 45.2,24.7 45.3,24.8 45.4,24.8 45.5,24.9 45.6,25 
		45.7,25.1 45.7,25.3 45.6,25.4 45.5,25.4 45.4,25.3 45.2,25.3 45.1,25.2 45,25.1 44.8,25.1 44.7,25 44.7,24.9 44.6,24.8 44.5,24.8 
			"/>
	<path class="st1" d="M43.7,24.2l0.4,0.3 M43.9,24l0.4,0.2 M44.1,24.4L44.1,24.4l0.2-0.2l0.2-0.1h0.3l0.2,0.1h0.2l0.3,0.1l0.1,0.2
		l0.2,0.1l0.2,0.2l0.1,0.1l0.1,0.2l0.1,0.1v0.2l-0.1,0.1v0.1l-0.1,0.1l-0.2,0.1h-0.5l-0.2-0.1H45l-0.2-0.2l-0.2-0.1l-0.2-0.1
		l-0.1-0.2l-0.1-0.2l-0.1-0.1L44,24.6L44.1,24.4L44.1,24.4z M43.7,27.5L43.7,27.5l0.1,0.2H44l0.1,0.1h0.5l0.2-0.1h0.2l0.2-0.1
		l0.4-0.2l0.1-0.2l0.2-0.1v-0.2l0.1-0.1v-0.2l-0.2-0.2l-0.1-0.1h-0.2l-0.1-0.1h-0.2l-0.3,0.1h-0.2l-0.2,0.1L44,26.6l-0.2,0.1
		l-0.1,0.2L43.7,27l-0.1,0.2v0.1L43.7,27.5z"/>
	<polygon class="st2" points="44,27.3 44.1,27.4 44.5,27.4 44.6,27.3 44.8,27.3 45,27.2 45.1,27.1 45.2,27.1 45.2,27 45.3,26.9 
		45.3,26.7 44.8,26.7 44.7,26.8 44.5,26.8 44.4,26.9 44.3,26.9 44.2,27 44.1,27.1 44,27.2 	"/>
	<polygon class="st1" points="44,27.3 44.1,27.4 44.5,27.4 44.6,27.3 44.8,27.3 45,27.2 45.1,27.1 45.2,27.1 45.2,27 45.3,26.9 
		45.3,26.7 44.8,26.7 44.7,26.8 44.5,26.8 44.4,26.9 44.3,26.9 44.2,27 44.1,27.1 44,27.2 	"/>
	<polygon class="st2" points="47.3,25.2 47.4,25.2 47.4,25.1 47.5,25.1 47.6,25 47.7,24.9 47.7,24.8 47.7,24.6 47.8,24.5 47.8,23.9 
		47.7,23.8 47.7,23.9 47.6,23.9 47.6,24 47.4,24.2 47.4,24.3 47.3,24.4 47.3,24.7 47.2,24.8 47.2,25 47.3,25.1 	"/>
	<polygon class="st1" points="47.3,25.2 47.4,25.2 47.4,25.1 47.5,25.1 47.6,25 47.7,24.9 47.7,24.8 47.7,24.6 47.8,24.5 47.8,23.9 
		47.7,23.8 47.7,23.9 47.6,23.9 47.6,24 47.4,24.2 47.4,24.3 47.3,24.4 47.3,24.7 47.2,24.8 47.2,25 47.3,25.1 	"/>
	<path class="st1" d="M45.8,26.4l0.8-0.3 M47.7,26.1l-0.2-0.4l-0.4-0.2l-0.4,0.2l-0.1,0.4l0.1,0.4l0.4,0.2l0.4-0.2L47.7,26.1z
		 M46.1,25.7l0.5,0.3 M47.9,23l-0.1,0.3 M48.2,23.2l-0.1,0.2"/>
	<polygon class="st2" points="47.4,26.1 47.3,26 47,26 46.9,26.1 47,26.3 47.3,26.3 	"/>
	<polygon class="st1" points="47.4,26.1 47.3,26 47,26 46.9,26.1 47,26.3 47.3,26.3 	"/>
	<path class="st1" d="M44.7,21.3l1-0.3 M44.8,21.6l1-0.3 M46.3,17.5L46.3,17.5l-0.5,0.1l-0.5,0.3 M46.2,17.9l-0.7,0.3 M47.5,25.6
		L47.5,25.6 M46.3,25.5l0.4,0.3 M45.9,26.7l0.7-0.3 M46.8,26.6l-0.1,0.5 M47.2,26.7l-0.1,0.5"/>
	<polygon class="st2" points="44.1,18.8 44.1,18.6 44.2,18.6 44.2,18.5 44.3,18.5 44.4,18.5 44.5,18.4 44.5,18.3 44.6,18.3 
		44.7,18.2 45.1,18.2 45.1,18.3 45,18.4 45,18.5 44.9,18.5 44.9,18.5 44.8,18.6 44.7,18.6 44.6,18.7 44.5,18.7 44.4,18.8 	"/>
	<polygon class="st1" points="44.1,18.8 44.1,18.6 44.2,18.6 44.2,18.5 44.3,18.5 44.4,18.5 44.5,18.4 44.5,18.3 44.6,18.3 
		44.7,18.2 45.1,18.2 45.1,18.3 45,18.4 45,18.5 44.9,18.5 44.9,18.5 44.8,18.6 44.7,18.6 44.6,18.7 44.5,18.7 44.4,18.8 	"/>
	<path class="st1" d="M44.1,19.1l-0.5,0.6 M43.9,19v-0.5l0.1-0.1l0.1-0.1l0.1-0.2l0.2-0.1l0.1-0.1l0.2-0.1h0.2l0.1-0.1h0.3l0.1,0.1
		h0.1l0.1,0.1v0.4l-0.2,0.2l-0.1,0.2l-0.1,0.1l-0.2,0.1L44.8,19l-0.2,0.1h-0.2l-0.1,0.1h-0.2L44,19.1L43.9,19L43.9,19z M43.9,18.9
		l-0.4,0.4"/>
	<polygon class="st2" points="43,21.8 43,21.9 43.1,22 43.5,22 43.7,21.9 43.9,21.9 44,21.8 44,21.8 44.1,21.7 44.2,21.7 44.2,21.5 
		44.1,21.4 43.6,21.4 43.4,21.5 43.3,21.5 43.2,21.6 43.1,21.6 43,21.7 	"/>
	<polygon class="st1" points="43,21.8 43,21.9 43.1,22 43.5,22 43.7,21.9 43.9,21.9 44,21.8 44,21.8 44.1,21.7 44.2,21.7 44.2,21.5 
		44.1,21.4 43.6,21.4 43.4,21.5 43.3,21.5 43.2,21.6 43.1,21.6 43,21.7 	"/>
	<polygon class="st2" points="47.2,18.6 47.3,18.6 47.2,18.5 47.2,18.5 47.1,18.4 47,18.3 46.9,18.3 46.8,18.2 46.7,18.1 46.5,18.1 
		46.5,18.4 46.6,18.4 46.6,18.5 46.7,18.5 46.8,18.5 46.9,18.5 46.9,18.6 47.1,18.6 47.1,18.7 47.2,18.7 	"/>
	<polygon class="st1" points="47.2,18.6 47.3,18.6 47.2,18.5 47.2,18.5 47.1,18.4 47,18.3 46.9,18.3 46.8,18.2 46.7,18.1 46.5,18.1 
		46.5,18.4 46.6,18.4 46.6,18.5 46.7,18.5 46.8,18.5 46.9,18.5 46.9,18.6 47.1,18.6 47.1,18.7 47.2,18.7 	"/>
	<path class="st1" d="M45.7,21.2L45.7,21.2l0.1,0.2l0.2,0.1l0.1,0.1H47l0.2-0.1l0.2-0.1l0.2-0.1l0.2-0.1l0.1-0.1l0.1-0.1l0.1-0.2
		v-0.2l-0.1-0.2l-0.1-0.1h-0.2l-0.1-0.1h-0.9l-0.2,0.1l-0.3,0.1l-0.1,0.1l-0.2,0.1l-0.1,0.2l-0.1,0.1V21.2z M47.5,18.8L47.5,18.8
		v-0.2v-0.2l-0.1-0.1v-0.1l-0.1-0.1l-0.1-0.1L47,18l-0.1-0.1h-0.1l-0.2-0.1h-0.3l-0.1,0.1V18h-0.1v0.3l0.1,0.1l0.1,0.1v0.1l0.2,0.1
		l0.1,0.1l0.2,0.2H47l0.1,0.1h0.1l0.1-0.1L47.5,18.8L47.5,18.8z M47.5,19L47.5,19 M47.7,18.9l-0.2-0.2"/>
	<polygon class="st2" points="46.1,21.1 46.2,21.1 46.2,21.2 46.9,21.2 47,21.1 47.2,21.1 47.3,21 47.4,21 47.5,20.9 47.5,20.7 
		47.4,20.7 47.3,20.6 46.9,20.6 46.7,20.7 46.6,20.7 46.5,20.8 46.4,20.8 46.3,20.9 46.2,20.9 46.2,21 	"/>
	<polygon class="st1" points="46.1,21.1 46.2,21.1 46.2,21.2 46.9,21.2 47,21.1 47.2,21.1 47.3,21 47.4,21 47.5,20.9 47.5,20.7 
		47.4,20.7 47.3,20.6 46.9,20.6 46.7,20.7 46.6,20.7 46.5,20.8 46.4,20.8 46.3,20.9 46.2,20.9 46.2,21 	"/>
	<path class="st1" d="M51.3,25.7L49.5,21 M51.5,25.3l-1.8-4.5 M55.1,23.9l-0.8-0.2l-0.8,0.1 M55.2,23.5l-0.9-0.2l-0.9,0.2 M52,18
		L52,18l0.2,0.2l0.1,0.1h0.1l0.1,0.1h0.7l0.2-0.1l0.2-0.1l0.1-0.1l0.1-0.1l0.1-0.1l0.1-0.1v-0.2l-0.1-0.1l-0.1-0.1h-0.1l-0.1-0.1
		h-0.7l-0.2,0.1h-0.2l-0.1,0.1l-0.2,0.1l-0.1,0.1v0.1L52,18L52,18z"/>
	<polygon class="st2" points="50.7,27.8 50.6,27.8 50.6,27.3 50.7,27.2 50.7,27 50.8,26.9 50.8,26.8 50.9,26.8 50.9,26.7 51,26.7 
		51,26.8 51.1,26.8 51.1,27.3 51,27.4 51,27.6 50.9,27.6 50.9,27.7 50.8,27.8 	"/>
	<polygon class="st1" points="50.7,27.8 50.6,27.8 50.6,27.3 50.7,27.2 50.7,27 50.8,26.9 50.8,26.8 50.9,26.8 50.9,26.7 51,26.7 
		51,26.8 51.1,26.8 51.1,27.3 51,27.4 51,27.6 50.9,27.6 50.9,27.7 50.8,27.8 	"/>
	<path class="st1" d="M52,24.7L52,24.7l0.2,0.1l0.1,0.1h0.2l0.1-0.1h0.2l0.1-0.1l0.2-0.1l0.1-0.1l0.2-0.2l0.1-0.1l0.1-0.1v-0.5
		l-0.1-0.1l-0.1-0.1h-0.5l-0.2,0.1l-0.1,0.1l-0.2,0.1l-0.1,0.1L52.2,24l-0.1,0.1L52,24.3v0.1l-0.1,0.1L52,24.7L52,24.7z M50.6,28.2
		L50.6,28.2l-0.2-0.1V28l-0.1-0.2v-0.7l0.1-0.1l0.1-0.2v-0.2l0.2-0.2l0.2-0.1h0.3l0.1,0.1v0.1l0.1,0.1v0.1l0.1,0.2v0.2l-0.1,0.2v0.1
		l-0.2,0.4l-0.1,0.1L51,28l-0.1,0.1l-0.1,0.1H50.6z"/>
	<polygon class="st2" points="52.3,24.5 52.6,24.5 52.7,24.4 52.8,24.4 52.9,24.3 53,24.3 53,24.2 53.1,24.1 53.2,24.1 53.2,23.8 
		52.9,23.8 52.8,23.9 52.7,23.9 52.6,24 52.5,24.1 52.4,24.2 52.4,24.3 52.3,24.4 	"/>
	<polygon class="st1" points="52.3,24.5 52.6,24.5 52.7,24.4 52.8,24.4 52.9,24.3 53,24.3 53,24.2 53.1,24.1 53.2,24.1 53.2,23.8 
		52.9,23.8 52.8,23.9 52.7,23.9 52.6,24 52.5,24.1 52.4,24.2 52.4,24.3 52.3,24.4 	"/>
	<path class="st1" d="M52.3,24.9l-0.5,0.7l-0.5,1 M52,24.7l-0.6,0.8L51,26.3"/>
	<polygon class="st2" points="50.3,19.5 50.6,19.5 50.7,19.4 50.8,19.4 51,19.2 51.1,19.2 51.1,19.1 51.2,19 51.2,18.8 50.9,18.8 
		50.9,18.9 50.8,18.9 50.7,19 50.6,19 50.5,19.1 50.4,19.1 50.4,19.2 50.3,19.3 50.3,19.4 50.2,19.5 	"/>
	<polygon class="st1" points="50.3,19.5 50.6,19.5 50.7,19.4 50.8,19.4 51,19.2 51.1,19.2 51.1,19.1 51.2,19 51.2,18.8 50.9,18.8 
		50.9,18.9 50.8,18.9 50.7,19 50.6,19 50.5,19.1 50.4,19.1 50.4,19.2 50.3,19.3 50.3,19.4 50.2,19.5 	"/>
	<path class="st1" d="M49.9,20.4L49.8,20l-0.4-0.1L48.9,20l-0.1,0.4l0.1,0.5l0.5,0.1l0.4-0.1L49.9,20.4z M49.9,19.7L49.9,19.7
		l0.2,0.1l0.1,0.1h0.2l0.1-0.1h0.2l0.2-0.1l0.1-0.1l0.2-0.1l0.1-0.1l0.1-0.1l0.1-0.2l0.1-0.1v-0.4h-0.1v-0.1l-0.2-0.1h-0.2l-0.2,0.1
		h-0.2l-0.1,0.1l-0.2,0.1l-0.1,0.1L50.1,19L50,19.1v0.1l-0.1,0.2V19.7z"/>
	<polygon class="st2" points="49.6,20.4 49.5,20.3 49.4,20.2 49.2,20.3 49.1,20.4 49.2,20.6 49.4,20.7 49.5,20.6 	"/>
	<polygon class="st1" points="49.6,20.4 49.5,20.3 49.4,20.2 49.2,20.3 49.1,20.4 49.2,20.6 49.4,20.7 49.5,20.6 	"/>
	<path class="st1" d="M52,17.9l-0.9,0.6 M52.2,18.3l-0.7,0.4 M49.9,19.6l-0.3,0.3 M48.8,20.2l-0.2-0.1 M49,20l-0.2-0.1 M50.2,19.8
		l-0.3,0.4 M49,20.9L49,20.9 M49.3,21l-0.1,0.2"/>
	<polygon class="st2" points="52.4,18 52.5,18 52.5,18.1 53,18.1 53.1,18 53.3,18 53.4,17.9 53.5,17.9 53.5,17.7 53.4,17.7 
		53.4,17.6 53,17.6 52.9,17.7 52.6,17.7 52.5,17.8 52.4,17.9 	"/>
	<polygon class="st1" points="52.4,18 52.5,18 52.5,18.1 53,18.1 53.1,18 53.3,18 53.4,17.9 53.5,17.9 53.5,17.7 53.4,17.7 
		53.4,17.6 53,17.6 52.9,17.7 52.6,17.7 52.5,17.8 52.4,17.9 	"/>
	<path class="st1" d="M57.4,27l-0.5-1.2L56.3,25 M56.7,24.9v-0.5l-0.1-0.1v-0.2L56.4,24l-0.1-0.2l-0.1-0.1L56,23.6l-0.1-0.1h-0.7
		v0.1l-0.1,0.1V24l0.1,0.1v0.2l0.1,0.1l0.2,0.1l0.1,0.2l0.1,0.1l0.2,0.1h0.2l0.1,0.1h0.3L56.7,24.9L56.7,24.9z M54.3,23.3v-5.7
		 M54.7,23.3v-5.6 M57.2,25.7l1.7-4.4 M57.4,26l1.7-4.3"/>
	<polygon class="st2" points="56.4,24.6 56.4,24.4 56.3,24.3 56.2,24.2 56,24 55.9,23.9 55.7,23.9 55.6,23.8 55.6,23.9 55.5,23.9 
		55.5,24.1 55.6,24.1 55.6,24.2 55.7,24.3 55.8,24.3 55.8,24.4 55.9,24.5 56,24.5 56.1,24.6 	"/>
	<polygon class="st1" points="56.4,24.6 56.4,24.4 56.3,24.3 56.2,24.2 56,24 55.9,23.9 55.7,23.9 55.6,23.8 55.6,23.9 55.5,23.9 
		55.5,24.1 55.6,24.1 55.6,24.2 55.7,24.3 55.8,24.3 55.8,24.4 55.9,24.5 56,24.5 56.1,24.6 	"/>
	<polyline class="st1" points="57.8,26.8 57.3,25.8 56.7,24.8 	"/>
	<polygon class="st2" points="56.7,18.2 56.6,18.2 56.6,18.3 56.2,18.3 56.1,18.2 55.9,18.2 55.8,18.1 55.7,18.1 55.7,18 55.6,18 
		55.6,17.8 56.2,17.8 56.3,17.9 56.5,17.9 56.6,18 56.7,18.1 	"/>
	<polygon class="st1" points="56.7,18.2 56.6,18.2 56.6,18.3 56.2,18.3 56.1,18.2 55.9,18.2 55.8,18.1 55.7,18.1 55.7,18 55.6,18 
		55.6,17.8 56.2,17.8 56.3,17.9 56.5,17.9 56.6,18 56.7,18.1 	"/>
	<path class="st1" d="M58.6,20.3L58.6,20.3l-0.3,0.1l-0.2-0.1H58l-0.1-0.1L57.7,20l-0.1-0.1l-0.1-0.2l-0.1-0.1l-0.1-0.2v-0.5
		l0.1-0.1l0.1-0.1h0.3l0.2,0.1l0.1,0.1l0.2,0.1l0.1,0.1l0.1,0.1l0.1,0.2l0.1,0.2v0.1l0.1,0.2V20l-0.1,0.1L58.6,20.3L58.6,20.3z
		 M57.3,19l-0.6-0.5 M57.5,18.7L57,18.3 M55.1,17.8L54,17.6 M55.4,17.5l-0.9-0.2 M57,18.3L57,18.3L57,18.3l-0.2,0.2l-0.1,0.1H56
		l-0.4-0.2h-0.1l-0.1-0.1l-0.1-0.2L55.2,18l-0.1-0.1v-0.1l0.1-0.1v-0.1l0.1-0.1h0.1l0.2-0.1h0.5l0.2,0.1h0.1l0.2,0.1l0.2,0.1
		l0.1,0.1l0.1,0.1V18.3z"/>
	<polygon class="st2" points="58.4,20 58.2,20 58.1,19.9 58,19.9 58,19.8 57.8,19.6 57.8,19.5 57.7,19.5 57.7,19.1 57.9,19.1 
		57.9,19.2 58,19.2 58.1,19.3 58.2,19.4 58.2,19.5 58.4,19.7 	"/>
	<polygon class="st1" points="58.4,20 58.2,20 58.1,19.9 58,19.9 58,19.8 57.8,19.6 57.8,19.5 57.7,19.5 57.7,19.1 57.9,19.1 
		57.9,19.2 58,19.2 58.1,19.3 58.2,19.4 58.2,19.5 58.4,19.7 	"/>
	<path class="st1" d="M59.6,43.2l0.2-0.6l-0.1-0.1l-0.2-0.2v-0.1l-0.1-0.1v-0.6l0.1-0.2l0.1-0.1V41l0.1-0.1l0.1-0.1l0.1-0.1h0.2
		l0.1-0.1l0.1,0.1h0.1v0.1l0.1,0.1v0.2l0.1,0.1v0.4l-0.1,0.2V42l-0.1,0.1l-0.1,0.2l-0.2,0.2H60l-0.1,0.1h-0.1 M59.2,43.1l0.3-0.8
		 M60.4,40.8l0.3-1.4 M60,40.8l0.3-1.5 M60.6,39.5L60.6,39.5l0.2-0.1l0.1-0.1l0.1-0.1l0.1-0.1v-0.2l0.1-0.1v-0.9l-0.1-0.2L61,37.6
		h-0.1l-0.1-0.1h-0.2l-0.1,0.1l-0.1,0.1l-0.1,0.1l-0.1,0.1v0.2l-0.1,0.2v0.5l0.1,0.2v0.2l0.2,0.2L60.6,39.5L60.6,39.5z M60.8,28.3
		l-0.3-1.8 M61.2,28.3l-0.3-1.9"/>
	<polygon class="st2" points="59.8,42.2 59.8,42.1 59.7,42 59.7,41.7 59.8,41.6 59.8,41.4 59.9,41.3 59.9,41.2 60,41.2 60,41.1 
		60.2,41.1 60.2,41.7 60.1,41.8 60.1,42 60,42.1 59.9,42.2 	"/>
	<polygon class="st1" points="59.8,42.2 59.8,42.1 59.7,42 59.7,41.7 59.8,41.6 59.8,41.4 59.9,41.3 59.9,41.2 60,41.2 60,41.1 
		60.2,41.1 60.2,41.7 60.1,41.8 60.1,42 60,42.1 59.9,42.2 	"/>
	<path class="st1" d="M61.4,34.9l0.1-2.2 M61,34.9l0.1-2.4"/>
	<polygon class="st2" points="60.6,39.1 60.7,39.1 60.7,39 60.8,39 60.8,38.9 60.9,38.8 60.9,38.1 60.8,38 60.6,38 60.6,38.1 
		60.5,38.2 60.5,39 60.6,39 	"/>
	<polygon class="st1" points="60.6,39.1 60.7,39.1 60.7,39 60.8,39 60.8,38.9 60.9,38.8 60.9,38.1 60.8,38 60.6,38 60.6,38.1 
		60.5,38.2 60.5,39 60.6,39 	"/>
	<path class="st1" d="M61.1,36.8L61.1,36.8l0.2-0.1h0.1l0.1-0.2v-0.1l0.1-0.1l0.1-0.2v-0.6l-0.1-0.1v-0.2l-0.1-0.1L61.4,35l-0.1-0.1
		l-0.1-0.1h-0.1L61,34.9h-0.1L60.8,35l-0.1,0.2v0.1l-0.1,0.2v0.9l0.2,0.2L61.1,36.8L61.1,36.8z M60.7,37.5l0.1-0.9 M61,37.7l0.2-1"
		/>
	<polygon class="st2" points="61.1,36.4 61.2,36.4 61.2,36.3 61.3,36.3 61.3,35.4 61.2,35.3 61.1,35.3 61.1,35.4 61,35.4 61,35.7 
		60.9,35.8 60.9,36.1 61,36.2 61,36.4 	"/>
	<polygon class="st1" points="61.1,36.4 61.2,36.4 61.2,36.3 61.3,36.3 61.3,35.4 61.2,35.3 61.1,35.3 61.1,35.4 61,35.4 61,35.7 
		60.9,35.8 60.9,36.1 61,36.2 61,36.4 	"/>
	<path class="st1" d="M61.2,30.1L61.2,30.1l0.2-0.1l0.1-0.1l0.1-0.1v-0.1l0.1-0.2V29l-0.1-0.1v-0.2l-0.1-0.1l-0.1-0.2l-0.1-0.1h-0.1
		l-0.1-0.1L61,28.3h-0.1l-0.1,0.1l-0.1,0.1v0.1l-0.1,0.2v0.9l0.1,0.1l0.1,0.2l0.1,0.1H61L61.2,30.1L61.2,30.1z M61.4,32.7L61.4,32.7
		l0.2-0.1l0.1-0.1l0.1-0.1v-0.2l0.1-0.1v-0.6l-0.1-0.2v-0.1L61.7,31l-0.1-0.1l-0.1-0.1h-0.1l-0.1-0.1h-0.1l-0.1,0.1H61v0.1l-0.1,0.2
		l-0.1,0.1V32l0.1,0.1v0.2l0.1,0.1l0.1,0.1l0.1,0.1L61.4,32.7L61.4,32.7z"/>
	<polygon class="st2" points="61.2,29.7 61.3,29.7 61.3,28.9 61.2,28.8 61.2,28.7 61,28.7 61,28.8 60.9,28.9 60.9,29.4 61,29.5 
		61,29.7 61.1,29.7 61.1,29.7 	"/>
	<polygon class="st1" points="61.2,29.7 61.3,29.7 61.3,28.9 61.2,28.8 61.2,28.7 61,28.7 61,28.8 60.9,28.9 60.9,29.4 61,29.5 
		61,29.7 61.1,29.7 61.1,29.7 	"/>
	<line class="st1" x1="61.4" y1="30.7" x2="61.4" y2="30"/>
	<polygon class="st2" points="61.4,32.3 61.5,32.3 61.5,32.1 61.6,32 61.6,31.6 61.5,31.5 61.5,31.3 61.4,31.2 61.2,31.2 61.2,31.5 
		61.1,31.6 61.1,31.8 61.2,31.9 61.2,32.2 61.3,32.2 61.3,32.3 	"/>
	<polygon class="st1" points="61.4,32.3 61.5,32.3 61.5,32.1 61.6,32 61.6,31.6 61.5,31.5 61.5,31.3 61.4,31.2 61.2,31.2 61.2,31.5 
		61.1,31.6 61.1,31.8 61.2,31.9 61.2,32.2 61.3,32.2 61.3,32.3 	"/>
	<line class="st1" x1="61" y1="30.8" x2="61" y2="30.1"/>
	<polygon class="st2" points="59.9,23.3 60,23.2 60,23 59.9,22.9 59.9,22.7 59.8,22.6 59.8,22.5 59.7,22.5 59.7,22.4 59.6,22.3 
		59.4,22.3 59.4,22.7 59.5,22.8 59.5,23 59.7,23.2 59.8,23.3 	"/>
	<polygon class="st1" points="59.9,23.3 60,23.2 60,23 59.9,22.9 59.9,22.7 59.8,22.6 59.8,22.5 59.7,22.5 59.7,22.4 59.6,22.3 
		59.4,22.3 59.4,22.7 59.5,22.8 59.5,23 59.7,23.2 59.8,23.3 	"/>
	<path class="st1" d="M60.1,24.7l-0.3-1.1 M60.5,24.6l-0.3-1"/>
	<polygon class="st2" points="60.6,26 60.7,26 60.7,25.9 60.8,25.9 60.8,25.8 60.7,25.7 60.7,25.4 60.6,25.3 60.6,25.1 60.5,25.1 
		60.5,25 60.4,25 60.4,25.1 60.3,25.1 60.3,25.7 60.4,25.8 60.4,25.9 60.5,26 60.5,26 	"/>
	<polygon class="st1" points="60.6,26 60.7,26 60.7,25.9 60.8,25.9 60.8,25.8 60.7,25.7 60.7,25.4 60.6,25.3 60.6,25.1 60.5,25.1 
		60.5,25 60.4,25 60.4,25.1 60.3,25.1 60.3,25.7 60.4,25.8 60.4,25.9 60.5,26 60.5,26 	"/>
	<path class="st1" d="M53.1,49.3v-0.2l-0.2-0.2h-0.1l-0.1-0.1l-0.2-0.1h-0.1l-0.2-0.1h-0.3l-0.1,0.1h-0.2l-0.2,0.2v0.2l0.1,0.1v0.1
		l0.1,0.1h0.1l0.2,0.1l0.1,0.1h0.8l0.1-0.1H53L53.1,49.3 M53.1,49.1h0.7l0.8-0.2l0.2,0.3l-0.9,0.3h-1 M60.7,26.4L60.7,26.4l0.2-0.1
		l0.1-0.1v-0.1l0.1-0.2v-0.3L61,25.5v-0.2l-0.1-0.2V25l-0.1-0.2l-0.1-0.1l-0.1-0.1h-0.4l-0.1,0.1L60,24.8V25l-0.1,0.2v0.3l0.1,0.2
		v0.2l0.1,0.1l0.1,0.2l0.2,0.2l0.1,0.1H60.7z"/>
	<polygon class="st2" points="52.8,49.2 52.7,49.2 52.7,49.1 52.6,49 52.3,49 52.3,48.9 51.9,48.9 51.9,49 51.8,49 51.8,49.1 
		51.9,49.2 52,49.2 52.1,49.3 52.7,49.3 	"/>
	<polygon class="st1" points="52.8,49.2 52.7,49.2 52.7,49.1 52.6,49 52.3,49 52.3,48.9 51.9,48.9 51.9,49 51.8,49 51.8,49.1 
		51.9,49.2 52,49.2 52.1,49.3 52.7,49.3 	"/>
	<polyline class="st1" points="54.6,49 54.6,48.8 54.7,48.7 54.8,48.6 54.9,48.5 55,48.4 55.1,48.3 55.3,48.2 55.9,48.2 56,48.3 
		56.1,48.4 56.1,48.8 56,48.9 55.9,49 55.7,49.1 55.6,49.1 55.5,49.2 55.3,49.2 55.1,49.3 55,49.3 54.8,49.2 54.7,49.2 54.7,49.1 	
		"/>
	<polygon class="st0" points="54.9,48.9 54.9,48.8 55,48.8 55,48.7 55.1,48.6 55.2,48.6 55.3,48.5 55.7,48.5 55.7,48.7 55.6,48.7 
		55.6,48.8 55.5,48.8 55.4,48.9 55.2,48.9 55.1,49 55,49 	"/>
	<polygon class="st1" points="54.9,48.9 54.9,48.8 55,48.8 55,48.7 55.1,48.6 55.2,48.6 55.3,48.5 55.7,48.5 55.7,48.7 55.6,48.7 
		55.6,48.8 55.5,48.8 55.4,48.9 55.2,48.9 55.1,49 55,49 	"/>
	<polygon class="st0" points="56.9,47.5 56.9,47.3 57,47.2 57,47.1 57.1,47 57.1,46.9 57.2,46.9 57.3,46.8 57.4,46.7 57.5,46.6 
		57.7,46.6 57.7,46.9 57.6,47 57.6,47.1 57.5,47.1 57.5,47.2 57.4,47.3 57.3,47.4 57.2,47.4 57.1,47.5 	"/>
	<polygon class="st1" points="56.9,47.5 56.9,47.3 57,47.2 57,47.1 57.1,47 57.1,46.9 57.2,46.9 57.3,46.8 57.4,46.7 57.5,46.6 
		57.7,46.6 57.7,46.9 57.6,47 57.6,47.1 57.5,47.1 57.5,47.2 57.4,47.3 57.3,47.4 57.2,47.4 57.1,47.5 	"/>
	<polygon class="st1" points="56.7,47.8 56.6,47.7 56.6,47.2 56.8,46.8 56.9,46.7 57,46.6 57.2,46.4 57.3,46.4 57.5,46.3 57.6,46.2 
		57.9,46.2 58,46.3 58,46.4 58.1,46.4 58.1,46.8 58,47 58,47.2 57.9,47.3 57.7,47.4 57.6,47.6 57.5,47.7 57.3,47.8 57.2,47.8 
		57,47.9 56.9,47.9 56.8,47.8 	"/>
	<path class="st0" d="M58.4,44.3c0,0,0.1-0.2,0.1-0.3c0-0.1,0.2-0.5,0.2-0.5l0.3-0.4l0.2-0.1l0.3-0.8l-0.1-0.5l0.1-0.5l0.3-0.5
		l0.2-0.2l0.2-0.9L58,37.6l-0.1,0.7l0.2,0.4L58,39.4l-0.2,0.4L57.5,40l-0.2,0.1L57,40.6L58.4,44.3"/>
	<path class="st0" d="M60.2,39.4l-2-2.2l0.2-0.8l0.2-0.3l0.2-0.5L58.7,35l-0.1-0.4c0,0,0-0.6,0.1-0.6c0.1,0,2.4,0.1,2.4,0.1l0,0.8
		l-0.2,0.2l-0.1,0.4l0,0.8l0.2,0.3l-0.1,0.9l-0.4,0.4l-0.1,0.3v0.5l0.1,0.4L60.2,39.4"/>
	<path class="st0" d="M61,33.6l0.1-1.2c0,0-0.3-0.2-0.3-0.9c0-0.5,0.2-0.8,0.2-0.8l0-0.8c0,0-0.4-0.2-0.4-0.9c0-0.7,0.2-0.8,0.2-0.8
		l-0.1-0.5l-2.2,2l0.1,1c0,0,0.4,0.4,0.4,0.9c0,0.5-0.3,0.8-0.3,0.8v0.9L61,33.6"/>
	<path class="st0" d="M60.6,27.4l-0.1-1c0,0-0.4-0.4-0.5-0.8c-0.1-0.4,0.1-1,0.1-1l-0.3-1c0,0-0.3,0-0.6-0.5
		C59,22.6,59.1,22,59.1,22L59,21.8L57.4,26l0.4,0.9c0,0,0.5,0.4,0.5,0.9c0,0.5-0.1,0.8-0.1,0.8l0.1,0.7L60.6,27.4"/>
	<path class="st0" d="M58.8,21.3l-0.4-0.9c0,0-0.5-0.1-0.7-0.4c-0.3-0.4-0.4-1-0.4-1l-0.6-0.5c0,0-0.4,0.1-0.8,0
		c-0.6-0.2-0.7-0.7-0.7-0.7l-0.5-0.1l0,5.7l0.6,0.1c0,0,0.7-0.2,1.1,0.3c0.3,0.4,0.4,1,0.4,1l0.5,0.8L58.8,21.3"/>
	<path class="st0" d="M54.3,17.6L54,17.6c0,0-0.2,0.5-0.7,0.7c-0.5,0.2-1.1-0.1-1.1-0.1l-0.7,0.4c0,0,0,0.6-0.5,0.9
		c-0.5,0.3-0.9,0.3-0.9,0.3l-0.3,0.4l0,0.6l1.8,4.4l0.5-0.6c0,0-0.1-0.7,0.5-1.1c0.6-0.4,1-0.1,1-0.1l0.7-0.2V17.6"/>
	<path class="st0" d="M52.3,17.5l-2.8,0l-2.9,0.3c0,0,0.9,0.3,0.9,1l0.2,0.2c0,0,0.5-0.2,0.8,0.2c0.3,0.4,0.4,0.8,0.4,0.8l0.2,0
		l0.6,0l0.3-0.3c0,0,0-0.6,0.5-1c0.5-0.3,0.9-0.3,0.9-0.3s0.7-0.5,0.8-0.5C52.1,17.9,52.3,17.5,52.3,17.5"/>
	<path class="st0" d="M46.1,17.9l-0.6,0.3c0,0-0.1,0.5-0.6,0.7c-0.4,0.3-0.8,0.3-0.8,0.3l-0.5,0.5c0,0,0,0.4-0.2,0.7
		c-0.2,0.3-0.7,0.6-0.7,0.6l-0.5,0.7l0,0.1l0.2,0c0,0,0.1-0.5,0.8-0.8c1.1-0.4,1.5,0.2,1.5,0.2l0.9-0.3c0,0,0.2-0.7,1.1-0.8
		c0.9-0.1,1.2,0.2,1.2,0.2l0.8-0.2l-0.1-0.1c0,0-0.6,0-0.9-0.4c-0.3-0.4-0.3-0.7-0.3-0.7l-0.1-0.1c0,0-0.4,0.2-0.8-0.2
		C46.1,18.3,46.1,17.9,46.1,17.9"/>
	<path class="st2" d="M48.9,20.5l0.1,0.4c0,0-0.7,0.2-1,0.8c-0.2,0.6-0.3,0.9-0.1,1.4l-0.1,0.3c0,0-0.7,0.1-0.9,0.8
		c-0.2,0.7,0,1.3,0.2,1.4l-0.4,0.2l-0.4-0.4c0,0,0-0.6-0.7-1c-0.9-0.5-1.3-0.2-1.3-0.2L43.9,24c0,0,0.1-0.5-0.7-1
		c-0.9-0.5-0.9-0.4-0.9-0.4l0.2-0.5l0.1-0.1c0,0,0.5,0.5,1.4,0.2c0.9-0.3,0.9-0.7,0.9-0.7l0.9-0.2c0,0,0.7,0.4,1.6,0
		c0.9-0.4,0.7-0.7,0.7-0.7L48.9,20.5"/>
	<path class="st0" d="M51.3,25.6L51,26.3c0,0-0.4,0-0.6,0.6c-0.2,0.6-0.1,1.1-0.1,1.1l-0.2,0.8l-2.5-2.6c0,0,0.1-0.3,0-0.4
		c-0.1-0.1-0.1-0.1-0.1-0.1l0-0.2c0,0,0.5-0.2,0.7-0.9c0.2-0.7-0.1-1.1-0.1-1.1l0.1-0.2c0,0,0.6-0.1,0.9-0.8
		c0.3-0.7,0.1-1.3,0.1-1.3l0.1-0.1h0.1L51.3,25.6"/>
	<path class="st0" d="M47.3,26.6l-0.2,0.1l-0.1,0.4c0,0,0.4,0.6,0.2,1.3c-0.2,0.7-0.7,0.9-0.7,0.9v0.4c0,0,0.5,0.5,0.3,1.2
		c-0.1,0.7-0.5,1-0.5,1l-0.1,0.5c0,0,0.4,0.2,0.4,0.4l2.8,0.1l0.1-1c0,0-0.4-0.3-0.3-1c0.1-0.6,0.5-0.9,0.5-0.9l0.2-1L47.3,26.6"/>
	<path class="st0" d="M49.5,33.5l0,0.8c0,0-0.4,0.3-0.3,1c0.1,0.7,0.4,0.8,0.4,0.8l0.2,1.2L47.1,40L46.8,40c0,0-0.2-0.8-0.1-0.7
		c0.1,0,0.5-0.7,0.4-1.3c-0.2-1-0.7-1-0.7-1l0-0.4c0,0,0.4-0.3,0.4-1.1c0-0.8-0.5-1.2-0.5-1.2v-0.6l0.3-0.1l0.1-0.2L49.5,33.5"/>
	<path class="st0" d="M49.9,37.7l0.1,0.4c0,0-0.3,0.5-0.1,0.9c0.1,0.5,0.5,0.7,0.5,0.7l0.5,1.2L49,45.6c0,0-0.2-0.7-0.3-1
		c-0.1-0.3-0.9-0.7-0.9-0.7l-0.1-0.3c0,0,0.4-0.3,0.1-1.2c-0.3-0.9-0.7-0.9-0.7-0.9L47,40.9c0,0,0.1-0.1,0.2-0.1
		c0.1,0,0.2-0.4,0.2-0.4l-0.1-0.1L49.9,37.7"/>
	<path class="st0" d="M51.2,41.4l-1.9,4.8l0.2,0.4l-0.1,0.3l0.3,0.3c0,0,0.6,0,0.9,0.3c0.3,0.4,0.5,0.9,0.5,0.9l0.6,0.3
		c0,0,0.5-0.3,0.9,0c0.4,0.2,0.5,0.4,0.5,0.4s0.6,0.1,0.7,0c0.1-0.1,0-5.9,0-5.9l-0.6-0.1c0,0-0.3,0.4-0.7,0.1
		c-0.5-0.2-0.8-0.6-0.8-0.9c0-0.3,0-0.3,0-0.3L51.2,41.4"/>
	<path class="st0" d="M51.8,41.6l0.1,0.3c0,0,0.6,0.1,0.8,0.3c0.2,0.3,0.5,0.6,0.5,0.6s0.6,0.1,0.7,0.1c0.2-0.1,0.7-0.2,0.7-0.2
		s0.1-0.6,0.5-0.9c0.4-0.3,0.7-0.3,0.7-0.3s0.5-0.7,0.6-0.8c0.1-0.1,0.5-0.9,0.5-0.9s-0.2-0.5,0.1-1.1c0.3-0.5,0.5-0.5,0.5-0.5
		l0.4-1.9c0,0-0.4-0.4-0.3-0.9c0.1-0.5,0.5-0.9,0.5-0.9l0.1-1.8c0,0-0.4-0.4-0.4-1c0-0.6,0.3-0.9,0.3-0.9l-0.3-2.1
		c0,0-0.4-0.2-0.5-0.8c-0.1-0.6,0.1-0.9,0.1-0.9l-0.5-1.2L56.4,25c0,0-0.4,0-0.8-0.4c-0.4-0.4-0.4-0.7-0.4-0.7l-0.8-0.2l-0.7,0.1
		c0,0,0,0.4-0.4,0.7c-0.4,0.3-0.9,0.4-0.9,0.4l-0.2,0.3l0.7,4.5l0.1,2.6l-0.1,3.2l-0.4,3.8L51.8,41.6"/>
	<path class="st2" d="M46.6,25.9l0,0.2l-0.8,0.3c0,0-0.4-0.4-1.2-0.1c-0.8,0.3-1,1-1,1l-0.8,0.4c0,0-0.6-0.3-1.3-0.1
		c-0.6,0.3-1,1-1,1S40,29.1,40,28.9c0-0.2,0-0.3,0-0.3s0.7-0.4,0.8-1.3c0.1-0.9-0.3-1-0.3-1l0.2-0.6c0,0,0.6-0.3,0.8-0.9
		c0.2-0.7,0-1.3,0-1.3l0.3-0.6c0,0-0.2,0.9,0.7,1.3c0.8,0.4,1.3,0.1,1.3,0.1l0.3,0.3c0,0,0.2,0.8,0.9,1.1c0.7,0.3,1.2,0.1,1.2,0.1
		L46.6,25.9"/>
	<path class="st0" d="M46.8,26.6l-0.1,0.4c0,0-0.6,0.1-0.7,1.1c-0.1,1,0.4,1.2,0.4,1.2l-0.1,0.3c0,0-0.7,0.4-0.6,1.2
		C45.7,31.7,46,32,46,32l-0.1,0.7l-0.2,0.1l-0.4-0.2c0,0-0.1-0.7-0.8-1c-0.6-0.3-1.3-0.1-1.3-0.1L42.4,31c0,0-0.1-0.7-0.9-1.1
		c-0.8-0.4-1.2,0-1.2,0l-0.2-0.1l0.1-0.2c0,0-0.2-0.2-0.1-0.3c0.1,0,0.6-0.3,0.6-0.3s0.7,0.2,1.4-0.1c0.4-0.2,0.7-0.9,0.7-0.9
		l0.9-0.4c0,0,0.8,0.3,1.5-0.1c0.7-0.4,0.7-0.8,0.7-0.8l0.7-0.3L46.8,26.6"/>
	<path class="st0" d="M39.9,30l0.2,0.1c0,0,0.1,0.7,0.9,1c0.8,0.2,1.2,0.1,1.2,0.1l0.9,0.5c0,0,0.2,0.7,0.8,1
		c0.7,0.2,1.3,0.1,1.3,0.1l0.4,0.2v0.3l-0.5,0.2c0,0-0.7-0.3-1.3,0c-0.6,0.3-0.9,1-0.9,1v0.1l-0.7,0.4c0,0-0.6-0.3-1.2,0
		c-1.1,0.5-0.9,1-0.9,1l-0.7,0.3l0-0.4c0,0,0.4-0.7,0.5-1.2c0-0.5-0.5-1.1-0.5-1.1c0-0.1,0-0.6,0-0.6s0.5-0.4,0.6-1.1
		c0.1-0.7-0.4-1.1-0.4-1.1s0-0.6,0.1-0.6c0.1,0,0.1-0.1,0.1-0.1L39.9,30"/>
	<path class="st0" d="M39.7,36.5l0.1,0.3l0,0.2l0.5,0.2c0,0,0.7-0.3,1.2,0c0.8,0.4,0.9,1,0.9,1l0.9,0.5c0,0,0.2-0.4,1.4-0.1
		c0.3,0.1,0.7,0.7,0.7,0.7l0,0.3c0,0,0.8,0.5,0.8,0.4c0-0.1-0.1-0.7-0.1-0.7s-0.4-0.3-0.6-1.1C45.5,37.4,46,37,46,37l0-0.4
		c0,0-0.6-0.4-0.6-1.2c0-0.8,0.5-1.1,0.5-1.1l0.1-0.6l-0.3-0.2l-0.4,0.2c0,0-0.4,0.8-0.9,1c-0.5,0.2-1.1,0-1.1,0l-0.8,0.4
		c0,0-0.2,0.8-0.8,1c-0.6,0.2-1.3,0.1-1.3,0.1L39.7,36.5"/>
	<path class="st0" d="M39.6,37.3l0.1,0.8c0,0,0.5,0.3,0.6,1.1c0.1,0.9-0.3,1.2-0.3,1.2l0.3,1.1c0,0,0.5,0.2,0.7,1
		c0.2,0.7-0.1,1.2-0.1,1.2l0.3,0.6l0.3,0.1l0.2-0.2c0,0-0.2-0.7,0.6-1.2c0.8-0.5,1.2-0.3,1.2-0.3l0.4-0.3c0,0-0.2-0.7,0.6-1.2
		c0.8-0.4,1.2-0.3,1.2-0.3l0.4-0.3l0-0.2l-0.9-0.4c0,0-0.3,0.3-0.8,0.2c-0.5-0.1-1.1-0.5-1.2-0.7c-0.2-0.2-0.1-0.5-0.1-0.5l-0.9-0.3
		c0,0-0.9,0.2-1.4-0.1c-0.7-0.4-0.8-0.9-0.8-0.9l-0.5-0.3L39.6,37.3"/>
	<path class="st0" d="M46.7,41c0,0.1,0.1,0.4,0.1,0.4s-0.6,0.6-0.2,1.4c0.4,0.8,0.8,0.8,0.8,0.8l0.1,0.4c0,0-0.3,0.5,0.1,1.2
		c0.4,0.9,1,0.8,1,0.8l-0.1,0.2l-0.8-0.2c0,0-0.2-0.5-1-0.7c-0.8-0.3-1.3,0.2-1.3,0.2l-0.7-0.1c0,0-0.1-0.7-1-0.8
		c-0.9-0.1-1.3,0.2-1.3,0.2l-0.6-0.2l-0.1-0.2l0.3-0.3c0,0,0.6,0.3,1.3-0.3c0.7-0.7,0.6-1.2,0.6-1.2l0.3-0.3c0,0,0.8,0.3,1.4-0.3
		C46.1,41.6,46,41,46,41l0.3-0.2C46.4,40.8,46.7,40.9,46.7,41"/>
	<path class="st0" d="M41.5,45.1l0.5,0.8c0,0,0.6,0.2,0.9,0.6c0.3,0.4,0.4,1.1,0.4,1.1l0.6,0.5c0,0,1.1,0,1.5,0.7
		c0,0,0.1-0.5,0.5-0.7c0.4-0.2,0.8-0.2,0.8-0.2l0.3-0.3c0,0,0.1-0.4,0.5-0.6c0.4-0.2,0.8-0.2,0.8-0.2l0.1-0.2l-0.1-0.1l-0.7-0.2
		c0,0,0,0.3-0.5,0.3c-0.5,0-1.2,0-1.5-0.3c-0.4-0.3-0.3-0.4-0.3-0.4l-0.8-0.2c0,0-0.5,0.5-1.2,0.3c-1.1-0.3-1-0.8-1-0.8L41.6,45
		L41.5,45.1"/>
	<path class="st0" d="M46.2,49.2l2.5,0.1l2.8-0.1l-0.7-0.5c0,0-0.6-0.1-0.9-0.4c-0.4-0.5-0.4-0.9-0.4-0.9l-0.3-0.3l-0.3,0.1L48.5,47
		c0,0,0,0.5-0.5,0.8c-0.5,0.3-0.9,0.2-0.9,0.2L47,48.2c0,0,0,0.4-0.2,0.6C46.6,49,46.2,49.2,46.2,49.2"/>
	<path class="st0" d="M78,100h-56l-1.4-0.2l-1.3-0.5l-1.2-0.9l-0.8-1.1l-0.6-1.3l-0.2-1.5V5.4L16.9,4l0.6-1.3l0.8-1.2l1.2-0.9
		l1.3-0.5L22.1,0h56l1.4,0.2l1.3,0.5l1.1,0.9l0.9,1.2L83.1,4l0.2,1.4v89.2l-0.2,1.5l-0.5,1.3l-0.9,1.1l-1.1,0.9l-1.3,0.5L78,100
		C78,100,78,100,78,100L78,100z M78,0.1h-56l-1.4,0.2l-1.3,0.5l-1.2,0.9l-0.8,1.2L17,4.1l-0.2,1.4l0,89.2l0.2,1.5l0.6,1.3l0.8,1.1
		l1.2,0.9l1.3,0.5l1.4,0.2l56,0l1.4-0.2l1.3-0.5l1.1-0.9l0.9-1.1L83,96l0.2-1.4l0-89.2L83,4l-0.5-1.3l-0.9-1.2l-1.1-0.9l-1.3-0.5
		L78,0.1L78,0.1z"/>
	<path class="st2" d="M78,96l0.6-0.2l0.5-0.5l0.2-0.7V5.4l-0.2-0.7l-0.5-0.5L78,4h-56l-0.7,0.2l-0.5,0.5l-0.2,0.7v89.2l0.2,0.7
		l0.5,0.5l0.7,0.2H78 M78,98.6l1.2-0.2l1.2-0.5l0.9-0.9l0.6-1.2l0.2-1.3V5.4l-0.2-1.3l-0.6-1.1l-0.9-0.9l-1.2-0.6L78,1.4h-56
		l-1.3,0.2l-1.1,0.6l-0.9,0.9l-0.6,1.1l-0.2,1.3v89.2l0.2,1.3l0.6,1.2l0.9,0.9l1.1,0.5l1.3,0.2H78z"/>
	<path class="st3" d="M77.7,33.4l-0.2-3.1l-0.5-3l-0.9-3L75,21.3l-1.5-2.6L71.7,16l-2-2.2l-2.3-2.1l-2.5-1.8l-2.7-1.6l-2.9-1.2
		l-2.9-0.9l-3.1-0.5L50,5.6l-3.1,0.2l-3,0.5l-3,0.9L38,8.3l-2.7,1.6l-2.5,1.8l-2.3,2.1L28.3,16l-1.8,2.6l-1.5,2.6l-1.3,2.9l-0.9,3
		l-0.5,3l-0.2,3.1l0.2,3.1l0.5,3.1l0.9,2.9l1.3,2.9l1.5,2.7l1.8,2.5l2.1,2.3l2.3,2l2.5,1.8l2.7,1.6l2.8,1.2l3,0.9l3,0.5l3.1,0.2
		l3.1-0.2l3.1-0.5l2.9-0.9l2.9-1.2l2.7-1.6l2.5-1.8l2.3-2l2-2.3l1.9-2.5l1.5-2.7l1.2-2.9l0.9-2.9l0.5-3.1L77.7,33.4 M71.1,33.4
		l-0.2-2.7l-0.6-2.7l-0.9-2.6l-1.2-2.4l-1.6-2.3l-1.8-2l-2-1.8l-2.2-1.5l-2.5-1.3L55.5,13l-2.6-0.6L50,12.3l-2.7,0.1L44.5,13
		l-2.6,0.9l-2.4,1.3l-2.3,1.5l-2,1.8l-1.8,2l-1.5,2.3l-1.3,2.4l-0.9,2.6l-0.5,2.7L29,33.4l0.2,2.7l0.5,2.7l0.9,2.6l1.3,2.4l1.5,2.3
		l1.8,2l2,1.8l2.3,1.6l2.4,1.2l2.6,0.9l2.7,0.6l2.7,0.2l2.8-0.2l2.6-0.6l2.6-0.9l2.5-1.2l2.2-1.6l2-1.8l1.8-2l1.6-2.3l1.2-2.4
		l0.9-2.6l0.6-2.7L71.1,33.4z"/>
	<path class="st2" d="M70.3,88.4l0.3,0.3l0.6,0.3l0.9,0.1l0.5,0.3l0.2,0.6l-0.3,0.6l-0.3,0.2h-0.4l-0.5-0.1l-0.4-0.3l-0.3-0.5
		l-0.8,0.3l0.3,0.6l0.4,0.5l0.6,0.3l0.7,0.1l0.7-0.1l0.6-0.4l0.4-0.6l0.2-0.6l-0.2-0.8l-0.5-0.6l-0.5-0.2H70.3 M66.1,88.4l-0.3,0.7
		H67l-0.3-0.7h0.9l1.1,3.1h-0.9L67.3,90h-1.8l-0.5,1.6h-1l1.1-3.1H66.1z M61.5,88.4l0.7,1.3v-1.3h0.9v3.1h-0.8l-1.7-3.1H61.5z
		 M59.4,88.4h0.9v3.1h-0.9V88.4z M57.6,88.4v0.7h-1.7v1.6h2.5v0.9h-3.4v-3.1H57.6z M50,88.4v3.1h1.6l0.8-0.1l0.6-0.5l0.5-0.6
		l0.3-1.1v-0.9h-0.9v0.8L52.6,90l-0.5,0.5l-0.6,0.2h-0.7v-2.3H50z M46.4,88.4l-0.3,0.7h1.2L47,88.4h0.9l1.1,3.1h-1L47.6,90h-1.8
		l-0.6,1.6h-0.9l1.1-3.1H46.4z M40.8,88.4v0.9l0.3,0.9l0.3,0.5l0.6,0.1l0.5-0.2l0.4-0.4l0.8,0.2l-0.4,0.7l-0.6,0.4l-0.7,0.2
		l-0.7-0.1l-0.6-0.4l-0.4-0.6l-0.4-1.2v-1H40.8z M34.1,88.4v0.7h-1.7v1.6H35v0.9h-3.4v-3.1H34.1z M26.5,88.4v3.1h1.6l0.8-0.1
		l0.6-0.5l0.5-0.6l0.3-1.1v-0.9h-0.9v0.8L29.2,90l-0.5,0.5l-0.6,0.2h-0.7v-2.3H26.5z"/>
	<path class="st2" d="M72.3,88.4l-0.2-0.1l-0.9-0.2L71,88l-0.1-0.4l0.1-0.3l0.2-0.3l0.4-0.2l0.6,0.2l0.3,0.4l0.9-0.2l-0.3-0.5
		l-0.4-0.5L72.1,86l-0.6-0.1l-0.6,0.2l-0.5,0.4L70.1,87L70,87.6l0.1,0.7l0.1,0.2H72.3 M65.2,88.4l0.8-2.4h0.8l0.8,2.4h-0.9l-0.3-0.8
		l-0.3,0.8H65.2z M62.3,86h0.9v2.4h-0.9V86z M59.4,88.4V86h0.8l1.3,2.4h-0.9l-0.3-0.6v0.6H59.4z M55.1,88.4V86h3.2v0.9h-2.3v1.4h1.7
		v0.2H55.1z M52.8,88.4L52.8,88.4l-0.2-0.8l-0.5-0.5l-0.6-0.2h-0.7v1.5H50V86h1.6l0.8,0.2l0.6,0.4l0.5,0.6l0.3,1.1v0.2H52.8z
		 M45.5,88.4l0.8-2.4h0.8l0.8,2.4H47l-0.3-0.8l-0.3,0.8H45.5z M39.9,88.4v-0.3l0.4-1.2l0.4-0.6l0.6-0.4l0.7-0.1l0.7,0.2l0.6,0.4
		l0.4,0.6l-0.9,0.3L42.4,87l-0.5-0.2L41.3,87L41,87.4l-0.3,1v0.1H39.9z M31.6,88.4V86h3.2v0.9h-2.3v1.4h1.7v0.2H31.6z M29.4,88.4
		L29.4,88.4l-0.2-0.8l-0.5-0.5l-0.6-0.2h-0.7v1.5h-0.9V86h1.6l0.8,0.2l0.6,0.4l0.5,0.6l0.3,1.1v0.2H29.4z"/>
	<path class="st2" d="M58.4,80.1l0.4,0.5l0.6,0.1l0.5-0.1l0.4-0.5l0.2-1.4l-0.2-1.4l-0.4-0.5l-0.5-0.2l-0.6,0.2l-0.4,0.5l-0.1,1.4
		L58.4,80.1 M36.3,75.9h0.9v4.8h2.5v0.8h-3.4V75.9z M27.3,80.1l0.4,0.5l0.6,0.1l0.5-0.1l0.4-0.5l0.2-1.4l-0.2-1.4l-0.4-0.5l-0.5-0.2
		l-0.6,0.2l-0.4,0.5l-0.1,1.4L27.3,80.1z M33.4,78.2l0.5-0.2l0.3-0.3l0.1-0.4L34.1,77l-0.4-0.2h-1.4v1.5H33.4z M33.7,80.7l0.5-0.2
		l0.2-0.5l-0.2-0.5l-0.3-0.3l-0.5-0.1h-1.1v1.6H33.7z M49.5,75.9h0.8l1.9,5.6h-1L50.8,80H49l-0.6,1.5h-0.9L49.5,75.9z M40.7,75.9
		h0.9v5.6h-0.9V75.9z M54.3,76.8H53v-0.9h3.3v0.9h-1.3v4.7h-0.8V76.8z M50.5,79.1l-0.6-1.7l-0.6,1.7H50.5z M54,69.9l0.4,0.5l0.5,0.2
		l0.6-0.2l0.4-0.5l0.2-1.4l-0.2-1.3l-0.4-0.5l-0.6-0.2l-0.5,0.2L54,67.2l-0.2,1.3L54,69.9z M64.7,78.1l0.5-0.2l0.2-0.5L65.2,77
		l-0.5-0.2h-1.3v1.4H64.7z M67.6,75.9h0.9v5.6h-0.9V75.9z M70.9,80.1l0.3,0.5l0.6,0.1l0.6-0.1l0.3-0.5l0.2-1.4l-0.2-1.4l-0.3-0.5
		l-0.6-0.2l-0.6,0.2l-0.3,0.5l-0.2,1.4L70.9,80.1z M45,71.4l0.7-0.2l0.7-0.4l0.4-0.6l0.1-0.7v-3.8H46v3.8l-0.1,0.5l-0.4,0.3L45,70.5
		l-0.5-0.2l-0.4-0.3l-0.1-0.5v-3.8h-0.9v3.8l0.2,0.7l0.4,0.6l0.6,0.4L45,71.4z M48.2,70l0.2,0.6l0.5,0.5l0.6,0.3l0.6,0.1l0.8-0.1
		l0.6-0.4l0.4-0.6l0.1-0.7L51.8,69l-0.5-0.6L50.6,68l-0.8-0.1l-0.3-0.2l-0.2-0.4l0.1-0.4l0.3-0.3l0.4-0.1l0.5,0.1l0.4,0.5l0.8-0.2
		l-0.2-0.6L51.1,66l-0.5-0.3h-0.7l-0.5,0.2l-0.5,0.4l-0.3,0.5l-0.2,0.6l0.2,0.7l0.4,0.5l0.6,0.2l0.9,0.2l0.4,0.3l0.2,0.5l-0.2,0.6
		l-0.3,0.2l-0.5,0.1l-0.5-0.1l-0.4-0.3L49,69.7L48.2,70z M53.2,66.9l-0.3,1.6l0.3,1.6l0.4,0.7l0.6,0.5l0.7,0.2l0.8-0.2l0.6-0.5
		l0.4-0.7l0.3-1.6l-0.3-1.6l-0.4-0.7l-0.6-0.4l-0.8-0.2l-0.7,0.2l-0.6,0.4L53.2,66.9z M26.5,77.2l-0.2,1.6l0.2,1.6l0.4,0.7l0.6,0.5
		l0.8,0.1l0.7-0.1l0.7-0.5l0.3-0.7l0.3-1.6L30,77.2l-0.3-0.7L29,76l-0.7-0.2L27.5,76l-0.6,0.5L26.5,77.2z M33.7,81.5l0.7-0.1
		l0.5-0.5l0.3-0.6v-0.7L34.9,79l-0.6-0.4l0.5-0.4l0.3-0.6v-0.6l-0.3-0.6l-0.5-0.4l-0.6-0.2h-2.2v5.6H33.7z M44.7,81.5l0.7-0.1
		l0.6-0.4l0.4-0.6l0.2-0.7v-1.1h-1.9v0.9h1.1v0.2l-0.1,0.4l-0.4,0.4l-0.4,0.1h-0.5L44,80.4l-0.2-0.5v-2.3l0.2-0.4l0.3-0.3l0.4-0.2
		l0.6,0.2l0.4,0.5l0.9-0.3l-0.4-0.7L45.4,76l-0.9-0.1l-0.7,0.2l-0.7,0.6L43,77.4l-0.1,1.4L43,80l0.2,0.7l0.4,0.5l0.5,0.3L44.7,81.5z
		 M57.6,77.2l-0.2,1.6l0.2,1.6L58,81l0.6,0.5l0.8,0.1l0.7-0.1l0.7-0.5l0.3-0.7l0.3-1.6L61,77.2l-0.3-0.7L60,76l-0.7-0.2L58.6,76
		L58,76.5L57.6,77.2z M65.4,78.9l0.5-0.5l0.3-0.6v-0.7l-0.3-0.7l-0.5-0.4l-0.7-0.2h-2.1v5.6h0.9V79h1.1l0.9,2.4h1L65.4,78.9z
		 M70,77.2l-0.2,1.6l0.2,1.6l0.4,0.7l0.6,0.5l0.8,0.1l0.8-0.1l0.6-0.5l0.4-0.7l0.2-1.6l-0.2-1.6l-0.4-0.7L72.6,76l-0.8-0.2L71,76
		l-0.6,0.5L70,77.2z"/>
</g>
</svg>
