<?xml version="1.0" encoding="utf-8"?>
<!-- Generator: Adobe Illustrator 19.2.1, SVG Export Plug-In . SVG Version: 6.00 Build 0)  -->
<svg version="1.1" id="Capa_1" xmlns="http://www.w3.org/2000/svg" xmlns:xlink="http://www.w3.org/1999/xlink" x="0px" y="0px"
	 viewBox="0 0 100 100" style="enable-background:new 0 0 100 100;" xml:space="preserve" width="100" height="100">
<style type="text/css">
	.st0{fill-rule:evenodd;clip-rule:evenodd;fill:#C5332B;}
	.st1{fill:#222220;}
	.st2{fill-rule:evenodd;clip-rule:evenodd;fill:#222220;}
</style>
<g>
	<path class="st0" d="M70.9,34.6l-0.1-2.7l-0.6-2.7l-0.9-2.6l-1.2-2.4l-1.5-2.2l-1.8-2.1L62.8,18l-2.3-1.5L58,15.3l-2.6-0.9
		l-2.7-0.5l-2.7-0.2l-2.7,0.2l-2.7,0.5l-2.6,0.9l-2.4,1.2L37.2,18l-2.2,1.9l-1.8,2.1l-1.5,2.2l-1.2,2.4l-0.9,2.6l-0.5,2.7L29,34.6
		l0.2,2.7l0.5,2.7l0.9,2.6l1.2,2.4l1.5,2.3l1.8,2.1l2.2,1.8l2.2,1.5l2.4,1.2l2.6,0.9l2.7,0.5l2.7,0.2l2.7-0.2l2.7-0.5L58,54l2.4-1.2
		l2.3-1.5l2.1-1.8l1.8-2.1l1.5-2.3l1.2-2.4l0.9-2.6l0.6-2.7L70.9,34.6 M77.5,34.6l-0.2-3.1l-0.5-3.1L76,25.5l-1.2-2.9l-1.5-2.7
		l-1.8-2.5l-2.1-2.3L67.2,13l-2.5-1.8l-2.7-1.5l-2.8-1.1l-3-0.9L53,7.2L49.9,7l-3.1,0.2l-3.1,0.5l-2.9,0.9L38,9.7l-2.7,1.5L32.7,13
		l-2.3,2.1l-2.1,2.3l-1.8,2.5l-1.5,2.7l-1.2,2.9L23,28.4l-0.5,3.1l-0.2,3.1l0.2,3.1l0.5,3.1l0.8,3l1.2,2.8l1.5,2.7l1.8,2.5l2.1,2.3
		l2.3,2.1l2.5,1.8l2.7,1.5l2.9,1.2l2.9,0.8l3.1,0.5l3.1,0.2L53,62l3.1-0.5l3-0.8l2.8-1.2l2.7-1.5l2.5-1.8l2.3-2.1l2.1-2.3l1.8-2.5
		l1.5-2.7l1.2-2.8l0.8-3l0.5-3.1L77.5,34.6z"/>
	<path class="st1" d="M78.9,100H21.1l-1.5-0.2l-1.3-0.6l-1.2-0.9l-0.9-1.2l-0.6-1.3l-0.2-1.5l0-88.8l0.2-1.5l0.6-1.3l0.9-1.2
		l1.2-0.9l1.3-0.6L21.1,0l57.9,0l1.5,0.2l1.3,0.6l1.2,0.9l0.9,1.2l0.6,1.3l0.2,1.5l0,88.8l-0.2,1.5l-0.6,1.3l-0.9,1.2l-1.2,0.9
		l-1.3,0.6L78.9,100C78.9,100,78.9,100,78.9,100L78.9,100z M78.9,0.2l-57.8,0l-1.4,0.2L18.4,1l-1.1,0.9l-0.9,1.1l-0.6,1.2l-0.2,1.4
		l0,88.8l0.2,1.4l0.6,1.2l0.9,1.1l1.1,0.9l1.2,0.6l1.4,0.2l57.8,0l1.4-0.2l1.2-0.6l1.1-0.9l0.9-1.1l0.6-1.2l0.2-1.4l0-88.8l-0.2-1.4
		l-0.6-1.2l-0.9-1.1l-1.1-0.9l-1.2-0.6L78.9,0.2L78.9,0.2z"/>
	<path class="st2" d="M42.7,40H31.6v-2l11.1-14.8h3.6v13.6h2V40h-2v5.9h-3.6V40 M42.7,28.6l-6.2,8.2h6.2V28.6z M56.7,40l0.6,1.1
		l0.8,0.9l1.2,0.6l1.2,0.2l1.3-0.2l1.1-0.5l0.8-1l0.6-1.1l0.6-2.7l0.2-2.7l-0.2-2.8l-0.6-2.7L63.5,28l-0.8-0.9l-1.1-0.6l-1.3-0.2
		l-1.2,0.2l-1.2,0.6L57.3,28l-0.6,1.1l-0.6,2.7l-0.2,2.8l0.2,2.7L56.7,40z M53.3,28.1l-0.7,3.2l-0.2,3.3l0.2,3.2l0.7,3.2l0.6,1.4
		l1,1.4l1.1,1.1l1.4,0.8l1.5,0.5l1.5,0.2l1.5-0.2l1.5-0.5l1.4-0.8l1.2-1.1l0.9-1.4l0.6-1.4l0.7-3.2l0.3-3.2l-0.3-3.3l-0.7-3.2
		l-0.6-1.4L66,25.3l-1.2-1.1l-1.4-0.8L61.9,23l-1.5-0.2L58.8,23l-1.5,0.5l-1.4,0.8l-1.1,1.2l-1,1.3L53.3,28.1z"/>
	<path class="st2" d="M25.4,71.7h1.6l2.6,6.4l2.5-6.4h1.7v11h-1.7v-6.4l-2.5,6.4l-2.5-6.4v6.4h-1.7V71.7 M71.6,77.9l-1.2-3.2
		l-1.2,3.2H71.6z M69.7,71.7h1.5l3.9,11h-1.8l-1.1-3.1h-3.5l-1.1,3.1h-1.8L69.7,71.7z M50.9,71.7h1.7v11h-1.7V71.7z M36.5,71.7h1.7
		v11h-1.7V71.7z M40.9,71.7h1.6l4.1,7.2v-7.2h1.7v11h-1.6l-4.1-7.3v7.3h-1.7V71.7z M55.4,71.7H57l2.6,6.4l2.5-6.4h1.7v11h-1.7v-6.4
		l-2.5,6.4L57,76.4v6.4h-1.6V71.7z M38,71.2h-1.1l1-1.8h1.7L38,71.2z"/>
	<path class="st2" d="M78.9,95.8l0.7-0.2l0.5-0.5l0.2-0.7V5.6l-0.2-0.7l-0.5-0.5l-0.7-0.2H21.1l-0.7,0.2l-0.5,0.5l-0.2,0.7v88.8
		l0.2,0.7l0.5,0.5l0.7,0.2H78.9 M78.9,98.6l1.3-0.2l1.2-0.7l1-0.9l0.6-1.2l0.2-1.3V5.6l-0.2-1.3l-0.6-1.2l-1-1l-1.2-0.6l-1.3-0.2
		H21.1l-1.3,0.2l-1.2,0.6l-1,1l-0.6,1.2l-0.2,1.3v88.8l0.2,1.3l0.6,1.2l1,0.9l1.2,0.7l1.3,0.2H78.9z"/>
</g>
</svg>
