<?xml version="1.0" encoding="utf-8"?>
<!-- Generator: Adobe Illustrator 19.2.1, SVG Export Plug-In . SVG Version: 6.00 Build 0)  -->
<svg version="1.1" id="Capa_1" xmlns="http://www.w3.org/2000/svg" xmlns:xlink="http://www.w3.org/1999/xlink" x="0px" y="0px"
	 viewBox="0 0 100 100" style="enable-background:new 0 0 100 100;" xml:space="preserve" width="100" height="100">
<style type="text/css">
	.st0{fill-rule:evenodd;clip-rule:evenodd;fill:#FCFCFD;stroke:#FFFFFF;stroke-width:0.3401;}
	.st1{fill-rule:evenodd;clip-rule:evenodd;fill:#2D2927;}
	.st2{fill-rule:evenodd;clip-rule:evenodd;fill:#C5352C;}
</style>
<g>
	<circle class="st0" cx="50" cy="50" r="50"/>
	<g>
		<path class="st1" d="M64.7,57.9l0.7,1.5l1.2,1.2l1.5,0.8l1.8,0.3l1.7-0.3l1.7-0.8l1.1-1.2l0.8-1.5L76,54l0.3-4L76,46l-0.8-3.9
			l-0.8-1.5l-1.1-1.2l-1.7-0.8L70,38.3l-1.8,0.3l-1.5,0.8l-1.2,1.2l-0.7,1.5L63.9,46l-0.3,4l0.3,4L64.7,57.9 M59.9,40.8l-1,4.5
			L58.5,50l0.4,4.7l1,4.5l0.8,2.1l1.2,1.8l1.7,1.7l1.9,1.1l2.2,0.7l2.2,0.3l2.2-0.3l2.2-0.7l1.9-1.1l1.7-1.7l1.2-1.8l1-2.1l1-4.5
			l0.3-4.7l-0.3-4.7l-1-4.5l-1-2.1L78,36.9l-1.7-1.7l-1.9-1.1l-2.2-0.7L70,33.2l-2.2,0.3l-2.2,0.7l-1.9,1.2L62,36.9l-1.2,1.8
			L59.9,40.8z"/>
		<path class="st1" d="M39.2,57.9l0.7,1.5l1.2,1.2l1.5,0.8l1.8,0.3l1.7-0.3l1.7-0.8l1.1-1.2l0.8-1.5l0.8-3.9l0.3-4l-0.3-4l-0.8-3.9
			l-0.8-1.5l-1.1-1.2l-1.7-0.8l-1.7-0.3l-1.8,0.3l-1.5,0.8l-1.2,1.2l-0.7,1.5L38.4,46l-0.3,4l0.3,4L39.2,57.9 M34.4,40.8l-1,4.5
			L33,50l0.4,4.7l1,4.5l0.8,2.1l1.2,1.8l1.7,1.7l1.9,1.1l2.2,0.7l2.2,0.3l2.2-0.3l2.2-0.7l1.9-1.1l1.7-1.7l1.2-1.8l1-2.1l1-4.5
			l0.3-4.7l-0.3-4.7l-1-4.5l-1-2.1l-1.2-1.8l-1.7-1.7l-1.9-1.1l-2.2-0.7l-2.2-0.3l-2.2,0.3L40,34.2l-1.9,1.2l-1.7,1.5l-1.2,1.8
			L34.4,40.8z"/>
		<path class="st2" d="M88,50l-0.2-4.9l-1-4.9l-1.7-4.7L82.9,31L80.2,27l-3.2-3.7l-3.7-3.4L69,17.1l-4.4-2.2l-4.7-1.7l-4.9-0.8
			L50,12.1l-4.9,0.3l-4.9,0.8l-4.7,1.7L31,17.1l-4.1,2.7L23,23.2L19.8,27L17.1,31l-2.2,4.4l-1.7,4.7l-0.8,4.9L12,50l0.3,4.9l0.8,4.9
			l1.7,4.7l2.2,4.4l2.7,4.2l3.2,3.7l3.9,3.2l4.1,2.7l4.4,2.2l4.7,1.7l4.9,0.8l4.9,0.3l4.9-0.3l4.9-0.8l4.7-1.7l4.4-2.2l4.2-2.7
			l3.7-3.2l3.2-3.7l2.7-4.2l2.2-4.4l1.7-4.7l1-4.9L88,50 M100,50l-0.3-5.6l-0.8-5.6l-1.5-5.2l-2.2-5.2l-2.7-4.9l-3.2-4.6l-3.7-4.2
			l-4.2-3.7l-4.6-3.2L71.7,5l-5.1-2l-5.4-1.7l-5.6-0.8L50,0l-5.6,0.3l-5.6,0.8l-5.3,1.7l-5.3,2l-4.9,2.7l-4.6,3.2l-4.2,3.7l-3.7,4.2
			l-3.2,4.6l-2.7,4.9l-2.2,5.2l-1.5,5.2l-0.8,5.6L0,50l0.3,5.6l0.8,5.6l1.5,5.4l2.2,5.1l2.7,4.9l3.2,4.6l3.7,4.2l4.2,3.7l4.6,3.2
			l4.9,2.7l5.3,2.2l5.3,1.5l5.6,0.8L50,100l5.6-0.3l5.6-0.8l5.4-1.5l5.1-2.2l4.9-2.7l4.6-3.2l4.2-3.7l3.7-4.2l3.2-4.6l2.7-4.9
			l2.2-5.1l1.5-5.4l0.8-5.6L100,50z"/>
		<polyline class="st1" points="24,39.8 21.2,39.8 21.2,35.8 22.7,35.6 23.9,34.8 25,33.8 29,33.8 29,66.3 24,66.3 24,39.8 		"/>
	</g>
</g>
</svg>
