<?xml version="1.0" encoding="utf-8"?>
<!-- Generator: Adobe Illustrator 19.2.1, SVG Export Plug-In . SVG Version: 6.00 Build 0)  -->
<svg version="1.1" id="Capa_1" xmlns="http://www.w3.org/2000/svg" xmlns:xlink="http://www.w3.org/1999/xlink" x="0px" y="0px"
	 viewBox="0 0 100 100" style="enable-background:new 0 0 100 100;" xml:space="preserve" width="100" height="100">
<style type="text/css">
	.st0{fill:#222220;}
	.st1{fill-rule:evenodd;clip-rule:evenodd;fill:#2B4490;}
	.st2{fill-rule:evenodd;clip-rule:evenodd;fill:#FFFFFF;}
	.st3{fill-rule:evenodd;clip-rule:evenodd;fill:#222220;}
</style>
<g>
	<path class="st0" d="M78,100h-56l-1.4-0.1l-1.3-0.6l-1.2-0.9l-0.9-1.1l-0.5-1.3l-0.2-1.4V5.4L16.9,4l0.5-1.4l0.9-1.1l1.2-0.9
		l1.3-0.5L22.1,0h56l1.4,0.2l1.3,0.5l1.1,0.9l0.9,1.1L83.1,4l0.2,1.4v89.3l-0.2,1.4l-0.5,1.3l-0.9,1.1l-1.1,0.9l-1.3,0.6L78,100
		C78,100,78,100,78,100L78,100z M78,0.1h-56l-1.4,0.2l-1.3,0.5l-1.2,0.9l-0.9,1.1l-0.5,1.4l-0.2,1.4v89.3l0.2,1.4l0.5,1.3l0.9,1.1
		l1.2,0.9l1.3,0.6l1.3,0.1h56l1.4-0.1l1.2-0.6l1.1-0.9l0.9-1.1l0.5-1.3l0.2-1.4V5.4L83.1,4l-0.5-1.4l-0.9-1.1l-1.1-0.9l-1.3-0.5
		L78,0.1L78,0.1z"/>
	<polyline class="st1" points="77.7,33.4 77.5,30.2 77.1,27.2 76.2,24.2 75,21.3 73.6,18.6 71.7,16 69.7,13.8 67.3,11.6 64.8,9.9 
		62.1,8.3 59.1,7.2 56.2,6.3 53.1,5.8 50,5.6 46.9,5.8 43.9,6.3 40.8,7.2 38,8.3 35.3,9.9 32.7,11.6 30.4,13.8 28.3,16 26.5,18.6 
		25,21.3 23.8,24.2 22.9,27.2 22.4,30.2 22.3,33.4 22.4,36.5 22.9,39.6 23.8,42.5 25,45.4 26.5,48.2 28.3,50.7 30.4,53 32.7,55.1 
		35.3,56.9 38,58.4 40.8,59.5 43.9,60.4 46.9,60.9 50,61.1 53.1,60.9 56.2,60.4 59.1,59.5 62.1,58.4 64.8,56.9 67.3,55.1 69.7,53 
		71.7,50.7 73.6,48.2 75,45.4 76.2,42.5 77.1,39.6 77.5,36.5 77.7,33.4 	"/>
	<rect x="45.5" y="35.1" class="st2" width="0.8" height="1.6"/>
	<path class="st2" d="M47.9,29.6h5.4v3h-5.4V29.6z M65.4,29.6h2.4v7.3h-2.4V29.6z M44.9,29.6h2.5v7.3h-2.5V29.6z M68.2,29.6h4.1l1,3
		h-5.1V29.6z M59.5,29.6h5.4v3h-5.4V29.6z M53.8,29.6H59v3h-5.3V29.6z M52.7,37.2l-0.2-0.8l-0.4-0.6l-0.7-0.5l-0.8-0.1l-0.8,0.1
		l-0.6,0.5l-0.5,0.6l-0.1,0.8l0.1,0.8l0.5,0.7l0.6,0.4l0.8,0.2l0.8-0.2l0.7-0.4l0.4-0.7L52.7,37.2z M72.5,37.2l-0.1-0.8l-0.5-0.6
		l-0.6-0.5l-0.8-0.1l-0.8,0.1l-0.6,0.5l-0.5,0.6l-0.1,0.8l0.1,0.8l0.5,0.7l0.6,0.4l0.8,0.2l0.8-0.2l0.6-0.4l0.5-0.7L72.5,37.2z
		 M43.4,29.6h1.1v3h-1.1V29.6z M53,37.2h15.2l0.2-0.9l0.5-0.7l0.8-0.6l0.9-0.1l0.9,0.1l0.8,0.6l0.5,0.7l0.1,0.9h0.8v-4.6L72.1,28
		h-29v9.2h5.4l0.1-0.9l0.6-0.7l0.7-0.6l0.9-0.1l0.9,0.1l0.8,0.6l0.5,0.7L53,37.2z"/>
	<path class="st2" d="M35.2,36.6v1.6h1.7v-1.6l0.8-0.8v-3.3l-0.8-0.8l-1.2-3.2h-9.3l-0.8,3.2l-0.8,0.8v3.3l0.8,0.8v1.6h1.7v-1.6
		H35.2 M36.1,31.7l-0.7-2.4H27l-0.7,2.4H36.1z"/>
	<rect x="39.6" y="8.2" class="st2" width="1.2" height="50"/>
	<path class="st3" d="M35.9,88.9l0.5-0.2l0.4-0.3l0.1-0.5l-0.2-0.7l-0.5-0.6l-0.7-0.1h-1.7v2.3H35.9 M65.9,83.7l0.1,0.2l0.5-0.2
		H65.9z M62.3,83.7l0,0.5l0.1,0.7l0.3,0.7l0.6,0.5l0.7,0.2l1.3,0.3l0.7,0.4l0.3,0.8l-0.1,0.5l-0.3,0.4l-0.5,0.3l-0.6,0.1L64,88.8
		l-0.7-0.4L63,87.7l-1.2,0.4l0.4,0.9l0.6,0.7l0.9,0.5l1,0.1l1.1-0.1l0.9-0.6l0.6-0.9l0.2-1l-0.2-1.1l-0.8-0.9l-1-0.5L64.2,85
		l-0.4-0.1l-0.2-0.3l-0.1-0.4l0.1-0.5H62.3z M56.6,83.7v1.4h2.4v1.3h-2.4v2.4h3.8v1.3h-5.2v-6.4H56.6z M51.6,83.7l0.1,0.2l0.5-0.2
		H51.6z M48.2,83.7l-0.1,0.5l0.1,0.7l0.4,0.7l0.6,0.5l0.7,0.2l1.2,0.3l0.8,0.4l0.3,0.8l-0.1,0.5l-0.3,0.4l-0.5,0.3l-0.6,0.1
		l-0.8-0.2l-0.6-0.4l-0.4-0.7l-1.2,0.4l0.4,0.9l0.7,0.7l0.9,0.5l1,0.1l1-0.1l1-0.6l0.6-0.9l0.2-1L53,86.6l-0.7-0.9l-1.1-0.5L50,85
		l-0.3-0.1l-0.3-0.3l-0.1-0.4l0.2-0.5H48.2z M40.2,83.7v3.8l0.2,1.1l0.6,0.9l0.9,0.6l1.1,0.2L44,90l1-0.6l0.6-0.9l0.2-1.1v-3.8h-1.3
		v3.8l-0.2,0.7l-0.6,0.6l-0.8,0.2l-0.7-0.2l-0.6-0.6l-0.2-0.7v-3.8H40.2z M32.6,83.7v6.4h3.3l1-0.3l0.9-0.6l0.4-1v-1l-0.5-1
		l-0.9-0.6l0.8-0.6l0.4-0.8v-0.6h-1.3l0.1,0.2l-0.2,0.7L36,85l-0.6,0.2h-1.6v-1.4H32.6z"/>
	<path class="st3" d="M44.9,71.8l0.5,0.8l0.9,0.3l0.9-0.3l0.5-0.8l0.2-1.3v-1.4l-0.2-1.4l-0.5-0.7l-0.9-0.3l-0.9,0.3l-0.5,0.7
		l-0.3,2L44.9,71.8 M51.3,65.7h1.3v7h3.8v1.4h-5.1V65.7z M59.3,71.8l0.5,0.8l0.9,0.3l0.9-0.3l0.5-0.8l0.2-1.3v-1.4l-0.2-1.4
		l-0.5-0.7l-0.9-0.3l-0.9,0.3l-0.5,0.7l-0.3,2L59.3,71.8z M36.3,72l0.4,0.9l0.6,0.7l0.9,0.4l1,0.2l1.1-0.2l0.9-0.5l0.7-0.9l0.2-1
		l-0.3-1.2l-0.8-0.9l-1-0.5l-1.3-0.2l-0.4-0.2L38,68.4l-0.1-0.3l0.2-0.6l0.4-0.5l0.5-0.2l0.9,0.2l0.5,0.7l1.3-0.3l-0.4-0.8L40.6,66
		l-0.8-0.4h-1L38,65.9l-0.8,0.5l-0.5,0.8l-0.1,1l0.1,0.7l0.4,0.6l0.5,0.5l0.7,0.3l1.3,0.3l0.7,0.4l0.3,0.8l-0.1,0.5l-0.3,0.4
		l-0.4,0.3l-0.7,0.1l-0.7-0.2l-0.6-0.5l-0.4-0.7L36.3,72z M58.2,67.5l-0.4,1.6v1.6l0.4,1.6l0.5,1l1,0.7l1.1,0.3l1.2-0.3l0.9-0.7
		l0.6-1l0.3-1.6v-1.6l-0.3-1.6l-0.6-1.1l-0.9-0.7l-1.2-0.2l-1.1,0.2l-1,0.7L58.2,67.5z M43.7,67.5l-0.3,1.6v1.6l0.3,1.6l0.6,1
		l0.9,0.7l1.2,0.3l1.2-0.3l0.9-0.7l0.6-1l0.3-1.6v-1.6l-0.3-1.6l-0.6-1.1l-0.9-0.7l-1.2-0.2l-1.2,0.2l-0.9,0.7L43.7,67.5z
		 M63.6,83.7l0-0.1l0.4-0.4l0.6-0.2l0.9,0.2l0.4,0.5h0.6l0.7-0.2l-0.4-0.8L66.2,82l-0.8-0.3l-1-0.1l-0.9,0.3l-0.7,0.6l-0.5,0.8
		l0,0.4H63.6z M55.3,83.7v-2h4.9v1.4h-3.5v0.6H55.3z M49.5,83.7l0-0.1l0.4-0.4l0.5-0.2l0.9,0.2l0.4,0.5h0.6l0.7-0.2l-0.4-0.8L52,82
		l-0.9-0.3l-0.9-0.1l-0.9,0.3l-0.7,0.6l-0.5,0.8l-0.1,0.4H49.5z M44.5,83.7h1.3v-2h-1.3V83.7z M40.2,83.7h1.3v-2h-1.3V83.7z
		 M36.6,83.7l-0.1-0.4l-0.6-0.2h-2v0.6h-1.3v-2h3.3l0.9,0.3l0.8,0.6l0.4,0.8v0.3H36.6z"/>
	<path class="st3" d="M78,98.7l1.2-0.2l1.2-0.6l0.9-0.9l0.6-1.2l0.2-1.2V5.4l-0.2-1.3l-0.6-1.1l-0.9-0.9l-1.2-0.6L78,1.4h-56
		l-1.3,0.2l-1.1,0.6l-0.9,0.9l-0.6,1.1l-0.2,1.3v89.3l0.2,1.2l0.6,1.2l0.9,0.9l1.1,0.6l1.3,0.2H78 M78,96l0.6-0.1l0.5-0.5l0.2-0.7
		V5.4l-0.2-0.7l-0.5-0.5L78,4h-56l-0.7,0.2l-0.5,0.5l-0.2,0.7v89.3l0.2,0.7l0.5,0.5l0.7,0.1H78z"/>
</g>
</svg>
